M48
;DRILL file {Pcbnew (2013-07-07 BZR 4022)-stable} date 8/19/2015 9:18:03 PM
;FORMAT={2:4/ absolute / inch / keep zeros}
FMAT,2
INCH,TZ
T1C0.025
T2C0.038
%
G90
G05
M72
T1
X085300Y-060400
T2
X077500Y-047000
X077500Y-048000
X077500Y-049000
X077500Y-050000
X077500Y-051000
X077500Y-052000
X077500Y-053000
X077500Y-054000
X077500Y-055000
X077500Y-056000
X077500Y-057000
X077500Y-058000
X077500Y-059000
X077500Y-060000
X083500Y-047000
X083500Y-048000
X083500Y-049000
X083500Y-050000
X083500Y-051000
X083500Y-052000
X083500Y-053000
X083500Y-054000
X083500Y-055000
X083500Y-056000
X083500Y-057000
X083500Y-058000
X083500Y-059000
X083500Y-060000
X087000Y-047000
X087000Y-048000
X087000Y-049000
X087000Y-050000
X087000Y-051000
X087000Y-052000
X087000Y-053000
X087000Y-054000
X087000Y-055000
X087000Y-056000
X087000Y-057000
X087000Y-058000
X087000Y-059000
X087000Y-060000
X087000Y-061000
X087000Y-062000
X087000Y-063000
X087000Y-064000
X087000Y-065000
X087000Y-066000
X088000Y-047000
X088000Y-048000
X088000Y-049000
X088000Y-050000
X088000Y-051000
X088000Y-052000
X088000Y-053000
X088000Y-054000
X088000Y-055000
X088000Y-056000
X088000Y-057000
X088000Y-058000
X088000Y-059000
X088000Y-060000
X088000Y-061000
X088000Y-062000
X088000Y-063000
X088000Y-064000
X088000Y-065000
X088000Y-066000
T0
M30
