G04 (created by PCBNEW (2013-07-07 BZR 4022)-stable) date 8/19/2015 9:17:48 PM*
%MOIN*%
G04 Gerber Fmt 3.4, Leading zero omitted, Abs format*
%FSLAX34Y34*%
G01*
G70*
G90*
G04 APERTURE LIST*
%ADD10C,0.00590551*%
%ADD11C,0.00393701*%
%ADD12R,0.065X0.065*%
%ADD13C,0.065*%
%ADD14R,0.06X0.06*%
%ADD15C,0.06*%
G04 APERTURE END LIST*
G54D10*
G54D11*
X75000Y-61000D02*
X75000Y-46000D01*
X85000Y-61000D02*
X75000Y-61000D01*
X85000Y-67000D02*
X85000Y-61000D01*
X90500Y-67000D02*
X85000Y-67000D01*
X90500Y-46000D02*
X90500Y-67000D01*
X75000Y-46000D02*
X90500Y-46000D01*
G54D12*
X77500Y-47000D03*
G54D13*
X77500Y-48000D03*
X77500Y-49000D03*
X77500Y-50000D03*
X77500Y-51000D03*
X77500Y-52000D03*
X77500Y-53000D03*
X77500Y-54000D03*
X77500Y-55000D03*
X77500Y-56000D03*
X77500Y-57000D03*
X77500Y-58000D03*
X77500Y-59000D03*
X77500Y-60000D03*
X83500Y-60000D03*
X83500Y-59000D03*
X83500Y-58000D03*
X83500Y-57000D03*
X83500Y-56000D03*
X83500Y-55000D03*
X83500Y-54000D03*
X83500Y-53000D03*
X83500Y-52000D03*
X83500Y-51000D03*
X83500Y-50000D03*
X83500Y-49000D03*
X83500Y-48000D03*
X83500Y-47000D03*
G54D14*
X88000Y-66000D03*
G54D15*
X87000Y-66000D03*
X88000Y-65000D03*
X87000Y-65000D03*
X88000Y-64000D03*
X87000Y-64000D03*
X88000Y-63000D03*
X87000Y-63000D03*
X88000Y-62000D03*
X87000Y-62000D03*
X88000Y-61000D03*
X87000Y-61000D03*
X88000Y-60000D03*
X87000Y-60000D03*
X88000Y-59000D03*
X87000Y-59000D03*
X88000Y-58000D03*
X87000Y-58000D03*
X88000Y-57000D03*
X87000Y-57000D03*
X88000Y-56000D03*
X87000Y-56000D03*
X88000Y-55000D03*
X87000Y-55000D03*
X88000Y-54000D03*
X87000Y-54000D03*
X88000Y-53000D03*
X87000Y-53000D03*
X88000Y-52000D03*
X87000Y-52000D03*
X88000Y-51000D03*
X87000Y-51000D03*
X88000Y-50000D03*
X87000Y-50000D03*
X88000Y-49000D03*
X87000Y-49000D03*
X88000Y-48000D03*
X87000Y-48000D03*
X88000Y-47000D03*
X87000Y-47000D03*
M02*
