G04 (created by PCBNEW (2013-07-07 BZR 4022)-stable) date 5/10/2015 2:36:51 PM*
%MOIN*%
G04 Gerber Fmt 3.4, Leading zero omitted, Abs format*
%FSLAX34Y34*%
G01*
G70*
G90*
G04 APERTURE LIST*
%ADD10C,0.006*%
%ADD11C,0.01*%
%ADD12C,0.035*%
%ADD13R,0.0472441X0.0354331*%
%ADD14R,0.0354331X0.0472441*%
%ADD15R,0.0354331X0.0314961*%
%ADD16R,0.216535X0.0787402*%
%ADD17R,0.023622X0.0610236*%
%ADD18R,0.065X0.065*%
%ADD19C,0.065*%
%ADD20R,0.0610236X0.023622*%
%ADD21R,0.055X0.055*%
%ADD22C,0.055*%
%ADD23R,0.1X0.14*%
%ADD24R,0.14X0.1*%
%ADD25R,0.05X0.0165*%
%ADD26R,0.0354331X0.0165354*%
%ADD27R,0.0433071X0.0492126*%
%ADD28R,0.0531496X0.110236*%
%ADD29R,0.110236X0.0531496*%
%ADD30R,0.0610236X0.0531496*%
%ADD31R,0.0531496X0.0610236*%
%ADD32R,0.0452756X0.0433071*%
%ADD33R,0.0433071X0.0452756*%
%ADD34R,0.0511811X0.015748*%
%ADD35R,0.0393701X0.0472441*%
%ADD36R,0.0314961X0.0314961*%
%ADD37C,0.224409*%
G04 APERTURE END LIST*
G54D10*
G54D11*
X38000Y-28000D02*
X73000Y-28000D01*
X38000Y-55000D02*
X38000Y-28000D01*
X73000Y-55000D02*
X38000Y-55000D01*
X73000Y-28000D02*
X73000Y-55000D01*
G54D12*
X55800Y-49850D03*
X55800Y-49400D03*
X55800Y-50300D03*
X55800Y-50750D03*
X55800Y-51650D03*
X55800Y-51200D03*
X56300Y-51200D03*
X56300Y-51650D03*
X56300Y-50750D03*
X56300Y-50300D03*
X56400Y-47950D03*
X56400Y-47050D03*
X56400Y-47500D03*
X56400Y-46150D03*
X56400Y-45700D03*
X56400Y-46600D03*
X56900Y-45150D03*
X42700Y-48800D03*
X42700Y-49300D03*
X42700Y-49800D03*
X42200Y-49800D03*
X42200Y-49300D03*
X42200Y-48800D03*
X56600Y-36700D03*
X56600Y-36200D03*
X57950Y-31750D03*
X57250Y-31750D03*
X50650Y-37100D03*
X56100Y-38000D03*
X56900Y-39850D03*
X56900Y-39150D03*
X50900Y-33100D03*
X50900Y-33750D03*
X52050Y-32100D03*
X51450Y-32100D03*
X50900Y-32500D03*
X50900Y-30600D03*
X50900Y-31200D03*
X50900Y-31850D03*
G54D13*
X62900Y-38486D03*
X62900Y-39313D03*
G54D14*
X65613Y-41800D03*
X64786Y-41800D03*
X65613Y-46600D03*
X64786Y-46600D03*
X58613Y-52700D03*
X57786Y-52700D03*
X64986Y-34400D03*
X65813Y-34400D03*
X64986Y-29800D03*
X65813Y-29800D03*
G54D13*
X67100Y-49186D03*
X67100Y-50013D03*
X63250Y-51613D03*
X63250Y-50786D03*
X62900Y-37713D03*
X62900Y-36886D03*
X67100Y-37713D03*
X67100Y-36886D03*
X63800Y-39313D03*
X63800Y-38486D03*
X63800Y-36886D03*
X63800Y-37713D03*
X67100Y-51613D03*
X67100Y-50786D03*
X63250Y-49186D03*
X63250Y-50013D03*
G54D14*
X60063Y-49700D03*
X59236Y-49700D03*
G54D13*
X54000Y-52686D03*
X54000Y-53513D03*
G54D14*
X52736Y-43950D03*
X53563Y-43950D03*
X52736Y-44650D03*
X53563Y-44650D03*
X52736Y-45350D03*
X53563Y-45350D03*
X52736Y-46050D03*
X53563Y-46050D03*
X40386Y-47300D03*
X41213Y-47300D03*
G54D13*
X67100Y-38486D03*
X67100Y-39313D03*
X52200Y-52686D03*
X52200Y-53513D03*
X46600Y-38013D03*
X46600Y-37186D03*
G54D15*
X47965Y-32300D03*
X48634Y-32300D03*
X46665Y-32300D03*
X47334Y-32300D03*
X47965Y-31500D03*
X48634Y-31500D03*
G54D16*
X53429Y-41800D03*
X57170Y-41800D03*
G54D17*
X65450Y-51462D03*
X65950Y-51462D03*
X64950Y-51462D03*
X64450Y-51462D03*
X64450Y-49337D03*
X64950Y-49337D03*
X65950Y-49337D03*
X65450Y-49337D03*
X65150Y-37037D03*
X64650Y-37037D03*
X65650Y-37037D03*
X66150Y-37037D03*
X66150Y-39162D03*
X65650Y-39162D03*
X64650Y-39162D03*
X65150Y-39162D03*
X57800Y-51762D03*
X58300Y-51762D03*
X57300Y-51762D03*
X56800Y-51762D03*
X56800Y-49637D03*
X57300Y-49637D03*
X58300Y-49637D03*
X57800Y-49637D03*
G54D18*
X45400Y-51300D03*
G54D19*
X45400Y-50300D03*
X45400Y-49300D03*
X45400Y-48300D03*
X45400Y-47300D03*
X45400Y-46300D03*
X45400Y-45300D03*
X45400Y-44300D03*
X45400Y-43300D03*
X45400Y-42300D03*
X45400Y-41300D03*
X45400Y-40300D03*
X45400Y-39300D03*
X45400Y-38300D03*
X44400Y-38300D03*
X43400Y-38300D03*
X42400Y-38300D03*
X41400Y-38300D03*
X40400Y-38300D03*
X39400Y-38300D03*
X39400Y-39300D03*
X39400Y-40300D03*
X39400Y-41300D03*
X39400Y-42300D03*
X39400Y-43300D03*
X39400Y-44300D03*
X39400Y-45300D03*
X39400Y-46300D03*
X39400Y-47300D03*
X39400Y-48300D03*
X39400Y-49300D03*
X39400Y-50300D03*
X39400Y-51300D03*
G54D20*
X48337Y-48250D03*
X48337Y-48750D03*
X48337Y-49250D03*
X48337Y-49750D03*
X50462Y-49750D03*
X50462Y-49250D03*
X50462Y-48750D03*
X50462Y-48250D03*
X50462Y-45650D03*
X50462Y-45150D03*
X50462Y-44650D03*
X50462Y-44150D03*
X50462Y-43650D03*
X50462Y-43150D03*
X50462Y-42650D03*
X50462Y-42150D03*
X48337Y-42150D03*
X48337Y-42650D03*
X48337Y-43150D03*
X48337Y-43650D03*
X48337Y-44150D03*
X48337Y-44650D03*
X48337Y-45150D03*
X48337Y-45650D03*
G54D21*
X42800Y-29500D03*
G54D22*
X43800Y-29500D03*
X44800Y-29500D03*
G54D21*
X71500Y-38500D03*
G54D22*
X71500Y-37500D03*
X71500Y-36500D03*
G54D21*
X71500Y-31600D03*
G54D22*
X71500Y-32600D03*
X71500Y-33600D03*
G54D21*
X71500Y-43500D03*
G54D22*
X71500Y-44500D03*
X71500Y-45500D03*
G54D21*
X71500Y-51000D03*
G54D22*
X71500Y-50000D03*
X71500Y-49000D03*
G54D21*
X47000Y-29500D03*
G54D22*
X48000Y-29500D03*
G54D21*
X51600Y-29500D03*
G54D22*
X52600Y-29500D03*
G54D21*
X69000Y-34092D03*
G54D22*
X69000Y-33107D03*
G54D21*
X69000Y-52492D03*
G54D22*
X69000Y-51507D03*
G54D21*
X69000Y-48507D03*
G54D22*
X69000Y-49492D03*
G54D21*
X69000Y-43192D03*
G54D22*
X69000Y-42207D03*
G54D21*
X69000Y-45107D03*
G54D22*
X69000Y-46092D03*
G54D21*
X69000Y-30107D03*
G54D22*
X69000Y-31092D03*
G54D21*
X69000Y-39107D03*
G54D22*
X69000Y-40092D03*
G54D21*
X69000Y-37092D03*
G54D22*
X69000Y-36107D03*
G54D23*
X39700Y-35000D03*
X43700Y-35000D03*
G54D24*
X53500Y-36900D03*
X53500Y-32900D03*
G54D25*
X44950Y-32825D03*
X44950Y-33075D03*
X44950Y-33325D03*
X44950Y-33575D03*
X44950Y-33825D03*
X44950Y-34075D03*
X44950Y-34325D03*
X44950Y-34575D03*
X47050Y-34575D03*
X47050Y-34325D03*
X47050Y-34075D03*
X47050Y-33825D03*
X47050Y-33575D03*
X47050Y-33325D03*
X47050Y-33075D03*
X47050Y-32825D03*
G54D26*
X52253Y-38816D03*
X52253Y-39072D03*
X52253Y-39327D03*
X52253Y-39583D03*
X53946Y-39583D03*
X53946Y-39327D03*
X53946Y-39072D03*
X53946Y-38816D03*
G54D27*
X54000Y-50937D03*
X54000Y-51862D03*
X52200Y-50937D03*
X52200Y-51862D03*
G54D28*
X51670Y-31000D03*
X52929Y-31000D03*
G54D29*
X50650Y-39029D03*
X50650Y-37770D03*
X57600Y-33629D03*
X57600Y-32370D03*
G54D28*
X54920Y-39500D03*
X56179Y-39500D03*
G54D29*
X61600Y-44329D03*
X61600Y-43070D03*
G54D28*
X58129Y-38000D03*
X56870Y-38000D03*
G54D29*
X61600Y-31129D03*
X61600Y-29870D03*
G54D30*
X67100Y-34193D03*
X67100Y-33406D03*
X59700Y-45706D03*
X59700Y-46493D03*
X59700Y-48093D03*
X59700Y-47306D03*
G54D31*
X65593Y-52800D03*
X64806Y-52800D03*
X65593Y-48000D03*
X64806Y-48000D03*
X58093Y-36400D03*
X57306Y-36400D03*
G54D30*
X67100Y-30793D03*
X67100Y-30006D03*
G54D32*
X57404Y-48450D03*
X56695Y-48450D03*
X48354Y-47600D03*
X47645Y-47600D03*
G54D33*
X49400Y-31545D03*
X49400Y-32254D03*
G54D32*
X55204Y-43300D03*
X54495Y-43300D03*
X48354Y-46400D03*
X47645Y-46400D03*
X50445Y-46300D03*
X51154Y-46300D03*
X50445Y-47600D03*
X51154Y-47600D03*
G54D33*
X62550Y-49954D03*
X62550Y-49245D03*
X67100Y-45445D03*
X67100Y-46154D03*
X66000Y-44554D03*
X66000Y-43845D03*
X67100Y-42954D03*
X67100Y-42245D03*
G54D32*
X65045Y-35800D03*
X65754Y-35800D03*
G54D33*
X64400Y-44554D03*
X64400Y-43845D03*
X62550Y-50845D03*
X62550Y-51554D03*
G54D32*
X65045Y-40400D03*
X65754Y-40400D03*
X63754Y-29800D03*
X63045Y-29800D03*
X56045Y-43300D03*
X56754Y-43300D03*
G54D33*
X64600Y-31745D03*
X64600Y-32454D03*
X66200Y-31745D03*
X66200Y-32454D03*
G54D32*
X63045Y-34400D03*
X63754Y-34400D03*
G54D34*
X57600Y-45772D03*
X57600Y-45516D03*
X57600Y-45260D03*
X57600Y-45004D03*
X57600Y-44748D03*
X57600Y-44492D03*
X57600Y-44236D03*
X57600Y-46027D03*
X57600Y-46283D03*
X57600Y-46539D03*
X57600Y-46795D03*
X57600Y-47051D03*
X57600Y-47307D03*
X57600Y-47563D03*
X55199Y-47563D03*
X55199Y-47307D03*
X55199Y-47051D03*
X55199Y-46795D03*
X55199Y-46539D03*
X55199Y-46283D03*
X55199Y-46027D03*
X55199Y-44236D03*
X55199Y-44492D03*
X55199Y-44748D03*
X55199Y-45004D03*
X55199Y-45260D03*
X55199Y-45516D03*
X55199Y-45772D03*
G54D35*
X49733Y-35300D03*
X48866Y-35300D03*
X43833Y-31200D03*
X42966Y-31200D03*
G54D36*
X60985Y-31900D03*
X61614Y-31900D03*
X60985Y-45100D03*
X61614Y-45100D03*
G54D12*
X48300Y-40700D03*
X48300Y-40200D03*
X48300Y-41200D03*
X50500Y-40200D03*
X50500Y-40700D03*
X50500Y-41200D03*
X45800Y-33600D03*
X45800Y-34200D03*
X45800Y-34800D03*
X44600Y-36000D03*
X45800Y-33000D03*
X45800Y-32400D03*
X45200Y-35200D03*
X44600Y-35200D03*
X45200Y-36000D03*
X45800Y-35400D03*
X45800Y-31800D03*
X45800Y-36000D03*
X48700Y-33200D03*
X48350Y-33600D03*
X49000Y-33600D03*
X47750Y-34450D03*
X48300Y-35050D03*
X48300Y-35650D03*
X48300Y-34450D03*
X50400Y-35600D03*
X50400Y-35100D03*
X49800Y-34600D03*
X50400Y-34600D03*
X49800Y-36100D03*
X50400Y-36100D03*
X46000Y-37100D03*
X46600Y-36700D03*
X47200Y-37100D03*
X48650Y-47000D03*
X48100Y-47000D03*
G54D37*
X71500Y-29500D03*
X71500Y-53500D03*
X39500Y-53500D03*
X39500Y-29500D03*
G54D12*
X39100Y-33200D03*
X39100Y-32700D03*
X42300Y-32100D03*
X42800Y-32100D03*
X43300Y-32100D03*
X42300Y-31100D03*
X42300Y-31600D03*
X53700Y-30600D03*
X53700Y-31400D03*
X54900Y-38550D03*
X54900Y-38000D03*
X51650Y-38700D03*
X51650Y-39200D03*
X52100Y-40050D03*
X52550Y-40050D03*
X50100Y-46950D03*
X50650Y-46950D03*
X52850Y-46850D03*
X53400Y-47400D03*
X52850Y-47400D03*
X56550Y-33650D03*
X56050Y-33650D03*
X58700Y-33650D03*
X57700Y-37050D03*
X58250Y-37050D03*
X58800Y-37050D03*
X46100Y-38600D03*
X46600Y-38600D03*
X47100Y-38600D03*
X41700Y-48800D03*
X41700Y-49300D03*
X41700Y-49800D03*
X54650Y-46400D03*
X56900Y-44250D03*
X56900Y-44700D03*
X52200Y-50350D03*
X50700Y-50850D03*
X60500Y-31900D03*
X61000Y-37750D03*
X60500Y-45100D03*
X60500Y-50900D03*
X58300Y-51100D03*
X59050Y-48950D03*
X54000Y-50400D03*
X52550Y-43150D03*
X54300Y-45850D03*
X51100Y-43150D03*
X67700Y-49186D03*
X67700Y-51613D03*
X63850Y-51200D03*
X63850Y-49600D03*
X65450Y-50050D03*
X62200Y-52700D03*
X65450Y-44550D03*
X67700Y-45400D03*
X67700Y-43000D03*
X63850Y-43450D03*
X60900Y-45700D03*
X63850Y-45000D03*
X60900Y-46450D03*
X68050Y-36950D03*
X68050Y-39250D03*
X60050Y-49100D03*
X62000Y-35150D03*
X65150Y-38450D03*
X65150Y-31750D03*
X60750Y-33500D03*
X62300Y-32500D03*
X67950Y-33450D03*
X67950Y-30700D03*
X51350Y-49250D03*
X54350Y-48750D03*
X51350Y-48750D03*
X57400Y-49000D03*
X51100Y-45150D03*
X51100Y-44650D03*
X51100Y-44150D03*
X51100Y-43650D03*
X55200Y-48100D03*
X51100Y-42650D03*
X48200Y-50850D03*
X47600Y-45150D03*
X47600Y-44650D03*
X46300Y-43000D03*
X47600Y-42650D03*
X41200Y-46500D03*
X47600Y-43113D03*
X47600Y-44200D03*
X47486Y-49486D03*
X47600Y-43650D03*
X47500Y-48750D03*
X47100Y-46400D03*
X47100Y-47600D03*
X47650Y-50050D03*
X47800Y-42150D03*
X70100Y-47900D03*
X70100Y-46600D03*
X59000Y-41500D03*
X61600Y-29250D03*
X63050Y-29250D03*
X67100Y-29400D03*
X67100Y-34800D03*
X65650Y-32450D03*
X62500Y-34400D03*
X62500Y-35800D03*
X61600Y-41000D03*
X63050Y-40950D03*
X65650Y-37750D03*
X67100Y-35400D03*
X67100Y-40800D03*
X67100Y-41700D03*
X67100Y-46700D03*
X64950Y-43845D03*
X62600Y-45900D03*
X62600Y-42500D03*
X61600Y-42500D03*
X70200Y-45900D03*
X70200Y-48700D03*
X67650Y-52350D03*
X67100Y-52900D03*
X67100Y-47900D03*
X67600Y-48450D03*
X62550Y-52100D03*
X62550Y-48700D03*
X61600Y-48250D03*
X64950Y-50754D03*
X54000Y-54050D03*
X52200Y-54050D03*
X56050Y-43800D03*
X56050Y-42800D03*
X55200Y-43800D03*
X55200Y-42800D03*
X51350Y-49800D03*
X51150Y-48100D03*
X51150Y-45800D03*
X51050Y-42150D03*
X48000Y-32750D03*
X44900Y-31650D03*
X64950Y-50050D03*
X65800Y-48650D03*
X65800Y-52150D03*
X64950Y-44550D03*
X65800Y-45950D03*
X65750Y-42450D03*
X65650Y-38450D03*
X65900Y-36350D03*
X65900Y-39850D03*
X63750Y-39850D03*
X63750Y-36350D03*
X65900Y-33850D03*
X65950Y-30350D03*
X63750Y-30350D03*
X63750Y-33850D03*
X65650Y-31750D03*
X70750Y-50000D03*
X58300Y-45700D03*
X58250Y-46150D03*
X47300Y-31850D03*
X57450Y-35700D03*
X53000Y-39350D03*
M02*
