G04 (created by PCBNEW (2013-07-07 BZR 4022)-stable) date 5/10/2015 2:36:51 PM*
%MOIN*%
G04 Gerber Fmt 3.4, Leading zero omitted, Abs format*
%FSLAX34Y34*%
G01*
G70*
G90*
G04 APERTURE LIST*
%ADD10C,0.006*%
%ADD11C,0.012*%
%ADD12C,0.01*%
%ADD13C,0.00590551*%
%ADD14C,0.0106*%
%ADD15C,0.0107*%
G04 APERTURE END LIST*
G54D10*
G54D11*
X70600Y-48042D02*
X70600Y-47442D01*
X70885Y-48042D02*
X70885Y-47442D01*
X71228Y-48042D01*
X71228Y-47442D01*
X71942Y-47871D02*
X72228Y-47871D01*
X71885Y-48042D02*
X72085Y-47442D01*
X72285Y-48042D01*
X70657Y-42442D02*
X70657Y-41842D01*
X70942Y-42442D02*
X70942Y-41842D01*
X71285Y-42442D01*
X71285Y-41842D01*
X72228Y-42128D02*
X72314Y-42157D01*
X72342Y-42185D01*
X72371Y-42242D01*
X72371Y-42328D01*
X72342Y-42385D01*
X72314Y-42414D01*
X72257Y-42442D01*
X72028Y-42442D01*
X72028Y-41842D01*
X72228Y-41842D01*
X72285Y-41871D01*
X72314Y-41900D01*
X72342Y-41957D01*
X72342Y-42014D01*
X72314Y-42071D01*
X72285Y-42100D01*
X72228Y-42128D01*
X72028Y-42128D01*
X70642Y-39442D02*
X70757Y-39442D01*
X70814Y-39471D01*
X70871Y-39528D01*
X70900Y-39642D01*
X70900Y-39842D01*
X70871Y-39957D01*
X70814Y-40014D01*
X70757Y-40042D01*
X70642Y-40042D01*
X70585Y-40014D01*
X70528Y-39957D01*
X70500Y-39842D01*
X70500Y-39642D01*
X70528Y-39528D01*
X70585Y-39471D01*
X70642Y-39442D01*
X71157Y-39442D02*
X71157Y-39928D01*
X71185Y-39985D01*
X71214Y-40014D01*
X71271Y-40042D01*
X71385Y-40042D01*
X71442Y-40014D01*
X71471Y-39985D01*
X71500Y-39928D01*
X71500Y-39442D01*
X71700Y-39442D02*
X72042Y-39442D01*
X71871Y-40042D02*
X71871Y-39442D01*
X72214Y-39871D02*
X72500Y-39871D01*
X72157Y-40042D02*
X72357Y-39442D01*
X72557Y-40042D01*
X70700Y-34342D02*
X70814Y-34342D01*
X70871Y-34371D01*
X70928Y-34428D01*
X70957Y-34542D01*
X70957Y-34742D01*
X70928Y-34857D01*
X70871Y-34914D01*
X70814Y-34942D01*
X70700Y-34942D01*
X70642Y-34914D01*
X70585Y-34857D01*
X70557Y-34742D01*
X70557Y-34542D01*
X70585Y-34428D01*
X70642Y-34371D01*
X70700Y-34342D01*
X71214Y-34342D02*
X71214Y-34828D01*
X71242Y-34885D01*
X71271Y-34914D01*
X71328Y-34942D01*
X71442Y-34942D01*
X71500Y-34914D01*
X71528Y-34885D01*
X71557Y-34828D01*
X71557Y-34342D01*
X71757Y-34342D02*
X72100Y-34342D01*
X71928Y-34942D02*
X71928Y-34342D01*
X72500Y-34628D02*
X72585Y-34657D01*
X72614Y-34685D01*
X72642Y-34742D01*
X72642Y-34828D01*
X72614Y-34885D01*
X72585Y-34914D01*
X72528Y-34942D01*
X72300Y-34942D01*
X72300Y-34342D01*
X72500Y-34342D01*
X72557Y-34371D01*
X72585Y-34400D01*
X72614Y-34457D01*
X72614Y-34514D01*
X72585Y-34571D01*
X72557Y-34600D01*
X72500Y-34628D01*
X72300Y-34628D01*
X72241Y-31524D02*
X72698Y-31524D01*
X72470Y-31752D02*
X72470Y-31295D01*
X72241Y-32604D02*
X72698Y-32604D01*
X72597Y-33321D02*
X72540Y-33292D01*
X72454Y-33292D01*
X72368Y-33321D01*
X72311Y-33378D01*
X72282Y-33435D01*
X72254Y-33550D01*
X72254Y-33635D01*
X72282Y-33750D01*
X72311Y-33807D01*
X72368Y-33864D01*
X72454Y-33892D01*
X72511Y-33892D01*
X72597Y-33864D01*
X72625Y-33835D01*
X72625Y-33635D01*
X72511Y-33635D01*
X43582Y-46702D02*
X43582Y-46988D01*
X42982Y-46988D01*
X43582Y-46502D02*
X43182Y-46502D01*
X42982Y-46502D02*
X43011Y-46531D01*
X43040Y-46502D01*
X43011Y-46474D01*
X42982Y-46502D01*
X43040Y-46502D01*
X43554Y-45960D02*
X43582Y-46017D01*
X43582Y-46131D01*
X43554Y-46188D01*
X43525Y-46217D01*
X43468Y-46245D01*
X43297Y-46245D01*
X43240Y-46217D01*
X43211Y-46188D01*
X43182Y-46131D01*
X43182Y-46017D01*
X43211Y-45960D01*
X43554Y-45474D02*
X43582Y-45531D01*
X43582Y-45645D01*
X43554Y-45702D01*
X43497Y-45731D01*
X43268Y-45731D01*
X43211Y-45702D01*
X43182Y-45645D01*
X43182Y-45531D01*
X43211Y-45474D01*
X43268Y-45445D01*
X43325Y-45445D01*
X43382Y-45731D01*
X43182Y-45188D02*
X43582Y-45188D01*
X43240Y-45188D02*
X43211Y-45159D01*
X43182Y-45102D01*
X43182Y-45017D01*
X43211Y-44959D01*
X43268Y-44931D01*
X43582Y-44931D01*
X43554Y-44674D02*
X43582Y-44617D01*
X43582Y-44502D01*
X43554Y-44445D01*
X43497Y-44417D01*
X43468Y-44417D01*
X43411Y-44445D01*
X43382Y-44502D01*
X43382Y-44588D01*
X43354Y-44645D01*
X43297Y-44674D01*
X43268Y-44674D01*
X43211Y-44645D01*
X43182Y-44588D01*
X43182Y-44502D01*
X43211Y-44445D01*
X43554Y-43931D02*
X43582Y-43988D01*
X43582Y-44102D01*
X43554Y-44160D01*
X43497Y-44188D01*
X43268Y-44188D01*
X43211Y-44160D01*
X43182Y-44102D01*
X43182Y-43988D01*
X43211Y-43931D01*
X43268Y-43902D01*
X43325Y-43902D01*
X43382Y-44188D01*
X43582Y-43388D02*
X42982Y-43388D01*
X43554Y-43388D02*
X43582Y-43445D01*
X43582Y-43560D01*
X43554Y-43617D01*
X43525Y-43645D01*
X43468Y-43674D01*
X43297Y-43674D01*
X43240Y-43645D01*
X43211Y-43617D01*
X43182Y-43560D01*
X43182Y-43445D01*
X43211Y-43388D01*
X43182Y-42388D02*
X43582Y-42388D01*
X43182Y-42645D02*
X43497Y-42645D01*
X43554Y-42617D01*
X43582Y-42560D01*
X43582Y-42474D01*
X43554Y-42417D01*
X43525Y-42388D01*
X43182Y-42102D02*
X43582Y-42102D01*
X43240Y-42102D02*
X43211Y-42074D01*
X43182Y-42017D01*
X43182Y-41931D01*
X43211Y-41874D01*
X43268Y-41845D01*
X43582Y-41845D01*
X43582Y-41302D02*
X42982Y-41302D01*
X43554Y-41302D02*
X43582Y-41360D01*
X43582Y-41474D01*
X43554Y-41531D01*
X43525Y-41560D01*
X43468Y-41588D01*
X43297Y-41588D01*
X43240Y-41560D01*
X43211Y-41531D01*
X43182Y-41474D01*
X43182Y-41360D01*
X43211Y-41302D01*
X43554Y-40788D02*
X43582Y-40845D01*
X43582Y-40960D01*
X43554Y-41017D01*
X43497Y-41045D01*
X43268Y-41045D01*
X43211Y-41017D01*
X43182Y-40960D01*
X43182Y-40845D01*
X43211Y-40788D01*
X43268Y-40760D01*
X43325Y-40760D01*
X43382Y-41045D01*
X43582Y-40502D02*
X43182Y-40502D01*
X43297Y-40502D02*
X43240Y-40474D01*
X43211Y-40445D01*
X43182Y-40388D01*
X43182Y-40331D01*
X43525Y-40131D02*
X43554Y-40102D01*
X43582Y-40131D01*
X43554Y-40159D01*
X43525Y-40131D01*
X43582Y-40131D01*
X43211Y-40131D02*
X43240Y-40102D01*
X43268Y-40131D01*
X43240Y-40159D01*
X43211Y-40131D01*
X43268Y-40131D01*
X44485Y-47674D02*
X44514Y-47702D01*
X44542Y-47788D01*
X44542Y-47845D01*
X44514Y-47931D01*
X44457Y-47988D01*
X44400Y-48017D01*
X44285Y-48045D01*
X44200Y-48045D01*
X44085Y-48017D01*
X44028Y-47988D01*
X43971Y-47931D01*
X43942Y-47845D01*
X43942Y-47788D01*
X43971Y-47702D01*
X44000Y-47674D01*
X44485Y-47074D02*
X44514Y-47102D01*
X44542Y-47188D01*
X44542Y-47245D01*
X44514Y-47331D01*
X44457Y-47388D01*
X44400Y-47417D01*
X44285Y-47445D01*
X44200Y-47445D01*
X44085Y-47417D01*
X44028Y-47388D01*
X43971Y-47331D01*
X43942Y-47245D01*
X43942Y-47188D01*
X43971Y-47102D01*
X44000Y-47074D01*
X44314Y-46817D02*
X44314Y-46360D01*
X44228Y-45874D02*
X44257Y-45788D01*
X44285Y-45760D01*
X44342Y-45731D01*
X44428Y-45731D01*
X44485Y-45760D01*
X44514Y-45788D01*
X44542Y-45845D01*
X44542Y-46074D01*
X43942Y-46074D01*
X43942Y-45874D01*
X43971Y-45817D01*
X44000Y-45788D01*
X44057Y-45760D01*
X44114Y-45760D01*
X44171Y-45788D01*
X44200Y-45817D01*
X44228Y-45874D01*
X44228Y-46074D01*
X44257Y-45360D02*
X44542Y-45360D01*
X43942Y-45560D02*
X44257Y-45360D01*
X43942Y-45160D01*
X44314Y-44960D02*
X44314Y-44502D01*
X44514Y-44245D02*
X44542Y-44160D01*
X44542Y-44017D01*
X44514Y-43960D01*
X44485Y-43931D01*
X44428Y-43902D01*
X44371Y-43902D01*
X44314Y-43931D01*
X44285Y-43960D01*
X44257Y-44017D01*
X44228Y-44131D01*
X44200Y-44188D01*
X44171Y-44217D01*
X44114Y-44245D01*
X44057Y-44245D01*
X44000Y-44217D01*
X43971Y-44188D01*
X43942Y-44131D01*
X43942Y-43988D01*
X43971Y-43902D01*
X44371Y-43674D02*
X44371Y-43388D01*
X44542Y-43731D02*
X43942Y-43531D01*
X44542Y-43331D01*
X44314Y-43131D02*
X44314Y-42674D01*
X44542Y-42388D02*
X43942Y-42388D01*
X44542Y-42045D01*
X43942Y-42045D01*
X44485Y-41417D02*
X44514Y-41445D01*
X44542Y-41531D01*
X44542Y-41588D01*
X44514Y-41674D01*
X44457Y-41731D01*
X44400Y-41760D01*
X44285Y-41788D01*
X44200Y-41788D01*
X44085Y-41760D01*
X44028Y-41731D01*
X43971Y-41674D01*
X43942Y-41588D01*
X43942Y-41531D01*
X43971Y-41445D01*
X44000Y-41417D01*
X44142Y-40760D02*
X44542Y-40617D01*
X44142Y-40474D01*
X44142Y-39988D02*
X44542Y-39988D01*
X43914Y-40131D02*
X44342Y-40274D01*
X44342Y-39902D01*
X44485Y-39674D02*
X44514Y-39645D01*
X44542Y-39674D01*
X44514Y-39702D01*
X44485Y-39674D01*
X44542Y-39674D01*
X43942Y-39274D02*
X43942Y-39217D01*
X43971Y-39159D01*
X44000Y-39131D01*
X44057Y-39102D01*
X44171Y-39074D01*
X44314Y-39074D01*
X44428Y-39102D01*
X44485Y-39131D01*
X44514Y-39159D01*
X44542Y-39217D01*
X44542Y-39274D01*
X44514Y-39331D01*
X44485Y-39359D01*
X44428Y-39388D01*
X44314Y-39417D01*
X44171Y-39417D01*
X44057Y-39388D01*
X44000Y-39359D01*
X43971Y-39331D01*
X43942Y-39274D01*
X41901Y-46042D02*
X41872Y-46071D01*
X41787Y-46128D01*
X41730Y-46157D01*
X41644Y-46185D01*
X41501Y-46214D01*
X41387Y-46214D01*
X41244Y-46185D01*
X41158Y-46157D01*
X41101Y-46128D01*
X41015Y-46071D01*
X40987Y-46042D01*
X41644Y-45557D02*
X41672Y-45614D01*
X41672Y-45728D01*
X41644Y-45785D01*
X41615Y-45814D01*
X41558Y-45842D01*
X41387Y-45842D01*
X41330Y-45814D01*
X41301Y-45785D01*
X41272Y-45728D01*
X41272Y-45614D01*
X41301Y-45557D01*
X41901Y-45357D02*
X41872Y-45328D01*
X41787Y-45271D01*
X41730Y-45242D01*
X41644Y-45214D01*
X41501Y-45185D01*
X41387Y-45185D01*
X41244Y-45214D01*
X41158Y-45242D01*
X41101Y-45271D01*
X41015Y-45328D01*
X40987Y-45357D01*
X41130Y-44471D02*
X41101Y-44442D01*
X41072Y-44385D01*
X41072Y-44242D01*
X41101Y-44185D01*
X41130Y-44157D01*
X41187Y-44128D01*
X41244Y-44128D01*
X41330Y-44157D01*
X41672Y-44500D01*
X41672Y-44128D01*
X41072Y-43757D02*
X41072Y-43700D01*
X41101Y-43642D01*
X41130Y-43614D01*
X41187Y-43585D01*
X41301Y-43557D01*
X41444Y-43557D01*
X41558Y-43585D01*
X41615Y-43614D01*
X41644Y-43642D01*
X41672Y-43700D01*
X41672Y-43757D01*
X41644Y-43814D01*
X41615Y-43842D01*
X41558Y-43871D01*
X41444Y-43900D01*
X41301Y-43900D01*
X41187Y-43871D01*
X41130Y-43842D01*
X41101Y-43814D01*
X41072Y-43757D01*
X41672Y-42985D02*
X41672Y-43328D01*
X41672Y-43157D02*
X41072Y-43157D01*
X41158Y-43214D01*
X41215Y-43271D01*
X41244Y-43328D01*
X41072Y-42442D02*
X41072Y-42728D01*
X41358Y-42757D01*
X41330Y-42728D01*
X41301Y-42671D01*
X41301Y-42528D01*
X41330Y-42471D01*
X41358Y-42442D01*
X41415Y-42414D01*
X41558Y-42414D01*
X41615Y-42442D01*
X41644Y-42471D01*
X41672Y-42528D01*
X41672Y-42671D01*
X41644Y-42728D01*
X41615Y-42757D01*
X41672Y-41699D02*
X41072Y-41699D01*
X41301Y-41699D02*
X41272Y-41642D01*
X41272Y-41528D01*
X41301Y-41471D01*
X41330Y-41442D01*
X41387Y-41414D01*
X41558Y-41414D01*
X41615Y-41442D01*
X41644Y-41471D01*
X41672Y-41528D01*
X41672Y-41642D01*
X41644Y-41699D01*
X41272Y-41214D02*
X41672Y-41071D01*
X41272Y-40928D02*
X41672Y-41071D01*
X41815Y-41128D01*
X41844Y-41157D01*
X41872Y-41214D01*
X42632Y-47885D02*
X42347Y-48085D01*
X42632Y-48228D02*
X42032Y-48228D01*
X42032Y-48000D01*
X42061Y-47942D01*
X42090Y-47914D01*
X42147Y-47885D01*
X42232Y-47885D01*
X42290Y-47914D01*
X42318Y-47942D01*
X42347Y-48000D01*
X42347Y-48228D01*
X42318Y-47428D02*
X42318Y-47628D01*
X42632Y-47628D02*
X42032Y-47628D01*
X42032Y-47342D01*
X42032Y-46714D02*
X42632Y-46571D01*
X42204Y-46457D01*
X42632Y-46342D01*
X42032Y-46200D01*
X42632Y-45971D02*
X42232Y-45971D01*
X42032Y-45971D02*
X42061Y-46000D01*
X42090Y-45971D01*
X42061Y-45942D01*
X42032Y-45971D01*
X42090Y-45971D01*
X42632Y-45600D02*
X42604Y-45657D01*
X42547Y-45685D01*
X42032Y-45685D01*
X42632Y-45285D02*
X42604Y-45342D01*
X42547Y-45371D01*
X42032Y-45371D01*
X42632Y-45057D02*
X42232Y-45057D01*
X42032Y-45057D02*
X42061Y-45085D01*
X42090Y-45057D01*
X42061Y-45028D01*
X42032Y-45057D01*
X42090Y-45057D01*
X42632Y-44514D02*
X42318Y-44514D01*
X42261Y-44542D01*
X42232Y-44600D01*
X42232Y-44714D01*
X42261Y-44771D01*
X42604Y-44514D02*
X42632Y-44571D01*
X42632Y-44714D01*
X42604Y-44771D01*
X42547Y-44800D01*
X42490Y-44800D01*
X42432Y-44771D01*
X42404Y-44714D01*
X42404Y-44571D01*
X42375Y-44514D01*
X42632Y-44228D02*
X42232Y-44228D01*
X42290Y-44228D02*
X42261Y-44200D01*
X42232Y-44142D01*
X42232Y-44057D01*
X42261Y-44000D01*
X42318Y-43971D01*
X42632Y-43971D01*
X42318Y-43971D02*
X42261Y-43942D01*
X42232Y-43885D01*
X42232Y-43800D01*
X42261Y-43742D01*
X42318Y-43714D01*
X42632Y-43714D01*
X42632Y-42971D02*
X42032Y-42971D01*
X42318Y-42971D02*
X42318Y-42628D01*
X42632Y-42628D02*
X42032Y-42628D01*
X42632Y-42257D02*
X42604Y-42314D01*
X42575Y-42342D01*
X42518Y-42371D01*
X42347Y-42371D01*
X42290Y-42342D01*
X42261Y-42314D01*
X42232Y-42257D01*
X42232Y-42171D01*
X42261Y-42114D01*
X42290Y-42085D01*
X42347Y-42057D01*
X42518Y-42057D01*
X42575Y-42085D01*
X42604Y-42114D01*
X42632Y-42171D01*
X42632Y-42257D01*
X42632Y-41714D02*
X42604Y-41771D01*
X42547Y-41800D01*
X42032Y-41800D01*
X42632Y-41400D02*
X42604Y-41457D01*
X42547Y-41485D01*
X42032Y-41485D01*
X42604Y-40942D02*
X42632Y-41000D01*
X42632Y-41114D01*
X42604Y-41171D01*
X42547Y-41200D01*
X42318Y-41200D01*
X42261Y-41171D01*
X42232Y-41114D01*
X42232Y-41000D01*
X42261Y-40942D01*
X42318Y-40914D01*
X42375Y-40914D01*
X42432Y-41200D01*
X42232Y-40657D02*
X42632Y-40657D01*
X42290Y-40657D02*
X42261Y-40628D01*
X42232Y-40571D01*
X42232Y-40485D01*
X42261Y-40428D01*
X42318Y-40400D01*
X42632Y-40400D01*
X42632Y-39857D02*
X42032Y-39857D01*
X42604Y-39857D02*
X42632Y-39914D01*
X42632Y-40028D01*
X42604Y-40085D01*
X42575Y-40114D01*
X42518Y-40142D01*
X42347Y-40142D01*
X42290Y-40114D01*
X42261Y-40085D01*
X42232Y-40028D01*
X42232Y-39914D01*
X42261Y-39857D01*
X42604Y-39342D02*
X42632Y-39400D01*
X42632Y-39514D01*
X42604Y-39571D01*
X42547Y-39600D01*
X42318Y-39600D01*
X42261Y-39571D01*
X42232Y-39514D01*
X42232Y-39400D01*
X42261Y-39342D01*
X42318Y-39314D01*
X42375Y-39314D01*
X42432Y-39600D01*
X42632Y-39057D02*
X42232Y-39057D01*
X42347Y-39057D02*
X42290Y-39028D01*
X42261Y-39000D01*
X42232Y-38942D01*
X42232Y-38885D01*
X47761Y-28564D02*
X48218Y-28564D01*
X46731Y-28544D02*
X47188Y-28544D01*
X46960Y-28772D02*
X46960Y-28315D01*
X72587Y-36181D02*
X72530Y-36152D01*
X72444Y-36152D01*
X72358Y-36181D01*
X72301Y-36238D01*
X72272Y-36295D01*
X72244Y-36410D01*
X72244Y-36495D01*
X72272Y-36610D01*
X72301Y-36667D01*
X72358Y-36724D01*
X72444Y-36752D01*
X72501Y-36752D01*
X72587Y-36724D01*
X72615Y-36695D01*
X72615Y-36495D01*
X72501Y-36495D01*
X72231Y-37444D02*
X72688Y-37444D01*
X72221Y-38564D02*
X72678Y-38564D01*
X72450Y-38792D02*
X72450Y-38335D01*
X72221Y-51034D02*
X72678Y-51034D01*
X72450Y-51262D02*
X72450Y-50805D01*
X72271Y-49914D02*
X72728Y-49914D01*
X72627Y-48651D02*
X72570Y-48622D01*
X72484Y-48622D01*
X72398Y-48651D01*
X72341Y-48708D01*
X72312Y-48765D01*
X72284Y-48880D01*
X72284Y-48965D01*
X72312Y-49080D01*
X72341Y-49137D01*
X72398Y-49194D01*
X72484Y-49222D01*
X72541Y-49222D01*
X72627Y-49194D01*
X72655Y-49165D01*
X72655Y-48965D01*
X72541Y-48965D01*
X72597Y-45261D02*
X72540Y-45232D01*
X72454Y-45232D01*
X72368Y-45261D01*
X72311Y-45318D01*
X72282Y-45375D01*
X72254Y-45490D01*
X72254Y-45575D01*
X72282Y-45690D01*
X72311Y-45747D01*
X72368Y-45804D01*
X72454Y-45832D01*
X72511Y-45832D01*
X72597Y-45804D01*
X72625Y-45775D01*
X72625Y-45575D01*
X72511Y-45575D01*
X72241Y-44544D02*
X72698Y-44544D01*
X72241Y-43464D02*
X72698Y-43464D01*
X72470Y-43692D02*
X72470Y-43235D01*
X55014Y-52271D02*
X55014Y-51814D01*
X55242Y-52042D02*
X54785Y-52042D01*
X54642Y-51242D02*
X54642Y-51528D01*
X54928Y-51557D01*
X54900Y-51528D01*
X54871Y-51471D01*
X54871Y-51328D01*
X54900Y-51271D01*
X54928Y-51242D01*
X54985Y-51214D01*
X55128Y-51214D01*
X55185Y-51242D01*
X55214Y-51271D01*
X55242Y-51328D01*
X55242Y-51471D01*
X55214Y-51528D01*
X55185Y-51557D01*
X54642Y-51042D02*
X55242Y-50842D01*
X54642Y-50642D01*
X48370Y-51734D02*
X48827Y-51734D01*
X48598Y-51962D02*
X48598Y-51505D01*
X49055Y-51362D02*
X49427Y-51362D01*
X49227Y-51591D01*
X49312Y-51591D01*
X49370Y-51620D01*
X49398Y-51648D01*
X49427Y-51705D01*
X49427Y-51848D01*
X49398Y-51905D01*
X49370Y-51934D01*
X49312Y-51962D01*
X49141Y-51962D01*
X49084Y-51934D01*
X49055Y-51905D01*
X49684Y-51905D02*
X49712Y-51934D01*
X49684Y-51962D01*
X49655Y-51934D01*
X49684Y-51905D01*
X49684Y-51962D01*
X49912Y-51362D02*
X50284Y-51362D01*
X50084Y-51591D01*
X50170Y-51591D01*
X50227Y-51620D01*
X50255Y-51648D01*
X50284Y-51705D01*
X50284Y-51848D01*
X50255Y-51905D01*
X50227Y-51934D01*
X50170Y-51962D01*
X49998Y-51962D01*
X49941Y-51934D01*
X49912Y-51905D01*
X50455Y-51362D02*
X50655Y-51962D01*
X50855Y-51362D01*
G54D12*
X38000Y-28000D02*
X73000Y-28000D01*
X38000Y-55000D02*
X38000Y-28000D01*
X73000Y-55000D02*
X38000Y-55000D01*
X73000Y-28000D02*
X73000Y-55000D01*
X53055Y-40855D02*
X53055Y-42744D01*
X53055Y-42744D02*
X57544Y-42744D01*
X57544Y-42744D02*
X57544Y-40855D01*
X57544Y-40855D02*
X53055Y-40855D01*
X66714Y-49337D02*
G75*
G03X66714Y-49337I-176J0D01*
G74*
G01*
X66184Y-51187D02*
X64215Y-51187D01*
X64215Y-51187D02*
X64215Y-49612D01*
X64215Y-49612D02*
X65790Y-49612D01*
X65790Y-49612D02*
X66184Y-50006D01*
X66184Y-50006D02*
X66184Y-51187D01*
X64237Y-39162D02*
G75*
G03X64237Y-39162I-176J0D01*
G74*
G01*
X64415Y-37312D02*
X66384Y-37312D01*
X66384Y-37312D02*
X66384Y-38887D01*
X66384Y-38887D02*
X64809Y-38887D01*
X64809Y-38887D02*
X64415Y-38493D01*
X64415Y-38493D02*
X64415Y-37312D01*
X59064Y-49637D02*
G75*
G03X59064Y-49637I-176J0D01*
G74*
G01*
X58534Y-51487D02*
X56565Y-51487D01*
X56565Y-51487D02*
X56565Y-49912D01*
X56565Y-49912D02*
X58140Y-49912D01*
X58140Y-49912D02*
X58534Y-50306D01*
X58534Y-50306D02*
X58534Y-51487D01*
X45900Y-51800D02*
X45900Y-37800D01*
X45900Y-37800D02*
X38900Y-37800D01*
X38900Y-37800D02*
X38900Y-51800D01*
X38900Y-51800D02*
X41900Y-51800D01*
X41900Y-51800D02*
X41900Y-51300D01*
X41900Y-51300D02*
X42900Y-51300D01*
X42900Y-51300D02*
X42900Y-51800D01*
X42900Y-51800D02*
X45900Y-51800D01*
X48554Y-47759D02*
G75*
G03X48554Y-47759I-197J0D01*
G74*
G01*
X50167Y-48035D02*
X50167Y-49964D01*
X50167Y-49964D02*
X48632Y-49964D01*
X48632Y-49964D02*
X48632Y-48429D01*
X48632Y-48429D02*
X49025Y-48035D01*
X49025Y-48035D02*
X50167Y-48035D01*
X50567Y-46262D02*
G75*
G03X50567Y-46262I-222J0D01*
G74*
G01*
X48632Y-45848D02*
X48632Y-41951D01*
X48632Y-41951D02*
X50167Y-41951D01*
X50167Y-41951D02*
X50167Y-45455D01*
X50167Y-45455D02*
X49774Y-45848D01*
X49774Y-45848D02*
X48632Y-45848D01*
G54D11*
X42300Y-30000D02*
X42300Y-29000D01*
X42300Y-29000D02*
X45300Y-29000D01*
X45300Y-29000D02*
X45300Y-30000D01*
X45300Y-30000D02*
X42300Y-30000D01*
X43300Y-29000D02*
X43300Y-30000D01*
X72000Y-39000D02*
X71000Y-39000D01*
X71000Y-39000D02*
X71000Y-36000D01*
X71000Y-36000D02*
X72000Y-36000D01*
X72000Y-36000D02*
X72000Y-39000D01*
X71000Y-38000D02*
X72000Y-38000D01*
X71000Y-31100D02*
X72000Y-31100D01*
X72000Y-31100D02*
X72000Y-34100D01*
X72000Y-34100D02*
X71000Y-34100D01*
X71000Y-34100D02*
X71000Y-31100D01*
X72000Y-32100D02*
X71000Y-32100D01*
X71000Y-43000D02*
X72000Y-43000D01*
X72000Y-43000D02*
X72000Y-46000D01*
X72000Y-46000D02*
X71000Y-46000D01*
X71000Y-46000D02*
X71000Y-43000D01*
X72000Y-44000D02*
X71000Y-44000D01*
X72000Y-51500D02*
X71000Y-51500D01*
X71000Y-51500D02*
X71000Y-48500D01*
X71000Y-48500D02*
X72000Y-48500D01*
X72000Y-48500D02*
X72000Y-51500D01*
X71000Y-50500D02*
X72000Y-50500D01*
X46500Y-30000D02*
X46500Y-29000D01*
X46500Y-29000D02*
X48500Y-29000D01*
X48500Y-29000D02*
X48500Y-30000D01*
X48500Y-30000D02*
X46500Y-30000D01*
X51100Y-30000D02*
X51100Y-29000D01*
X51100Y-29000D02*
X53100Y-29000D01*
X53100Y-29000D02*
X53100Y-30000D01*
X53100Y-30000D02*
X51100Y-30000D01*
G54D12*
X70082Y-35273D02*
X70082Y-34682D01*
X70377Y-34977D02*
X69787Y-34977D01*
X70240Y-33600D02*
G75*
G03X70240Y-33600I-1240J0D01*
G74*
G01*
X70082Y-53673D02*
X70082Y-53082D01*
X70377Y-53377D02*
X69787Y-53377D01*
X70240Y-52000D02*
G75*
G03X70240Y-52000I-1240J0D01*
G74*
G01*
X67917Y-47326D02*
X67917Y-47917D01*
X67622Y-47622D02*
X68212Y-47622D01*
X70240Y-49000D02*
G75*
G03X70240Y-49000I-1240J0D01*
G74*
G01*
X70082Y-44373D02*
X70082Y-43782D01*
X70377Y-44077D02*
X69787Y-44077D01*
X70240Y-42700D02*
G75*
G03X70240Y-42700I-1240J0D01*
G74*
G01*
X67917Y-43926D02*
X67917Y-44517D01*
X67622Y-44222D02*
X68212Y-44222D01*
X70240Y-45600D02*
G75*
G03X70240Y-45600I-1240J0D01*
G74*
G01*
X67917Y-28926D02*
X67917Y-29517D01*
X67622Y-29222D02*
X68212Y-29222D01*
X70240Y-30600D02*
G75*
G03X70240Y-30600I-1240J0D01*
G74*
G01*
X67917Y-37926D02*
X67917Y-38517D01*
X67622Y-38222D02*
X68212Y-38222D01*
X70240Y-39600D02*
G75*
G03X70240Y-39600I-1240J0D01*
G74*
G01*
X70082Y-38273D02*
X70082Y-37682D01*
X70377Y-37977D02*
X69787Y-37977D01*
X70240Y-36600D02*
G75*
G03X70240Y-36600I-1240J0D01*
G74*
G01*
X43766Y-33129D02*
G75*
G03X43570Y-32933I-196J0D01*
G74*
G01*
X39633Y-33129D02*
X39633Y-36870D01*
X39633Y-36870D02*
X39829Y-37066D01*
X39829Y-37066D02*
X43570Y-37066D01*
X43570Y-37066D02*
X43766Y-36870D01*
X43766Y-36870D02*
X43766Y-33129D01*
X39633Y-33129D02*
X39829Y-32933D01*
X39829Y-32933D02*
X43570Y-32933D01*
X51629Y-32833D02*
G75*
G03X51433Y-33029I0J-196D01*
G74*
G01*
X51629Y-36966D02*
X55370Y-36966D01*
X55370Y-36966D02*
X55566Y-36770D01*
X55566Y-36770D02*
X55566Y-33029D01*
X55566Y-33029D02*
X55370Y-32833D01*
X55370Y-32833D02*
X51629Y-32833D01*
X51629Y-36966D02*
X51433Y-36770D01*
X51433Y-36770D02*
X51433Y-33029D01*
X45230Y-32300D02*
G75*
G03X45230Y-32300I-180J0D01*
G74*
G01*
X46750Y-32750D02*
X46750Y-34650D01*
X46750Y-34650D02*
X45250Y-34650D01*
X45250Y-34650D02*
X45250Y-32950D01*
X45250Y-32950D02*
X45450Y-32750D01*
X45450Y-32750D02*
X46750Y-32750D01*
X52493Y-38412D02*
G75*
G03X52493Y-38412I-141J0D01*
G74*
G01*
X53690Y-38609D02*
X53690Y-39790D01*
X53690Y-39790D02*
X52509Y-39790D01*
X52509Y-39790D02*
X52509Y-38806D01*
X52509Y-38806D02*
X52706Y-38609D01*
X52706Y-38609D02*
X53690Y-38609D01*
X53212Y-50888D02*
X53212Y-50730D01*
X53212Y-51518D02*
X53212Y-51990D01*
X52897Y-51518D02*
X53527Y-51518D01*
X53212Y-50888D02*
X53212Y-51203D01*
X53212Y-51203D02*
X53527Y-51203D01*
X53527Y-51203D02*
X53212Y-51518D01*
X53212Y-51518D02*
X52897Y-51203D01*
X52897Y-51203D02*
X53212Y-51203D01*
X51412Y-50888D02*
X51412Y-50730D01*
X51412Y-51518D02*
X51412Y-51990D01*
X51097Y-51518D02*
X51727Y-51518D01*
X51412Y-50888D02*
X51412Y-51203D01*
X51412Y-51203D02*
X51727Y-51203D01*
X51727Y-51203D02*
X51412Y-51518D01*
X51412Y-51518D02*
X51097Y-51203D01*
X51097Y-51203D02*
X51412Y-51203D01*
X55337Y-43734D02*
G75*
G03X55337Y-43734I-196J0D01*
G74*
G01*
X57266Y-43990D02*
X57266Y-47809D01*
X57266Y-47809D02*
X55533Y-47809D01*
X55533Y-47809D02*
X55533Y-44384D01*
X55533Y-44384D02*
X55927Y-43990D01*
X55927Y-43990D02*
X57266Y-43990D01*
G54D13*
X64409Y-40790D02*
X64221Y-40921D01*
X64409Y-41015D02*
X64015Y-41015D01*
X64015Y-40865D01*
X64034Y-40828D01*
X64053Y-40809D01*
X64090Y-40790D01*
X64146Y-40790D01*
X64184Y-40809D01*
X64203Y-40828D01*
X64221Y-40865D01*
X64221Y-41015D01*
X64015Y-40453D02*
X64015Y-40528D01*
X64034Y-40565D01*
X64053Y-40584D01*
X64109Y-40621D01*
X64184Y-40640D01*
X64334Y-40640D01*
X64371Y-40621D01*
X64390Y-40603D01*
X64409Y-40565D01*
X64409Y-40490D01*
X64390Y-40453D01*
X64371Y-40434D01*
X64334Y-40415D01*
X64240Y-40415D01*
X64203Y-40434D01*
X64184Y-40453D01*
X64165Y-40490D01*
X64165Y-40565D01*
X64184Y-40603D01*
X64203Y-40621D01*
X64240Y-40640D01*
X64015Y-40171D02*
X64015Y-40134D01*
X64034Y-40096D01*
X64053Y-40078D01*
X64090Y-40059D01*
X64165Y-40040D01*
X64259Y-40040D01*
X64334Y-40059D01*
X64371Y-40078D01*
X64390Y-40096D01*
X64409Y-40134D01*
X64409Y-40171D01*
X64390Y-40209D01*
X64371Y-40228D01*
X64334Y-40246D01*
X64259Y-40265D01*
X64165Y-40265D01*
X64090Y-40246D01*
X64053Y-40228D01*
X64034Y-40209D01*
X64015Y-40171D01*
X64053Y-39890D02*
X64034Y-39871D01*
X64015Y-39834D01*
X64015Y-39740D01*
X64034Y-39703D01*
X64053Y-39684D01*
X64090Y-39665D01*
X64128Y-39665D01*
X64184Y-39684D01*
X64409Y-39909D01*
X64409Y-39665D01*
X63209Y-41959D02*
X63078Y-41771D01*
X62984Y-41959D02*
X62984Y-41565D01*
X63134Y-41565D01*
X63171Y-41584D01*
X63190Y-41603D01*
X63209Y-41640D01*
X63209Y-41696D01*
X63190Y-41734D01*
X63171Y-41753D01*
X63134Y-41771D01*
X62984Y-41771D01*
X63565Y-41565D02*
X63378Y-41565D01*
X63359Y-41753D01*
X63378Y-41734D01*
X63415Y-41715D01*
X63509Y-41715D01*
X63546Y-41734D01*
X63565Y-41753D01*
X63584Y-41790D01*
X63584Y-41884D01*
X63565Y-41921D01*
X63546Y-41940D01*
X63509Y-41959D01*
X63415Y-41959D01*
X63378Y-41940D01*
X63359Y-41921D01*
X63828Y-41565D02*
X63865Y-41565D01*
X63903Y-41584D01*
X63921Y-41603D01*
X63940Y-41640D01*
X63959Y-41715D01*
X63959Y-41809D01*
X63940Y-41884D01*
X63921Y-41921D01*
X63903Y-41940D01*
X63865Y-41959D01*
X63828Y-41959D01*
X63790Y-41940D01*
X63771Y-41921D01*
X63753Y-41884D01*
X63734Y-41809D01*
X63734Y-41715D01*
X63753Y-41640D01*
X63771Y-41603D01*
X63790Y-41584D01*
X63828Y-41565D01*
X64090Y-41565D02*
X64334Y-41565D01*
X64203Y-41715D01*
X64259Y-41715D01*
X64296Y-41734D01*
X64315Y-41753D01*
X64334Y-41790D01*
X64334Y-41884D01*
X64315Y-41921D01*
X64296Y-41940D01*
X64259Y-41959D01*
X64146Y-41959D01*
X64109Y-41940D01*
X64090Y-41921D01*
X63259Y-46759D02*
X63128Y-46571D01*
X63034Y-46759D02*
X63034Y-46365D01*
X63184Y-46365D01*
X63221Y-46384D01*
X63240Y-46403D01*
X63259Y-46440D01*
X63259Y-46496D01*
X63240Y-46534D01*
X63221Y-46553D01*
X63184Y-46571D01*
X63034Y-46571D01*
X63615Y-46365D02*
X63428Y-46365D01*
X63409Y-46553D01*
X63428Y-46534D01*
X63465Y-46515D01*
X63559Y-46515D01*
X63596Y-46534D01*
X63615Y-46553D01*
X63634Y-46590D01*
X63634Y-46684D01*
X63615Y-46721D01*
X63596Y-46740D01*
X63559Y-46759D01*
X63465Y-46759D01*
X63428Y-46740D01*
X63409Y-46721D01*
X63878Y-46365D02*
X63915Y-46365D01*
X63953Y-46384D01*
X63971Y-46403D01*
X63990Y-46440D01*
X64009Y-46515D01*
X64009Y-46609D01*
X63990Y-46684D01*
X63971Y-46721D01*
X63953Y-46740D01*
X63915Y-46759D01*
X63878Y-46759D01*
X63840Y-46740D01*
X63821Y-46721D01*
X63803Y-46684D01*
X63784Y-46609D01*
X63784Y-46515D01*
X63803Y-46440D01*
X63821Y-46403D01*
X63840Y-46384D01*
X63878Y-46365D01*
X64346Y-46496D02*
X64346Y-46759D01*
X64253Y-46346D02*
X64159Y-46628D01*
X64403Y-46628D01*
X57759Y-53548D02*
X57628Y-53360D01*
X57534Y-53548D02*
X57534Y-53154D01*
X57684Y-53154D01*
X57721Y-53173D01*
X57740Y-53192D01*
X57759Y-53229D01*
X57759Y-53285D01*
X57740Y-53323D01*
X57721Y-53342D01*
X57684Y-53360D01*
X57534Y-53360D01*
X57890Y-53154D02*
X58134Y-53154D01*
X58003Y-53304D01*
X58059Y-53304D01*
X58096Y-53323D01*
X58115Y-53342D01*
X58134Y-53379D01*
X58134Y-53473D01*
X58115Y-53510D01*
X58096Y-53529D01*
X58059Y-53548D01*
X57946Y-53548D01*
X57909Y-53529D01*
X57890Y-53510D01*
X58378Y-53154D02*
X58415Y-53154D01*
X58453Y-53173D01*
X58471Y-53192D01*
X58490Y-53229D01*
X58509Y-53304D01*
X58509Y-53398D01*
X58490Y-53473D01*
X58471Y-53510D01*
X58453Y-53529D01*
X58415Y-53548D01*
X58378Y-53548D01*
X58340Y-53529D01*
X58321Y-53510D01*
X58303Y-53473D01*
X58284Y-53398D01*
X58284Y-53304D01*
X58303Y-53229D01*
X58321Y-53192D01*
X58340Y-53173D01*
X58378Y-53154D01*
X58846Y-53154D02*
X58771Y-53154D01*
X58734Y-53173D01*
X58715Y-53192D01*
X58678Y-53248D01*
X58659Y-53323D01*
X58659Y-53473D01*
X58678Y-53510D01*
X58696Y-53529D01*
X58734Y-53548D01*
X58809Y-53548D01*
X58846Y-53529D01*
X58865Y-53510D01*
X58884Y-53473D01*
X58884Y-53379D01*
X58865Y-53342D01*
X58846Y-53323D01*
X58809Y-53304D01*
X58734Y-53304D01*
X58696Y-53323D01*
X58678Y-53342D01*
X58659Y-53379D01*
X64609Y-33809D02*
X64478Y-33621D01*
X64384Y-33809D02*
X64384Y-33415D01*
X64534Y-33415D01*
X64571Y-33434D01*
X64590Y-33453D01*
X64609Y-33490D01*
X64609Y-33546D01*
X64590Y-33584D01*
X64571Y-33603D01*
X64534Y-33621D01*
X64384Y-33621D01*
X64740Y-33415D02*
X65003Y-33415D01*
X64834Y-33809D01*
X65228Y-33415D02*
X65265Y-33415D01*
X65303Y-33434D01*
X65321Y-33453D01*
X65340Y-33490D01*
X65359Y-33565D01*
X65359Y-33659D01*
X65340Y-33734D01*
X65321Y-33771D01*
X65303Y-33790D01*
X65265Y-33809D01*
X65228Y-33809D01*
X65190Y-33790D01*
X65171Y-33771D01*
X65153Y-33734D01*
X65134Y-33659D01*
X65134Y-33565D01*
X65153Y-33490D01*
X65171Y-33453D01*
X65190Y-33434D01*
X65228Y-33415D01*
X65715Y-33415D02*
X65528Y-33415D01*
X65509Y-33603D01*
X65528Y-33584D01*
X65565Y-33565D01*
X65659Y-33565D01*
X65696Y-33584D01*
X65715Y-33603D01*
X65734Y-33640D01*
X65734Y-33734D01*
X65715Y-33771D01*
X65696Y-33790D01*
X65659Y-33809D01*
X65565Y-33809D01*
X65528Y-33790D01*
X65509Y-33771D01*
X64959Y-29270D02*
X64828Y-29082D01*
X64734Y-29270D02*
X64734Y-28876D01*
X64884Y-28876D01*
X64921Y-28895D01*
X64940Y-28914D01*
X64959Y-28951D01*
X64959Y-29007D01*
X64940Y-29045D01*
X64921Y-29064D01*
X64884Y-29082D01*
X64734Y-29082D01*
X65090Y-28876D02*
X65353Y-28876D01*
X65184Y-29270D01*
X65578Y-28876D02*
X65615Y-28876D01*
X65653Y-28895D01*
X65671Y-28914D01*
X65690Y-28951D01*
X65709Y-29026D01*
X65709Y-29120D01*
X65690Y-29195D01*
X65671Y-29232D01*
X65653Y-29251D01*
X65615Y-29270D01*
X65578Y-29270D01*
X65540Y-29251D01*
X65521Y-29232D01*
X65503Y-29195D01*
X65484Y-29120D01*
X65484Y-29026D01*
X65503Y-28951D01*
X65521Y-28914D01*
X65540Y-28895D01*
X65578Y-28876D01*
X66046Y-28876D02*
X65971Y-28876D01*
X65934Y-28895D01*
X65915Y-28914D01*
X65878Y-28970D01*
X65859Y-29045D01*
X65859Y-29195D01*
X65878Y-29232D01*
X65896Y-29251D01*
X65934Y-29270D01*
X66009Y-29270D01*
X66046Y-29251D01*
X66065Y-29232D01*
X66084Y-29195D01*
X66084Y-29101D01*
X66065Y-29064D01*
X66046Y-29045D01*
X66009Y-29026D01*
X65934Y-29026D01*
X65896Y-29045D01*
X65878Y-29064D01*
X65859Y-29101D01*
X67259Y-48540D02*
X67071Y-48671D01*
X67259Y-48765D02*
X66865Y-48765D01*
X66865Y-48615D01*
X66884Y-48578D01*
X66903Y-48559D01*
X66940Y-48540D01*
X66996Y-48540D01*
X67034Y-48559D01*
X67053Y-48578D01*
X67071Y-48615D01*
X67071Y-48765D01*
X66996Y-48203D02*
X67259Y-48203D01*
X66846Y-48296D02*
X67128Y-48390D01*
X67128Y-48146D01*
X66865Y-47921D02*
X66865Y-47884D01*
X66884Y-47846D01*
X66903Y-47828D01*
X66940Y-47809D01*
X67015Y-47790D01*
X67109Y-47790D01*
X67184Y-47809D01*
X67221Y-47828D01*
X67240Y-47846D01*
X67259Y-47884D01*
X67259Y-47921D01*
X67240Y-47959D01*
X67221Y-47978D01*
X67184Y-47996D01*
X67109Y-48015D01*
X67015Y-48015D01*
X66940Y-47996D01*
X66903Y-47978D01*
X66884Y-47959D01*
X66865Y-47921D01*
X66903Y-47640D02*
X66884Y-47621D01*
X66865Y-47584D01*
X66865Y-47490D01*
X66884Y-47453D01*
X66903Y-47434D01*
X66940Y-47415D01*
X66978Y-47415D01*
X67034Y-47434D01*
X67259Y-47659D01*
X67259Y-47415D01*
X63409Y-53090D02*
X63221Y-53221D01*
X63409Y-53315D02*
X63015Y-53315D01*
X63015Y-53165D01*
X63034Y-53128D01*
X63053Y-53109D01*
X63090Y-53090D01*
X63146Y-53090D01*
X63184Y-53109D01*
X63203Y-53128D01*
X63221Y-53165D01*
X63221Y-53315D01*
X63146Y-52753D02*
X63409Y-52753D01*
X62996Y-52846D02*
X63278Y-52940D01*
X63278Y-52696D01*
X63015Y-52471D02*
X63015Y-52434D01*
X63034Y-52396D01*
X63053Y-52378D01*
X63090Y-52359D01*
X63165Y-52340D01*
X63259Y-52340D01*
X63334Y-52359D01*
X63371Y-52378D01*
X63390Y-52396D01*
X63409Y-52434D01*
X63409Y-52471D01*
X63390Y-52509D01*
X63371Y-52528D01*
X63334Y-52546D01*
X63259Y-52565D01*
X63165Y-52565D01*
X63090Y-52546D01*
X63053Y-52528D01*
X63034Y-52509D01*
X63015Y-52471D01*
X63015Y-51984D02*
X63015Y-52171D01*
X63203Y-52190D01*
X63184Y-52171D01*
X63165Y-52134D01*
X63165Y-52040D01*
X63184Y-52003D01*
X63203Y-51984D01*
X63240Y-51965D01*
X63334Y-51965D01*
X63371Y-51984D01*
X63390Y-52003D01*
X63409Y-52040D01*
X63409Y-52134D01*
X63390Y-52171D01*
X63371Y-52190D01*
X62370Y-37740D02*
X62182Y-37871D01*
X62370Y-37965D02*
X61976Y-37965D01*
X61976Y-37815D01*
X61995Y-37778D01*
X62014Y-37759D01*
X62051Y-37740D01*
X62107Y-37740D01*
X62145Y-37759D01*
X62164Y-37778D01*
X62182Y-37815D01*
X62182Y-37965D01*
X61976Y-37403D02*
X61976Y-37478D01*
X61995Y-37515D01*
X62014Y-37534D01*
X62070Y-37571D01*
X62145Y-37590D01*
X62295Y-37590D01*
X62332Y-37571D01*
X62351Y-37553D01*
X62370Y-37515D01*
X62370Y-37440D01*
X62351Y-37403D01*
X62332Y-37384D01*
X62295Y-37365D01*
X62201Y-37365D01*
X62164Y-37384D01*
X62145Y-37403D01*
X62126Y-37440D01*
X62126Y-37515D01*
X62145Y-37553D01*
X62164Y-37571D01*
X62201Y-37590D01*
X61976Y-37121D02*
X61976Y-37084D01*
X61995Y-37046D01*
X62014Y-37028D01*
X62051Y-37009D01*
X62126Y-36990D01*
X62220Y-36990D01*
X62295Y-37009D01*
X62332Y-37028D01*
X62351Y-37046D01*
X62370Y-37084D01*
X62370Y-37121D01*
X62351Y-37159D01*
X62332Y-37178D01*
X62295Y-37196D01*
X62220Y-37215D01*
X62126Y-37215D01*
X62051Y-37196D01*
X62014Y-37178D01*
X61995Y-37159D01*
X61976Y-37121D01*
X62370Y-36615D02*
X62370Y-36840D01*
X62370Y-36728D02*
X61976Y-36728D01*
X62032Y-36765D01*
X62070Y-36803D01*
X62089Y-36840D01*
X66509Y-36409D02*
X66378Y-36221D01*
X66284Y-36409D02*
X66284Y-36015D01*
X66434Y-36015D01*
X66471Y-36034D01*
X66490Y-36053D01*
X66509Y-36090D01*
X66509Y-36146D01*
X66490Y-36184D01*
X66471Y-36203D01*
X66434Y-36221D01*
X66284Y-36221D01*
X66846Y-36015D02*
X66771Y-36015D01*
X66734Y-36034D01*
X66715Y-36053D01*
X66678Y-36109D01*
X66659Y-36184D01*
X66659Y-36334D01*
X66678Y-36371D01*
X66696Y-36390D01*
X66734Y-36409D01*
X66809Y-36409D01*
X66846Y-36390D01*
X66865Y-36371D01*
X66884Y-36334D01*
X66884Y-36240D01*
X66865Y-36203D01*
X66846Y-36184D01*
X66809Y-36165D01*
X66734Y-36165D01*
X66696Y-36184D01*
X66678Y-36203D01*
X66659Y-36240D01*
X67128Y-36015D02*
X67165Y-36015D01*
X67203Y-36034D01*
X67221Y-36053D01*
X67240Y-36090D01*
X67259Y-36165D01*
X67259Y-36259D01*
X67240Y-36334D01*
X67221Y-36371D01*
X67203Y-36390D01*
X67165Y-36409D01*
X67128Y-36409D01*
X67090Y-36390D01*
X67071Y-36371D01*
X67053Y-36334D01*
X67034Y-36259D01*
X67034Y-36165D01*
X67053Y-36090D01*
X67071Y-36053D01*
X67090Y-36034D01*
X67128Y-36015D01*
X67390Y-36015D02*
X67653Y-36015D01*
X67484Y-36409D01*
X62359Y-39340D02*
X62171Y-39471D01*
X62359Y-39565D02*
X61965Y-39565D01*
X61965Y-39415D01*
X61984Y-39378D01*
X62003Y-39359D01*
X62040Y-39340D01*
X62096Y-39340D01*
X62134Y-39359D01*
X62153Y-39378D01*
X62171Y-39415D01*
X62171Y-39565D01*
X61965Y-39003D02*
X61965Y-39078D01*
X61984Y-39115D01*
X62003Y-39134D01*
X62059Y-39171D01*
X62134Y-39190D01*
X62284Y-39190D01*
X62321Y-39171D01*
X62340Y-39153D01*
X62359Y-39115D01*
X62359Y-39040D01*
X62340Y-39003D01*
X62321Y-38984D01*
X62284Y-38965D01*
X62190Y-38965D01*
X62153Y-38984D01*
X62134Y-39003D01*
X62115Y-39040D01*
X62115Y-39115D01*
X62134Y-39153D01*
X62153Y-39171D01*
X62190Y-39190D01*
X61965Y-38721D02*
X61965Y-38684D01*
X61984Y-38646D01*
X62003Y-38628D01*
X62040Y-38609D01*
X62115Y-38590D01*
X62209Y-38590D01*
X62284Y-38609D01*
X62321Y-38628D01*
X62340Y-38646D01*
X62359Y-38684D01*
X62359Y-38721D01*
X62340Y-38759D01*
X62321Y-38778D01*
X62284Y-38796D01*
X62209Y-38815D01*
X62115Y-38815D01*
X62040Y-38796D01*
X62003Y-38778D01*
X61984Y-38759D01*
X61965Y-38721D01*
X62096Y-38253D02*
X62359Y-38253D01*
X61946Y-38346D02*
X62228Y-38440D01*
X62228Y-38196D01*
X64409Y-36290D02*
X64221Y-36421D01*
X64409Y-36515D02*
X64015Y-36515D01*
X64015Y-36365D01*
X64034Y-36328D01*
X64053Y-36309D01*
X64090Y-36290D01*
X64146Y-36290D01*
X64184Y-36309D01*
X64203Y-36328D01*
X64221Y-36365D01*
X64221Y-36515D01*
X64015Y-35953D02*
X64015Y-36028D01*
X64034Y-36065D01*
X64053Y-36084D01*
X64109Y-36121D01*
X64184Y-36140D01*
X64334Y-36140D01*
X64371Y-36121D01*
X64390Y-36103D01*
X64409Y-36065D01*
X64409Y-35990D01*
X64390Y-35953D01*
X64371Y-35934D01*
X64334Y-35915D01*
X64240Y-35915D01*
X64203Y-35934D01*
X64184Y-35953D01*
X64165Y-35990D01*
X64165Y-36065D01*
X64184Y-36103D01*
X64203Y-36121D01*
X64240Y-36140D01*
X64015Y-35671D02*
X64015Y-35634D01*
X64034Y-35596D01*
X64053Y-35578D01*
X64090Y-35559D01*
X64165Y-35540D01*
X64259Y-35540D01*
X64334Y-35559D01*
X64371Y-35578D01*
X64390Y-35596D01*
X64409Y-35634D01*
X64409Y-35671D01*
X64390Y-35709D01*
X64371Y-35728D01*
X64334Y-35746D01*
X64259Y-35765D01*
X64165Y-35765D01*
X64090Y-35746D01*
X64053Y-35728D01*
X64034Y-35709D01*
X64015Y-35671D01*
X64015Y-35409D02*
X64015Y-35165D01*
X64165Y-35296D01*
X64165Y-35240D01*
X64184Y-35203D01*
X64203Y-35184D01*
X64240Y-35165D01*
X64334Y-35165D01*
X64371Y-35184D01*
X64390Y-35203D01*
X64409Y-35240D01*
X64409Y-35353D01*
X64390Y-35390D01*
X64371Y-35409D01*
X67259Y-53040D02*
X67071Y-53171D01*
X67259Y-53265D02*
X66865Y-53265D01*
X66865Y-53115D01*
X66884Y-53078D01*
X66903Y-53059D01*
X66940Y-53040D01*
X66996Y-53040D01*
X67034Y-53059D01*
X67053Y-53078D01*
X67071Y-53115D01*
X67071Y-53265D01*
X66996Y-52703D02*
X67259Y-52703D01*
X66846Y-52796D02*
X67128Y-52890D01*
X67128Y-52646D01*
X66865Y-52421D02*
X66865Y-52384D01*
X66884Y-52346D01*
X66903Y-52328D01*
X66940Y-52309D01*
X67015Y-52290D01*
X67109Y-52290D01*
X67184Y-52309D01*
X67221Y-52328D01*
X67240Y-52346D01*
X67259Y-52384D01*
X67259Y-52421D01*
X67240Y-52459D01*
X67221Y-52478D01*
X67184Y-52496D01*
X67109Y-52515D01*
X67015Y-52515D01*
X66940Y-52496D01*
X66903Y-52478D01*
X66884Y-52459D01*
X66865Y-52421D01*
X67259Y-51915D02*
X67259Y-52140D01*
X67259Y-52028D02*
X66865Y-52028D01*
X66921Y-52065D01*
X66959Y-52103D01*
X66978Y-52140D01*
X63109Y-48809D02*
X62978Y-48621D01*
X62884Y-48809D02*
X62884Y-48415D01*
X63034Y-48415D01*
X63071Y-48434D01*
X63090Y-48453D01*
X63109Y-48490D01*
X63109Y-48546D01*
X63090Y-48584D01*
X63071Y-48603D01*
X63034Y-48621D01*
X62884Y-48621D01*
X63446Y-48546D02*
X63446Y-48809D01*
X63353Y-48396D02*
X63259Y-48678D01*
X63503Y-48678D01*
X63728Y-48415D02*
X63765Y-48415D01*
X63803Y-48434D01*
X63821Y-48453D01*
X63840Y-48490D01*
X63859Y-48565D01*
X63859Y-48659D01*
X63840Y-48734D01*
X63821Y-48771D01*
X63803Y-48790D01*
X63765Y-48809D01*
X63728Y-48809D01*
X63690Y-48790D01*
X63671Y-48771D01*
X63653Y-48734D01*
X63634Y-48659D01*
X63634Y-48565D01*
X63653Y-48490D01*
X63671Y-48453D01*
X63690Y-48434D01*
X63728Y-48415D01*
X64196Y-48415D02*
X64121Y-48415D01*
X64084Y-48434D01*
X64065Y-48453D01*
X64028Y-48509D01*
X64009Y-48584D01*
X64009Y-48734D01*
X64028Y-48771D01*
X64046Y-48790D01*
X64084Y-48809D01*
X64159Y-48809D01*
X64196Y-48790D01*
X64215Y-48771D01*
X64234Y-48734D01*
X64234Y-48640D01*
X64215Y-48603D01*
X64196Y-48584D01*
X64159Y-48565D01*
X64084Y-48565D01*
X64046Y-48584D01*
X64028Y-48603D01*
X64009Y-48640D01*
X59209Y-50548D02*
X59078Y-50360D01*
X58984Y-50548D02*
X58984Y-50154D01*
X59134Y-50154D01*
X59171Y-50173D01*
X59190Y-50192D01*
X59209Y-50229D01*
X59209Y-50285D01*
X59190Y-50323D01*
X59171Y-50342D01*
X59134Y-50360D01*
X58984Y-50360D01*
X59340Y-50154D02*
X59584Y-50154D01*
X59453Y-50304D01*
X59509Y-50304D01*
X59546Y-50323D01*
X59565Y-50342D01*
X59584Y-50379D01*
X59584Y-50473D01*
X59565Y-50510D01*
X59546Y-50529D01*
X59509Y-50548D01*
X59396Y-50548D01*
X59359Y-50529D01*
X59340Y-50510D01*
X59828Y-50154D02*
X59865Y-50154D01*
X59903Y-50173D01*
X59921Y-50192D01*
X59940Y-50229D01*
X59959Y-50304D01*
X59959Y-50398D01*
X59940Y-50473D01*
X59921Y-50510D01*
X59903Y-50529D01*
X59865Y-50548D01*
X59828Y-50548D01*
X59790Y-50529D01*
X59771Y-50510D01*
X59753Y-50473D01*
X59734Y-50398D01*
X59734Y-50304D01*
X59753Y-50229D01*
X59771Y-50192D01*
X59790Y-50173D01*
X59828Y-50154D01*
X60315Y-50154D02*
X60128Y-50154D01*
X60109Y-50342D01*
X60128Y-50323D01*
X60165Y-50304D01*
X60259Y-50304D01*
X60296Y-50323D01*
X60315Y-50342D01*
X60334Y-50379D01*
X60334Y-50473D01*
X60315Y-50510D01*
X60296Y-50529D01*
X60259Y-50548D01*
X60165Y-50548D01*
X60128Y-50529D01*
X60109Y-50510D01*
X54609Y-54209D02*
X54478Y-54021D01*
X54384Y-54209D02*
X54384Y-53815D01*
X54534Y-53815D01*
X54571Y-53834D01*
X54590Y-53853D01*
X54609Y-53890D01*
X54609Y-53946D01*
X54590Y-53984D01*
X54571Y-54003D01*
X54534Y-54021D01*
X54384Y-54021D01*
X54834Y-53984D02*
X54796Y-53965D01*
X54778Y-53946D01*
X54759Y-53909D01*
X54759Y-53890D01*
X54778Y-53853D01*
X54796Y-53834D01*
X54834Y-53815D01*
X54909Y-53815D01*
X54946Y-53834D01*
X54965Y-53853D01*
X54984Y-53890D01*
X54984Y-53909D01*
X54965Y-53946D01*
X54946Y-53965D01*
X54909Y-53984D01*
X54834Y-53984D01*
X54796Y-54003D01*
X54778Y-54021D01*
X54759Y-54059D01*
X54759Y-54134D01*
X54778Y-54171D01*
X54796Y-54190D01*
X54834Y-54209D01*
X54909Y-54209D01*
X54946Y-54190D01*
X54965Y-54171D01*
X54984Y-54134D01*
X54984Y-54059D01*
X54965Y-54021D01*
X54946Y-54003D01*
X54909Y-53984D01*
X55228Y-53815D02*
X55265Y-53815D01*
X55303Y-53834D01*
X55321Y-53853D01*
X55340Y-53890D01*
X55359Y-53965D01*
X55359Y-54059D01*
X55340Y-54134D01*
X55321Y-54171D01*
X55303Y-54190D01*
X55265Y-54209D01*
X55228Y-54209D01*
X55190Y-54190D01*
X55171Y-54171D01*
X55153Y-54134D01*
X55134Y-54059D01*
X55134Y-53965D01*
X55153Y-53890D01*
X55171Y-53853D01*
X55190Y-53834D01*
X55228Y-53815D01*
X55509Y-53853D02*
X55528Y-53834D01*
X55565Y-53815D01*
X55659Y-53815D01*
X55696Y-53834D01*
X55715Y-53853D01*
X55734Y-53890D01*
X55734Y-53928D01*
X55715Y-53984D01*
X55490Y-54209D01*
X55734Y-54209D01*
X52309Y-44190D02*
X52121Y-44321D01*
X52309Y-44415D02*
X51915Y-44415D01*
X51915Y-44265D01*
X51934Y-44228D01*
X51953Y-44209D01*
X51990Y-44190D01*
X52046Y-44190D01*
X52084Y-44209D01*
X52103Y-44228D01*
X52121Y-44265D01*
X52121Y-44415D01*
X51953Y-44040D02*
X51934Y-44021D01*
X51915Y-43984D01*
X51915Y-43890D01*
X51934Y-43853D01*
X51953Y-43834D01*
X51990Y-43815D01*
X52028Y-43815D01*
X52084Y-43834D01*
X52309Y-44059D01*
X52309Y-43815D01*
X52309Y-43440D02*
X52309Y-43665D01*
X52309Y-43553D02*
X51915Y-43553D01*
X51971Y-43590D01*
X52009Y-43628D01*
X52028Y-43665D01*
X51915Y-43103D02*
X51915Y-43178D01*
X51934Y-43215D01*
X51953Y-43234D01*
X52009Y-43271D01*
X52084Y-43290D01*
X52234Y-43290D01*
X52271Y-43271D01*
X52290Y-43253D01*
X52309Y-43215D01*
X52309Y-43140D01*
X52290Y-43103D01*
X52271Y-43084D01*
X52234Y-43065D01*
X52140Y-43065D01*
X52103Y-43084D01*
X52084Y-43103D01*
X52065Y-43140D01*
X52065Y-43215D01*
X52084Y-43253D01*
X52103Y-43271D01*
X52140Y-43290D01*
X54309Y-44940D02*
X54121Y-45071D01*
X54309Y-45165D02*
X53915Y-45165D01*
X53915Y-45015D01*
X53934Y-44978D01*
X53953Y-44959D01*
X53990Y-44940D01*
X54046Y-44940D01*
X54084Y-44959D01*
X54103Y-44978D01*
X54121Y-45015D01*
X54121Y-45165D01*
X53953Y-44790D02*
X53934Y-44771D01*
X53915Y-44734D01*
X53915Y-44640D01*
X53934Y-44603D01*
X53953Y-44584D01*
X53990Y-44565D01*
X54028Y-44565D01*
X54084Y-44584D01*
X54309Y-44809D01*
X54309Y-44565D01*
X54309Y-44190D02*
X54309Y-44415D01*
X54309Y-44303D02*
X53915Y-44303D01*
X53971Y-44340D01*
X54009Y-44378D01*
X54028Y-44415D01*
X53915Y-44059D02*
X53915Y-43796D01*
X54309Y-43965D01*
X52309Y-45790D02*
X52121Y-45921D01*
X52309Y-46015D02*
X51915Y-46015D01*
X51915Y-45865D01*
X51934Y-45828D01*
X51953Y-45809D01*
X51990Y-45790D01*
X52046Y-45790D01*
X52084Y-45809D01*
X52103Y-45828D01*
X52121Y-45865D01*
X52121Y-46015D01*
X51953Y-45640D02*
X51934Y-45621D01*
X51915Y-45584D01*
X51915Y-45490D01*
X51934Y-45453D01*
X51953Y-45434D01*
X51990Y-45415D01*
X52028Y-45415D01*
X52084Y-45434D01*
X52309Y-45659D01*
X52309Y-45415D01*
X52309Y-45040D02*
X52309Y-45265D01*
X52309Y-45153D02*
X51915Y-45153D01*
X51971Y-45190D01*
X52009Y-45228D01*
X52028Y-45265D01*
X52084Y-44815D02*
X52065Y-44853D01*
X52046Y-44871D01*
X52009Y-44890D01*
X51990Y-44890D01*
X51953Y-44871D01*
X51934Y-44853D01*
X51915Y-44815D01*
X51915Y-44740D01*
X51934Y-44703D01*
X51953Y-44684D01*
X51990Y-44665D01*
X52009Y-44665D01*
X52046Y-44684D01*
X52065Y-44703D01*
X52084Y-44740D01*
X52084Y-44815D01*
X52103Y-44853D01*
X52121Y-44871D01*
X52159Y-44890D01*
X52234Y-44890D01*
X52271Y-44871D01*
X52290Y-44853D01*
X52309Y-44815D01*
X52309Y-44740D01*
X52290Y-44703D01*
X52271Y-44684D01*
X52234Y-44665D01*
X52159Y-44665D01*
X52121Y-44684D01*
X52103Y-44703D01*
X52084Y-44740D01*
X54309Y-46490D02*
X54121Y-46621D01*
X54309Y-46715D02*
X53915Y-46715D01*
X53915Y-46565D01*
X53934Y-46528D01*
X53953Y-46509D01*
X53990Y-46490D01*
X54046Y-46490D01*
X54084Y-46509D01*
X54103Y-46528D01*
X54121Y-46565D01*
X54121Y-46715D01*
X53953Y-46340D02*
X53934Y-46321D01*
X53915Y-46284D01*
X53915Y-46190D01*
X53934Y-46153D01*
X53953Y-46134D01*
X53990Y-46115D01*
X54028Y-46115D01*
X54084Y-46134D01*
X54309Y-46359D01*
X54309Y-46115D01*
X54309Y-45740D02*
X54309Y-45965D01*
X54309Y-45853D02*
X53915Y-45853D01*
X53971Y-45890D01*
X54009Y-45928D01*
X54028Y-45965D01*
X54309Y-45553D02*
X54309Y-45478D01*
X54290Y-45440D01*
X54271Y-45421D01*
X54215Y-45384D01*
X54140Y-45365D01*
X53990Y-45365D01*
X53953Y-45384D01*
X53934Y-45403D01*
X53915Y-45440D01*
X53915Y-45515D01*
X53934Y-45553D01*
X53953Y-45571D01*
X53990Y-45590D01*
X54084Y-45590D01*
X54121Y-45571D01*
X54140Y-45553D01*
X54159Y-45515D01*
X54159Y-45440D01*
X54140Y-45403D01*
X54121Y-45384D01*
X54084Y-45365D01*
X40389Y-48159D02*
X40258Y-47971D01*
X40164Y-48159D02*
X40164Y-47765D01*
X40314Y-47765D01*
X40351Y-47784D01*
X40370Y-47803D01*
X40389Y-47840D01*
X40389Y-47896D01*
X40370Y-47934D01*
X40351Y-47953D01*
X40314Y-47971D01*
X40164Y-47971D01*
X40539Y-47803D02*
X40558Y-47784D01*
X40595Y-47765D01*
X40689Y-47765D01*
X40726Y-47784D01*
X40745Y-47803D01*
X40764Y-47840D01*
X40764Y-47878D01*
X40745Y-47934D01*
X40520Y-48159D01*
X40764Y-48159D01*
X41139Y-48159D02*
X40914Y-48159D01*
X41026Y-48159D02*
X41026Y-47765D01*
X40989Y-47821D01*
X40951Y-47859D01*
X40914Y-47878D01*
X41514Y-48159D02*
X41289Y-48159D01*
X41401Y-48159D02*
X41401Y-47765D01*
X41364Y-47821D01*
X41326Y-47859D01*
X41289Y-47878D01*
X66509Y-40209D02*
X66378Y-40021D01*
X66284Y-40209D02*
X66284Y-39815D01*
X66434Y-39815D01*
X66471Y-39834D01*
X66490Y-39853D01*
X66509Y-39890D01*
X66509Y-39946D01*
X66490Y-39984D01*
X66471Y-40003D01*
X66434Y-40021D01*
X66284Y-40021D01*
X66846Y-39815D02*
X66771Y-39815D01*
X66734Y-39834D01*
X66715Y-39853D01*
X66678Y-39909D01*
X66659Y-39984D01*
X66659Y-40134D01*
X66678Y-40171D01*
X66696Y-40190D01*
X66734Y-40209D01*
X66809Y-40209D01*
X66846Y-40190D01*
X66865Y-40171D01*
X66884Y-40134D01*
X66884Y-40040D01*
X66865Y-40003D01*
X66846Y-39984D01*
X66809Y-39965D01*
X66734Y-39965D01*
X66696Y-39984D01*
X66678Y-40003D01*
X66659Y-40040D01*
X67128Y-39815D02*
X67165Y-39815D01*
X67203Y-39834D01*
X67221Y-39853D01*
X67240Y-39890D01*
X67259Y-39965D01*
X67259Y-40059D01*
X67240Y-40134D01*
X67221Y-40171D01*
X67203Y-40190D01*
X67165Y-40209D01*
X67128Y-40209D01*
X67090Y-40190D01*
X67071Y-40171D01*
X67053Y-40134D01*
X67034Y-40059D01*
X67034Y-39965D01*
X67053Y-39890D01*
X67071Y-39853D01*
X67090Y-39834D01*
X67128Y-39815D01*
X67484Y-39984D02*
X67446Y-39965D01*
X67428Y-39946D01*
X67409Y-39909D01*
X67409Y-39890D01*
X67428Y-39853D01*
X67446Y-39834D01*
X67484Y-39815D01*
X67559Y-39815D01*
X67596Y-39834D01*
X67615Y-39853D01*
X67634Y-39890D01*
X67634Y-39909D01*
X67615Y-39946D01*
X67596Y-39965D01*
X67559Y-39984D01*
X67484Y-39984D01*
X67446Y-40003D01*
X67428Y-40021D01*
X67409Y-40059D01*
X67409Y-40134D01*
X67428Y-40171D01*
X67446Y-40190D01*
X67484Y-40209D01*
X67559Y-40209D01*
X67596Y-40190D01*
X67615Y-40171D01*
X67634Y-40134D01*
X67634Y-40059D01*
X67615Y-40021D01*
X67596Y-40003D01*
X67559Y-39984D01*
X53059Y-53490D02*
X52871Y-53621D01*
X53059Y-53715D02*
X52665Y-53715D01*
X52665Y-53565D01*
X52684Y-53528D01*
X52703Y-53509D01*
X52740Y-53490D01*
X52796Y-53490D01*
X52834Y-53509D01*
X52853Y-53528D01*
X52871Y-53565D01*
X52871Y-53715D01*
X52834Y-53265D02*
X52815Y-53303D01*
X52796Y-53321D01*
X52759Y-53340D01*
X52740Y-53340D01*
X52703Y-53321D01*
X52684Y-53303D01*
X52665Y-53265D01*
X52665Y-53190D01*
X52684Y-53153D01*
X52703Y-53134D01*
X52740Y-53115D01*
X52759Y-53115D01*
X52796Y-53134D01*
X52815Y-53153D01*
X52834Y-53190D01*
X52834Y-53265D01*
X52853Y-53303D01*
X52871Y-53321D01*
X52909Y-53340D01*
X52984Y-53340D01*
X53021Y-53321D01*
X53040Y-53303D01*
X53059Y-53265D01*
X53059Y-53190D01*
X53040Y-53153D01*
X53021Y-53134D01*
X52984Y-53115D01*
X52909Y-53115D01*
X52871Y-53134D01*
X52853Y-53153D01*
X52834Y-53190D01*
X52665Y-52871D02*
X52665Y-52834D01*
X52684Y-52796D01*
X52703Y-52778D01*
X52740Y-52759D01*
X52815Y-52740D01*
X52909Y-52740D01*
X52984Y-52759D01*
X53021Y-52778D01*
X53040Y-52796D01*
X53059Y-52834D01*
X53059Y-52871D01*
X53040Y-52909D01*
X53021Y-52928D01*
X52984Y-52946D01*
X52909Y-52965D01*
X52815Y-52965D01*
X52740Y-52946D01*
X52703Y-52928D01*
X52684Y-52909D01*
X52665Y-52871D01*
X53059Y-52365D02*
X53059Y-52590D01*
X53059Y-52478D02*
X52665Y-52478D01*
X52721Y-52515D01*
X52759Y-52553D01*
X52778Y-52590D01*
X47459Y-38040D02*
X47271Y-38171D01*
X47459Y-38265D02*
X47065Y-38265D01*
X47065Y-38115D01*
X47084Y-38078D01*
X47103Y-38059D01*
X47140Y-38040D01*
X47196Y-38040D01*
X47234Y-38059D01*
X47253Y-38078D01*
X47271Y-38115D01*
X47271Y-38265D01*
X47103Y-37890D02*
X47084Y-37871D01*
X47065Y-37834D01*
X47065Y-37740D01*
X47084Y-37703D01*
X47103Y-37684D01*
X47140Y-37665D01*
X47178Y-37665D01*
X47234Y-37684D01*
X47459Y-37909D01*
X47459Y-37665D01*
X47065Y-37421D02*
X47065Y-37384D01*
X47084Y-37346D01*
X47103Y-37328D01*
X47140Y-37309D01*
X47215Y-37290D01*
X47309Y-37290D01*
X47384Y-37309D01*
X47421Y-37328D01*
X47440Y-37346D01*
X47459Y-37384D01*
X47459Y-37421D01*
X47440Y-37459D01*
X47421Y-37478D01*
X47384Y-37496D01*
X47309Y-37515D01*
X47215Y-37515D01*
X47140Y-37496D01*
X47103Y-37478D01*
X47084Y-37459D01*
X47065Y-37421D01*
X47459Y-36915D02*
X47459Y-37140D01*
X47459Y-37028D02*
X47065Y-37028D01*
X47121Y-37065D01*
X47159Y-37103D01*
X47178Y-37140D01*
X47859Y-31159D02*
X47728Y-30971D01*
X47634Y-31159D02*
X47634Y-30765D01*
X47784Y-30765D01*
X47821Y-30784D01*
X47840Y-30803D01*
X47859Y-30840D01*
X47859Y-30896D01*
X47840Y-30934D01*
X47821Y-30953D01*
X47784Y-30971D01*
X47634Y-30971D01*
X48084Y-30934D02*
X48046Y-30915D01*
X48028Y-30896D01*
X48009Y-30859D01*
X48009Y-30840D01*
X48028Y-30803D01*
X48046Y-30784D01*
X48084Y-30765D01*
X48159Y-30765D01*
X48196Y-30784D01*
X48215Y-30803D01*
X48234Y-30840D01*
X48234Y-30859D01*
X48215Y-30896D01*
X48196Y-30915D01*
X48159Y-30934D01*
X48084Y-30934D01*
X48046Y-30953D01*
X48028Y-30971D01*
X48009Y-31009D01*
X48009Y-31084D01*
X48028Y-31121D01*
X48046Y-31140D01*
X48084Y-31159D01*
X48159Y-31159D01*
X48196Y-31140D01*
X48215Y-31121D01*
X48234Y-31084D01*
X48234Y-31009D01*
X48215Y-30971D01*
X48196Y-30953D01*
X48159Y-30934D01*
X48478Y-30765D02*
X48515Y-30765D01*
X48553Y-30784D01*
X48571Y-30803D01*
X48590Y-30840D01*
X48609Y-30915D01*
X48609Y-31009D01*
X48590Y-31084D01*
X48571Y-31121D01*
X48553Y-31140D01*
X48515Y-31159D01*
X48478Y-31159D01*
X48440Y-31140D01*
X48421Y-31121D01*
X48403Y-31084D01*
X48384Y-31009D01*
X48384Y-30915D01*
X48403Y-30840D01*
X48421Y-30803D01*
X48440Y-30784D01*
X48478Y-30765D01*
X48946Y-30765D02*
X48871Y-30765D01*
X48834Y-30784D01*
X48815Y-30803D01*
X48778Y-30859D01*
X48759Y-30934D01*
X48759Y-31084D01*
X48778Y-31121D01*
X48796Y-31140D01*
X48834Y-31159D01*
X48909Y-31159D01*
X48946Y-31140D01*
X48965Y-31121D01*
X48984Y-31084D01*
X48984Y-30990D01*
X48965Y-30953D01*
X48946Y-30934D01*
X48909Y-30915D01*
X48834Y-30915D01*
X48796Y-30934D01*
X48778Y-30953D01*
X48759Y-30990D01*
X46409Y-31909D02*
X46278Y-31721D01*
X46184Y-31909D02*
X46184Y-31515D01*
X46334Y-31515D01*
X46371Y-31534D01*
X46390Y-31553D01*
X46409Y-31590D01*
X46409Y-31646D01*
X46390Y-31684D01*
X46371Y-31703D01*
X46334Y-31721D01*
X46184Y-31721D01*
X46634Y-31684D02*
X46596Y-31665D01*
X46578Y-31646D01*
X46559Y-31609D01*
X46559Y-31590D01*
X46578Y-31553D01*
X46596Y-31534D01*
X46634Y-31515D01*
X46709Y-31515D01*
X46746Y-31534D01*
X46765Y-31553D01*
X46784Y-31590D01*
X46784Y-31609D01*
X46765Y-31646D01*
X46746Y-31665D01*
X46709Y-31684D01*
X46634Y-31684D01*
X46596Y-31703D01*
X46578Y-31721D01*
X46559Y-31759D01*
X46559Y-31834D01*
X46578Y-31871D01*
X46596Y-31890D01*
X46634Y-31909D01*
X46709Y-31909D01*
X46746Y-31890D01*
X46765Y-31871D01*
X46784Y-31834D01*
X46784Y-31759D01*
X46765Y-31721D01*
X46746Y-31703D01*
X46709Y-31684D01*
X47028Y-31515D02*
X47065Y-31515D01*
X47103Y-31534D01*
X47121Y-31553D01*
X47140Y-31590D01*
X47159Y-31665D01*
X47159Y-31759D01*
X47140Y-31834D01*
X47121Y-31871D01*
X47103Y-31890D01*
X47065Y-31909D01*
X47028Y-31909D01*
X46990Y-31890D01*
X46971Y-31871D01*
X46953Y-31834D01*
X46934Y-31759D01*
X46934Y-31665D01*
X46953Y-31590D01*
X46971Y-31553D01*
X46990Y-31534D01*
X47028Y-31515D01*
X47290Y-31515D02*
X47553Y-31515D01*
X47384Y-31909D01*
X47859Y-30609D02*
X47728Y-30421D01*
X47634Y-30609D02*
X47634Y-30215D01*
X47784Y-30215D01*
X47821Y-30234D01*
X47840Y-30253D01*
X47859Y-30290D01*
X47859Y-30346D01*
X47840Y-30384D01*
X47821Y-30403D01*
X47784Y-30421D01*
X47634Y-30421D01*
X48084Y-30384D02*
X48046Y-30365D01*
X48028Y-30346D01*
X48009Y-30309D01*
X48009Y-30290D01*
X48028Y-30253D01*
X48046Y-30234D01*
X48084Y-30215D01*
X48159Y-30215D01*
X48196Y-30234D01*
X48215Y-30253D01*
X48234Y-30290D01*
X48234Y-30309D01*
X48215Y-30346D01*
X48196Y-30365D01*
X48159Y-30384D01*
X48084Y-30384D01*
X48046Y-30403D01*
X48028Y-30421D01*
X48009Y-30459D01*
X48009Y-30534D01*
X48028Y-30571D01*
X48046Y-30590D01*
X48084Y-30609D01*
X48159Y-30609D01*
X48196Y-30590D01*
X48215Y-30571D01*
X48234Y-30534D01*
X48234Y-30459D01*
X48215Y-30421D01*
X48196Y-30403D01*
X48159Y-30384D01*
X48478Y-30215D02*
X48515Y-30215D01*
X48553Y-30234D01*
X48571Y-30253D01*
X48590Y-30290D01*
X48609Y-30365D01*
X48609Y-30459D01*
X48590Y-30534D01*
X48571Y-30571D01*
X48553Y-30590D01*
X48515Y-30609D01*
X48478Y-30609D01*
X48440Y-30590D01*
X48421Y-30571D01*
X48403Y-30534D01*
X48384Y-30459D01*
X48384Y-30365D01*
X48403Y-30290D01*
X48421Y-30253D01*
X48440Y-30234D01*
X48478Y-30215D01*
X48946Y-30346D02*
X48946Y-30609D01*
X48853Y-30196D02*
X48759Y-30478D01*
X49003Y-30478D01*
X54606Y-40265D02*
X54868Y-40659D01*
X54868Y-40265D02*
X54606Y-40659D01*
X54981Y-40265D02*
X55225Y-40265D01*
X55093Y-40415D01*
X55150Y-40415D01*
X55187Y-40434D01*
X55206Y-40453D01*
X55225Y-40490D01*
X55225Y-40584D01*
X55206Y-40621D01*
X55187Y-40640D01*
X55150Y-40659D01*
X55037Y-40659D01*
X55000Y-40640D01*
X54981Y-40621D01*
X55468Y-40265D02*
X55506Y-40265D01*
X55543Y-40284D01*
X55562Y-40303D01*
X55581Y-40340D01*
X55599Y-40415D01*
X55599Y-40509D01*
X55581Y-40584D01*
X55562Y-40621D01*
X55543Y-40640D01*
X55506Y-40659D01*
X55468Y-40659D01*
X55431Y-40640D01*
X55412Y-40621D01*
X55393Y-40584D01*
X55374Y-40509D01*
X55374Y-40415D01*
X55393Y-40340D01*
X55412Y-40303D01*
X55431Y-40284D01*
X55468Y-40265D01*
X55974Y-40659D02*
X55749Y-40659D01*
X55862Y-40659D02*
X55862Y-40265D01*
X55824Y-40321D01*
X55787Y-40359D01*
X55749Y-40378D01*
X63715Y-52824D02*
X64034Y-52824D01*
X64071Y-52806D01*
X64090Y-52787D01*
X64109Y-52749D01*
X64109Y-52674D01*
X64090Y-52637D01*
X64071Y-52618D01*
X64034Y-52599D01*
X63715Y-52599D01*
X63846Y-52243D02*
X64109Y-52243D01*
X63696Y-52337D02*
X63978Y-52431D01*
X63978Y-52187D01*
X63715Y-51962D02*
X63715Y-51925D01*
X63734Y-51887D01*
X63753Y-51868D01*
X63790Y-51850D01*
X63865Y-51831D01*
X63959Y-51831D01*
X64034Y-51850D01*
X64071Y-51868D01*
X64090Y-51887D01*
X64109Y-51925D01*
X64109Y-51962D01*
X64090Y-52000D01*
X64071Y-52018D01*
X64034Y-52037D01*
X63959Y-52056D01*
X63865Y-52056D01*
X63790Y-52037D01*
X63753Y-52018D01*
X63734Y-52000D01*
X63715Y-51962D01*
X64109Y-51456D02*
X64109Y-51681D01*
X64109Y-51568D02*
X63715Y-51568D01*
X63771Y-51606D01*
X63809Y-51643D01*
X63828Y-51681D01*
X62175Y-40115D02*
X62175Y-40434D01*
X62193Y-40471D01*
X62212Y-40490D01*
X62250Y-40509D01*
X62325Y-40509D01*
X62362Y-40490D01*
X62381Y-40471D01*
X62400Y-40434D01*
X62400Y-40115D01*
X62756Y-40115D02*
X62681Y-40115D01*
X62643Y-40134D01*
X62625Y-40153D01*
X62587Y-40209D01*
X62568Y-40284D01*
X62568Y-40434D01*
X62587Y-40471D01*
X62606Y-40490D01*
X62643Y-40509D01*
X62718Y-40509D01*
X62756Y-40490D01*
X62775Y-40471D01*
X62793Y-40434D01*
X62793Y-40340D01*
X62775Y-40303D01*
X62756Y-40284D01*
X62718Y-40265D01*
X62643Y-40265D01*
X62606Y-40284D01*
X62587Y-40303D01*
X62568Y-40340D01*
X63037Y-40115D02*
X63074Y-40115D01*
X63112Y-40134D01*
X63131Y-40153D01*
X63149Y-40190D01*
X63168Y-40265D01*
X63168Y-40359D01*
X63149Y-40434D01*
X63131Y-40471D01*
X63112Y-40490D01*
X63074Y-40509D01*
X63037Y-40509D01*
X62999Y-40490D01*
X62981Y-40471D01*
X62962Y-40434D01*
X62943Y-40359D01*
X62943Y-40265D01*
X62962Y-40190D01*
X62981Y-40153D01*
X62999Y-40134D01*
X63037Y-40115D01*
X63543Y-40509D02*
X63318Y-40509D01*
X63431Y-40509D02*
X63431Y-40115D01*
X63393Y-40171D01*
X63356Y-40209D01*
X63318Y-40228D01*
X55740Y-51374D02*
X56059Y-51374D01*
X56097Y-51356D01*
X56115Y-51337D01*
X56134Y-51299D01*
X56134Y-51224D01*
X56115Y-51187D01*
X56097Y-51168D01*
X56059Y-51149D01*
X55740Y-51149D01*
X55740Y-50999D02*
X55740Y-50756D01*
X55890Y-50887D01*
X55890Y-50831D01*
X55909Y-50793D01*
X55928Y-50774D01*
X55965Y-50756D01*
X56059Y-50756D01*
X56097Y-50774D01*
X56115Y-50793D01*
X56134Y-50831D01*
X56134Y-50943D01*
X56115Y-50981D01*
X56097Y-50999D01*
X55740Y-50512D02*
X55740Y-50475D01*
X55759Y-50437D01*
X55778Y-50418D01*
X55815Y-50400D01*
X55890Y-50381D01*
X55984Y-50381D01*
X56059Y-50400D01*
X56097Y-50418D01*
X56115Y-50437D01*
X56134Y-50475D01*
X56134Y-50512D01*
X56115Y-50550D01*
X56097Y-50568D01*
X56059Y-50587D01*
X55984Y-50606D01*
X55890Y-50606D01*
X55815Y-50587D01*
X55778Y-50568D01*
X55759Y-50550D01*
X55740Y-50512D01*
X55778Y-50231D02*
X55759Y-50212D01*
X55740Y-50175D01*
X55740Y-50081D01*
X55759Y-50043D01*
X55778Y-50025D01*
X55815Y-50006D01*
X55853Y-50006D01*
X55909Y-50025D01*
X56134Y-50250D01*
X56134Y-50006D01*
X41875Y-52165D02*
X41875Y-52484D01*
X41893Y-52521D01*
X41912Y-52540D01*
X41950Y-52559D01*
X42025Y-52559D01*
X42062Y-52540D01*
X42081Y-52521D01*
X42100Y-52484D01*
X42100Y-52165D01*
X42268Y-52203D02*
X42287Y-52184D01*
X42325Y-52165D01*
X42418Y-52165D01*
X42456Y-52184D01*
X42475Y-52203D01*
X42493Y-52240D01*
X42493Y-52278D01*
X42475Y-52334D01*
X42250Y-52559D01*
X42493Y-52559D01*
X42737Y-52165D02*
X42774Y-52165D01*
X42812Y-52184D01*
X42831Y-52203D01*
X42849Y-52240D01*
X42868Y-52315D01*
X42868Y-52409D01*
X42849Y-52484D01*
X42831Y-52521D01*
X42812Y-52540D01*
X42774Y-52559D01*
X42737Y-52559D01*
X42699Y-52540D01*
X42681Y-52521D01*
X42662Y-52484D01*
X42643Y-52409D01*
X42643Y-52315D01*
X42662Y-52240D01*
X42681Y-52203D01*
X42699Y-52184D01*
X42737Y-52165D01*
X43243Y-52559D02*
X43018Y-52559D01*
X43131Y-52559D02*
X43131Y-52165D01*
X43093Y-52221D01*
X43056Y-52259D01*
X43018Y-52278D01*
X48725Y-50143D02*
X48725Y-50462D01*
X48743Y-50499D01*
X48762Y-50518D01*
X48800Y-50537D01*
X48875Y-50537D01*
X48912Y-50518D01*
X48931Y-50499D01*
X48950Y-50462D01*
X48950Y-50143D01*
X49118Y-50181D02*
X49137Y-50162D01*
X49175Y-50143D01*
X49268Y-50143D01*
X49306Y-50162D01*
X49325Y-50181D01*
X49343Y-50218D01*
X49343Y-50256D01*
X49325Y-50312D01*
X49100Y-50537D01*
X49343Y-50537D01*
X49587Y-50143D02*
X49624Y-50143D01*
X49662Y-50162D01*
X49681Y-50181D01*
X49699Y-50218D01*
X49718Y-50293D01*
X49718Y-50387D01*
X49699Y-50462D01*
X49681Y-50499D01*
X49662Y-50518D01*
X49624Y-50537D01*
X49587Y-50537D01*
X49549Y-50518D01*
X49531Y-50499D01*
X49512Y-50462D01*
X49493Y-50387D01*
X49493Y-50293D01*
X49512Y-50218D01*
X49531Y-50181D01*
X49549Y-50162D01*
X49587Y-50143D01*
X49849Y-50143D02*
X50093Y-50143D01*
X49962Y-50293D01*
X50018Y-50293D01*
X50056Y-50312D01*
X50074Y-50331D01*
X50093Y-50368D01*
X50093Y-50462D01*
X50074Y-50499D01*
X50056Y-50518D01*
X50018Y-50537D01*
X49906Y-50537D01*
X49868Y-50518D01*
X49849Y-50499D01*
X48725Y-41303D02*
X48725Y-41622D01*
X48743Y-41659D01*
X48762Y-41678D01*
X48800Y-41697D01*
X48875Y-41697D01*
X48912Y-41678D01*
X48931Y-41659D01*
X48950Y-41622D01*
X48950Y-41303D01*
X49118Y-41340D02*
X49137Y-41322D01*
X49175Y-41303D01*
X49268Y-41303D01*
X49306Y-41322D01*
X49325Y-41340D01*
X49343Y-41378D01*
X49343Y-41415D01*
X49325Y-41472D01*
X49100Y-41697D01*
X49343Y-41697D01*
X49587Y-41303D02*
X49624Y-41303D01*
X49662Y-41322D01*
X49681Y-41340D01*
X49699Y-41378D01*
X49718Y-41453D01*
X49718Y-41547D01*
X49699Y-41622D01*
X49681Y-41659D01*
X49662Y-41678D01*
X49624Y-41697D01*
X49587Y-41697D01*
X49549Y-41678D01*
X49531Y-41659D01*
X49512Y-41622D01*
X49493Y-41547D01*
X49493Y-41453D01*
X49512Y-41378D01*
X49531Y-41340D01*
X49549Y-41322D01*
X49587Y-41303D01*
X49868Y-41340D02*
X49887Y-41322D01*
X49924Y-41303D01*
X50018Y-41303D01*
X50056Y-41322D01*
X50074Y-41340D01*
X50093Y-41378D01*
X50093Y-41415D01*
X50074Y-41472D01*
X49849Y-41697D01*
X50093Y-41697D01*
G54D14*
X44383Y-30985D02*
X44383Y-30280D01*
X44625Y-30985D02*
X44443Y-30582D01*
X44625Y-30280D02*
X44383Y-30683D01*
X44867Y-30582D02*
X44827Y-30548D01*
X44807Y-30515D01*
X44787Y-30448D01*
X44787Y-30414D01*
X44807Y-30347D01*
X44827Y-30313D01*
X44867Y-30280D01*
X44948Y-30280D01*
X44988Y-30313D01*
X45009Y-30347D01*
X45029Y-30414D01*
X45029Y-30448D01*
X45009Y-30515D01*
X44988Y-30548D01*
X44948Y-30582D01*
X44867Y-30582D01*
X44827Y-30616D01*
X44807Y-30649D01*
X44787Y-30716D01*
X44787Y-30851D01*
X44807Y-30918D01*
X44827Y-30951D01*
X44867Y-30985D01*
X44948Y-30985D01*
X44988Y-30951D01*
X45009Y-30918D01*
X45029Y-30851D01*
X45029Y-30716D01*
X45009Y-30649D01*
X44988Y-30616D01*
X44948Y-30582D01*
X45291Y-30280D02*
X45332Y-30280D01*
X45372Y-30313D01*
X45392Y-30347D01*
X45412Y-30414D01*
X45433Y-30548D01*
X45433Y-30716D01*
X45412Y-30851D01*
X45392Y-30918D01*
X45372Y-30951D01*
X45332Y-30985D01*
X45291Y-30985D01*
X45251Y-30951D01*
X45231Y-30918D01*
X45211Y-30851D01*
X45190Y-30716D01*
X45190Y-30548D01*
X45211Y-30414D01*
X45231Y-30347D01*
X45251Y-30313D01*
X45291Y-30280D01*
X45836Y-30985D02*
X45594Y-30985D01*
X45715Y-30985D02*
X45715Y-30280D01*
X45675Y-30381D01*
X45635Y-30448D01*
X45594Y-30481D01*
G54D11*
G54D15*
X48866Y-29094D02*
X48866Y-29645D01*
X48886Y-29710D01*
X48907Y-29743D01*
X48947Y-29775D01*
X49029Y-29775D01*
X49070Y-29743D01*
X49090Y-29710D01*
X49110Y-29645D01*
X49110Y-29094D01*
X49375Y-29386D02*
X49335Y-29354D01*
X49314Y-29321D01*
X49294Y-29256D01*
X49294Y-29224D01*
X49314Y-29159D01*
X49335Y-29127D01*
X49375Y-29094D01*
X49457Y-29094D01*
X49498Y-29127D01*
X49518Y-29159D01*
X49538Y-29224D01*
X49538Y-29256D01*
X49518Y-29321D01*
X49498Y-29354D01*
X49457Y-29386D01*
X49375Y-29386D01*
X49335Y-29418D01*
X49314Y-29451D01*
X49294Y-29516D01*
X49294Y-29645D01*
X49314Y-29710D01*
X49335Y-29743D01*
X49375Y-29775D01*
X49457Y-29775D01*
X49498Y-29743D01*
X49518Y-29710D01*
X49538Y-29645D01*
X49538Y-29516D01*
X49518Y-29451D01*
X49498Y-29418D01*
X49457Y-29386D01*
X49803Y-29094D02*
X49844Y-29094D01*
X49885Y-29127D01*
X49905Y-29159D01*
X49926Y-29224D01*
X49946Y-29354D01*
X49946Y-29516D01*
X49926Y-29645D01*
X49905Y-29710D01*
X49885Y-29743D01*
X49844Y-29775D01*
X49803Y-29775D01*
X49763Y-29743D01*
X49742Y-29710D01*
X49722Y-29645D01*
X49701Y-29516D01*
X49701Y-29354D01*
X49722Y-29224D01*
X49742Y-29159D01*
X49763Y-29127D01*
X49803Y-29094D01*
X50354Y-29775D02*
X50109Y-29775D01*
X50231Y-29775D02*
X50231Y-29094D01*
X50191Y-29191D01*
X50150Y-29256D01*
X50109Y-29289D01*
G54D11*
G54D15*
X54085Y-30123D02*
X53404Y-30123D01*
X53404Y-29960D01*
X53437Y-29919D01*
X53469Y-29899D01*
X53534Y-29878D01*
X53631Y-29878D01*
X53696Y-29899D01*
X53728Y-29919D01*
X53761Y-29960D01*
X53761Y-30123D01*
X53696Y-29634D02*
X53664Y-29675D01*
X53631Y-29695D01*
X53566Y-29715D01*
X53534Y-29715D01*
X53469Y-29695D01*
X53437Y-29675D01*
X53404Y-29634D01*
X53404Y-29552D01*
X53437Y-29512D01*
X53469Y-29491D01*
X53534Y-29471D01*
X53566Y-29471D01*
X53631Y-29491D01*
X53664Y-29512D01*
X53696Y-29552D01*
X53696Y-29634D01*
X53728Y-29675D01*
X53761Y-29695D01*
X53826Y-29715D01*
X53955Y-29715D01*
X54020Y-29695D01*
X54053Y-29675D01*
X54085Y-29634D01*
X54085Y-29552D01*
X54053Y-29512D01*
X54020Y-29491D01*
X53955Y-29471D01*
X53826Y-29471D01*
X53761Y-29491D01*
X53728Y-29512D01*
X53696Y-29552D01*
X53404Y-29206D02*
X53404Y-29165D01*
X53437Y-29124D01*
X53469Y-29104D01*
X53534Y-29084D01*
X53664Y-29063D01*
X53826Y-29063D01*
X53955Y-29084D01*
X54020Y-29104D01*
X54053Y-29124D01*
X54085Y-29165D01*
X54085Y-29206D01*
X54053Y-29247D01*
X54020Y-29267D01*
X53955Y-29287D01*
X53826Y-29308D01*
X53664Y-29308D01*
X53534Y-29287D01*
X53469Y-29267D01*
X53437Y-29247D01*
X53404Y-29206D01*
X54085Y-28656D02*
X54085Y-28900D01*
X54085Y-28778D02*
X53404Y-28778D01*
X53501Y-28819D01*
X53566Y-28859D01*
X53599Y-28900D01*
G54D11*
G54D13*
X69811Y-34050D02*
X69830Y-34069D01*
X69849Y-34125D01*
X69849Y-34163D01*
X69830Y-34219D01*
X69793Y-34256D01*
X69755Y-34275D01*
X69680Y-34294D01*
X69624Y-34294D01*
X69549Y-34275D01*
X69511Y-34256D01*
X69474Y-34219D01*
X69455Y-34163D01*
X69455Y-34125D01*
X69474Y-34069D01*
X69493Y-34050D01*
X69455Y-33919D02*
X69455Y-33675D01*
X69605Y-33806D01*
X69605Y-33750D01*
X69624Y-33713D01*
X69643Y-33694D01*
X69680Y-33675D01*
X69774Y-33675D01*
X69811Y-33694D01*
X69830Y-33713D01*
X69849Y-33750D01*
X69849Y-33863D01*
X69830Y-33900D01*
X69811Y-33919D01*
X69849Y-33300D02*
X69849Y-33525D01*
X69849Y-33413D02*
X69455Y-33413D01*
X69511Y-33450D01*
X69549Y-33488D01*
X69568Y-33525D01*
X69455Y-33169D02*
X69455Y-32906D01*
X69849Y-33075D01*
X69781Y-52450D02*
X69800Y-52469D01*
X69819Y-52525D01*
X69819Y-52563D01*
X69800Y-52619D01*
X69763Y-52656D01*
X69725Y-52675D01*
X69650Y-52694D01*
X69594Y-52694D01*
X69519Y-52675D01*
X69481Y-52656D01*
X69444Y-52619D01*
X69425Y-52563D01*
X69425Y-52525D01*
X69444Y-52469D01*
X69463Y-52450D01*
X69425Y-52319D02*
X69425Y-52075D01*
X69575Y-52206D01*
X69575Y-52150D01*
X69594Y-52113D01*
X69613Y-52094D01*
X69650Y-52075D01*
X69744Y-52075D01*
X69781Y-52094D01*
X69800Y-52113D01*
X69819Y-52150D01*
X69819Y-52263D01*
X69800Y-52300D01*
X69781Y-52319D01*
X69425Y-51831D02*
X69425Y-51794D01*
X69444Y-51756D01*
X69463Y-51738D01*
X69500Y-51719D01*
X69575Y-51700D01*
X69669Y-51700D01*
X69744Y-51719D01*
X69781Y-51738D01*
X69800Y-51756D01*
X69819Y-51794D01*
X69819Y-51831D01*
X69800Y-51869D01*
X69781Y-51888D01*
X69744Y-51906D01*
X69669Y-51925D01*
X69575Y-51925D01*
X69500Y-51906D01*
X69463Y-51888D01*
X69444Y-51869D01*
X69425Y-51831D01*
X69425Y-51569D02*
X69425Y-51325D01*
X69575Y-51456D01*
X69575Y-51400D01*
X69594Y-51363D01*
X69613Y-51344D01*
X69650Y-51325D01*
X69744Y-51325D01*
X69781Y-51344D01*
X69800Y-51363D01*
X69819Y-51400D01*
X69819Y-51513D01*
X69800Y-51550D01*
X69781Y-51569D01*
X69801Y-49450D02*
X69820Y-49469D01*
X69839Y-49525D01*
X69839Y-49563D01*
X69820Y-49619D01*
X69783Y-49656D01*
X69745Y-49675D01*
X69670Y-49694D01*
X69614Y-49694D01*
X69539Y-49675D01*
X69501Y-49656D01*
X69464Y-49619D01*
X69445Y-49563D01*
X69445Y-49525D01*
X69464Y-49469D01*
X69483Y-49450D01*
X69445Y-49319D02*
X69445Y-49075D01*
X69595Y-49206D01*
X69595Y-49150D01*
X69614Y-49113D01*
X69633Y-49094D01*
X69670Y-49075D01*
X69764Y-49075D01*
X69801Y-49094D01*
X69820Y-49113D01*
X69839Y-49150D01*
X69839Y-49263D01*
X69820Y-49300D01*
X69801Y-49319D01*
X69445Y-48831D02*
X69445Y-48794D01*
X69464Y-48756D01*
X69483Y-48738D01*
X69520Y-48719D01*
X69595Y-48700D01*
X69689Y-48700D01*
X69764Y-48719D01*
X69801Y-48738D01*
X69820Y-48756D01*
X69839Y-48794D01*
X69839Y-48831D01*
X69820Y-48869D01*
X69801Y-48888D01*
X69764Y-48906D01*
X69689Y-48925D01*
X69595Y-48925D01*
X69520Y-48906D01*
X69483Y-48888D01*
X69464Y-48869D01*
X69445Y-48831D01*
X69576Y-48363D02*
X69839Y-48363D01*
X69426Y-48456D02*
X69708Y-48550D01*
X69708Y-48306D01*
X69801Y-43150D02*
X69820Y-43169D01*
X69839Y-43225D01*
X69839Y-43263D01*
X69820Y-43319D01*
X69783Y-43356D01*
X69745Y-43375D01*
X69670Y-43394D01*
X69614Y-43394D01*
X69539Y-43375D01*
X69501Y-43356D01*
X69464Y-43319D01*
X69445Y-43263D01*
X69445Y-43225D01*
X69464Y-43169D01*
X69483Y-43150D01*
X69445Y-43019D02*
X69445Y-42775D01*
X69595Y-42906D01*
X69595Y-42850D01*
X69614Y-42813D01*
X69633Y-42794D01*
X69670Y-42775D01*
X69764Y-42775D01*
X69801Y-42794D01*
X69820Y-42813D01*
X69839Y-42850D01*
X69839Y-42963D01*
X69820Y-43000D01*
X69801Y-43019D01*
X69445Y-42531D02*
X69445Y-42494D01*
X69464Y-42456D01*
X69483Y-42438D01*
X69520Y-42419D01*
X69595Y-42400D01*
X69689Y-42400D01*
X69764Y-42419D01*
X69801Y-42438D01*
X69820Y-42456D01*
X69839Y-42494D01*
X69839Y-42531D01*
X69820Y-42569D01*
X69801Y-42588D01*
X69764Y-42606D01*
X69689Y-42625D01*
X69595Y-42625D01*
X69520Y-42606D01*
X69483Y-42588D01*
X69464Y-42569D01*
X69445Y-42531D01*
X69445Y-42044D02*
X69445Y-42231D01*
X69633Y-42250D01*
X69614Y-42231D01*
X69595Y-42194D01*
X69595Y-42100D01*
X69614Y-42063D01*
X69633Y-42044D01*
X69670Y-42025D01*
X69764Y-42025D01*
X69801Y-42044D01*
X69820Y-42063D01*
X69839Y-42100D01*
X69839Y-42194D01*
X69820Y-42231D01*
X69801Y-42250D01*
X69801Y-46060D02*
X69820Y-46079D01*
X69839Y-46135D01*
X69839Y-46173D01*
X69820Y-46229D01*
X69783Y-46266D01*
X69745Y-46285D01*
X69670Y-46304D01*
X69614Y-46304D01*
X69539Y-46285D01*
X69501Y-46266D01*
X69464Y-46229D01*
X69445Y-46173D01*
X69445Y-46135D01*
X69464Y-46079D01*
X69483Y-46060D01*
X69445Y-45929D02*
X69445Y-45685D01*
X69595Y-45816D01*
X69595Y-45760D01*
X69614Y-45723D01*
X69633Y-45704D01*
X69670Y-45685D01*
X69764Y-45685D01*
X69801Y-45704D01*
X69820Y-45723D01*
X69839Y-45760D01*
X69839Y-45873D01*
X69820Y-45910D01*
X69801Y-45929D01*
X69445Y-45441D02*
X69445Y-45404D01*
X69464Y-45366D01*
X69483Y-45348D01*
X69520Y-45329D01*
X69595Y-45310D01*
X69689Y-45310D01*
X69764Y-45329D01*
X69801Y-45348D01*
X69820Y-45366D01*
X69839Y-45404D01*
X69839Y-45441D01*
X69820Y-45479D01*
X69801Y-45498D01*
X69764Y-45516D01*
X69689Y-45535D01*
X69595Y-45535D01*
X69520Y-45516D01*
X69483Y-45498D01*
X69464Y-45479D01*
X69445Y-45441D01*
X69445Y-44973D02*
X69445Y-45048D01*
X69464Y-45085D01*
X69483Y-45104D01*
X69539Y-45141D01*
X69614Y-45160D01*
X69764Y-45160D01*
X69801Y-45141D01*
X69820Y-45123D01*
X69839Y-45085D01*
X69839Y-45010D01*
X69820Y-44973D01*
X69801Y-44954D01*
X69764Y-44935D01*
X69670Y-44935D01*
X69633Y-44954D01*
X69614Y-44973D01*
X69595Y-45010D01*
X69595Y-45085D01*
X69614Y-45123D01*
X69633Y-45141D01*
X69670Y-45160D01*
X69771Y-30980D02*
X69790Y-30999D01*
X69809Y-31055D01*
X69809Y-31093D01*
X69790Y-31149D01*
X69753Y-31186D01*
X69715Y-31205D01*
X69640Y-31224D01*
X69584Y-31224D01*
X69509Y-31205D01*
X69471Y-31186D01*
X69434Y-31149D01*
X69415Y-31093D01*
X69415Y-31055D01*
X69434Y-30999D01*
X69453Y-30980D01*
X69415Y-30849D02*
X69415Y-30605D01*
X69565Y-30736D01*
X69565Y-30680D01*
X69584Y-30643D01*
X69603Y-30624D01*
X69640Y-30605D01*
X69734Y-30605D01*
X69771Y-30624D01*
X69790Y-30643D01*
X69809Y-30680D01*
X69809Y-30793D01*
X69790Y-30830D01*
X69771Y-30849D01*
X69809Y-30230D02*
X69809Y-30455D01*
X69809Y-30343D02*
X69415Y-30343D01*
X69471Y-30380D01*
X69509Y-30418D01*
X69528Y-30455D01*
X69415Y-29893D02*
X69415Y-29968D01*
X69434Y-30005D01*
X69453Y-30024D01*
X69509Y-30061D01*
X69584Y-30080D01*
X69734Y-30080D01*
X69771Y-30061D01*
X69790Y-30043D01*
X69809Y-30005D01*
X69809Y-29930D01*
X69790Y-29893D01*
X69771Y-29874D01*
X69734Y-29855D01*
X69640Y-29855D01*
X69603Y-29874D01*
X69584Y-29893D01*
X69565Y-29930D01*
X69565Y-30005D01*
X69584Y-30043D01*
X69603Y-30061D01*
X69640Y-30080D01*
X69831Y-40040D02*
X69850Y-40059D01*
X69869Y-40115D01*
X69869Y-40153D01*
X69850Y-40209D01*
X69813Y-40246D01*
X69775Y-40265D01*
X69700Y-40284D01*
X69644Y-40284D01*
X69569Y-40265D01*
X69531Y-40246D01*
X69494Y-40209D01*
X69475Y-40153D01*
X69475Y-40115D01*
X69494Y-40059D01*
X69513Y-40040D01*
X69475Y-39909D02*
X69475Y-39665D01*
X69625Y-39796D01*
X69625Y-39740D01*
X69644Y-39703D01*
X69663Y-39684D01*
X69700Y-39665D01*
X69794Y-39665D01*
X69831Y-39684D01*
X69850Y-39703D01*
X69869Y-39740D01*
X69869Y-39853D01*
X69850Y-39890D01*
X69831Y-39909D01*
X69869Y-39290D02*
X69869Y-39515D01*
X69869Y-39403D02*
X69475Y-39403D01*
X69531Y-39440D01*
X69569Y-39478D01*
X69588Y-39515D01*
X69644Y-39065D02*
X69625Y-39103D01*
X69606Y-39121D01*
X69569Y-39140D01*
X69550Y-39140D01*
X69513Y-39121D01*
X69494Y-39103D01*
X69475Y-39065D01*
X69475Y-38990D01*
X69494Y-38953D01*
X69513Y-38934D01*
X69550Y-38915D01*
X69569Y-38915D01*
X69606Y-38934D01*
X69625Y-38953D01*
X69644Y-38990D01*
X69644Y-39065D01*
X69663Y-39103D01*
X69681Y-39121D01*
X69719Y-39140D01*
X69794Y-39140D01*
X69831Y-39121D01*
X69850Y-39103D01*
X69869Y-39065D01*
X69869Y-38990D01*
X69850Y-38953D01*
X69831Y-38934D01*
X69794Y-38915D01*
X69719Y-38915D01*
X69681Y-38934D01*
X69663Y-38953D01*
X69644Y-38990D01*
X69841Y-37060D02*
X69860Y-37079D01*
X69879Y-37135D01*
X69879Y-37173D01*
X69860Y-37229D01*
X69823Y-37266D01*
X69785Y-37285D01*
X69710Y-37304D01*
X69654Y-37304D01*
X69579Y-37285D01*
X69541Y-37266D01*
X69504Y-37229D01*
X69485Y-37173D01*
X69485Y-37135D01*
X69504Y-37079D01*
X69523Y-37060D01*
X69485Y-36929D02*
X69485Y-36685D01*
X69635Y-36816D01*
X69635Y-36760D01*
X69654Y-36723D01*
X69673Y-36704D01*
X69710Y-36685D01*
X69804Y-36685D01*
X69841Y-36704D01*
X69860Y-36723D01*
X69879Y-36760D01*
X69879Y-36873D01*
X69860Y-36910D01*
X69841Y-36929D01*
X69879Y-36310D02*
X69879Y-36535D01*
X69879Y-36423D02*
X69485Y-36423D01*
X69541Y-36460D01*
X69579Y-36498D01*
X69598Y-36535D01*
X69879Y-36123D02*
X69879Y-36048D01*
X69860Y-36010D01*
X69841Y-35991D01*
X69785Y-35954D01*
X69710Y-35935D01*
X69560Y-35935D01*
X69523Y-35954D01*
X69504Y-35973D01*
X69485Y-36010D01*
X69485Y-36085D01*
X69504Y-36123D01*
X69523Y-36141D01*
X69560Y-36160D01*
X69654Y-36160D01*
X69691Y-36141D01*
X69710Y-36123D01*
X69729Y-36085D01*
X69729Y-36010D01*
X69710Y-35973D01*
X69691Y-35954D01*
X69654Y-35935D01*
X39284Y-37065D02*
X39284Y-37253D01*
X38890Y-37253D01*
X39059Y-36878D02*
X39040Y-36915D01*
X39021Y-36934D01*
X38984Y-36953D01*
X38965Y-36953D01*
X38928Y-36934D01*
X38909Y-36915D01*
X38890Y-36878D01*
X38890Y-36803D01*
X38909Y-36765D01*
X38928Y-36746D01*
X38965Y-36728D01*
X38984Y-36728D01*
X39021Y-36746D01*
X39040Y-36765D01*
X39059Y-36803D01*
X39059Y-36878D01*
X39078Y-36915D01*
X39096Y-36934D01*
X39134Y-36953D01*
X39209Y-36953D01*
X39246Y-36934D01*
X39265Y-36915D01*
X39284Y-36878D01*
X39284Y-36803D01*
X39265Y-36765D01*
X39246Y-36746D01*
X39209Y-36728D01*
X39134Y-36728D01*
X39096Y-36746D01*
X39078Y-36765D01*
X39059Y-36803D01*
X38890Y-36484D02*
X38890Y-36446D01*
X38909Y-36409D01*
X38928Y-36390D01*
X38965Y-36371D01*
X39040Y-36353D01*
X39134Y-36353D01*
X39209Y-36371D01*
X39246Y-36390D01*
X39265Y-36409D01*
X39284Y-36446D01*
X39284Y-36484D01*
X39265Y-36521D01*
X39246Y-36540D01*
X39209Y-36559D01*
X39134Y-36578D01*
X39040Y-36578D01*
X38965Y-36559D01*
X38928Y-36540D01*
X38909Y-36521D01*
X38890Y-36484D01*
X39284Y-35978D02*
X39284Y-36203D01*
X39284Y-36090D02*
X38890Y-36090D01*
X38946Y-36128D01*
X38984Y-36165D01*
X39003Y-36203D01*
X54659Y-32659D02*
X54471Y-32659D01*
X54471Y-32265D01*
X54846Y-32434D02*
X54809Y-32415D01*
X54790Y-32396D01*
X54771Y-32359D01*
X54771Y-32340D01*
X54790Y-32303D01*
X54809Y-32284D01*
X54846Y-32265D01*
X54921Y-32265D01*
X54959Y-32284D01*
X54978Y-32303D01*
X54996Y-32340D01*
X54996Y-32359D01*
X54978Y-32396D01*
X54959Y-32415D01*
X54921Y-32434D01*
X54846Y-32434D01*
X54809Y-32453D01*
X54790Y-32471D01*
X54771Y-32509D01*
X54771Y-32584D01*
X54790Y-32621D01*
X54809Y-32640D01*
X54846Y-32659D01*
X54921Y-32659D01*
X54959Y-32640D01*
X54978Y-32621D01*
X54996Y-32584D01*
X54996Y-32509D01*
X54978Y-32471D01*
X54959Y-32453D01*
X54921Y-32434D01*
X55240Y-32265D02*
X55278Y-32265D01*
X55315Y-32284D01*
X55334Y-32303D01*
X55353Y-32340D01*
X55371Y-32415D01*
X55371Y-32509D01*
X55353Y-32584D01*
X55334Y-32621D01*
X55315Y-32640D01*
X55278Y-32659D01*
X55240Y-32659D01*
X55203Y-32640D01*
X55184Y-32621D01*
X55165Y-32584D01*
X55146Y-32509D01*
X55146Y-32415D01*
X55165Y-32340D01*
X55184Y-32303D01*
X55203Y-32284D01*
X55240Y-32265D01*
X55521Y-32303D02*
X55540Y-32284D01*
X55578Y-32265D01*
X55671Y-32265D01*
X55709Y-32284D01*
X55728Y-32303D01*
X55746Y-32340D01*
X55746Y-32378D01*
X55728Y-32434D01*
X55503Y-32659D01*
X55746Y-32659D01*
X45325Y-34940D02*
X45325Y-35259D01*
X45343Y-35296D01*
X45362Y-35315D01*
X45400Y-35334D01*
X45475Y-35334D01*
X45512Y-35315D01*
X45531Y-35296D01*
X45550Y-35259D01*
X45550Y-34940D01*
X45793Y-35109D02*
X45756Y-35090D01*
X45737Y-35071D01*
X45718Y-35034D01*
X45718Y-35015D01*
X45737Y-34978D01*
X45756Y-34959D01*
X45793Y-34940D01*
X45868Y-34940D01*
X45906Y-34959D01*
X45925Y-34978D01*
X45943Y-35015D01*
X45943Y-35034D01*
X45925Y-35071D01*
X45906Y-35090D01*
X45868Y-35109D01*
X45793Y-35109D01*
X45756Y-35128D01*
X45737Y-35146D01*
X45718Y-35184D01*
X45718Y-35259D01*
X45737Y-35296D01*
X45756Y-35315D01*
X45793Y-35334D01*
X45868Y-35334D01*
X45906Y-35315D01*
X45925Y-35296D01*
X45943Y-35259D01*
X45943Y-35184D01*
X45925Y-35146D01*
X45906Y-35128D01*
X45868Y-35109D01*
X46187Y-34940D02*
X46224Y-34940D01*
X46262Y-34959D01*
X46281Y-34978D01*
X46299Y-35015D01*
X46318Y-35090D01*
X46318Y-35184D01*
X46299Y-35259D01*
X46281Y-35296D01*
X46262Y-35315D01*
X46224Y-35334D01*
X46187Y-35334D01*
X46149Y-35315D01*
X46131Y-35296D01*
X46112Y-35259D01*
X46093Y-35184D01*
X46093Y-35090D01*
X46112Y-35015D01*
X46131Y-34978D01*
X46149Y-34959D01*
X46187Y-34940D01*
X46656Y-35071D02*
X46656Y-35334D01*
X46562Y-34921D02*
X46468Y-35203D01*
X46712Y-35203D01*
X52625Y-37865D02*
X52625Y-38184D01*
X52643Y-38221D01*
X52662Y-38240D01*
X52700Y-38259D01*
X52775Y-38259D01*
X52812Y-38240D01*
X52831Y-38221D01*
X52850Y-38184D01*
X52850Y-37865D01*
X53093Y-38034D02*
X53056Y-38015D01*
X53037Y-37996D01*
X53018Y-37959D01*
X53018Y-37940D01*
X53037Y-37903D01*
X53056Y-37884D01*
X53093Y-37865D01*
X53168Y-37865D01*
X53206Y-37884D01*
X53225Y-37903D01*
X53243Y-37940D01*
X53243Y-37959D01*
X53225Y-37996D01*
X53206Y-38015D01*
X53168Y-38034D01*
X53093Y-38034D01*
X53056Y-38053D01*
X53037Y-38071D01*
X53018Y-38109D01*
X53018Y-38184D01*
X53037Y-38221D01*
X53056Y-38240D01*
X53093Y-38259D01*
X53168Y-38259D01*
X53206Y-38240D01*
X53225Y-38221D01*
X53243Y-38184D01*
X53243Y-38109D01*
X53225Y-38071D01*
X53206Y-38053D01*
X53168Y-38034D01*
X53487Y-37865D02*
X53524Y-37865D01*
X53562Y-37884D01*
X53581Y-37903D01*
X53599Y-37940D01*
X53618Y-38015D01*
X53618Y-38109D01*
X53599Y-38184D01*
X53581Y-38221D01*
X53562Y-38240D01*
X53524Y-38259D01*
X53487Y-38259D01*
X53449Y-38240D01*
X53431Y-38221D01*
X53412Y-38184D01*
X53393Y-38109D01*
X53393Y-38015D01*
X53412Y-37940D01*
X53431Y-37903D01*
X53449Y-37884D01*
X53487Y-37865D01*
X53768Y-37903D02*
X53787Y-37884D01*
X53824Y-37865D01*
X53918Y-37865D01*
X53956Y-37884D01*
X53974Y-37903D01*
X53993Y-37940D01*
X53993Y-37978D01*
X53974Y-38034D01*
X53749Y-38259D01*
X53993Y-38259D01*
X55059Y-50265D02*
X54665Y-50265D01*
X54665Y-50171D01*
X54684Y-50115D01*
X54721Y-50078D01*
X54759Y-50059D01*
X54834Y-50040D01*
X54890Y-50040D01*
X54965Y-50059D01*
X55003Y-50078D01*
X55040Y-50115D01*
X55059Y-50171D01*
X55059Y-50265D01*
X54834Y-49815D02*
X54815Y-49853D01*
X54796Y-49871D01*
X54759Y-49890D01*
X54740Y-49890D01*
X54703Y-49871D01*
X54684Y-49853D01*
X54665Y-49815D01*
X54665Y-49740D01*
X54684Y-49703D01*
X54703Y-49684D01*
X54740Y-49665D01*
X54759Y-49665D01*
X54796Y-49684D01*
X54815Y-49703D01*
X54834Y-49740D01*
X54834Y-49815D01*
X54853Y-49853D01*
X54871Y-49871D01*
X54909Y-49890D01*
X54984Y-49890D01*
X55021Y-49871D01*
X55040Y-49853D01*
X55059Y-49815D01*
X55059Y-49740D01*
X55040Y-49703D01*
X55021Y-49684D01*
X54984Y-49665D01*
X54909Y-49665D01*
X54871Y-49684D01*
X54853Y-49703D01*
X54834Y-49740D01*
X54665Y-49421D02*
X54665Y-49384D01*
X54684Y-49346D01*
X54703Y-49328D01*
X54740Y-49309D01*
X54815Y-49290D01*
X54909Y-49290D01*
X54984Y-49309D01*
X55021Y-49328D01*
X55040Y-49346D01*
X55059Y-49384D01*
X55059Y-49421D01*
X55040Y-49459D01*
X55021Y-49478D01*
X54984Y-49496D01*
X54909Y-49515D01*
X54815Y-49515D01*
X54740Y-49496D01*
X54703Y-49478D01*
X54684Y-49459D01*
X54665Y-49421D01*
X54703Y-49140D02*
X54684Y-49121D01*
X54665Y-49084D01*
X54665Y-48990D01*
X54684Y-48953D01*
X54703Y-48934D01*
X54740Y-48915D01*
X54778Y-48915D01*
X54834Y-48934D01*
X55059Y-49159D01*
X55059Y-48915D01*
X52859Y-50515D02*
X52465Y-50515D01*
X52465Y-50421D01*
X52484Y-50365D01*
X52521Y-50328D01*
X52559Y-50309D01*
X52634Y-50290D01*
X52690Y-50290D01*
X52765Y-50309D01*
X52803Y-50328D01*
X52840Y-50365D01*
X52859Y-50421D01*
X52859Y-50515D01*
X52634Y-50065D02*
X52615Y-50103D01*
X52596Y-50121D01*
X52559Y-50140D01*
X52540Y-50140D01*
X52503Y-50121D01*
X52484Y-50103D01*
X52465Y-50065D01*
X52465Y-49990D01*
X52484Y-49953D01*
X52503Y-49934D01*
X52540Y-49915D01*
X52559Y-49915D01*
X52596Y-49934D01*
X52615Y-49953D01*
X52634Y-49990D01*
X52634Y-50065D01*
X52653Y-50103D01*
X52671Y-50121D01*
X52709Y-50140D01*
X52784Y-50140D01*
X52821Y-50121D01*
X52840Y-50103D01*
X52859Y-50065D01*
X52859Y-49990D01*
X52840Y-49953D01*
X52821Y-49934D01*
X52784Y-49915D01*
X52709Y-49915D01*
X52671Y-49934D01*
X52653Y-49953D01*
X52634Y-49990D01*
X52465Y-49671D02*
X52465Y-49634D01*
X52484Y-49596D01*
X52503Y-49578D01*
X52540Y-49559D01*
X52615Y-49540D01*
X52709Y-49540D01*
X52784Y-49559D01*
X52821Y-49578D01*
X52840Y-49596D01*
X52859Y-49634D01*
X52859Y-49671D01*
X52840Y-49709D01*
X52821Y-49728D01*
X52784Y-49746D01*
X52709Y-49765D01*
X52615Y-49765D01*
X52540Y-49746D01*
X52503Y-49728D01*
X52484Y-49709D01*
X52465Y-49671D01*
X52859Y-49165D02*
X52859Y-49390D01*
X52859Y-49278D02*
X52465Y-49278D01*
X52521Y-49315D01*
X52559Y-49353D01*
X52578Y-49390D01*
X52709Y-32131D02*
X52690Y-32150D01*
X52634Y-32169D01*
X52596Y-32169D01*
X52540Y-32150D01*
X52503Y-32113D01*
X52484Y-32075D01*
X52465Y-32000D01*
X52465Y-31944D01*
X52484Y-31869D01*
X52503Y-31831D01*
X52540Y-31794D01*
X52596Y-31775D01*
X52634Y-31775D01*
X52690Y-31794D01*
X52709Y-31813D01*
X52934Y-31944D02*
X52896Y-31925D01*
X52878Y-31906D01*
X52859Y-31869D01*
X52859Y-31850D01*
X52878Y-31813D01*
X52896Y-31794D01*
X52934Y-31775D01*
X53009Y-31775D01*
X53046Y-31794D01*
X53065Y-31813D01*
X53084Y-31850D01*
X53084Y-31869D01*
X53065Y-31906D01*
X53046Y-31925D01*
X53009Y-31944D01*
X52934Y-31944D01*
X52896Y-31963D01*
X52878Y-31981D01*
X52859Y-32019D01*
X52859Y-32094D01*
X52878Y-32131D01*
X52896Y-32150D01*
X52934Y-32169D01*
X53009Y-32169D01*
X53046Y-32150D01*
X53065Y-32131D01*
X53084Y-32094D01*
X53084Y-32019D01*
X53065Y-31981D01*
X53046Y-31963D01*
X53009Y-31944D01*
X53459Y-32169D02*
X53234Y-32169D01*
X53346Y-32169D02*
X53346Y-31775D01*
X53309Y-31831D01*
X53271Y-31869D01*
X53234Y-31888D01*
X53796Y-31775D02*
X53721Y-31775D01*
X53684Y-31794D01*
X53665Y-31813D01*
X53628Y-31869D01*
X53609Y-31944D01*
X53609Y-32094D01*
X53628Y-32131D01*
X53646Y-32150D01*
X53684Y-32169D01*
X53759Y-32169D01*
X53796Y-32150D01*
X53815Y-32131D01*
X53834Y-32094D01*
X53834Y-32000D01*
X53815Y-31963D01*
X53796Y-31944D01*
X53759Y-31925D01*
X53684Y-31925D01*
X53646Y-31944D01*
X53628Y-31963D01*
X53609Y-32000D01*
X49787Y-38840D02*
X49806Y-38859D01*
X49825Y-38915D01*
X49825Y-38953D01*
X49806Y-39009D01*
X49768Y-39046D01*
X49731Y-39065D01*
X49656Y-39084D01*
X49600Y-39084D01*
X49525Y-39065D01*
X49487Y-39046D01*
X49450Y-39009D01*
X49431Y-38953D01*
X49431Y-38915D01*
X49450Y-38859D01*
X49468Y-38840D01*
X49600Y-38615D02*
X49581Y-38653D01*
X49562Y-38671D01*
X49525Y-38690D01*
X49506Y-38690D01*
X49468Y-38671D01*
X49450Y-38653D01*
X49431Y-38615D01*
X49431Y-38540D01*
X49450Y-38503D01*
X49468Y-38484D01*
X49506Y-38465D01*
X49525Y-38465D01*
X49562Y-38484D01*
X49581Y-38503D01*
X49600Y-38540D01*
X49600Y-38615D01*
X49618Y-38653D01*
X49637Y-38671D01*
X49675Y-38690D01*
X49750Y-38690D01*
X49787Y-38671D01*
X49806Y-38653D01*
X49825Y-38615D01*
X49825Y-38540D01*
X49806Y-38503D01*
X49787Y-38484D01*
X49750Y-38465D01*
X49675Y-38465D01*
X49637Y-38484D01*
X49618Y-38503D01*
X49600Y-38540D01*
X49431Y-38221D02*
X49431Y-38184D01*
X49450Y-38146D01*
X49468Y-38128D01*
X49506Y-38109D01*
X49581Y-38090D01*
X49675Y-38090D01*
X49750Y-38109D01*
X49787Y-38128D01*
X49806Y-38146D01*
X49825Y-38184D01*
X49825Y-38221D01*
X49806Y-38259D01*
X49787Y-38278D01*
X49750Y-38296D01*
X49675Y-38315D01*
X49581Y-38315D01*
X49506Y-38296D01*
X49468Y-38278D01*
X49450Y-38259D01*
X49431Y-38221D01*
X49825Y-37715D02*
X49825Y-37940D01*
X49825Y-37828D02*
X49431Y-37828D01*
X49487Y-37865D01*
X49525Y-37903D01*
X49543Y-37940D01*
X56771Y-32890D02*
X56790Y-32909D01*
X56809Y-32965D01*
X56809Y-33003D01*
X56790Y-33059D01*
X56753Y-33096D01*
X56715Y-33115D01*
X56640Y-33134D01*
X56584Y-33134D01*
X56509Y-33115D01*
X56471Y-33096D01*
X56434Y-33059D01*
X56415Y-33003D01*
X56415Y-32965D01*
X56434Y-32909D01*
X56453Y-32890D01*
X56584Y-32665D02*
X56565Y-32703D01*
X56546Y-32721D01*
X56509Y-32740D01*
X56490Y-32740D01*
X56453Y-32721D01*
X56434Y-32703D01*
X56415Y-32665D01*
X56415Y-32590D01*
X56434Y-32553D01*
X56453Y-32534D01*
X56490Y-32515D01*
X56509Y-32515D01*
X56546Y-32534D01*
X56565Y-32553D01*
X56584Y-32590D01*
X56584Y-32665D01*
X56603Y-32703D01*
X56621Y-32721D01*
X56659Y-32740D01*
X56734Y-32740D01*
X56771Y-32721D01*
X56790Y-32703D01*
X56809Y-32665D01*
X56809Y-32590D01*
X56790Y-32553D01*
X56771Y-32534D01*
X56734Y-32515D01*
X56659Y-32515D01*
X56621Y-32534D01*
X56603Y-32553D01*
X56584Y-32590D01*
X56809Y-32140D02*
X56809Y-32365D01*
X56809Y-32253D02*
X56415Y-32253D01*
X56471Y-32290D01*
X56509Y-32328D01*
X56528Y-32365D01*
X56809Y-31765D02*
X56809Y-31990D01*
X56809Y-31878D02*
X56415Y-31878D01*
X56471Y-31915D01*
X56509Y-31953D01*
X56528Y-31990D01*
X55671Y-38440D02*
X55690Y-38459D01*
X55709Y-38515D01*
X55709Y-38553D01*
X55690Y-38609D01*
X55653Y-38646D01*
X55615Y-38665D01*
X55540Y-38684D01*
X55484Y-38684D01*
X55409Y-38665D01*
X55371Y-38646D01*
X55334Y-38609D01*
X55315Y-38553D01*
X55315Y-38515D01*
X55334Y-38459D01*
X55353Y-38440D01*
X55484Y-38215D02*
X55465Y-38253D01*
X55446Y-38271D01*
X55409Y-38290D01*
X55390Y-38290D01*
X55353Y-38271D01*
X55334Y-38253D01*
X55315Y-38215D01*
X55315Y-38140D01*
X55334Y-38103D01*
X55353Y-38084D01*
X55390Y-38065D01*
X55409Y-38065D01*
X55446Y-38084D01*
X55465Y-38103D01*
X55484Y-38140D01*
X55484Y-38215D01*
X55503Y-38253D01*
X55521Y-38271D01*
X55559Y-38290D01*
X55634Y-38290D01*
X55671Y-38271D01*
X55690Y-38253D01*
X55709Y-38215D01*
X55709Y-38140D01*
X55690Y-38103D01*
X55671Y-38084D01*
X55634Y-38065D01*
X55559Y-38065D01*
X55521Y-38084D01*
X55503Y-38103D01*
X55484Y-38140D01*
X55709Y-37690D02*
X55709Y-37915D01*
X55709Y-37803D02*
X55315Y-37803D01*
X55371Y-37840D01*
X55409Y-37878D01*
X55428Y-37915D01*
X55353Y-37540D02*
X55334Y-37521D01*
X55315Y-37484D01*
X55315Y-37390D01*
X55334Y-37353D01*
X55353Y-37334D01*
X55390Y-37315D01*
X55428Y-37315D01*
X55484Y-37334D01*
X55709Y-37559D01*
X55709Y-37315D01*
X62771Y-44140D02*
X62790Y-44159D01*
X62809Y-44215D01*
X62809Y-44253D01*
X62790Y-44309D01*
X62753Y-44346D01*
X62715Y-44365D01*
X62640Y-44384D01*
X62584Y-44384D01*
X62509Y-44365D01*
X62471Y-44346D01*
X62434Y-44309D01*
X62415Y-44253D01*
X62415Y-44215D01*
X62434Y-44159D01*
X62453Y-44140D01*
X62415Y-43784D02*
X62415Y-43971D01*
X62603Y-43990D01*
X62584Y-43971D01*
X62565Y-43934D01*
X62565Y-43840D01*
X62584Y-43803D01*
X62603Y-43784D01*
X62640Y-43765D01*
X62734Y-43765D01*
X62771Y-43784D01*
X62790Y-43803D01*
X62809Y-43840D01*
X62809Y-43934D01*
X62790Y-43971D01*
X62771Y-43990D01*
X62415Y-43521D02*
X62415Y-43484D01*
X62434Y-43446D01*
X62453Y-43428D01*
X62490Y-43409D01*
X62565Y-43390D01*
X62659Y-43390D01*
X62734Y-43409D01*
X62771Y-43428D01*
X62790Y-43446D01*
X62809Y-43484D01*
X62809Y-43521D01*
X62790Y-43559D01*
X62771Y-43578D01*
X62734Y-43596D01*
X62659Y-43615D01*
X62565Y-43615D01*
X62490Y-43596D01*
X62453Y-43578D01*
X62434Y-43559D01*
X62415Y-43521D01*
X62415Y-43259D02*
X62415Y-43015D01*
X62565Y-43146D01*
X62565Y-43090D01*
X62584Y-43053D01*
X62603Y-43034D01*
X62640Y-43015D01*
X62734Y-43015D01*
X62771Y-43034D01*
X62790Y-43053D01*
X62809Y-43090D01*
X62809Y-43203D01*
X62790Y-43240D01*
X62771Y-43259D01*
X57809Y-39171D02*
X57790Y-39190D01*
X57734Y-39209D01*
X57696Y-39209D01*
X57640Y-39190D01*
X57603Y-39153D01*
X57584Y-39115D01*
X57565Y-39040D01*
X57565Y-38984D01*
X57584Y-38909D01*
X57603Y-38871D01*
X57640Y-38834D01*
X57696Y-38815D01*
X57734Y-38815D01*
X57790Y-38834D01*
X57809Y-38853D01*
X58034Y-38984D02*
X57996Y-38965D01*
X57978Y-38946D01*
X57959Y-38909D01*
X57959Y-38890D01*
X57978Y-38853D01*
X57996Y-38834D01*
X58034Y-38815D01*
X58109Y-38815D01*
X58146Y-38834D01*
X58165Y-38853D01*
X58184Y-38890D01*
X58184Y-38909D01*
X58165Y-38946D01*
X58146Y-38965D01*
X58109Y-38984D01*
X58034Y-38984D01*
X57996Y-39003D01*
X57978Y-39021D01*
X57959Y-39059D01*
X57959Y-39134D01*
X57978Y-39171D01*
X57996Y-39190D01*
X58034Y-39209D01*
X58109Y-39209D01*
X58146Y-39190D01*
X58165Y-39171D01*
X58184Y-39134D01*
X58184Y-39059D01*
X58165Y-39021D01*
X58146Y-39003D01*
X58109Y-38984D01*
X58428Y-38815D02*
X58465Y-38815D01*
X58503Y-38834D01*
X58521Y-38853D01*
X58540Y-38890D01*
X58559Y-38965D01*
X58559Y-39059D01*
X58540Y-39134D01*
X58521Y-39171D01*
X58503Y-39190D01*
X58465Y-39209D01*
X58428Y-39209D01*
X58390Y-39190D01*
X58371Y-39171D01*
X58353Y-39134D01*
X58334Y-39059D01*
X58334Y-38965D01*
X58353Y-38890D01*
X58371Y-38853D01*
X58390Y-38834D01*
X58428Y-38815D01*
X58709Y-38853D02*
X58728Y-38834D01*
X58765Y-38815D01*
X58859Y-38815D01*
X58896Y-38834D01*
X58915Y-38853D01*
X58934Y-38890D01*
X58934Y-38928D01*
X58915Y-38984D01*
X58690Y-39209D01*
X58934Y-39209D01*
X61499Y-28951D02*
X61480Y-28970D01*
X61424Y-28989D01*
X61386Y-28989D01*
X61330Y-28970D01*
X61293Y-28933D01*
X61274Y-28895D01*
X61255Y-28820D01*
X61255Y-28764D01*
X61274Y-28689D01*
X61293Y-28651D01*
X61330Y-28614D01*
X61386Y-28595D01*
X61424Y-28595D01*
X61480Y-28614D01*
X61499Y-28633D01*
X61630Y-28595D02*
X61893Y-28595D01*
X61724Y-28989D01*
X62118Y-28595D02*
X62155Y-28595D01*
X62193Y-28614D01*
X62211Y-28633D01*
X62230Y-28670D01*
X62249Y-28745D01*
X62249Y-28839D01*
X62230Y-28914D01*
X62211Y-28951D01*
X62193Y-28970D01*
X62155Y-28989D01*
X62118Y-28989D01*
X62080Y-28970D01*
X62061Y-28951D01*
X62043Y-28914D01*
X62024Y-28839D01*
X62024Y-28745D01*
X62043Y-28670D01*
X62061Y-28633D01*
X62080Y-28614D01*
X62118Y-28595D01*
X62380Y-28595D02*
X62624Y-28595D01*
X62493Y-28745D01*
X62549Y-28745D01*
X62586Y-28764D01*
X62605Y-28783D01*
X62624Y-28820D01*
X62624Y-28914D01*
X62605Y-28951D01*
X62586Y-28970D01*
X62549Y-28989D01*
X62436Y-28989D01*
X62399Y-28970D01*
X62380Y-28951D01*
X66513Y-34240D02*
X66531Y-34259D01*
X66550Y-34315D01*
X66550Y-34353D01*
X66531Y-34409D01*
X66494Y-34446D01*
X66456Y-34465D01*
X66381Y-34484D01*
X66325Y-34484D01*
X66250Y-34465D01*
X66213Y-34446D01*
X66175Y-34409D01*
X66156Y-34353D01*
X66156Y-34315D01*
X66175Y-34259D01*
X66194Y-34240D01*
X66156Y-34109D02*
X66156Y-33846D01*
X66550Y-34015D01*
X66156Y-33621D02*
X66156Y-33584D01*
X66175Y-33546D01*
X66194Y-33528D01*
X66231Y-33509D01*
X66306Y-33490D01*
X66400Y-33490D01*
X66475Y-33509D01*
X66513Y-33528D01*
X66531Y-33546D01*
X66550Y-33584D01*
X66550Y-33621D01*
X66531Y-33659D01*
X66513Y-33678D01*
X66475Y-33696D01*
X66400Y-33715D01*
X66306Y-33715D01*
X66231Y-33696D01*
X66194Y-33678D01*
X66175Y-33659D01*
X66156Y-33621D01*
X66325Y-33265D02*
X66306Y-33303D01*
X66288Y-33321D01*
X66250Y-33340D01*
X66231Y-33340D01*
X66194Y-33321D01*
X66175Y-33303D01*
X66156Y-33265D01*
X66156Y-33190D01*
X66175Y-33153D01*
X66194Y-33134D01*
X66231Y-33115D01*
X66250Y-33115D01*
X66288Y-33134D01*
X66306Y-33153D01*
X66325Y-33190D01*
X66325Y-33265D01*
X66344Y-33303D01*
X66363Y-33321D01*
X66400Y-33340D01*
X66475Y-33340D01*
X66513Y-33321D01*
X66531Y-33303D01*
X66550Y-33265D01*
X66550Y-33190D01*
X66531Y-33153D01*
X66513Y-33134D01*
X66475Y-33115D01*
X66400Y-33115D01*
X66363Y-33134D01*
X66344Y-33153D01*
X66325Y-33190D01*
X60530Y-46540D02*
X60549Y-46559D01*
X60568Y-46615D01*
X60568Y-46653D01*
X60549Y-46709D01*
X60511Y-46746D01*
X60474Y-46765D01*
X60399Y-46784D01*
X60343Y-46784D01*
X60268Y-46765D01*
X60230Y-46746D01*
X60193Y-46709D01*
X60174Y-46653D01*
X60174Y-46615D01*
X60193Y-46559D01*
X60211Y-46540D01*
X60174Y-46184D02*
X60174Y-46371D01*
X60361Y-46390D01*
X60343Y-46371D01*
X60324Y-46334D01*
X60324Y-46240D01*
X60343Y-46203D01*
X60361Y-46184D01*
X60399Y-46165D01*
X60493Y-46165D01*
X60530Y-46184D01*
X60549Y-46203D01*
X60568Y-46240D01*
X60568Y-46334D01*
X60549Y-46371D01*
X60530Y-46390D01*
X60174Y-45921D02*
X60174Y-45884D01*
X60193Y-45846D01*
X60211Y-45828D01*
X60249Y-45809D01*
X60324Y-45790D01*
X60418Y-45790D01*
X60493Y-45809D01*
X60530Y-45828D01*
X60549Y-45846D01*
X60568Y-45884D01*
X60568Y-45921D01*
X60549Y-45959D01*
X60530Y-45978D01*
X60493Y-45996D01*
X60418Y-46015D01*
X60324Y-46015D01*
X60249Y-45996D01*
X60211Y-45978D01*
X60193Y-45959D01*
X60174Y-45921D01*
X60174Y-45659D02*
X60174Y-45396D01*
X60568Y-45565D01*
X60671Y-48140D02*
X60690Y-48159D01*
X60709Y-48215D01*
X60709Y-48253D01*
X60690Y-48309D01*
X60653Y-48346D01*
X60615Y-48365D01*
X60540Y-48384D01*
X60484Y-48384D01*
X60409Y-48365D01*
X60371Y-48346D01*
X60334Y-48309D01*
X60315Y-48253D01*
X60315Y-48215D01*
X60334Y-48159D01*
X60353Y-48140D01*
X60446Y-47803D02*
X60709Y-47803D01*
X60296Y-47896D02*
X60578Y-47990D01*
X60578Y-47746D01*
X60315Y-47521D02*
X60315Y-47484D01*
X60334Y-47446D01*
X60353Y-47428D01*
X60390Y-47409D01*
X60465Y-47390D01*
X60559Y-47390D01*
X60634Y-47409D01*
X60671Y-47428D01*
X60690Y-47446D01*
X60709Y-47484D01*
X60709Y-47521D01*
X60690Y-47559D01*
X60671Y-47578D01*
X60634Y-47596D01*
X60559Y-47615D01*
X60465Y-47615D01*
X60390Y-47596D01*
X60353Y-47578D01*
X60334Y-47559D01*
X60315Y-47521D01*
X60315Y-47259D02*
X60315Y-46996D01*
X60709Y-47165D01*
X64759Y-53630D02*
X64740Y-53649D01*
X64684Y-53668D01*
X64646Y-53668D01*
X64590Y-53649D01*
X64553Y-53611D01*
X64534Y-53574D01*
X64515Y-53499D01*
X64515Y-53443D01*
X64534Y-53368D01*
X64553Y-53330D01*
X64590Y-53293D01*
X64646Y-53274D01*
X64684Y-53274D01*
X64740Y-53293D01*
X64759Y-53311D01*
X65096Y-53405D02*
X65096Y-53668D01*
X65003Y-53255D02*
X64909Y-53536D01*
X65153Y-53536D01*
X65378Y-53274D02*
X65415Y-53274D01*
X65453Y-53293D01*
X65471Y-53311D01*
X65490Y-53349D01*
X65509Y-53424D01*
X65509Y-53518D01*
X65490Y-53593D01*
X65471Y-53630D01*
X65453Y-53649D01*
X65415Y-53668D01*
X65378Y-53668D01*
X65340Y-53649D01*
X65321Y-53630D01*
X65303Y-53593D01*
X65284Y-53518D01*
X65284Y-53424D01*
X65303Y-53349D01*
X65321Y-53311D01*
X65340Y-53293D01*
X65378Y-53274D01*
X65865Y-53274D02*
X65678Y-53274D01*
X65659Y-53461D01*
X65678Y-53443D01*
X65715Y-53424D01*
X65809Y-53424D01*
X65846Y-53443D01*
X65865Y-53461D01*
X65884Y-53499D01*
X65884Y-53593D01*
X65865Y-53630D01*
X65846Y-53649D01*
X65809Y-53668D01*
X65715Y-53668D01*
X65678Y-53649D01*
X65659Y-53630D01*
X63159Y-48121D02*
X63140Y-48140D01*
X63084Y-48159D01*
X63046Y-48159D01*
X62990Y-48140D01*
X62953Y-48103D01*
X62934Y-48065D01*
X62915Y-47990D01*
X62915Y-47934D01*
X62934Y-47859D01*
X62953Y-47821D01*
X62990Y-47784D01*
X63046Y-47765D01*
X63084Y-47765D01*
X63140Y-47784D01*
X63159Y-47803D01*
X63496Y-47896D02*
X63496Y-48159D01*
X63403Y-47746D02*
X63309Y-48028D01*
X63553Y-48028D01*
X63778Y-47765D02*
X63815Y-47765D01*
X63853Y-47784D01*
X63871Y-47803D01*
X63890Y-47840D01*
X63909Y-47915D01*
X63909Y-48009D01*
X63890Y-48084D01*
X63871Y-48121D01*
X63853Y-48140D01*
X63815Y-48159D01*
X63778Y-48159D01*
X63740Y-48140D01*
X63721Y-48121D01*
X63703Y-48084D01*
X63684Y-48009D01*
X63684Y-47915D01*
X63703Y-47840D01*
X63721Y-47803D01*
X63740Y-47784D01*
X63778Y-47765D01*
X64246Y-47765D02*
X64171Y-47765D01*
X64134Y-47784D01*
X64115Y-47803D01*
X64078Y-47859D01*
X64059Y-47934D01*
X64059Y-48084D01*
X64078Y-48121D01*
X64096Y-48140D01*
X64134Y-48159D01*
X64209Y-48159D01*
X64246Y-48140D01*
X64265Y-48121D01*
X64284Y-48084D01*
X64284Y-47990D01*
X64265Y-47953D01*
X64246Y-47934D01*
X64209Y-47915D01*
X64134Y-47915D01*
X64096Y-47934D01*
X64078Y-47953D01*
X64059Y-47990D01*
X58009Y-35821D02*
X57990Y-35840D01*
X57934Y-35859D01*
X57896Y-35859D01*
X57840Y-35840D01*
X57803Y-35803D01*
X57784Y-35765D01*
X57765Y-35690D01*
X57765Y-35634D01*
X57784Y-35559D01*
X57803Y-35521D01*
X57840Y-35484D01*
X57896Y-35465D01*
X57934Y-35465D01*
X57990Y-35484D01*
X58009Y-35503D01*
X58234Y-35634D02*
X58196Y-35615D01*
X58178Y-35596D01*
X58159Y-35559D01*
X58159Y-35540D01*
X58178Y-35503D01*
X58196Y-35484D01*
X58234Y-35465D01*
X58309Y-35465D01*
X58346Y-35484D01*
X58365Y-35503D01*
X58384Y-35540D01*
X58384Y-35559D01*
X58365Y-35596D01*
X58346Y-35615D01*
X58309Y-35634D01*
X58234Y-35634D01*
X58196Y-35653D01*
X58178Y-35671D01*
X58159Y-35709D01*
X58159Y-35784D01*
X58178Y-35821D01*
X58196Y-35840D01*
X58234Y-35859D01*
X58309Y-35859D01*
X58346Y-35840D01*
X58365Y-35821D01*
X58384Y-35784D01*
X58384Y-35709D01*
X58365Y-35671D01*
X58346Y-35653D01*
X58309Y-35634D01*
X58628Y-35465D02*
X58665Y-35465D01*
X58703Y-35484D01*
X58721Y-35503D01*
X58740Y-35540D01*
X58759Y-35615D01*
X58759Y-35709D01*
X58740Y-35784D01*
X58721Y-35821D01*
X58703Y-35840D01*
X58665Y-35859D01*
X58628Y-35859D01*
X58590Y-35840D01*
X58571Y-35821D01*
X58553Y-35784D01*
X58534Y-35709D01*
X58534Y-35615D01*
X58553Y-35540D01*
X58571Y-35503D01*
X58590Y-35484D01*
X58628Y-35465D01*
X59096Y-35465D02*
X59021Y-35465D01*
X58984Y-35484D01*
X58965Y-35503D01*
X58928Y-35559D01*
X58909Y-35634D01*
X58909Y-35784D01*
X58928Y-35821D01*
X58946Y-35840D01*
X58984Y-35859D01*
X59059Y-35859D01*
X59096Y-35840D01*
X59115Y-35821D01*
X59134Y-35784D01*
X59134Y-35690D01*
X59115Y-35653D01*
X59096Y-35634D01*
X59059Y-35615D01*
X58984Y-35615D01*
X58946Y-35634D01*
X58928Y-35653D01*
X58909Y-35690D01*
X66513Y-30840D02*
X66531Y-30859D01*
X66550Y-30915D01*
X66550Y-30953D01*
X66531Y-31009D01*
X66494Y-31046D01*
X66456Y-31065D01*
X66381Y-31084D01*
X66325Y-31084D01*
X66250Y-31065D01*
X66213Y-31046D01*
X66175Y-31009D01*
X66156Y-30953D01*
X66156Y-30915D01*
X66175Y-30859D01*
X66194Y-30840D01*
X66156Y-30709D02*
X66156Y-30446D01*
X66550Y-30615D01*
X66156Y-30221D02*
X66156Y-30184D01*
X66175Y-30146D01*
X66194Y-30128D01*
X66231Y-30109D01*
X66306Y-30090D01*
X66400Y-30090D01*
X66475Y-30109D01*
X66513Y-30128D01*
X66531Y-30146D01*
X66550Y-30184D01*
X66550Y-30221D01*
X66531Y-30259D01*
X66513Y-30278D01*
X66475Y-30296D01*
X66400Y-30315D01*
X66306Y-30315D01*
X66231Y-30296D01*
X66194Y-30278D01*
X66175Y-30259D01*
X66156Y-30221D01*
X66550Y-29903D02*
X66550Y-29828D01*
X66531Y-29790D01*
X66513Y-29771D01*
X66456Y-29734D01*
X66381Y-29715D01*
X66231Y-29715D01*
X66194Y-29734D01*
X66175Y-29753D01*
X66156Y-29790D01*
X66156Y-29865D01*
X66175Y-29903D01*
X66194Y-29921D01*
X66231Y-29940D01*
X66325Y-29940D01*
X66363Y-29921D01*
X66381Y-29903D01*
X66400Y-29865D01*
X66400Y-29790D01*
X66381Y-29753D01*
X66363Y-29734D01*
X66325Y-29715D01*
X58009Y-48571D02*
X57990Y-48590D01*
X57934Y-48609D01*
X57896Y-48609D01*
X57840Y-48590D01*
X57803Y-48553D01*
X57784Y-48515D01*
X57765Y-48440D01*
X57765Y-48384D01*
X57784Y-48309D01*
X57803Y-48271D01*
X57840Y-48234D01*
X57896Y-48215D01*
X57934Y-48215D01*
X57990Y-48234D01*
X58009Y-48253D01*
X58140Y-48215D02*
X58384Y-48215D01*
X58253Y-48365D01*
X58309Y-48365D01*
X58346Y-48384D01*
X58365Y-48403D01*
X58384Y-48440D01*
X58384Y-48534D01*
X58365Y-48571D01*
X58346Y-48590D01*
X58309Y-48609D01*
X58196Y-48609D01*
X58159Y-48590D01*
X58140Y-48571D01*
X58759Y-48609D02*
X58534Y-48609D01*
X58646Y-48609D02*
X58646Y-48215D01*
X58609Y-48271D01*
X58571Y-48309D01*
X58534Y-48328D01*
X58890Y-48215D02*
X59134Y-48215D01*
X59003Y-48365D01*
X59059Y-48365D01*
X59096Y-48384D01*
X59115Y-48403D01*
X59134Y-48440D01*
X59134Y-48534D01*
X59115Y-48571D01*
X59096Y-48590D01*
X59059Y-48609D01*
X58946Y-48609D01*
X58909Y-48590D01*
X58890Y-48571D01*
X46509Y-48371D02*
X46490Y-48390D01*
X46434Y-48409D01*
X46396Y-48409D01*
X46340Y-48390D01*
X46303Y-48353D01*
X46284Y-48315D01*
X46265Y-48240D01*
X46265Y-48184D01*
X46284Y-48109D01*
X46303Y-48071D01*
X46340Y-48034D01*
X46396Y-48015D01*
X46434Y-48015D01*
X46490Y-48034D01*
X46509Y-48053D01*
X46659Y-48053D02*
X46678Y-48034D01*
X46715Y-48015D01*
X46809Y-48015D01*
X46846Y-48034D01*
X46865Y-48053D01*
X46884Y-48090D01*
X46884Y-48128D01*
X46865Y-48184D01*
X46640Y-48409D01*
X46884Y-48409D01*
X47128Y-48015D02*
X47165Y-48015D01*
X47203Y-48034D01*
X47221Y-48053D01*
X47240Y-48090D01*
X47259Y-48165D01*
X47259Y-48259D01*
X47240Y-48334D01*
X47221Y-48371D01*
X47203Y-48390D01*
X47165Y-48409D01*
X47128Y-48409D01*
X47090Y-48390D01*
X47071Y-48371D01*
X47053Y-48334D01*
X47034Y-48259D01*
X47034Y-48165D01*
X47053Y-48090D01*
X47071Y-48053D01*
X47090Y-48034D01*
X47128Y-48015D01*
X47634Y-48409D02*
X47409Y-48409D01*
X47521Y-48409D02*
X47521Y-48015D01*
X47484Y-48071D01*
X47446Y-48109D01*
X47409Y-48128D01*
X50151Y-32340D02*
X50170Y-32359D01*
X50189Y-32415D01*
X50189Y-32453D01*
X50170Y-32509D01*
X50133Y-32546D01*
X50095Y-32565D01*
X50020Y-32584D01*
X49964Y-32584D01*
X49889Y-32565D01*
X49851Y-32546D01*
X49814Y-32509D01*
X49795Y-32453D01*
X49795Y-32415D01*
X49814Y-32359D01*
X49833Y-32340D01*
X49964Y-32115D02*
X49945Y-32153D01*
X49926Y-32171D01*
X49889Y-32190D01*
X49870Y-32190D01*
X49833Y-32171D01*
X49814Y-32153D01*
X49795Y-32115D01*
X49795Y-32040D01*
X49814Y-32003D01*
X49833Y-31984D01*
X49870Y-31965D01*
X49889Y-31965D01*
X49926Y-31984D01*
X49945Y-32003D01*
X49964Y-32040D01*
X49964Y-32115D01*
X49983Y-32153D01*
X50001Y-32171D01*
X50039Y-32190D01*
X50114Y-32190D01*
X50151Y-32171D01*
X50170Y-32153D01*
X50189Y-32115D01*
X50189Y-32040D01*
X50170Y-32003D01*
X50151Y-31984D01*
X50114Y-31965D01*
X50039Y-31965D01*
X50001Y-31984D01*
X49983Y-32003D01*
X49964Y-32040D01*
X50189Y-31590D02*
X50189Y-31815D01*
X50189Y-31703D02*
X49795Y-31703D01*
X49851Y-31740D01*
X49889Y-31778D01*
X49908Y-31815D01*
X49926Y-31253D02*
X50189Y-31253D01*
X49776Y-31346D02*
X50058Y-31440D01*
X50058Y-31196D01*
X57509Y-43471D02*
X57490Y-43490D01*
X57434Y-43509D01*
X57396Y-43509D01*
X57340Y-43490D01*
X57303Y-43453D01*
X57284Y-43415D01*
X57265Y-43340D01*
X57265Y-43284D01*
X57284Y-43209D01*
X57303Y-43171D01*
X57340Y-43134D01*
X57396Y-43115D01*
X57434Y-43115D01*
X57490Y-43134D01*
X57509Y-43153D01*
X57640Y-43115D02*
X57884Y-43115D01*
X57753Y-43265D01*
X57809Y-43265D01*
X57846Y-43284D01*
X57865Y-43303D01*
X57884Y-43340D01*
X57884Y-43434D01*
X57865Y-43471D01*
X57846Y-43490D01*
X57809Y-43509D01*
X57696Y-43509D01*
X57659Y-43490D01*
X57640Y-43471D01*
X58128Y-43115D02*
X58165Y-43115D01*
X58203Y-43134D01*
X58221Y-43153D01*
X58240Y-43190D01*
X58259Y-43265D01*
X58259Y-43359D01*
X58240Y-43434D01*
X58221Y-43471D01*
X58203Y-43490D01*
X58165Y-43509D01*
X58128Y-43509D01*
X58090Y-43490D01*
X58071Y-43471D01*
X58053Y-43434D01*
X58034Y-43359D01*
X58034Y-43265D01*
X58053Y-43190D01*
X58071Y-43153D01*
X58090Y-43134D01*
X58128Y-43115D01*
X58484Y-43284D02*
X58446Y-43265D01*
X58428Y-43246D01*
X58409Y-43209D01*
X58409Y-43190D01*
X58428Y-43153D01*
X58446Y-43134D01*
X58484Y-43115D01*
X58559Y-43115D01*
X58596Y-43134D01*
X58615Y-43153D01*
X58634Y-43190D01*
X58634Y-43209D01*
X58615Y-43246D01*
X58596Y-43265D01*
X58559Y-43284D01*
X58484Y-43284D01*
X58446Y-43303D01*
X58428Y-43321D01*
X58409Y-43359D01*
X58409Y-43434D01*
X58428Y-43471D01*
X58446Y-43490D01*
X58484Y-43509D01*
X58559Y-43509D01*
X58596Y-43490D01*
X58615Y-43471D01*
X58634Y-43434D01*
X58634Y-43359D01*
X58615Y-43321D01*
X58596Y-43303D01*
X58559Y-43284D01*
X46509Y-45921D02*
X46490Y-45940D01*
X46434Y-45959D01*
X46396Y-45959D01*
X46340Y-45940D01*
X46303Y-45903D01*
X46284Y-45865D01*
X46265Y-45790D01*
X46265Y-45734D01*
X46284Y-45659D01*
X46303Y-45621D01*
X46340Y-45584D01*
X46396Y-45565D01*
X46434Y-45565D01*
X46490Y-45584D01*
X46509Y-45603D01*
X46659Y-45603D02*
X46678Y-45584D01*
X46715Y-45565D01*
X46809Y-45565D01*
X46846Y-45584D01*
X46865Y-45603D01*
X46884Y-45640D01*
X46884Y-45678D01*
X46865Y-45734D01*
X46640Y-45959D01*
X46884Y-45959D01*
X47128Y-45565D02*
X47165Y-45565D01*
X47203Y-45584D01*
X47221Y-45603D01*
X47240Y-45640D01*
X47259Y-45715D01*
X47259Y-45809D01*
X47240Y-45884D01*
X47221Y-45921D01*
X47203Y-45940D01*
X47165Y-45959D01*
X47128Y-45959D01*
X47090Y-45940D01*
X47071Y-45921D01*
X47053Y-45884D01*
X47034Y-45809D01*
X47034Y-45715D01*
X47053Y-45640D01*
X47071Y-45603D01*
X47090Y-45584D01*
X47128Y-45565D01*
X47409Y-45603D02*
X47428Y-45584D01*
X47465Y-45565D01*
X47559Y-45565D01*
X47596Y-45584D01*
X47615Y-45603D01*
X47634Y-45640D01*
X47634Y-45678D01*
X47615Y-45734D01*
X47390Y-45959D01*
X47634Y-45959D01*
X51209Y-47071D02*
X51190Y-47090D01*
X51134Y-47109D01*
X51096Y-47109D01*
X51040Y-47090D01*
X51003Y-47053D01*
X50984Y-47015D01*
X50965Y-46940D01*
X50965Y-46884D01*
X50984Y-46809D01*
X51003Y-46771D01*
X51040Y-46734D01*
X51096Y-46715D01*
X51134Y-46715D01*
X51190Y-46734D01*
X51209Y-46753D01*
X51359Y-46753D02*
X51378Y-46734D01*
X51415Y-46715D01*
X51509Y-46715D01*
X51546Y-46734D01*
X51565Y-46753D01*
X51584Y-46790D01*
X51584Y-46828D01*
X51565Y-46884D01*
X51340Y-47109D01*
X51584Y-47109D01*
X51828Y-46715D02*
X51865Y-46715D01*
X51903Y-46734D01*
X51921Y-46753D01*
X51940Y-46790D01*
X51959Y-46865D01*
X51959Y-46959D01*
X51940Y-47034D01*
X51921Y-47071D01*
X51903Y-47090D01*
X51865Y-47109D01*
X51828Y-47109D01*
X51790Y-47090D01*
X51771Y-47071D01*
X51753Y-47034D01*
X51734Y-46959D01*
X51734Y-46865D01*
X51753Y-46790D01*
X51771Y-46753D01*
X51790Y-46734D01*
X51828Y-46715D01*
X52296Y-46846D02*
X52296Y-47109D01*
X52203Y-46696D02*
X52109Y-46978D01*
X52353Y-46978D01*
X51971Y-48490D02*
X51990Y-48509D01*
X52009Y-48565D01*
X52009Y-48603D01*
X51990Y-48659D01*
X51953Y-48696D01*
X51915Y-48715D01*
X51840Y-48734D01*
X51784Y-48734D01*
X51709Y-48715D01*
X51671Y-48696D01*
X51634Y-48659D01*
X51615Y-48603D01*
X51615Y-48565D01*
X51634Y-48509D01*
X51653Y-48490D01*
X51653Y-48340D02*
X51634Y-48321D01*
X51615Y-48284D01*
X51615Y-48190D01*
X51634Y-48153D01*
X51653Y-48134D01*
X51690Y-48115D01*
X51728Y-48115D01*
X51784Y-48134D01*
X52009Y-48359D01*
X52009Y-48115D01*
X51615Y-47871D02*
X51615Y-47834D01*
X51634Y-47796D01*
X51653Y-47778D01*
X51690Y-47759D01*
X51765Y-47740D01*
X51859Y-47740D01*
X51934Y-47759D01*
X51971Y-47778D01*
X51990Y-47796D01*
X52009Y-47834D01*
X52009Y-47871D01*
X51990Y-47909D01*
X51971Y-47928D01*
X51934Y-47946D01*
X51859Y-47965D01*
X51765Y-47965D01*
X51690Y-47946D01*
X51653Y-47928D01*
X51634Y-47909D01*
X51615Y-47871D01*
X51615Y-47609D02*
X51615Y-47365D01*
X51765Y-47496D01*
X51765Y-47440D01*
X51784Y-47403D01*
X51803Y-47384D01*
X51840Y-47365D01*
X51934Y-47365D01*
X51971Y-47384D01*
X51990Y-47403D01*
X52009Y-47440D01*
X52009Y-47553D01*
X51990Y-47590D01*
X51971Y-47609D01*
X61971Y-50040D02*
X61990Y-50059D01*
X62009Y-50115D01*
X62009Y-50153D01*
X61990Y-50209D01*
X61953Y-50246D01*
X61915Y-50265D01*
X61840Y-50284D01*
X61784Y-50284D01*
X61709Y-50265D01*
X61671Y-50246D01*
X61634Y-50209D01*
X61615Y-50153D01*
X61615Y-50115D01*
X61634Y-50059D01*
X61653Y-50040D01*
X61746Y-49703D02*
X62009Y-49703D01*
X61596Y-49796D02*
X61878Y-49890D01*
X61878Y-49646D01*
X62009Y-49290D02*
X62009Y-49515D01*
X62009Y-49403D02*
X61615Y-49403D01*
X61671Y-49440D01*
X61709Y-49478D01*
X61728Y-49515D01*
X61615Y-49046D02*
X61615Y-49009D01*
X61634Y-48971D01*
X61653Y-48953D01*
X61690Y-48934D01*
X61765Y-48915D01*
X61859Y-48915D01*
X61934Y-48934D01*
X61971Y-48953D01*
X61990Y-48971D01*
X62009Y-49009D01*
X62009Y-49046D01*
X61990Y-49084D01*
X61971Y-49103D01*
X61934Y-49121D01*
X61859Y-49140D01*
X61765Y-49140D01*
X61690Y-49121D01*
X61653Y-49103D01*
X61634Y-49084D01*
X61615Y-49046D01*
X66671Y-46240D02*
X66690Y-46259D01*
X66709Y-46315D01*
X66709Y-46353D01*
X66690Y-46409D01*
X66653Y-46446D01*
X66615Y-46465D01*
X66540Y-46484D01*
X66484Y-46484D01*
X66409Y-46465D01*
X66371Y-46446D01*
X66334Y-46409D01*
X66315Y-46353D01*
X66315Y-46315D01*
X66334Y-46259D01*
X66353Y-46240D01*
X66315Y-45884D02*
X66315Y-46071D01*
X66503Y-46090D01*
X66484Y-46071D01*
X66465Y-46034D01*
X66465Y-45940D01*
X66484Y-45903D01*
X66503Y-45884D01*
X66540Y-45865D01*
X66634Y-45865D01*
X66671Y-45884D01*
X66690Y-45903D01*
X66709Y-45940D01*
X66709Y-46034D01*
X66690Y-46071D01*
X66671Y-46090D01*
X66315Y-45621D02*
X66315Y-45584D01*
X66334Y-45546D01*
X66353Y-45528D01*
X66390Y-45509D01*
X66465Y-45490D01*
X66559Y-45490D01*
X66634Y-45509D01*
X66671Y-45528D01*
X66690Y-45546D01*
X66709Y-45584D01*
X66709Y-45621D01*
X66690Y-45659D01*
X66671Y-45678D01*
X66634Y-45696D01*
X66559Y-45715D01*
X66465Y-45715D01*
X66390Y-45696D01*
X66353Y-45678D01*
X66334Y-45659D01*
X66315Y-45621D01*
X66353Y-45340D02*
X66334Y-45321D01*
X66315Y-45284D01*
X66315Y-45190D01*
X66334Y-45153D01*
X66353Y-45134D01*
X66390Y-45115D01*
X66428Y-45115D01*
X66484Y-45134D01*
X66709Y-45359D01*
X66709Y-45115D01*
X66821Y-44640D02*
X66840Y-44659D01*
X66859Y-44715D01*
X66859Y-44753D01*
X66840Y-44809D01*
X66803Y-44846D01*
X66765Y-44865D01*
X66690Y-44884D01*
X66634Y-44884D01*
X66559Y-44865D01*
X66521Y-44846D01*
X66484Y-44809D01*
X66465Y-44753D01*
X66465Y-44715D01*
X66484Y-44659D01*
X66503Y-44640D01*
X66465Y-44284D02*
X66465Y-44471D01*
X66653Y-44490D01*
X66634Y-44471D01*
X66615Y-44434D01*
X66615Y-44340D01*
X66634Y-44303D01*
X66653Y-44284D01*
X66690Y-44265D01*
X66784Y-44265D01*
X66821Y-44284D01*
X66840Y-44303D01*
X66859Y-44340D01*
X66859Y-44434D01*
X66840Y-44471D01*
X66821Y-44490D01*
X66465Y-44021D02*
X66465Y-43984D01*
X66484Y-43946D01*
X66503Y-43928D01*
X66540Y-43909D01*
X66615Y-43890D01*
X66709Y-43890D01*
X66784Y-43909D01*
X66821Y-43928D01*
X66840Y-43946D01*
X66859Y-43984D01*
X66859Y-44021D01*
X66840Y-44059D01*
X66821Y-44078D01*
X66784Y-44096D01*
X66709Y-44115D01*
X66615Y-44115D01*
X66540Y-44096D01*
X66503Y-44078D01*
X66484Y-44059D01*
X66465Y-44021D01*
X66634Y-43665D02*
X66615Y-43703D01*
X66596Y-43721D01*
X66559Y-43740D01*
X66540Y-43740D01*
X66503Y-43721D01*
X66484Y-43703D01*
X66465Y-43665D01*
X66465Y-43590D01*
X66484Y-43553D01*
X66503Y-43534D01*
X66540Y-43515D01*
X66559Y-43515D01*
X66596Y-43534D01*
X66615Y-43553D01*
X66634Y-43590D01*
X66634Y-43665D01*
X66653Y-43703D01*
X66671Y-43721D01*
X66709Y-43740D01*
X66784Y-43740D01*
X66821Y-43721D01*
X66840Y-43703D01*
X66859Y-43665D01*
X66859Y-43590D01*
X66840Y-43553D01*
X66821Y-43534D01*
X66784Y-43515D01*
X66709Y-43515D01*
X66671Y-43534D01*
X66653Y-43553D01*
X66634Y-43590D01*
X66571Y-42840D02*
X66590Y-42859D01*
X66609Y-42915D01*
X66609Y-42953D01*
X66590Y-43009D01*
X66553Y-43046D01*
X66515Y-43065D01*
X66440Y-43084D01*
X66384Y-43084D01*
X66309Y-43065D01*
X66271Y-43046D01*
X66234Y-43009D01*
X66215Y-42953D01*
X66215Y-42915D01*
X66234Y-42859D01*
X66253Y-42840D01*
X66215Y-42484D02*
X66215Y-42671D01*
X66403Y-42690D01*
X66384Y-42671D01*
X66365Y-42634D01*
X66365Y-42540D01*
X66384Y-42503D01*
X66403Y-42484D01*
X66440Y-42465D01*
X66534Y-42465D01*
X66571Y-42484D01*
X66590Y-42503D01*
X66609Y-42540D01*
X66609Y-42634D01*
X66590Y-42671D01*
X66571Y-42690D01*
X66215Y-42221D02*
X66215Y-42184D01*
X66234Y-42146D01*
X66253Y-42128D01*
X66290Y-42109D01*
X66365Y-42090D01*
X66459Y-42090D01*
X66534Y-42109D01*
X66571Y-42128D01*
X66590Y-42146D01*
X66609Y-42184D01*
X66609Y-42221D01*
X66590Y-42259D01*
X66571Y-42278D01*
X66534Y-42296D01*
X66459Y-42315D01*
X66365Y-42315D01*
X66290Y-42296D01*
X66253Y-42278D01*
X66234Y-42259D01*
X66215Y-42221D01*
X66609Y-41715D02*
X66609Y-41940D01*
X66609Y-41828D02*
X66215Y-41828D01*
X66271Y-41865D01*
X66309Y-41903D01*
X66328Y-41940D01*
X64959Y-35291D02*
X64940Y-35310D01*
X64884Y-35329D01*
X64846Y-35329D01*
X64790Y-35310D01*
X64753Y-35273D01*
X64734Y-35235D01*
X64715Y-35160D01*
X64715Y-35104D01*
X64734Y-35029D01*
X64753Y-34991D01*
X64790Y-34954D01*
X64846Y-34935D01*
X64884Y-34935D01*
X64940Y-34954D01*
X64959Y-34973D01*
X65296Y-34935D02*
X65221Y-34935D01*
X65184Y-34954D01*
X65165Y-34973D01*
X65128Y-35029D01*
X65109Y-35104D01*
X65109Y-35254D01*
X65128Y-35291D01*
X65146Y-35310D01*
X65184Y-35329D01*
X65259Y-35329D01*
X65296Y-35310D01*
X65315Y-35291D01*
X65334Y-35254D01*
X65334Y-35160D01*
X65315Y-35123D01*
X65296Y-35104D01*
X65259Y-35085D01*
X65184Y-35085D01*
X65146Y-35104D01*
X65128Y-35123D01*
X65109Y-35160D01*
X65578Y-34935D02*
X65615Y-34935D01*
X65653Y-34954D01*
X65671Y-34973D01*
X65690Y-35010D01*
X65709Y-35085D01*
X65709Y-35179D01*
X65690Y-35254D01*
X65671Y-35291D01*
X65653Y-35310D01*
X65615Y-35329D01*
X65578Y-35329D01*
X65540Y-35310D01*
X65521Y-35291D01*
X65503Y-35254D01*
X65484Y-35179D01*
X65484Y-35085D01*
X65503Y-35010D01*
X65521Y-34973D01*
X65540Y-34954D01*
X65578Y-34935D01*
X66065Y-34935D02*
X65878Y-34935D01*
X65859Y-35123D01*
X65878Y-35104D01*
X65915Y-35085D01*
X66009Y-35085D01*
X66046Y-35104D01*
X66065Y-35123D01*
X66084Y-35160D01*
X66084Y-35254D01*
X66065Y-35291D01*
X66046Y-35310D01*
X66009Y-35329D01*
X65915Y-35329D01*
X65878Y-35310D01*
X65859Y-35291D01*
X63971Y-44690D02*
X63990Y-44709D01*
X64009Y-44765D01*
X64009Y-44803D01*
X63990Y-44859D01*
X63953Y-44896D01*
X63915Y-44915D01*
X63840Y-44934D01*
X63784Y-44934D01*
X63709Y-44915D01*
X63671Y-44896D01*
X63634Y-44859D01*
X63615Y-44803D01*
X63615Y-44765D01*
X63634Y-44709D01*
X63653Y-44690D01*
X63615Y-44334D02*
X63615Y-44521D01*
X63803Y-44540D01*
X63784Y-44521D01*
X63765Y-44484D01*
X63765Y-44390D01*
X63784Y-44353D01*
X63803Y-44334D01*
X63840Y-44315D01*
X63934Y-44315D01*
X63971Y-44334D01*
X63990Y-44353D01*
X64009Y-44390D01*
X64009Y-44484D01*
X63990Y-44521D01*
X63971Y-44540D01*
X63615Y-44071D02*
X63615Y-44034D01*
X63634Y-43996D01*
X63653Y-43978D01*
X63690Y-43959D01*
X63765Y-43940D01*
X63859Y-43940D01*
X63934Y-43959D01*
X63971Y-43978D01*
X63990Y-43996D01*
X64009Y-44034D01*
X64009Y-44071D01*
X63990Y-44109D01*
X63971Y-44128D01*
X63934Y-44146D01*
X63859Y-44165D01*
X63765Y-44165D01*
X63690Y-44146D01*
X63653Y-44128D01*
X63634Y-44109D01*
X63615Y-44071D01*
X63746Y-43603D02*
X64009Y-43603D01*
X63596Y-43696D02*
X63878Y-43790D01*
X63878Y-43546D01*
X61921Y-51640D02*
X61940Y-51659D01*
X61959Y-51715D01*
X61959Y-51753D01*
X61940Y-51809D01*
X61903Y-51846D01*
X61865Y-51865D01*
X61790Y-51884D01*
X61734Y-51884D01*
X61659Y-51865D01*
X61621Y-51846D01*
X61584Y-51809D01*
X61565Y-51753D01*
X61565Y-51715D01*
X61584Y-51659D01*
X61603Y-51640D01*
X61696Y-51303D02*
X61959Y-51303D01*
X61546Y-51396D02*
X61828Y-51490D01*
X61828Y-51246D01*
X61565Y-51021D02*
X61565Y-50984D01*
X61584Y-50946D01*
X61603Y-50928D01*
X61640Y-50909D01*
X61715Y-50890D01*
X61809Y-50890D01*
X61884Y-50909D01*
X61921Y-50928D01*
X61940Y-50946D01*
X61959Y-50984D01*
X61959Y-51021D01*
X61940Y-51059D01*
X61921Y-51078D01*
X61884Y-51096D01*
X61809Y-51115D01*
X61715Y-51115D01*
X61640Y-51096D01*
X61603Y-51078D01*
X61584Y-51059D01*
X61565Y-51021D01*
X61959Y-50703D02*
X61959Y-50628D01*
X61940Y-50590D01*
X61921Y-50571D01*
X61865Y-50534D01*
X61790Y-50515D01*
X61640Y-50515D01*
X61603Y-50534D01*
X61584Y-50553D01*
X61565Y-50590D01*
X61565Y-50665D01*
X61584Y-50703D01*
X61603Y-50721D01*
X61640Y-50740D01*
X61734Y-50740D01*
X61771Y-50721D01*
X61790Y-50703D01*
X61809Y-50665D01*
X61809Y-50590D01*
X61790Y-50553D01*
X61771Y-50534D01*
X61734Y-50515D01*
X64959Y-41171D02*
X64940Y-41190D01*
X64884Y-41209D01*
X64846Y-41209D01*
X64790Y-41190D01*
X64753Y-41153D01*
X64734Y-41115D01*
X64715Y-41040D01*
X64715Y-40984D01*
X64734Y-40909D01*
X64753Y-40871D01*
X64790Y-40834D01*
X64846Y-40815D01*
X64884Y-40815D01*
X64940Y-40834D01*
X64959Y-40853D01*
X65296Y-40815D02*
X65221Y-40815D01*
X65184Y-40834D01*
X65165Y-40853D01*
X65128Y-40909D01*
X65109Y-40984D01*
X65109Y-41134D01*
X65128Y-41171D01*
X65146Y-41190D01*
X65184Y-41209D01*
X65259Y-41209D01*
X65296Y-41190D01*
X65315Y-41171D01*
X65334Y-41134D01*
X65334Y-41040D01*
X65315Y-41003D01*
X65296Y-40984D01*
X65259Y-40965D01*
X65184Y-40965D01*
X65146Y-40984D01*
X65128Y-41003D01*
X65109Y-41040D01*
X65578Y-40815D02*
X65615Y-40815D01*
X65653Y-40834D01*
X65671Y-40853D01*
X65690Y-40890D01*
X65709Y-40965D01*
X65709Y-41059D01*
X65690Y-41134D01*
X65671Y-41171D01*
X65653Y-41190D01*
X65615Y-41209D01*
X65578Y-41209D01*
X65540Y-41190D01*
X65521Y-41171D01*
X65503Y-41134D01*
X65484Y-41059D01*
X65484Y-40965D01*
X65503Y-40890D01*
X65521Y-40853D01*
X65540Y-40834D01*
X65578Y-40815D01*
X66046Y-40815D02*
X65971Y-40815D01*
X65934Y-40834D01*
X65915Y-40853D01*
X65878Y-40909D01*
X65859Y-40984D01*
X65859Y-41134D01*
X65878Y-41171D01*
X65896Y-41190D01*
X65934Y-41209D01*
X66009Y-41209D01*
X66046Y-41190D01*
X66065Y-41171D01*
X66084Y-41134D01*
X66084Y-41040D01*
X66065Y-41003D01*
X66046Y-40984D01*
X66009Y-40965D01*
X65934Y-40965D01*
X65896Y-40984D01*
X65878Y-41003D01*
X65859Y-41040D01*
X62959Y-30551D02*
X62940Y-30570D01*
X62884Y-30589D01*
X62846Y-30589D01*
X62790Y-30570D01*
X62753Y-30533D01*
X62734Y-30495D01*
X62715Y-30420D01*
X62715Y-30364D01*
X62734Y-30289D01*
X62753Y-30251D01*
X62790Y-30214D01*
X62846Y-30195D01*
X62884Y-30195D01*
X62940Y-30214D01*
X62959Y-30233D01*
X63090Y-30195D02*
X63353Y-30195D01*
X63184Y-30589D01*
X63578Y-30195D02*
X63615Y-30195D01*
X63653Y-30214D01*
X63671Y-30233D01*
X63690Y-30270D01*
X63709Y-30345D01*
X63709Y-30439D01*
X63690Y-30514D01*
X63671Y-30551D01*
X63653Y-30570D01*
X63615Y-30589D01*
X63578Y-30589D01*
X63540Y-30570D01*
X63521Y-30551D01*
X63503Y-30514D01*
X63484Y-30439D01*
X63484Y-30345D01*
X63503Y-30270D01*
X63521Y-30233D01*
X63540Y-30214D01*
X63578Y-30195D01*
X63859Y-30233D02*
X63878Y-30214D01*
X63915Y-30195D01*
X64009Y-30195D01*
X64046Y-30214D01*
X64065Y-30233D01*
X64084Y-30270D01*
X64084Y-30308D01*
X64065Y-30364D01*
X63840Y-30589D01*
X64084Y-30589D01*
X52959Y-43421D02*
X52940Y-43440D01*
X52884Y-43459D01*
X52846Y-43459D01*
X52790Y-43440D01*
X52753Y-43403D01*
X52734Y-43365D01*
X52715Y-43290D01*
X52715Y-43234D01*
X52734Y-43159D01*
X52753Y-43121D01*
X52790Y-43084D01*
X52846Y-43065D01*
X52884Y-43065D01*
X52940Y-43084D01*
X52959Y-43103D01*
X53090Y-43065D02*
X53334Y-43065D01*
X53203Y-43215D01*
X53259Y-43215D01*
X53296Y-43234D01*
X53315Y-43253D01*
X53334Y-43290D01*
X53334Y-43384D01*
X53315Y-43421D01*
X53296Y-43440D01*
X53259Y-43459D01*
X53146Y-43459D01*
X53109Y-43440D01*
X53090Y-43421D01*
X53578Y-43065D02*
X53615Y-43065D01*
X53653Y-43084D01*
X53671Y-43103D01*
X53690Y-43140D01*
X53709Y-43215D01*
X53709Y-43309D01*
X53690Y-43384D01*
X53671Y-43421D01*
X53653Y-43440D01*
X53615Y-43459D01*
X53578Y-43459D01*
X53540Y-43440D01*
X53521Y-43421D01*
X53503Y-43384D01*
X53484Y-43309D01*
X53484Y-43215D01*
X53503Y-43140D01*
X53521Y-43103D01*
X53540Y-43084D01*
X53578Y-43065D01*
X53896Y-43459D02*
X53971Y-43459D01*
X54009Y-43440D01*
X54028Y-43421D01*
X54065Y-43365D01*
X54084Y-43290D01*
X54084Y-43140D01*
X54065Y-43103D01*
X54046Y-43084D01*
X54009Y-43065D01*
X53934Y-43065D01*
X53896Y-43084D01*
X53878Y-43103D01*
X53859Y-43140D01*
X53859Y-43234D01*
X53878Y-43271D01*
X53896Y-43290D01*
X53934Y-43309D01*
X54009Y-43309D01*
X54046Y-43290D01*
X54065Y-43271D01*
X54084Y-43234D01*
X64121Y-32540D02*
X64140Y-32559D01*
X64159Y-32615D01*
X64159Y-32653D01*
X64140Y-32709D01*
X64103Y-32746D01*
X64065Y-32765D01*
X63990Y-32784D01*
X63934Y-32784D01*
X63859Y-32765D01*
X63821Y-32746D01*
X63784Y-32709D01*
X63765Y-32653D01*
X63765Y-32615D01*
X63784Y-32559D01*
X63803Y-32540D01*
X63765Y-32409D02*
X63765Y-32146D01*
X64159Y-32315D01*
X63765Y-31921D02*
X63765Y-31884D01*
X63784Y-31846D01*
X63803Y-31828D01*
X63840Y-31809D01*
X63915Y-31790D01*
X64009Y-31790D01*
X64084Y-31809D01*
X64121Y-31828D01*
X64140Y-31846D01*
X64159Y-31884D01*
X64159Y-31921D01*
X64140Y-31959D01*
X64121Y-31978D01*
X64084Y-31996D01*
X64009Y-32015D01*
X63915Y-32015D01*
X63840Y-31996D01*
X63803Y-31978D01*
X63784Y-31959D01*
X63765Y-31921D01*
X63765Y-31659D02*
X63765Y-31396D01*
X64159Y-31565D01*
X66951Y-32540D02*
X66970Y-32559D01*
X66989Y-32615D01*
X66989Y-32653D01*
X66970Y-32709D01*
X66933Y-32746D01*
X66895Y-32765D01*
X66820Y-32784D01*
X66764Y-32784D01*
X66689Y-32765D01*
X66651Y-32746D01*
X66614Y-32709D01*
X66595Y-32653D01*
X66595Y-32615D01*
X66614Y-32559D01*
X66633Y-32540D01*
X66595Y-32409D02*
X66595Y-32146D01*
X66989Y-32315D01*
X66595Y-31921D02*
X66595Y-31884D01*
X66614Y-31846D01*
X66633Y-31828D01*
X66670Y-31809D01*
X66745Y-31790D01*
X66839Y-31790D01*
X66914Y-31809D01*
X66951Y-31828D01*
X66970Y-31846D01*
X66989Y-31884D01*
X66989Y-31921D01*
X66970Y-31959D01*
X66951Y-31978D01*
X66914Y-31996D01*
X66839Y-32015D01*
X66745Y-32015D01*
X66670Y-31996D01*
X66633Y-31978D01*
X66614Y-31959D01*
X66595Y-31921D01*
X66726Y-31453D02*
X66989Y-31453D01*
X66576Y-31546D02*
X66858Y-31640D01*
X66858Y-31396D01*
X62359Y-33921D02*
X62340Y-33940D01*
X62284Y-33959D01*
X62246Y-33959D01*
X62190Y-33940D01*
X62153Y-33903D01*
X62134Y-33865D01*
X62115Y-33790D01*
X62115Y-33734D01*
X62134Y-33659D01*
X62153Y-33621D01*
X62190Y-33584D01*
X62246Y-33565D01*
X62284Y-33565D01*
X62340Y-33584D01*
X62359Y-33603D01*
X62490Y-33565D02*
X62753Y-33565D01*
X62584Y-33959D01*
X62978Y-33565D02*
X63015Y-33565D01*
X63053Y-33584D01*
X63071Y-33603D01*
X63090Y-33640D01*
X63109Y-33715D01*
X63109Y-33809D01*
X63090Y-33884D01*
X63071Y-33921D01*
X63053Y-33940D01*
X63015Y-33959D01*
X62978Y-33959D01*
X62940Y-33940D01*
X62921Y-33921D01*
X62903Y-33884D01*
X62884Y-33809D01*
X62884Y-33715D01*
X62903Y-33640D01*
X62921Y-33603D01*
X62940Y-33584D01*
X62978Y-33565D01*
X63484Y-33959D02*
X63259Y-33959D01*
X63371Y-33959D02*
X63371Y-33565D01*
X63334Y-33621D01*
X63296Y-33659D01*
X63259Y-33678D01*
X54975Y-48365D02*
X54975Y-48684D01*
X54993Y-48721D01*
X55012Y-48740D01*
X55050Y-48759D01*
X55125Y-48759D01*
X55162Y-48740D01*
X55181Y-48721D01*
X55200Y-48684D01*
X55200Y-48365D01*
X55350Y-48365D02*
X55593Y-48365D01*
X55462Y-48515D01*
X55518Y-48515D01*
X55556Y-48534D01*
X55575Y-48553D01*
X55593Y-48590D01*
X55593Y-48684D01*
X55575Y-48721D01*
X55556Y-48740D01*
X55518Y-48759D01*
X55406Y-48759D01*
X55368Y-48740D01*
X55350Y-48721D01*
X55837Y-48365D02*
X55874Y-48365D01*
X55912Y-48384D01*
X55931Y-48403D01*
X55949Y-48440D01*
X55968Y-48515D01*
X55968Y-48609D01*
X55949Y-48684D01*
X55931Y-48721D01*
X55912Y-48740D01*
X55874Y-48759D01*
X55837Y-48759D01*
X55799Y-48740D01*
X55781Y-48721D01*
X55762Y-48684D01*
X55743Y-48609D01*
X55743Y-48515D01*
X55762Y-48440D01*
X55781Y-48403D01*
X55799Y-48384D01*
X55837Y-48365D01*
X56343Y-48759D02*
X56118Y-48759D01*
X56231Y-48759D02*
X56231Y-48365D01*
X56193Y-48421D01*
X56156Y-48459D01*
X56118Y-48478D01*
X48596Y-35942D02*
X48465Y-35942D01*
X48465Y-36148D02*
X48465Y-35754D01*
X48653Y-35754D01*
X48934Y-35942D02*
X48990Y-35960D01*
X49009Y-35979D01*
X49028Y-36017D01*
X49028Y-36073D01*
X49009Y-36110D01*
X48990Y-36129D01*
X48953Y-36148D01*
X48803Y-36148D01*
X48803Y-35754D01*
X48934Y-35754D01*
X48971Y-35773D01*
X48990Y-35792D01*
X49009Y-35829D01*
X49009Y-35867D01*
X48990Y-35904D01*
X48971Y-35923D01*
X48934Y-35942D01*
X48803Y-35942D01*
X49253Y-35923D02*
X49215Y-35904D01*
X49196Y-35885D01*
X49178Y-35848D01*
X49178Y-35829D01*
X49196Y-35792D01*
X49215Y-35773D01*
X49253Y-35754D01*
X49328Y-35754D01*
X49365Y-35773D01*
X49384Y-35792D01*
X49403Y-35829D01*
X49403Y-35848D01*
X49384Y-35885D01*
X49365Y-35904D01*
X49328Y-35923D01*
X49253Y-35923D01*
X49215Y-35942D01*
X49196Y-35960D01*
X49178Y-35998D01*
X49178Y-36073D01*
X49196Y-36110D01*
X49215Y-36129D01*
X49253Y-36148D01*
X49328Y-36148D01*
X49365Y-36129D01*
X49384Y-36110D01*
X49403Y-36073D01*
X49403Y-35998D01*
X49384Y-35960D01*
X49365Y-35942D01*
X49328Y-35923D01*
X49646Y-35754D02*
X49684Y-35754D01*
X49721Y-35773D01*
X49740Y-35792D01*
X49759Y-35829D01*
X49778Y-35904D01*
X49778Y-35998D01*
X49759Y-36073D01*
X49740Y-36110D01*
X49721Y-36129D01*
X49684Y-36148D01*
X49646Y-36148D01*
X49609Y-36129D01*
X49590Y-36110D01*
X49571Y-36073D01*
X49553Y-35998D01*
X49553Y-35904D01*
X49571Y-35829D01*
X49590Y-35792D01*
X49609Y-35773D01*
X49646Y-35754D01*
X49928Y-35792D02*
X49946Y-35773D01*
X49984Y-35754D01*
X50078Y-35754D01*
X50115Y-35773D01*
X50134Y-35792D01*
X50153Y-35829D01*
X50153Y-35867D01*
X50134Y-35923D01*
X49909Y-36148D01*
X50153Y-36148D01*
X40596Y-31153D02*
X40465Y-31153D01*
X40465Y-31359D02*
X40465Y-30965D01*
X40653Y-30965D01*
X40934Y-31153D02*
X40990Y-31171D01*
X41009Y-31190D01*
X41028Y-31228D01*
X41028Y-31284D01*
X41009Y-31321D01*
X40990Y-31340D01*
X40953Y-31359D01*
X40803Y-31359D01*
X40803Y-30965D01*
X40934Y-30965D01*
X40971Y-30984D01*
X40990Y-31003D01*
X41009Y-31040D01*
X41009Y-31078D01*
X40990Y-31115D01*
X40971Y-31134D01*
X40934Y-31153D01*
X40803Y-31153D01*
X41253Y-31134D02*
X41215Y-31115D01*
X41196Y-31096D01*
X41178Y-31059D01*
X41178Y-31040D01*
X41196Y-31003D01*
X41215Y-30984D01*
X41253Y-30965D01*
X41328Y-30965D01*
X41365Y-30984D01*
X41384Y-31003D01*
X41403Y-31040D01*
X41403Y-31059D01*
X41384Y-31096D01*
X41365Y-31115D01*
X41328Y-31134D01*
X41253Y-31134D01*
X41215Y-31153D01*
X41196Y-31171D01*
X41178Y-31209D01*
X41178Y-31284D01*
X41196Y-31321D01*
X41215Y-31340D01*
X41253Y-31359D01*
X41328Y-31359D01*
X41365Y-31340D01*
X41384Y-31321D01*
X41403Y-31284D01*
X41403Y-31209D01*
X41384Y-31171D01*
X41365Y-31153D01*
X41328Y-31134D01*
X41646Y-30965D02*
X41684Y-30965D01*
X41721Y-30984D01*
X41740Y-31003D01*
X41759Y-31040D01*
X41778Y-31115D01*
X41778Y-31209D01*
X41759Y-31284D01*
X41740Y-31321D01*
X41721Y-31340D01*
X41684Y-31359D01*
X41646Y-31359D01*
X41609Y-31340D01*
X41590Y-31321D01*
X41571Y-31284D01*
X41553Y-31209D01*
X41553Y-31115D01*
X41571Y-31040D01*
X41590Y-31003D01*
X41609Y-30984D01*
X41646Y-30965D01*
X42153Y-31359D02*
X41928Y-31359D01*
X42040Y-31359D02*
X42040Y-30965D01*
X42003Y-31021D01*
X41965Y-31059D01*
X41928Y-31078D01*
X60146Y-32503D02*
X60015Y-32503D01*
X60015Y-32709D02*
X60015Y-32315D01*
X60203Y-32315D01*
X60484Y-32503D02*
X60540Y-32521D01*
X60559Y-32540D01*
X60578Y-32578D01*
X60578Y-32634D01*
X60559Y-32671D01*
X60540Y-32690D01*
X60503Y-32709D01*
X60353Y-32709D01*
X60353Y-32315D01*
X60484Y-32315D01*
X60521Y-32334D01*
X60540Y-32353D01*
X60559Y-32390D01*
X60559Y-32428D01*
X60540Y-32465D01*
X60521Y-32484D01*
X60484Y-32503D01*
X60353Y-32503D01*
X60709Y-32315D02*
X60971Y-32315D01*
X60803Y-32709D01*
X61196Y-32315D02*
X61234Y-32315D01*
X61271Y-32334D01*
X61290Y-32353D01*
X61309Y-32390D01*
X61328Y-32465D01*
X61328Y-32559D01*
X61309Y-32634D01*
X61290Y-32671D01*
X61271Y-32690D01*
X61234Y-32709D01*
X61196Y-32709D01*
X61159Y-32690D01*
X61140Y-32671D01*
X61121Y-32634D01*
X61103Y-32559D01*
X61103Y-32465D01*
X61121Y-32390D01*
X61140Y-32353D01*
X61159Y-32334D01*
X61196Y-32315D01*
X61703Y-32709D02*
X61478Y-32709D01*
X61590Y-32709D02*
X61590Y-32315D01*
X61553Y-32371D01*
X61515Y-32409D01*
X61478Y-32428D01*
X60603Y-44603D02*
X60603Y-44734D01*
X60809Y-44734D02*
X60415Y-44734D01*
X60415Y-44546D01*
X60603Y-44265D02*
X60621Y-44209D01*
X60640Y-44190D01*
X60678Y-44171D01*
X60734Y-44171D01*
X60771Y-44190D01*
X60790Y-44209D01*
X60809Y-44246D01*
X60809Y-44396D01*
X60415Y-44396D01*
X60415Y-44265D01*
X60434Y-44228D01*
X60453Y-44209D01*
X60490Y-44190D01*
X60528Y-44190D01*
X60565Y-44209D01*
X60584Y-44228D01*
X60603Y-44265D01*
X60603Y-44396D01*
X60415Y-43815D02*
X60415Y-44003D01*
X60603Y-44021D01*
X60584Y-44003D01*
X60565Y-43965D01*
X60565Y-43871D01*
X60584Y-43834D01*
X60603Y-43815D01*
X60640Y-43796D01*
X60734Y-43796D01*
X60771Y-43815D01*
X60790Y-43834D01*
X60809Y-43871D01*
X60809Y-43965D01*
X60790Y-44003D01*
X60771Y-44021D01*
X60415Y-43553D02*
X60415Y-43515D01*
X60434Y-43478D01*
X60453Y-43459D01*
X60490Y-43440D01*
X60565Y-43421D01*
X60659Y-43421D01*
X60734Y-43440D01*
X60771Y-43459D01*
X60790Y-43478D01*
X60809Y-43515D01*
X60809Y-43553D01*
X60790Y-43590D01*
X60771Y-43609D01*
X60734Y-43628D01*
X60659Y-43646D01*
X60565Y-43646D01*
X60490Y-43628D01*
X60453Y-43609D01*
X60434Y-43590D01*
X60415Y-43553D01*
X60809Y-43046D02*
X60809Y-43271D01*
X60809Y-43159D02*
X60415Y-43159D01*
X60471Y-43196D01*
X60509Y-43234D01*
X60528Y-43271D01*
M02*
