G04 (created by PCBNEW (2013-07-07 BZR 4022)-stable) date 5/12/2015 8:03:53 AM*
%MOIN*%
G04 Gerber Fmt 3.4, Leading zero omitted, Abs format*
%FSLAX34Y34*%
G01*
G70*
G90*
G04 APERTURE LIST*
%ADD10C,0.006*%
%ADD11C,0.012*%
%ADD12C,0.01*%
%ADD13C,0.035*%
%ADD14R,0.0472441X0.0354331*%
%ADD15R,0.0354331X0.0472441*%
%ADD16R,0.0354331X0.0314961*%
%ADD17R,0.023622X0.0610236*%
%ADD18R,0.065X0.065*%
%ADD19C,0.065*%
%ADD20R,0.055X0.055*%
%ADD21C,0.055*%
%ADD22R,0.1X0.14*%
%ADD23R,0.0165354X0.0354331*%
%ADD24R,0.110236X0.0531496*%
%ADD25R,0.0531496X0.110236*%
%ADD26R,0.0610236X0.0531496*%
%ADD27R,0.0531496X0.0610236*%
%ADD28R,0.0452756X0.0433071*%
%ADD29R,0.0433071X0.0452756*%
%ADD30R,0.137795X0.0629921*%
%ADD31R,0.0629921X0.137795*%
%ADD32R,0.0314961X0.0314961*%
%ADD33C,0.224409*%
%ADD34C,0.02*%
%ADD35C,0.025*%
%ADD36C,0.03*%
%ADD37C,0.015*%
%ADD38C,0.04*%
%ADD39C,0.05*%
G04 APERTURE END LIST*
G54D10*
G54D11*
X51304Y-54325D02*
X51332Y-54354D01*
X51418Y-54382D01*
X51475Y-54382D01*
X51561Y-54354D01*
X51618Y-54297D01*
X51647Y-54240D01*
X51675Y-54125D01*
X51675Y-54040D01*
X51647Y-53925D01*
X51618Y-53868D01*
X51561Y-53811D01*
X51475Y-53782D01*
X51418Y-53782D01*
X51332Y-53811D01*
X51304Y-53840D01*
X50704Y-54325D02*
X50732Y-54354D01*
X50818Y-54382D01*
X50875Y-54382D01*
X50961Y-54354D01*
X51018Y-54297D01*
X51047Y-54240D01*
X51075Y-54125D01*
X51075Y-54040D01*
X51047Y-53925D01*
X51018Y-53868D01*
X50961Y-53811D01*
X50875Y-53782D01*
X50818Y-53782D01*
X50732Y-53811D01*
X50704Y-53840D01*
X50447Y-54154D02*
X49990Y-54154D01*
X49504Y-54068D02*
X49418Y-54097D01*
X49390Y-54125D01*
X49361Y-54182D01*
X49361Y-54268D01*
X49390Y-54325D01*
X49418Y-54354D01*
X49475Y-54382D01*
X49704Y-54382D01*
X49704Y-53782D01*
X49504Y-53782D01*
X49447Y-53811D01*
X49418Y-53840D01*
X49390Y-53897D01*
X49390Y-53954D01*
X49418Y-54011D01*
X49447Y-54040D01*
X49504Y-54068D01*
X49704Y-54068D01*
X48990Y-54097D02*
X48990Y-54382D01*
X49190Y-53782D02*
X48990Y-54097D01*
X48790Y-53782D01*
X48590Y-54154D02*
X48132Y-54154D01*
X47875Y-54354D02*
X47790Y-54382D01*
X47647Y-54382D01*
X47590Y-54354D01*
X47561Y-54325D01*
X47532Y-54268D01*
X47532Y-54211D01*
X47561Y-54154D01*
X47590Y-54125D01*
X47647Y-54097D01*
X47761Y-54068D01*
X47818Y-54040D01*
X47847Y-54011D01*
X47875Y-53954D01*
X47875Y-53897D01*
X47847Y-53840D01*
X47818Y-53811D01*
X47761Y-53782D01*
X47618Y-53782D01*
X47532Y-53811D01*
X47304Y-54211D02*
X47018Y-54211D01*
X47361Y-54382D02*
X47161Y-53782D01*
X46961Y-54382D01*
X46761Y-54154D02*
X46304Y-54154D01*
X46018Y-54382D02*
X46018Y-53782D01*
X45675Y-54382D01*
X45675Y-53782D01*
X45047Y-54325D02*
X45075Y-54354D01*
X45161Y-54382D01*
X45218Y-54382D01*
X45304Y-54354D01*
X45361Y-54297D01*
X45390Y-54240D01*
X45418Y-54125D01*
X45418Y-54040D01*
X45390Y-53925D01*
X45361Y-53868D01*
X45304Y-53811D01*
X45218Y-53782D01*
X45161Y-53782D01*
X45075Y-53811D01*
X45047Y-53840D01*
X44390Y-53982D02*
X44247Y-54382D01*
X44104Y-53982D01*
X43618Y-53982D02*
X43618Y-54382D01*
X43761Y-53754D02*
X43904Y-54182D01*
X43532Y-54182D01*
X43304Y-54325D02*
X43275Y-54354D01*
X43304Y-54382D01*
X43332Y-54354D01*
X43304Y-54325D01*
X43304Y-54382D01*
X42904Y-53782D02*
X42847Y-53782D01*
X42789Y-53811D01*
X42761Y-53840D01*
X42732Y-53897D01*
X42704Y-54011D01*
X42704Y-54154D01*
X42732Y-54268D01*
X42761Y-54325D01*
X42789Y-54354D01*
X42847Y-54382D01*
X42904Y-54382D01*
X42961Y-54354D01*
X42989Y-54325D01*
X43018Y-54268D01*
X43047Y-54154D01*
X43047Y-54011D01*
X43018Y-53897D01*
X42989Y-53840D01*
X42961Y-53811D01*
X42904Y-53782D01*
X49707Y-53401D02*
X49735Y-53372D01*
X49792Y-53287D01*
X49821Y-53230D01*
X49850Y-53144D01*
X49878Y-53001D01*
X49878Y-52887D01*
X49850Y-52744D01*
X49821Y-52658D01*
X49792Y-52601D01*
X49735Y-52515D01*
X49707Y-52487D01*
X49221Y-53144D02*
X49278Y-53172D01*
X49392Y-53172D01*
X49450Y-53144D01*
X49478Y-53115D01*
X49507Y-53058D01*
X49507Y-52887D01*
X49478Y-52830D01*
X49450Y-52801D01*
X49392Y-52772D01*
X49278Y-52772D01*
X49221Y-52801D01*
X49021Y-53401D02*
X48992Y-53372D01*
X48935Y-53287D01*
X48907Y-53230D01*
X48878Y-53144D01*
X48850Y-53001D01*
X48850Y-52887D01*
X48878Y-52744D01*
X48907Y-52658D01*
X48935Y-52601D01*
X48992Y-52515D01*
X49021Y-52487D01*
X48135Y-52630D02*
X48107Y-52601D01*
X48050Y-52572D01*
X47907Y-52572D01*
X47850Y-52601D01*
X47821Y-52630D01*
X47792Y-52687D01*
X47792Y-52744D01*
X47821Y-52830D01*
X48164Y-53172D01*
X47792Y-53172D01*
X47421Y-52572D02*
X47364Y-52572D01*
X47307Y-52601D01*
X47278Y-52630D01*
X47250Y-52687D01*
X47221Y-52801D01*
X47221Y-52944D01*
X47250Y-53058D01*
X47278Y-53115D01*
X47307Y-53144D01*
X47364Y-53172D01*
X47421Y-53172D01*
X47478Y-53144D01*
X47507Y-53115D01*
X47535Y-53058D01*
X47564Y-52944D01*
X47564Y-52801D01*
X47535Y-52687D01*
X47507Y-52630D01*
X47478Y-52601D01*
X47421Y-52572D01*
X46649Y-53172D02*
X46992Y-53172D01*
X46821Y-53172D02*
X46821Y-52572D01*
X46878Y-52658D01*
X46935Y-52715D01*
X46992Y-52744D01*
X46107Y-52572D02*
X46392Y-52572D01*
X46421Y-52858D01*
X46392Y-52830D01*
X46335Y-52801D01*
X46192Y-52801D01*
X46135Y-52830D01*
X46107Y-52858D01*
X46078Y-52915D01*
X46078Y-53058D01*
X46107Y-53115D01*
X46135Y-53144D01*
X46192Y-53172D01*
X46335Y-53172D01*
X46392Y-53144D01*
X46421Y-53115D01*
X45021Y-53172D02*
X45221Y-52887D01*
X45364Y-53172D02*
X45364Y-52572D01*
X45135Y-52572D01*
X45078Y-52601D01*
X45049Y-52630D01*
X45021Y-52687D01*
X45021Y-52772D01*
X45049Y-52830D01*
X45078Y-52858D01*
X45135Y-52887D01*
X45364Y-52887D01*
X44564Y-52858D02*
X44764Y-52858D01*
X44764Y-53172D02*
X44764Y-52572D01*
X44478Y-52572D01*
X44307Y-52572D02*
X44164Y-53172D01*
X44049Y-52744D01*
X43935Y-53172D01*
X43792Y-52572D01*
X43564Y-53172D02*
X43564Y-52572D01*
X43564Y-52858D02*
X43221Y-52858D01*
X43221Y-53172D02*
X43221Y-52572D01*
G54D12*
X38000Y-28000D02*
X73000Y-28000D01*
X38000Y-55000D02*
X38000Y-28000D01*
X73000Y-55000D02*
X38000Y-55000D01*
X73000Y-28000D02*
X73000Y-55000D01*
G54D13*
X55800Y-49850D03*
X55800Y-49400D03*
X55800Y-50300D03*
X55800Y-50750D03*
X55800Y-51650D03*
X55800Y-51200D03*
X56300Y-51200D03*
X56300Y-51650D03*
X56300Y-50750D03*
X56300Y-50300D03*
X56400Y-47950D03*
X56400Y-47050D03*
X56400Y-47500D03*
X56400Y-46150D03*
X56400Y-45700D03*
X56400Y-46600D03*
X56900Y-45150D03*
X42700Y-48800D03*
X42700Y-49300D03*
X42700Y-49800D03*
X42200Y-49800D03*
X42200Y-49300D03*
X42200Y-48800D03*
X56600Y-36700D03*
X56600Y-36200D03*
X57950Y-31750D03*
X57250Y-31750D03*
X50650Y-37100D03*
X56100Y-38000D03*
X56900Y-39850D03*
X56900Y-39150D03*
X50900Y-33100D03*
X50900Y-33750D03*
X52050Y-32100D03*
X51450Y-32100D03*
X50900Y-32500D03*
X50900Y-30600D03*
X50900Y-31200D03*
X50900Y-31850D03*
G54D14*
X62900Y-31713D03*
X62900Y-30886D03*
X63300Y-45413D03*
X63300Y-44586D03*
X63800Y-30886D03*
X63800Y-31713D03*
X63800Y-33313D03*
X63800Y-32486D03*
X44100Y-33013D03*
X44100Y-32186D03*
G54D15*
X65613Y-52800D03*
X64786Y-52800D03*
G54D14*
X67100Y-31713D03*
X67100Y-30886D03*
X63300Y-42986D03*
X63300Y-43813D03*
X67100Y-42986D03*
X67100Y-43813D03*
G54D15*
X65613Y-48000D03*
X64786Y-48000D03*
X71413Y-46600D03*
X70586Y-46600D03*
X71413Y-47900D03*
X70586Y-47900D03*
G54D14*
X70200Y-44586D03*
X70200Y-45413D03*
X70200Y-50013D03*
X70200Y-49186D03*
X48200Y-50313D03*
X48200Y-49486D03*
X48200Y-47686D03*
X48200Y-48513D03*
G54D15*
X64986Y-35800D03*
X65813Y-35800D03*
X64986Y-40400D03*
X65813Y-40400D03*
G54D14*
X50700Y-50313D03*
X50700Y-49486D03*
X50700Y-47686D03*
X50700Y-48513D03*
G54D15*
X48986Y-40700D03*
X49813Y-40700D03*
G54D14*
X67100Y-45413D03*
X67100Y-44586D03*
G54D15*
X48986Y-49400D03*
X49813Y-49400D03*
X48986Y-48600D03*
X49813Y-48600D03*
X48986Y-42100D03*
X49813Y-42100D03*
X48986Y-42800D03*
X49813Y-42800D03*
X48986Y-45600D03*
X49813Y-45600D03*
X48986Y-44900D03*
X49813Y-44900D03*
X48986Y-44200D03*
X49813Y-44200D03*
X48986Y-43500D03*
X49813Y-43500D03*
G54D14*
X62900Y-32486D03*
X62900Y-33313D03*
X67100Y-32486D03*
X67100Y-33313D03*
G54D16*
X47315Y-31450D03*
X47984Y-31450D03*
G54D17*
X65150Y-33162D03*
X64650Y-33162D03*
X65650Y-33162D03*
X66150Y-33162D03*
X66150Y-31037D03*
X65650Y-31037D03*
X64650Y-31037D03*
X65150Y-31037D03*
X65450Y-43137D03*
X65950Y-43137D03*
X64950Y-43137D03*
X64450Y-43137D03*
X64450Y-45262D03*
X64950Y-45262D03*
X65950Y-45262D03*
X65450Y-45262D03*
G54D18*
X45400Y-51300D03*
G54D19*
X45400Y-50300D03*
X45400Y-49300D03*
X45400Y-48300D03*
X45400Y-47300D03*
X45400Y-46300D03*
X45400Y-45300D03*
X45400Y-44300D03*
X45400Y-43300D03*
X45400Y-42300D03*
X45400Y-41300D03*
X45400Y-40300D03*
X45400Y-39300D03*
X45400Y-38300D03*
X44400Y-38300D03*
X43400Y-38300D03*
X42400Y-38300D03*
X41400Y-38300D03*
X40400Y-38300D03*
X39400Y-38300D03*
X39400Y-39300D03*
X39400Y-40300D03*
X39400Y-41300D03*
X39400Y-42300D03*
X39400Y-43300D03*
X39400Y-44300D03*
X39400Y-45300D03*
X39400Y-46300D03*
X39400Y-47300D03*
X39400Y-48300D03*
X39400Y-49300D03*
X39400Y-50300D03*
X39400Y-51300D03*
G54D20*
X42800Y-29500D03*
G54D21*
X43800Y-29500D03*
X44800Y-29500D03*
G54D20*
X71500Y-38500D03*
G54D21*
X71500Y-37500D03*
X71500Y-36500D03*
G54D20*
X71500Y-31600D03*
G54D21*
X71500Y-32600D03*
X71500Y-33600D03*
G54D20*
X71500Y-43500D03*
G54D21*
X71500Y-44500D03*
X71500Y-45500D03*
G54D20*
X71500Y-51000D03*
G54D21*
X71500Y-50000D03*
X71500Y-49000D03*
G54D20*
X47000Y-29500D03*
G54D21*
X48000Y-29500D03*
G54D20*
X51600Y-29500D03*
G54D21*
X52600Y-29500D03*
G54D20*
X69000Y-34092D03*
G54D21*
X69000Y-33107D03*
G54D20*
X69000Y-52492D03*
G54D21*
X69000Y-51507D03*
G54D20*
X69000Y-48507D03*
G54D21*
X69000Y-49492D03*
G54D20*
X69000Y-43192D03*
G54D21*
X69000Y-42207D03*
G54D20*
X69000Y-45107D03*
G54D21*
X69000Y-46092D03*
G54D20*
X69000Y-30107D03*
G54D21*
X69000Y-31092D03*
G54D20*
X69000Y-39107D03*
G54D21*
X69000Y-40092D03*
G54D20*
X69000Y-37092D03*
G54D21*
X69000Y-36107D03*
G54D22*
X55500Y-34900D03*
X51500Y-34900D03*
G54D23*
X57983Y-36446D03*
X57727Y-36446D03*
X57472Y-36446D03*
X57216Y-36446D03*
X57216Y-34753D03*
X57472Y-34753D03*
X57727Y-34753D03*
X57983Y-34753D03*
G54D24*
X57600Y-33629D03*
X57600Y-32370D03*
X61600Y-50129D03*
X61600Y-48870D03*
G54D25*
X47729Y-35300D03*
X46470Y-35300D03*
G54D24*
X50650Y-39029D03*
X50650Y-37770D03*
X61600Y-39120D03*
X61600Y-40379D03*
G54D25*
X51670Y-31000D03*
X52929Y-31000D03*
X47729Y-33600D03*
X46470Y-33600D03*
X54720Y-44700D03*
X55979Y-44700D03*
X58129Y-38000D03*
X56870Y-38000D03*
X54920Y-39500D03*
X56179Y-39500D03*
X58379Y-47500D03*
X57120Y-47500D03*
G54D26*
X44900Y-32206D03*
X44900Y-32993D03*
X67100Y-39406D03*
X67100Y-40193D03*
G54D27*
X65593Y-41800D03*
X64806Y-41800D03*
X57393Y-49600D03*
X56606Y-49600D03*
G54D26*
X67100Y-36006D03*
X67100Y-36793D03*
X52300Y-38556D03*
X52300Y-39343D03*
G54D27*
X65593Y-46600D03*
X64806Y-46600D03*
G54D28*
X55145Y-46750D03*
X55854Y-46750D03*
X57754Y-51600D03*
X57045Y-51600D03*
X55145Y-46050D03*
X55854Y-46050D03*
X57654Y-46350D03*
X56945Y-46350D03*
G54D29*
X48650Y-31545D03*
X48650Y-32254D03*
G54D28*
X57654Y-45700D03*
X56945Y-45700D03*
G54D29*
X62600Y-44645D03*
X62600Y-45354D03*
X62600Y-43754D03*
X62600Y-43045D03*
G54D28*
X63045Y-35800D03*
X63754Y-35800D03*
G54D29*
X66200Y-38454D03*
X66200Y-37745D03*
X64600Y-38454D03*
X64600Y-37745D03*
G54D28*
X63754Y-40400D03*
X63045Y-40400D03*
G54D29*
X67100Y-49154D03*
X67100Y-48445D03*
G54D28*
X65045Y-29800D03*
X65754Y-29800D03*
G54D29*
X64400Y-50045D03*
X64400Y-50754D03*
X67100Y-51645D03*
X67100Y-52354D03*
G54D28*
X65045Y-34400D03*
X65754Y-34400D03*
G54D29*
X66000Y-50045D03*
X66000Y-50754D03*
G54D30*
X42562Y-33000D03*
X40437Y-33000D03*
G54D31*
X59000Y-44662D03*
X59000Y-42537D03*
G54D32*
X53385Y-46850D03*
X54014Y-46850D03*
X60985Y-38250D03*
X61614Y-38250D03*
X60985Y-50900D03*
X61614Y-50900D03*
X58385Y-48450D03*
X59014Y-48450D03*
G54D13*
X48300Y-40700D03*
X48300Y-40200D03*
X48300Y-41200D03*
X50500Y-40200D03*
X50500Y-40700D03*
X50500Y-41200D03*
X45800Y-33600D03*
X45800Y-34200D03*
X45800Y-34800D03*
X44600Y-36000D03*
X45800Y-33000D03*
X45800Y-32400D03*
X45200Y-35200D03*
X44600Y-35200D03*
X45200Y-36000D03*
X45800Y-35400D03*
X45800Y-31800D03*
X45800Y-36000D03*
X48700Y-33200D03*
X48350Y-33600D03*
X49000Y-33600D03*
X47750Y-34450D03*
X48300Y-35050D03*
X48300Y-35650D03*
X48300Y-34450D03*
X50400Y-35600D03*
X50400Y-35100D03*
X49800Y-34600D03*
X50400Y-34600D03*
X49800Y-36100D03*
X50400Y-36100D03*
X46000Y-37100D03*
X46600Y-36700D03*
X47200Y-37100D03*
X48650Y-47000D03*
X48100Y-47000D03*
G54D33*
X71500Y-29500D03*
X71500Y-53500D03*
X39500Y-53500D03*
X39500Y-29500D03*
G54D13*
X39100Y-33200D03*
X39100Y-32700D03*
X42300Y-32100D03*
X42800Y-32100D03*
X43300Y-32100D03*
X42300Y-31100D03*
X42300Y-31600D03*
X53700Y-30600D03*
X53700Y-31400D03*
X54900Y-38550D03*
X54900Y-38000D03*
X51650Y-38700D03*
X51650Y-39200D03*
X52100Y-40050D03*
X52550Y-40050D03*
X50100Y-46950D03*
X50650Y-46950D03*
X52850Y-46850D03*
X53400Y-47400D03*
X52850Y-47400D03*
X56550Y-33650D03*
X56050Y-33650D03*
X58700Y-33650D03*
X57700Y-37050D03*
X58250Y-37050D03*
X58800Y-37050D03*
X46100Y-38600D03*
X46600Y-38600D03*
X47100Y-38600D03*
X41700Y-48800D03*
X41700Y-49300D03*
X41700Y-49800D03*
X54650Y-46400D03*
X56900Y-44250D03*
X56900Y-44700D03*
X52200Y-50350D03*
X50700Y-50850D03*
X60500Y-31900D03*
X61000Y-37750D03*
X60500Y-45100D03*
X60500Y-50900D03*
X58300Y-51100D03*
X59050Y-48950D03*
X54000Y-50400D03*
X52550Y-43150D03*
X54300Y-45850D03*
X51100Y-43150D03*
X67700Y-49186D03*
X67700Y-51613D03*
X63850Y-51200D03*
X63850Y-49600D03*
X65450Y-50050D03*
X62200Y-52700D03*
X65450Y-44550D03*
X67700Y-45400D03*
X67700Y-43000D03*
X63850Y-43450D03*
X60900Y-45700D03*
X63850Y-45000D03*
X60900Y-46450D03*
X68050Y-36950D03*
X68050Y-39250D03*
X60050Y-49100D03*
X62000Y-35150D03*
X65150Y-38450D03*
X65150Y-31750D03*
X60750Y-33500D03*
X62300Y-32500D03*
X67950Y-33450D03*
X67950Y-30700D03*
X51350Y-49250D03*
X54350Y-48750D03*
X51350Y-48750D03*
X57400Y-49000D03*
X51100Y-45150D03*
X51100Y-44650D03*
X51100Y-44150D03*
X51100Y-43650D03*
X55200Y-48100D03*
X51100Y-42650D03*
X48200Y-50850D03*
X47600Y-45150D03*
X47600Y-44650D03*
X46300Y-43000D03*
X47600Y-42650D03*
X41200Y-46500D03*
X47600Y-43113D03*
X47600Y-44200D03*
X47486Y-49486D03*
X47600Y-43650D03*
X47500Y-48750D03*
X47100Y-46400D03*
X47100Y-47600D03*
X47650Y-50050D03*
X47800Y-42150D03*
X70100Y-47900D03*
X70100Y-46600D03*
X59000Y-41500D03*
X61600Y-29250D03*
X63050Y-29250D03*
X67100Y-29400D03*
X67100Y-34800D03*
X65650Y-32450D03*
X62500Y-34400D03*
X62500Y-35800D03*
X61600Y-41000D03*
X63050Y-40950D03*
X65650Y-37750D03*
X67100Y-35400D03*
X67100Y-40800D03*
X67100Y-41700D03*
X67100Y-46700D03*
X64950Y-43845D03*
X62600Y-45900D03*
X62600Y-42500D03*
X61600Y-42500D03*
X70200Y-45900D03*
X70200Y-48700D03*
X67650Y-52350D03*
X67100Y-52900D03*
X67100Y-47900D03*
X67600Y-48450D03*
X62550Y-52100D03*
X62550Y-48700D03*
X61600Y-48250D03*
X64950Y-50754D03*
X54000Y-54050D03*
X52200Y-54050D03*
X56050Y-43800D03*
X56050Y-42800D03*
X55200Y-43800D03*
X55200Y-42800D03*
X51350Y-49800D03*
X51150Y-48100D03*
X51150Y-45800D03*
X51050Y-42150D03*
X48000Y-32750D03*
X44900Y-31650D03*
X64950Y-50050D03*
X65800Y-48650D03*
X65800Y-52150D03*
X64950Y-44550D03*
X65800Y-45950D03*
X65750Y-42450D03*
X65650Y-38450D03*
X65900Y-36350D03*
X65900Y-39850D03*
X63750Y-39850D03*
X63750Y-36350D03*
X65900Y-33850D03*
X65950Y-30350D03*
X63750Y-30350D03*
X63750Y-33850D03*
X65650Y-31750D03*
X70750Y-50000D03*
X58300Y-45700D03*
X58250Y-46150D03*
X47300Y-31850D03*
X57450Y-35700D03*
X53000Y-39350D03*
G54D12*
X50650Y-39029D02*
X51479Y-39029D01*
X51479Y-39029D02*
X51650Y-39200D01*
G54D34*
X50700Y-50313D02*
X50700Y-50850D01*
X50700Y-47686D02*
X50700Y-47000D01*
X50700Y-47000D02*
X50650Y-46950D01*
G54D35*
X51650Y-38700D02*
X52156Y-38700D01*
X52156Y-38700D02*
X52300Y-38556D01*
G54D12*
X58129Y-38000D02*
X58129Y-37170D01*
X58129Y-37170D02*
X58250Y-37050D01*
G54D36*
X60985Y-38250D02*
X60985Y-37764D01*
X60985Y-37764D02*
X61000Y-37750D01*
X60985Y-50900D02*
X60500Y-50900D01*
G54D37*
X57754Y-51104D02*
X57754Y-51600D01*
X57750Y-51100D02*
X57754Y-51104D01*
X58300Y-51100D02*
X57750Y-51100D01*
G54D36*
X59014Y-48450D02*
X59014Y-48914D01*
X59014Y-48914D02*
X59050Y-48950D01*
G54D37*
X57983Y-36446D02*
X57983Y-37033D01*
X58000Y-37050D02*
X58250Y-37050D01*
X57983Y-37033D02*
X58000Y-37050D01*
X57727Y-36446D02*
X57727Y-37022D01*
X57727Y-37022D02*
X57700Y-37050D01*
G54D12*
X52800Y-43400D02*
X52550Y-43150D01*
X52800Y-44350D02*
X52800Y-43400D01*
X54300Y-45850D02*
X52800Y-44350D01*
X49813Y-42800D02*
X50200Y-42800D01*
X50550Y-43150D02*
X51100Y-43150D01*
X50200Y-42800D02*
X50550Y-43150D01*
X67667Y-49154D02*
X67700Y-49186D01*
X67100Y-49154D02*
X67667Y-49154D01*
X67667Y-51645D02*
X67700Y-51613D01*
X67100Y-51645D02*
X67667Y-51645D01*
X64786Y-52800D02*
X64786Y-52136D01*
X64786Y-52136D02*
X63850Y-51200D01*
X64786Y-48000D02*
X64786Y-48663D01*
X64786Y-48663D02*
X63850Y-49600D01*
G54D37*
X65450Y-45262D02*
X65450Y-44550D01*
X66000Y-50045D02*
X65454Y-50045D01*
X65454Y-50045D02*
X65450Y-50050D01*
G54D12*
X67700Y-45400D02*
X67700Y-45413D01*
X67100Y-45413D02*
X67700Y-45413D01*
X67700Y-45413D02*
X67986Y-45413D01*
X68292Y-45107D02*
X69000Y-45107D01*
X67986Y-45413D02*
X68292Y-45107D01*
X67700Y-43000D02*
X67700Y-42986D01*
X69000Y-43192D02*
X68492Y-43192D01*
X68286Y-42986D02*
X67700Y-42986D01*
X67700Y-42986D02*
X67100Y-42986D01*
X68492Y-43192D02*
X68286Y-42986D01*
X63300Y-43813D02*
X63813Y-43813D01*
X63850Y-43776D02*
X63850Y-43450D01*
X63813Y-43813D02*
X63850Y-43776D01*
X62600Y-43754D02*
X63240Y-43754D01*
X63240Y-43754D02*
X63300Y-43813D01*
X62600Y-43754D02*
X61554Y-43754D01*
X61554Y-43754D02*
X61100Y-44208D01*
X61100Y-44208D02*
X61100Y-45500D01*
X61100Y-45500D02*
X60900Y-45700D01*
X63300Y-44586D02*
X63786Y-44586D01*
X63850Y-44650D02*
X63850Y-45000D01*
X63786Y-44586D02*
X63850Y-44650D01*
X62600Y-44645D02*
X63240Y-44645D01*
X63240Y-44645D02*
X63300Y-44586D01*
X62600Y-44645D02*
X62154Y-44645D01*
X62154Y-44645D02*
X61750Y-45050D01*
X61750Y-45050D02*
X61750Y-46050D01*
X61750Y-46050D02*
X61350Y-46450D01*
X61350Y-46450D02*
X60900Y-46450D01*
X67100Y-36793D02*
X67893Y-36793D01*
X67893Y-36793D02*
X68050Y-36950D01*
X67100Y-39406D02*
X67893Y-39406D01*
X67893Y-39406D02*
X68050Y-39250D01*
G54D37*
X60050Y-41700D02*
X60050Y-35600D01*
X60050Y-49100D02*
X60050Y-41700D01*
X60050Y-35600D02*
X60500Y-35150D01*
X60500Y-35150D02*
X62000Y-35150D01*
X65145Y-38454D02*
X64600Y-38454D01*
X65150Y-38450D02*
X65145Y-38454D01*
X65150Y-31750D02*
X65150Y-31037D01*
G54D12*
X62900Y-31713D02*
X62536Y-31713D01*
X62536Y-31713D02*
X60750Y-33500D01*
X62900Y-32486D02*
X62313Y-32486D01*
X62313Y-32486D02*
X62300Y-32500D01*
X69000Y-34092D02*
X68592Y-34092D01*
X67813Y-33313D02*
X67100Y-33313D01*
X68592Y-34092D02*
X67950Y-33450D01*
X67950Y-33450D02*
X67813Y-33313D01*
X69000Y-30107D02*
X68542Y-30107D01*
X67763Y-30886D02*
X67100Y-30886D01*
X68542Y-30107D02*
X67950Y-30700D01*
X67950Y-30700D02*
X67763Y-30886D01*
X51113Y-49486D02*
X50700Y-49486D01*
X51350Y-49250D02*
X51113Y-49486D01*
X50700Y-49486D02*
X49900Y-49486D01*
X49900Y-49486D02*
X49813Y-49400D01*
X51350Y-48750D02*
X54350Y-48750D01*
X50700Y-48513D02*
X51113Y-48513D01*
X51113Y-48513D02*
X51350Y-48750D01*
X50700Y-48513D02*
X49900Y-48513D01*
X49900Y-48513D02*
X49813Y-48600D01*
G54D37*
X57393Y-49006D02*
X57393Y-49600D01*
X57400Y-49000D02*
X57393Y-49006D01*
G54D12*
X49813Y-45600D02*
X50000Y-45600D01*
X50450Y-45150D02*
X51100Y-45150D01*
X50000Y-45600D02*
X50450Y-45150D01*
X49813Y-44900D02*
X50250Y-44900D01*
X50500Y-44650D02*
X51100Y-44650D01*
X50250Y-44900D02*
X50500Y-44650D01*
X49813Y-44200D02*
X50450Y-44200D01*
X50500Y-44150D02*
X51100Y-44150D01*
X50450Y-44200D02*
X50500Y-44150D01*
X49813Y-43500D02*
X50250Y-43500D01*
X50400Y-43650D02*
X51100Y-43650D01*
X50250Y-43500D02*
X50400Y-43650D01*
X51100Y-42650D02*
X51700Y-42650D01*
X52400Y-48100D02*
X55200Y-48100D01*
X52000Y-47700D02*
X52400Y-48100D01*
X52000Y-42950D02*
X52000Y-47700D01*
X51700Y-42650D02*
X52000Y-42950D01*
X49813Y-42100D02*
X50100Y-42100D01*
X50650Y-42650D02*
X51100Y-42650D01*
X50100Y-42100D02*
X50650Y-42650D01*
G54D34*
X48200Y-50313D02*
X48200Y-50850D01*
X48100Y-47000D02*
X48100Y-47586D01*
X48100Y-47586D02*
X48200Y-47686D01*
X48100Y-47000D02*
X48650Y-47000D01*
G54D12*
X48500Y-45600D02*
X48986Y-45600D01*
X47600Y-45150D02*
X48050Y-45150D01*
X48050Y-45150D02*
X48500Y-45600D01*
X47600Y-44650D02*
X48400Y-44650D01*
X48400Y-44650D02*
X48650Y-44900D01*
X48650Y-44900D02*
X48986Y-44900D01*
X46650Y-42650D02*
X47600Y-42650D01*
X46300Y-43000D02*
X46650Y-42650D01*
X48500Y-42100D02*
X48986Y-42100D01*
X47600Y-42650D02*
X47950Y-42650D01*
X47950Y-42650D02*
X48500Y-42100D01*
X46913Y-43800D02*
X47600Y-43113D01*
X43900Y-43800D02*
X46913Y-43800D01*
X41200Y-46500D02*
X43900Y-43800D01*
X48986Y-42800D02*
X48450Y-42800D01*
X47613Y-43100D02*
X47600Y-43113D01*
X47613Y-43100D02*
X48150Y-43100D01*
X48150Y-43100D02*
X48450Y-42800D01*
X39400Y-48300D02*
X42400Y-48300D01*
X47000Y-44800D02*
X47600Y-44200D01*
X45100Y-44800D02*
X47000Y-44800D01*
X44800Y-45100D02*
X45100Y-44800D01*
X44800Y-45900D02*
X44800Y-45100D01*
X42400Y-48300D02*
X44800Y-45900D01*
X48986Y-44200D02*
X47600Y-44200D01*
X48200Y-49486D02*
X47486Y-49486D01*
X48200Y-49486D02*
X48900Y-49486D01*
X48900Y-49486D02*
X48986Y-49400D01*
X48400Y-43500D02*
X48986Y-43500D01*
X47600Y-43650D02*
X48250Y-43650D01*
X48250Y-43650D02*
X48400Y-43500D01*
X48200Y-48513D02*
X48900Y-48513D01*
X48900Y-48513D02*
X48986Y-48600D01*
X47736Y-48513D02*
X48200Y-48513D01*
X47500Y-48750D02*
X47736Y-48513D01*
G54D34*
X70586Y-47900D02*
X70100Y-47900D01*
X70586Y-46600D02*
X70100Y-46600D01*
G54D12*
X56870Y-38000D02*
X56100Y-38000D01*
X50650Y-37770D02*
X50650Y-37100D01*
G54D36*
X59000Y-42537D02*
X59000Y-41500D01*
G54D34*
X65650Y-33162D02*
X65650Y-32450D01*
X63045Y-35800D02*
X62500Y-35800D01*
G54D38*
X61600Y-40379D02*
X61600Y-41000D01*
G54D34*
X63045Y-40400D02*
X63045Y-40945D01*
X63045Y-40945D02*
X63050Y-40950D01*
X65650Y-37750D02*
X65650Y-37745D01*
G54D36*
X66200Y-37745D02*
X65650Y-37745D01*
X65650Y-37745D02*
X64600Y-37745D01*
X67100Y-36006D02*
X67100Y-35400D01*
X67100Y-40193D02*
X67100Y-40800D01*
G54D34*
X64950Y-43845D02*
X64950Y-43137D01*
G54D36*
X62600Y-45354D02*
X62600Y-45900D01*
X62600Y-43045D02*
X62600Y-42500D01*
X70200Y-45413D02*
X70200Y-45900D01*
X70200Y-49186D02*
X70200Y-48700D01*
X67100Y-52354D02*
X67645Y-52354D01*
X67645Y-52354D02*
X67650Y-52350D01*
X67100Y-52354D02*
X67100Y-52900D01*
X67100Y-48445D02*
X67100Y-47900D01*
X67100Y-48445D02*
X67595Y-48445D01*
X67595Y-48445D02*
X67600Y-48450D01*
X61600Y-48870D02*
X61600Y-48250D01*
X64400Y-50754D02*
X64950Y-50754D01*
X64950Y-50754D02*
X66000Y-50754D01*
G54D37*
X57216Y-36446D02*
X56600Y-36446D01*
G54D38*
X56600Y-36200D02*
X56600Y-36446D01*
X56600Y-36446D02*
X56600Y-36700D01*
X53700Y-31000D02*
X52929Y-31000D01*
X53700Y-30600D02*
X53700Y-31000D01*
X53700Y-31000D02*
X53700Y-31400D01*
X39100Y-33000D02*
X40437Y-33000D01*
X39100Y-32700D02*
X39100Y-33000D01*
X39100Y-33000D02*
X39100Y-33200D01*
G54D36*
X44900Y-32993D02*
X45793Y-32993D01*
X45793Y-32993D02*
X45800Y-33000D01*
G54D37*
X57983Y-34753D02*
X57983Y-33716D01*
X57897Y-33629D02*
X57600Y-33629D01*
X57983Y-33716D02*
X57897Y-33629D01*
X57216Y-34753D02*
X57216Y-33766D01*
X57352Y-33629D02*
X57600Y-33629D01*
X57216Y-33766D02*
X57352Y-33629D01*
G54D39*
X55500Y-34900D02*
X55500Y-33700D01*
X55550Y-33650D02*
X56050Y-33650D01*
X55500Y-33700D02*
X55550Y-33650D01*
G54D38*
X42562Y-33000D02*
X42562Y-32362D01*
X42562Y-32362D02*
X42300Y-32100D01*
G54D36*
X44100Y-33013D02*
X42576Y-33013D01*
X42576Y-33013D02*
X42562Y-33000D01*
X47729Y-33600D02*
X49000Y-33600D01*
G54D12*
X48000Y-32750D02*
X48650Y-32750D01*
X48650Y-32750D02*
X48650Y-32254D01*
X44900Y-32206D02*
X44900Y-31650D01*
X44100Y-32186D02*
X44880Y-32186D01*
X44880Y-32186D02*
X44900Y-32206D01*
G54D36*
X64400Y-50045D02*
X64945Y-50045D01*
X64945Y-50045D02*
X64950Y-50050D01*
X61600Y-50129D02*
X64315Y-50129D01*
X64315Y-50129D02*
X64400Y-50045D01*
X61614Y-50900D02*
X61614Y-50144D01*
X61614Y-50144D02*
X61600Y-50129D01*
G54D12*
X65613Y-48000D02*
X65613Y-48463D01*
X65613Y-48463D02*
X65800Y-48650D01*
X65613Y-52800D02*
X65613Y-52336D01*
X65613Y-52336D02*
X65800Y-52150D01*
G54D34*
X65450Y-43137D02*
X65450Y-43900D01*
X64950Y-44400D02*
X64950Y-44550D01*
X65450Y-43900D02*
X64950Y-44400D01*
X64950Y-45262D02*
X64950Y-44550D01*
G54D12*
X64806Y-41800D02*
X64806Y-42293D01*
X64450Y-42650D02*
X64450Y-43137D01*
X64806Y-42293D02*
X64450Y-42650D01*
X63300Y-42986D02*
X63886Y-42986D01*
X64037Y-43137D02*
X64450Y-43137D01*
X63886Y-42986D02*
X64037Y-43137D01*
X67100Y-44586D02*
X66713Y-44586D01*
X66437Y-45262D02*
X65950Y-45262D01*
X66600Y-45100D02*
X66437Y-45262D01*
X66600Y-44700D02*
X66600Y-45100D01*
X66713Y-44586D02*
X66600Y-44700D01*
X65593Y-46600D02*
X65593Y-46156D01*
X65950Y-45800D02*
X65950Y-45262D01*
X65593Y-46156D02*
X65800Y-45950D01*
X65800Y-45950D02*
X65950Y-45800D01*
X64806Y-46600D02*
X64806Y-46156D01*
X64450Y-45800D02*
X64450Y-45262D01*
X64806Y-46156D02*
X64450Y-45800D01*
X63300Y-45413D02*
X63936Y-45413D01*
X64087Y-45262D02*
X64450Y-45262D01*
X63936Y-45413D02*
X64087Y-45262D01*
X67100Y-43813D02*
X66713Y-43813D01*
X66387Y-43137D02*
X65950Y-43137D01*
X66600Y-43350D02*
X66387Y-43137D01*
X66600Y-43700D02*
X66600Y-43350D01*
X66713Y-43813D02*
X66600Y-43700D01*
X65593Y-41800D02*
X65593Y-42293D01*
X65950Y-42650D02*
X65950Y-43137D01*
X65593Y-42293D02*
X65750Y-42450D01*
X65750Y-42450D02*
X65950Y-42650D01*
G54D36*
X61600Y-39120D02*
X65579Y-39120D01*
X65650Y-39050D02*
X65650Y-38450D01*
X65579Y-39120D02*
X65650Y-39050D01*
X61614Y-38250D02*
X61614Y-39105D01*
X61614Y-39105D02*
X61600Y-39120D01*
G54D34*
X66200Y-38454D02*
X65654Y-38454D01*
X65654Y-38454D02*
X65650Y-38450D01*
G54D12*
X65813Y-35800D02*
X65813Y-36263D01*
X65813Y-36263D02*
X65900Y-36350D01*
X65813Y-40400D02*
X65813Y-39936D01*
X65813Y-39936D02*
X65900Y-39850D01*
X63754Y-40400D02*
X63754Y-39854D01*
X63754Y-39854D02*
X63750Y-39850D01*
X63754Y-40400D02*
X64986Y-40400D01*
X63754Y-35800D02*
X63754Y-36345D01*
X63754Y-36345D02*
X63750Y-36350D01*
X64986Y-35800D02*
X63754Y-35800D01*
X66150Y-33162D02*
X66150Y-33600D01*
X65754Y-33995D02*
X65754Y-34400D01*
X66150Y-33600D02*
X65900Y-33850D01*
X65900Y-33850D02*
X65754Y-33995D01*
X67100Y-32486D02*
X66313Y-32486D01*
X66150Y-32650D02*
X66150Y-33162D01*
X66313Y-32486D02*
X66150Y-32650D01*
X65754Y-29800D02*
X65754Y-30154D01*
X66150Y-30550D02*
X66150Y-31037D01*
X65754Y-30154D02*
X65950Y-30350D01*
X65950Y-30350D02*
X66150Y-30550D01*
X67100Y-31713D02*
X66313Y-31713D01*
X66150Y-31550D02*
X66150Y-31037D01*
X66313Y-31713D02*
X66150Y-31550D01*
X63800Y-30400D02*
X63800Y-30886D01*
X63750Y-30350D02*
X63800Y-30400D01*
X62900Y-30886D02*
X63800Y-30886D01*
X63800Y-33800D02*
X63800Y-33313D01*
X63750Y-33850D02*
X63800Y-33800D01*
X63800Y-33313D02*
X62900Y-33313D01*
X64650Y-31037D02*
X64650Y-30550D01*
X65045Y-30154D02*
X65045Y-29800D01*
X64650Y-30550D02*
X65045Y-30154D01*
X64650Y-31037D02*
X64650Y-31550D01*
X64486Y-31713D02*
X63800Y-31713D01*
X64650Y-31550D02*
X64486Y-31713D01*
X64650Y-33162D02*
X64650Y-32700D01*
X64436Y-32486D02*
X63800Y-32486D01*
X64650Y-32700D02*
X64436Y-32486D01*
X65045Y-34400D02*
X65045Y-34004D01*
X64650Y-33608D02*
X64650Y-33162D01*
X65045Y-34004D02*
X64650Y-33608D01*
G54D34*
X65150Y-33162D02*
X65150Y-32350D01*
X65650Y-31850D02*
X65650Y-31750D01*
X65150Y-32350D02*
X65650Y-31850D01*
X65650Y-31750D02*
X65650Y-31037D01*
G54D36*
X55145Y-46050D02*
X55145Y-45745D01*
X54720Y-45320D02*
X54720Y-44700D01*
X55145Y-45745D02*
X54720Y-45320D01*
X55145Y-46400D02*
X54650Y-46400D01*
X55145Y-46050D02*
X55145Y-46400D01*
X55145Y-46400D02*
X55145Y-46750D01*
X54014Y-46850D02*
X54014Y-46435D01*
X54014Y-46435D02*
X54050Y-46400D01*
X54050Y-46400D02*
X54650Y-46400D01*
G54D12*
X71500Y-49000D02*
X71500Y-47986D01*
X71500Y-47986D02*
X71413Y-47900D01*
X71500Y-32600D02*
X69507Y-32600D01*
X69507Y-32600D02*
X69000Y-33107D01*
X71500Y-31600D02*
X69507Y-31600D01*
X69507Y-31600D02*
X69000Y-31092D01*
X70200Y-50013D02*
X70736Y-50013D01*
X70736Y-50013D02*
X70750Y-50000D01*
X71500Y-45500D02*
X71500Y-46513D01*
X71500Y-46513D02*
X71413Y-46600D01*
X70200Y-44586D02*
X71413Y-44586D01*
X71413Y-44586D02*
X71500Y-44500D01*
X69000Y-46092D02*
X69007Y-46092D01*
X69763Y-44586D02*
X70200Y-44586D01*
X69600Y-44750D02*
X69763Y-44586D01*
X69600Y-45500D02*
X69600Y-44750D01*
X69007Y-46092D02*
X69600Y-45500D01*
X69000Y-42207D02*
X69007Y-42207D01*
X70300Y-43500D02*
X71500Y-43500D01*
X69007Y-42207D02*
X70300Y-43500D01*
G54D36*
X59000Y-44662D02*
X59000Y-45700D01*
X59000Y-45700D02*
X58300Y-45700D01*
X58300Y-45700D02*
X57654Y-45700D01*
G54D38*
X58379Y-47500D02*
X58379Y-46279D01*
X58379Y-46279D02*
X58250Y-46150D01*
X57654Y-46350D02*
X58050Y-46350D01*
X58050Y-46350D02*
X58250Y-46150D01*
G54D36*
X58385Y-48450D02*
X58385Y-47505D01*
X58385Y-47505D02*
X58379Y-47500D01*
G54D38*
X47000Y-29500D02*
X44800Y-29500D01*
G54D12*
X47315Y-31450D02*
X47315Y-31834D01*
X47315Y-31834D02*
X47300Y-31850D01*
X47984Y-31450D02*
X48554Y-31450D01*
X48554Y-31450D02*
X48650Y-31545D01*
G54D37*
X57472Y-36446D02*
X57472Y-35722D01*
X57472Y-35722D02*
X57450Y-35700D01*
G54D12*
X52300Y-39343D02*
X52993Y-39343D01*
X52993Y-39343D02*
X53000Y-39350D01*
G54D39*
X54920Y-39500D02*
X54920Y-38570D01*
X54920Y-38570D02*
X54900Y-38550D01*
G54D10*
G36*
X49150Y-41350D02*
X48936Y-41350D01*
X48936Y-41123D01*
X48936Y-40750D01*
X48936Y-40650D01*
X48936Y-40276D01*
X48874Y-40213D01*
X48759Y-40213D01*
X48668Y-40251D01*
X48597Y-40321D01*
X48559Y-40413D01*
X48559Y-40513D01*
X48559Y-40587D01*
X48621Y-40650D01*
X48936Y-40650D01*
X48936Y-40750D01*
X48621Y-40750D01*
X48559Y-40812D01*
X48559Y-40886D01*
X48559Y-40986D01*
X48597Y-41078D01*
X48668Y-41148D01*
X48759Y-41186D01*
X48874Y-41186D01*
X48936Y-41123D01*
X48936Y-41350D01*
X48050Y-41350D01*
X48050Y-40050D01*
X49150Y-40050D01*
X49150Y-40213D01*
X49099Y-40213D01*
X49036Y-40276D01*
X49036Y-40650D01*
X49044Y-40650D01*
X49044Y-40750D01*
X49036Y-40750D01*
X49036Y-41123D01*
X49099Y-41186D01*
X49150Y-41186D01*
X49150Y-41350D01*
X49150Y-41350D01*
G37*
G54D12*
X49150Y-41350D02*
X48936Y-41350D01*
X48936Y-41123D01*
X48936Y-40750D01*
X48936Y-40650D01*
X48936Y-40276D01*
X48874Y-40213D01*
X48759Y-40213D01*
X48668Y-40251D01*
X48597Y-40321D01*
X48559Y-40413D01*
X48559Y-40513D01*
X48559Y-40587D01*
X48621Y-40650D01*
X48936Y-40650D01*
X48936Y-40750D01*
X48621Y-40750D01*
X48559Y-40812D01*
X48559Y-40886D01*
X48559Y-40986D01*
X48597Y-41078D01*
X48668Y-41148D01*
X48759Y-41186D01*
X48874Y-41186D01*
X48936Y-41123D01*
X48936Y-41350D01*
X48050Y-41350D01*
X48050Y-40050D01*
X49150Y-40050D01*
X49150Y-40213D01*
X49099Y-40213D01*
X49036Y-40276D01*
X49036Y-40650D01*
X49044Y-40650D01*
X49044Y-40750D01*
X49036Y-40750D01*
X49036Y-41123D01*
X49099Y-41186D01*
X49150Y-41186D01*
X49150Y-41350D01*
G54D10*
G36*
X50750Y-41350D02*
X50240Y-41350D01*
X50240Y-40886D01*
X50240Y-40513D01*
X50240Y-40413D01*
X50202Y-40321D01*
X50131Y-40251D01*
X50040Y-40213D01*
X49925Y-40213D01*
X49863Y-40276D01*
X49863Y-40650D01*
X50178Y-40650D01*
X50240Y-40587D01*
X50240Y-40513D01*
X50240Y-40886D01*
X50240Y-40812D01*
X50178Y-40750D01*
X49863Y-40750D01*
X49863Y-41123D01*
X49925Y-41186D01*
X50040Y-41186D01*
X50131Y-41148D01*
X50202Y-41078D01*
X50240Y-40986D01*
X50240Y-40886D01*
X50240Y-41350D01*
X49650Y-41350D01*
X49650Y-41186D01*
X49700Y-41186D01*
X49763Y-41123D01*
X49763Y-40750D01*
X49755Y-40750D01*
X49755Y-40650D01*
X49763Y-40650D01*
X49763Y-40276D01*
X49700Y-40213D01*
X49650Y-40213D01*
X49650Y-40050D01*
X50750Y-40050D01*
X50750Y-41350D01*
X50750Y-41350D01*
G37*
G54D12*
X50750Y-41350D02*
X50240Y-41350D01*
X50240Y-40886D01*
X50240Y-40513D01*
X50240Y-40413D01*
X50202Y-40321D01*
X50131Y-40251D01*
X50040Y-40213D01*
X49925Y-40213D01*
X49863Y-40276D01*
X49863Y-40650D01*
X50178Y-40650D01*
X50240Y-40587D01*
X50240Y-40513D01*
X50240Y-40886D01*
X50240Y-40812D01*
X50178Y-40750D01*
X49863Y-40750D01*
X49863Y-41123D01*
X49925Y-41186D01*
X50040Y-41186D01*
X50131Y-41148D01*
X50202Y-41078D01*
X50240Y-40986D01*
X50240Y-40886D01*
X50240Y-41350D01*
X49650Y-41350D01*
X49650Y-41186D01*
X49700Y-41186D01*
X49763Y-41123D01*
X49763Y-40750D01*
X49755Y-40750D01*
X49755Y-40650D01*
X49763Y-40650D01*
X49763Y-40276D01*
X49700Y-40213D01*
X49650Y-40213D01*
X49650Y-40050D01*
X50750Y-40050D01*
X50750Y-41350D01*
G54D10*
G36*
X46550Y-36250D02*
X46420Y-36250D01*
X46420Y-36038D01*
X46420Y-35350D01*
X46420Y-35250D01*
X46420Y-34561D01*
X46420Y-34338D01*
X46420Y-33650D01*
X46420Y-33550D01*
X46420Y-32861D01*
X46357Y-32798D01*
X46154Y-32798D01*
X46062Y-32836D01*
X45992Y-32907D01*
X45954Y-32998D01*
X45954Y-33098D01*
X45954Y-33487D01*
X46016Y-33550D01*
X46420Y-33550D01*
X46420Y-33650D01*
X46016Y-33650D01*
X45954Y-33712D01*
X45954Y-34101D01*
X45954Y-34201D01*
X45992Y-34292D01*
X46062Y-34363D01*
X46154Y-34401D01*
X46357Y-34401D01*
X46420Y-34338D01*
X46420Y-34561D01*
X46357Y-34498D01*
X46154Y-34498D01*
X46062Y-34536D01*
X45992Y-34607D01*
X45954Y-34698D01*
X45954Y-34798D01*
X45954Y-35187D01*
X46016Y-35250D01*
X46420Y-35250D01*
X46420Y-35350D01*
X46016Y-35350D01*
X45954Y-35412D01*
X45954Y-35801D01*
X45954Y-35901D01*
X45992Y-35992D01*
X46062Y-36063D01*
X46154Y-36101D01*
X46357Y-36101D01*
X46420Y-36038D01*
X46420Y-36250D01*
X44450Y-36250D01*
X44450Y-34950D01*
X45450Y-34950D01*
X45450Y-33321D01*
X45455Y-33308D01*
X45455Y-33106D01*
X45450Y-33101D01*
X45450Y-32886D01*
X45455Y-32881D01*
X45455Y-32678D01*
X45450Y-32665D01*
X45450Y-31550D01*
X46550Y-31550D01*
X46550Y-32831D01*
X46520Y-32861D01*
X46520Y-33550D01*
X46527Y-33550D01*
X46527Y-33650D01*
X46520Y-33650D01*
X46520Y-34338D01*
X46550Y-34368D01*
X46550Y-34531D01*
X46520Y-34561D01*
X46520Y-35250D01*
X46527Y-35250D01*
X46527Y-35350D01*
X46520Y-35350D01*
X46520Y-36038D01*
X46550Y-36068D01*
X46550Y-36250D01*
X46550Y-36250D01*
G37*
G54D12*
X46550Y-36250D02*
X46420Y-36250D01*
X46420Y-36038D01*
X46420Y-35350D01*
X46420Y-35250D01*
X46420Y-34561D01*
X46420Y-34338D01*
X46420Y-33650D01*
X46420Y-33550D01*
X46420Y-32861D01*
X46357Y-32798D01*
X46154Y-32798D01*
X46062Y-32836D01*
X45992Y-32907D01*
X45954Y-32998D01*
X45954Y-33098D01*
X45954Y-33487D01*
X46016Y-33550D01*
X46420Y-33550D01*
X46420Y-33650D01*
X46016Y-33650D01*
X45954Y-33712D01*
X45954Y-34101D01*
X45954Y-34201D01*
X45992Y-34292D01*
X46062Y-34363D01*
X46154Y-34401D01*
X46357Y-34401D01*
X46420Y-34338D01*
X46420Y-34561D01*
X46357Y-34498D01*
X46154Y-34498D01*
X46062Y-34536D01*
X45992Y-34607D01*
X45954Y-34698D01*
X45954Y-34798D01*
X45954Y-35187D01*
X46016Y-35250D01*
X46420Y-35250D01*
X46420Y-35350D01*
X46016Y-35350D01*
X45954Y-35412D01*
X45954Y-35801D01*
X45954Y-35901D01*
X45992Y-35992D01*
X46062Y-36063D01*
X46154Y-36101D01*
X46357Y-36101D01*
X46420Y-36038D01*
X46420Y-36250D01*
X44450Y-36250D01*
X44450Y-34950D01*
X45450Y-34950D01*
X45450Y-33321D01*
X45455Y-33308D01*
X45455Y-33106D01*
X45450Y-33101D01*
X45450Y-32886D01*
X45455Y-32881D01*
X45455Y-32678D01*
X45450Y-32665D01*
X45450Y-31550D01*
X46550Y-31550D01*
X46550Y-32831D01*
X46520Y-32861D01*
X46520Y-33550D01*
X46527Y-33550D01*
X46527Y-33650D01*
X46520Y-33650D01*
X46520Y-34338D01*
X46550Y-34368D01*
X46550Y-34531D01*
X46520Y-34561D01*
X46520Y-35250D01*
X46527Y-35250D01*
X46527Y-35350D01*
X46520Y-35350D01*
X46520Y-36038D01*
X46550Y-36068D01*
X46550Y-36250D01*
G54D10*
G36*
X49150Y-33850D02*
X48245Y-33850D01*
X48245Y-33712D01*
X48183Y-33650D01*
X47779Y-33650D01*
X47779Y-33657D01*
X47679Y-33657D01*
X47679Y-33650D01*
X47672Y-33650D01*
X47672Y-33550D01*
X47679Y-33550D01*
X47679Y-33542D01*
X47779Y-33542D01*
X47779Y-33550D01*
X48183Y-33550D01*
X48245Y-33487D01*
X48245Y-33098D01*
X48245Y-33050D01*
X49150Y-33050D01*
X49150Y-33850D01*
X49150Y-33850D01*
G37*
G54D12*
X49150Y-33850D02*
X48245Y-33850D01*
X48245Y-33712D01*
X48183Y-33650D01*
X47779Y-33650D01*
X47779Y-33657D01*
X47679Y-33657D01*
X47679Y-33650D01*
X47672Y-33650D01*
X47672Y-33550D01*
X47679Y-33550D01*
X47679Y-33542D01*
X47779Y-33542D01*
X47779Y-33550D01*
X48183Y-33550D01*
X48245Y-33487D01*
X48245Y-33098D01*
X48245Y-33050D01*
X49150Y-33050D01*
X49150Y-33850D01*
G54D10*
G36*
X48750Y-35950D02*
X48225Y-35950D01*
X48245Y-35901D01*
X48245Y-35801D01*
X48245Y-34798D01*
X48245Y-34698D01*
X48207Y-34607D01*
X48137Y-34536D01*
X48045Y-34498D01*
X47842Y-34498D01*
X47779Y-34561D01*
X47779Y-35250D01*
X48183Y-35250D01*
X48245Y-35187D01*
X48245Y-34798D01*
X48245Y-35801D01*
X48245Y-35412D01*
X48183Y-35350D01*
X47779Y-35350D01*
X47779Y-35357D01*
X47679Y-35357D01*
X47679Y-35350D01*
X47672Y-35350D01*
X47672Y-35250D01*
X47679Y-35250D01*
X47679Y-34561D01*
X47617Y-34498D01*
X47475Y-34498D01*
X47475Y-34301D01*
X47493Y-34301D01*
X48025Y-34301D01*
X48080Y-34278D01*
X48122Y-34236D01*
X48145Y-34181D01*
X48145Y-34121D01*
X48145Y-34050D01*
X48750Y-34050D01*
X48750Y-35950D01*
X48750Y-35950D01*
G37*
G54D12*
X48750Y-35950D02*
X48225Y-35950D01*
X48245Y-35901D01*
X48245Y-35801D01*
X48245Y-34798D01*
X48245Y-34698D01*
X48207Y-34607D01*
X48137Y-34536D01*
X48045Y-34498D01*
X47842Y-34498D01*
X47779Y-34561D01*
X47779Y-35250D01*
X48183Y-35250D01*
X48245Y-35187D01*
X48245Y-34798D01*
X48245Y-35801D01*
X48245Y-35412D01*
X48183Y-35350D01*
X47779Y-35350D01*
X47779Y-35357D01*
X47679Y-35357D01*
X47679Y-35350D01*
X47672Y-35350D01*
X47672Y-35250D01*
X47679Y-35250D01*
X47679Y-34561D01*
X47617Y-34498D01*
X47475Y-34498D01*
X47475Y-34301D01*
X47493Y-34301D01*
X48025Y-34301D01*
X48080Y-34278D01*
X48122Y-34236D01*
X48145Y-34181D01*
X48145Y-34121D01*
X48145Y-34050D01*
X48750Y-34050D01*
X48750Y-35950D01*
G54D10*
G36*
X43550Y-32450D02*
X43337Y-32450D01*
X43301Y-32435D01*
X43202Y-32434D01*
X42675Y-32435D01*
X42660Y-32450D01*
X42465Y-32450D01*
X42450Y-32435D01*
X42050Y-32435D01*
X42050Y-30850D01*
X43150Y-30850D01*
X43150Y-31750D01*
X43550Y-31750D01*
X43550Y-32450D01*
X43550Y-32450D01*
G37*
G54D12*
X43550Y-32450D02*
X43337Y-32450D01*
X43301Y-32435D01*
X43202Y-32434D01*
X42675Y-32435D01*
X42660Y-32450D01*
X42465Y-32450D01*
X42450Y-32435D01*
X42050Y-32435D01*
X42050Y-30850D01*
X43150Y-30850D01*
X43150Y-31750D01*
X43550Y-31750D01*
X43550Y-32450D01*
G54D10*
G36*
X52450Y-36350D02*
X52250Y-36350D01*
X52250Y-35649D01*
X52250Y-34150D01*
X52212Y-34058D01*
X52185Y-34032D01*
X52185Y-31501D01*
X52185Y-30498D01*
X52185Y-30398D01*
X52147Y-30307D01*
X52125Y-30284D01*
X52125Y-29725D01*
X52125Y-29274D01*
X52124Y-29175D01*
X52086Y-29083D01*
X52016Y-29012D01*
X51924Y-28974D01*
X51712Y-28975D01*
X51650Y-29037D01*
X51650Y-29450D01*
X52062Y-29450D01*
X52125Y-29387D01*
X52125Y-29274D01*
X52125Y-29725D01*
X52125Y-29612D01*
X52062Y-29550D01*
X51650Y-29550D01*
X51650Y-29962D01*
X51712Y-30025D01*
X51924Y-30025D01*
X52016Y-29987D01*
X52086Y-29916D01*
X52124Y-29824D01*
X52125Y-29725D01*
X52125Y-30284D01*
X52077Y-30236D01*
X51985Y-30198D01*
X51782Y-30198D01*
X51720Y-30261D01*
X51720Y-30950D01*
X52123Y-30950D01*
X52185Y-30887D01*
X52185Y-30498D01*
X52185Y-31501D01*
X52185Y-31112D01*
X52123Y-31050D01*
X51720Y-31050D01*
X51720Y-31738D01*
X51782Y-31801D01*
X51985Y-31801D01*
X52077Y-31763D01*
X52147Y-31692D01*
X52185Y-31601D01*
X52185Y-31501D01*
X52185Y-34032D01*
X52141Y-33988D01*
X52049Y-33950D01*
X51950Y-33949D01*
X51620Y-33949D01*
X51620Y-31738D01*
X51620Y-31050D01*
X51620Y-30950D01*
X51620Y-30261D01*
X51557Y-30198D01*
X51550Y-30198D01*
X51550Y-29962D01*
X51550Y-29550D01*
X51550Y-29450D01*
X51550Y-29037D01*
X51487Y-28975D01*
X51275Y-28974D01*
X51183Y-29012D01*
X51113Y-29083D01*
X51075Y-29175D01*
X51074Y-29274D01*
X51075Y-29387D01*
X51137Y-29450D01*
X51550Y-29450D01*
X51550Y-29550D01*
X51137Y-29550D01*
X51075Y-29612D01*
X51074Y-29725D01*
X51075Y-29824D01*
X51113Y-29916D01*
X51183Y-29987D01*
X51275Y-30025D01*
X51487Y-30025D01*
X51550Y-29962D01*
X51550Y-30198D01*
X51354Y-30198D01*
X51262Y-30236D01*
X51192Y-30307D01*
X51154Y-30398D01*
X51154Y-30498D01*
X51154Y-30887D01*
X51216Y-30950D01*
X51620Y-30950D01*
X51620Y-31050D01*
X51216Y-31050D01*
X51154Y-31112D01*
X51154Y-31501D01*
X51154Y-31601D01*
X51192Y-31692D01*
X51262Y-31763D01*
X51354Y-31801D01*
X51557Y-31801D01*
X51620Y-31738D01*
X51620Y-33949D01*
X51612Y-33950D01*
X51550Y-34012D01*
X51550Y-34850D01*
X52187Y-34850D01*
X52250Y-34787D01*
X52250Y-34150D01*
X52250Y-35649D01*
X52250Y-35012D01*
X52187Y-34950D01*
X51550Y-34950D01*
X51550Y-35787D01*
X51612Y-35850D01*
X51950Y-35850D01*
X52049Y-35849D01*
X52141Y-35811D01*
X52212Y-35741D01*
X52250Y-35649D01*
X52250Y-36350D01*
X51450Y-36350D01*
X51450Y-35787D01*
X51450Y-34950D01*
X51450Y-34850D01*
X51450Y-34012D01*
X51387Y-33950D01*
X51049Y-33949D01*
X50950Y-33950D01*
X50858Y-33988D01*
X50787Y-34058D01*
X50749Y-34150D01*
X50750Y-34787D01*
X50812Y-34850D01*
X51450Y-34850D01*
X51450Y-34950D01*
X50812Y-34950D01*
X50750Y-35012D01*
X50749Y-35649D01*
X50787Y-35741D01*
X50858Y-35811D01*
X50950Y-35849D01*
X51049Y-35850D01*
X51387Y-35850D01*
X51450Y-35787D01*
X51450Y-36350D01*
X49550Y-36350D01*
X49550Y-34520D01*
X50550Y-33520D01*
X50550Y-28550D01*
X52100Y-28550D01*
X52450Y-28550D01*
X52450Y-29102D01*
X52359Y-29139D01*
X52239Y-29258D01*
X52175Y-29415D01*
X52174Y-29584D01*
X52239Y-29740D01*
X52358Y-29860D01*
X52450Y-29897D01*
X52450Y-36350D01*
X52450Y-36350D01*
G37*
G54D12*
X52450Y-36350D02*
X52250Y-36350D01*
X52250Y-35649D01*
X52250Y-34150D01*
X52212Y-34058D01*
X52185Y-34032D01*
X52185Y-31501D01*
X52185Y-30498D01*
X52185Y-30398D01*
X52147Y-30307D01*
X52125Y-30284D01*
X52125Y-29725D01*
X52125Y-29274D01*
X52124Y-29175D01*
X52086Y-29083D01*
X52016Y-29012D01*
X51924Y-28974D01*
X51712Y-28975D01*
X51650Y-29037D01*
X51650Y-29450D01*
X52062Y-29450D01*
X52125Y-29387D01*
X52125Y-29274D01*
X52125Y-29725D01*
X52125Y-29612D01*
X52062Y-29550D01*
X51650Y-29550D01*
X51650Y-29962D01*
X51712Y-30025D01*
X51924Y-30025D01*
X52016Y-29987D01*
X52086Y-29916D01*
X52124Y-29824D01*
X52125Y-29725D01*
X52125Y-30284D01*
X52077Y-30236D01*
X51985Y-30198D01*
X51782Y-30198D01*
X51720Y-30261D01*
X51720Y-30950D01*
X52123Y-30950D01*
X52185Y-30887D01*
X52185Y-30498D01*
X52185Y-31501D01*
X52185Y-31112D01*
X52123Y-31050D01*
X51720Y-31050D01*
X51720Y-31738D01*
X51782Y-31801D01*
X51985Y-31801D01*
X52077Y-31763D01*
X52147Y-31692D01*
X52185Y-31601D01*
X52185Y-31501D01*
X52185Y-34032D01*
X52141Y-33988D01*
X52049Y-33950D01*
X51950Y-33949D01*
X51620Y-33949D01*
X51620Y-31738D01*
X51620Y-31050D01*
X51620Y-30950D01*
X51620Y-30261D01*
X51557Y-30198D01*
X51550Y-30198D01*
X51550Y-29962D01*
X51550Y-29550D01*
X51550Y-29450D01*
X51550Y-29037D01*
X51487Y-28975D01*
X51275Y-28974D01*
X51183Y-29012D01*
X51113Y-29083D01*
X51075Y-29175D01*
X51074Y-29274D01*
X51075Y-29387D01*
X51137Y-29450D01*
X51550Y-29450D01*
X51550Y-29550D01*
X51137Y-29550D01*
X51075Y-29612D01*
X51074Y-29725D01*
X51075Y-29824D01*
X51113Y-29916D01*
X51183Y-29987D01*
X51275Y-30025D01*
X51487Y-30025D01*
X51550Y-29962D01*
X51550Y-30198D01*
X51354Y-30198D01*
X51262Y-30236D01*
X51192Y-30307D01*
X51154Y-30398D01*
X51154Y-30498D01*
X51154Y-30887D01*
X51216Y-30950D01*
X51620Y-30950D01*
X51620Y-31050D01*
X51216Y-31050D01*
X51154Y-31112D01*
X51154Y-31501D01*
X51154Y-31601D01*
X51192Y-31692D01*
X51262Y-31763D01*
X51354Y-31801D01*
X51557Y-31801D01*
X51620Y-31738D01*
X51620Y-33949D01*
X51612Y-33950D01*
X51550Y-34012D01*
X51550Y-34850D01*
X52187Y-34850D01*
X52250Y-34787D01*
X52250Y-34150D01*
X52250Y-35649D01*
X52250Y-35012D01*
X52187Y-34950D01*
X51550Y-34950D01*
X51550Y-35787D01*
X51612Y-35850D01*
X51950Y-35850D01*
X52049Y-35849D01*
X52141Y-35811D01*
X52212Y-35741D01*
X52250Y-35649D01*
X52250Y-36350D01*
X51450Y-36350D01*
X51450Y-35787D01*
X51450Y-34950D01*
X51450Y-34850D01*
X51450Y-34012D01*
X51387Y-33950D01*
X51049Y-33949D01*
X50950Y-33950D01*
X50858Y-33988D01*
X50787Y-34058D01*
X50749Y-34150D01*
X50750Y-34787D01*
X50812Y-34850D01*
X51450Y-34850D01*
X51450Y-34950D01*
X50812Y-34950D01*
X50750Y-35012D01*
X50749Y-35649D01*
X50787Y-35741D01*
X50858Y-35811D01*
X50950Y-35849D01*
X51049Y-35850D01*
X51387Y-35850D01*
X51450Y-35787D01*
X51450Y-36350D01*
X49550Y-36350D01*
X49550Y-34520D01*
X50550Y-33520D01*
X50550Y-28550D01*
X52100Y-28550D01*
X52450Y-28550D01*
X52450Y-29102D01*
X52359Y-29139D01*
X52239Y-29258D01*
X52175Y-29415D01*
X52174Y-29584D01*
X52239Y-29740D01*
X52358Y-29860D01*
X52450Y-29897D01*
X52450Y-36350D01*
G54D10*
G36*
X55150Y-38698D02*
X55032Y-38698D01*
X54981Y-38750D01*
X54858Y-38750D01*
X54807Y-38698D01*
X54650Y-38698D01*
X54650Y-37800D01*
X55150Y-37800D01*
X55150Y-38698D01*
X55150Y-38698D01*
G37*
G54D12*
X55150Y-38698D02*
X55032Y-38698D01*
X54981Y-38750D01*
X54858Y-38750D01*
X54807Y-38698D01*
X54650Y-38698D01*
X54650Y-37800D01*
X55150Y-37800D01*
X55150Y-38698D01*
G54D10*
G36*
X51850Y-39035D02*
X51844Y-39047D01*
X51844Y-39107D01*
X51844Y-39400D01*
X51450Y-39400D01*
X51450Y-39348D01*
X51451Y-39345D01*
X51451Y-39142D01*
X51450Y-39141D01*
X51450Y-38918D01*
X51451Y-38917D01*
X51451Y-38714D01*
X51450Y-38711D01*
X51450Y-38500D01*
X51801Y-38500D01*
X51807Y-38506D01*
X51850Y-38506D01*
X51850Y-38606D01*
X51807Y-38606D01*
X51744Y-38668D01*
X51744Y-38871D01*
X51782Y-38963D01*
X51850Y-39030D01*
X51850Y-39035D01*
X51850Y-39035D01*
G37*
G54D12*
X51850Y-39035D02*
X51844Y-39047D01*
X51844Y-39107D01*
X51844Y-39400D01*
X51450Y-39400D01*
X51450Y-39348D01*
X51451Y-39345D01*
X51451Y-39142D01*
X51450Y-39141D01*
X51450Y-38918D01*
X51451Y-38917D01*
X51451Y-38714D01*
X51450Y-38711D01*
X51450Y-38500D01*
X51801Y-38500D01*
X51807Y-38506D01*
X51850Y-38506D01*
X51850Y-38606D01*
X51807Y-38606D01*
X51744Y-38668D01*
X51744Y-38871D01*
X51782Y-38963D01*
X51850Y-39030D01*
X51850Y-39035D01*
G54D10*
G36*
X57100Y-40000D02*
X55950Y-40000D01*
X55950Y-39000D01*
X57100Y-39000D01*
X57100Y-40000D01*
X57100Y-40000D01*
G37*
G54D12*
X57100Y-40000D02*
X55950Y-40000D01*
X55950Y-39000D01*
X57100Y-39000D01*
X57100Y-40000D01*
G54D10*
G36*
X58100Y-32600D02*
X57100Y-32600D01*
X57100Y-31550D01*
X58100Y-31550D01*
X58100Y-32600D01*
X58100Y-32600D01*
G37*
G54D12*
X58100Y-32600D02*
X57100Y-32600D01*
X57100Y-31550D01*
X58100Y-31550D01*
X58100Y-32600D01*
G54D10*
G36*
X58900Y-33850D02*
X55900Y-33850D01*
X55900Y-33400D01*
X58900Y-33400D01*
X58900Y-33850D01*
X58900Y-33850D01*
G37*
G54D12*
X58900Y-33850D02*
X55900Y-33850D01*
X55900Y-33400D01*
X58900Y-33400D01*
X58900Y-33850D01*
G54D10*
G36*
X58950Y-37200D02*
X57550Y-37200D01*
X57550Y-36900D01*
X58950Y-36900D01*
X58950Y-37200D01*
X58950Y-37200D01*
G37*
G54D12*
X58950Y-37200D02*
X57550Y-37200D01*
X57550Y-36900D01*
X58950Y-36900D01*
X58950Y-37200D01*
G54D10*
G36*
X53600Y-47650D02*
X53335Y-47650D01*
X53335Y-47194D01*
X53335Y-46900D01*
X53040Y-46900D01*
X52977Y-46962D01*
X52977Y-46957D01*
X52977Y-47057D01*
X53015Y-47149D01*
X53086Y-47219D01*
X53178Y-47257D01*
X53272Y-47257D01*
X53335Y-47194D01*
X53335Y-47650D01*
X52600Y-47650D01*
X52600Y-46600D01*
X52995Y-46600D01*
X52977Y-46642D01*
X52977Y-46742D01*
X52977Y-46737D01*
X53040Y-46800D01*
X53335Y-46800D01*
X53335Y-46792D01*
X53435Y-46792D01*
X53435Y-46800D01*
X53442Y-46800D01*
X53442Y-46900D01*
X53435Y-46900D01*
X53435Y-47194D01*
X53497Y-47257D01*
X53592Y-47257D01*
X53600Y-47254D01*
X53600Y-47650D01*
X53600Y-47650D01*
G37*
G54D12*
X53600Y-47650D02*
X53335Y-47650D01*
X53335Y-47194D01*
X53335Y-46900D01*
X53040Y-46900D01*
X52977Y-46962D01*
X52977Y-46957D01*
X52977Y-47057D01*
X53015Y-47149D01*
X53086Y-47219D01*
X53178Y-47257D01*
X53272Y-47257D01*
X53335Y-47194D01*
X53335Y-47650D01*
X52600Y-47650D01*
X52600Y-46600D01*
X52995Y-46600D01*
X52977Y-46642D01*
X52977Y-46742D01*
X52977Y-46737D01*
X53040Y-46800D01*
X53335Y-46800D01*
X53335Y-46792D01*
X53435Y-46792D01*
X53435Y-46800D01*
X53442Y-46800D01*
X53442Y-46900D01*
X53435Y-46900D01*
X53435Y-47194D01*
X53497Y-47257D01*
X53592Y-47257D01*
X53600Y-47254D01*
X53600Y-47650D01*
G54D10*
G36*
X57250Y-51133D02*
X57158Y-51133D01*
X57095Y-51195D01*
X57095Y-51550D01*
X57103Y-51550D01*
X57103Y-51650D01*
X57095Y-51650D01*
X57095Y-51657D01*
X56995Y-51657D01*
X56995Y-51650D01*
X56995Y-51550D01*
X56995Y-51195D01*
X56933Y-51133D01*
X56769Y-51133D01*
X56677Y-51171D01*
X56607Y-51241D01*
X56569Y-51333D01*
X56569Y-51432D01*
X56569Y-51487D01*
X56631Y-51550D01*
X56995Y-51550D01*
X56995Y-51650D01*
X56631Y-51650D01*
X56569Y-51712D01*
X56569Y-51767D01*
X56569Y-51866D01*
X56604Y-51950D01*
X56556Y-51950D01*
X56556Y-50092D01*
X56556Y-49650D01*
X56556Y-49550D01*
X56556Y-49107D01*
X56493Y-49044D01*
X56330Y-49044D01*
X56330Y-46917D01*
X56330Y-46582D01*
X56330Y-46483D01*
X56295Y-46400D01*
X56330Y-46316D01*
X56330Y-46217D01*
X56330Y-45882D01*
X56330Y-45783D01*
X56292Y-45691D01*
X56222Y-45621D01*
X56130Y-45583D01*
X55966Y-45583D01*
X55904Y-45645D01*
X55904Y-46000D01*
X56268Y-46000D01*
X56330Y-45937D01*
X56330Y-45882D01*
X56330Y-46217D01*
X56330Y-46162D01*
X56268Y-46100D01*
X55904Y-46100D01*
X55904Y-46345D01*
X55904Y-46454D01*
X55904Y-46700D01*
X56268Y-46700D01*
X56330Y-46637D01*
X56330Y-46582D01*
X56330Y-46917D01*
X56330Y-46862D01*
X56268Y-46800D01*
X55904Y-46800D01*
X55904Y-47154D01*
X55966Y-47216D01*
X56130Y-47216D01*
X56222Y-47178D01*
X56292Y-47108D01*
X56330Y-47016D01*
X56330Y-46917D01*
X56330Y-49044D01*
X56291Y-49044D01*
X56199Y-49082D01*
X56128Y-49153D01*
X56090Y-49244D01*
X56090Y-49344D01*
X56090Y-49487D01*
X56153Y-49550D01*
X56556Y-49550D01*
X56556Y-49650D01*
X56153Y-49650D01*
X56090Y-49712D01*
X56090Y-49855D01*
X56090Y-49955D01*
X56128Y-50046D01*
X56199Y-50117D01*
X56291Y-50155D01*
X56493Y-50155D01*
X56556Y-50092D01*
X56556Y-51950D01*
X55550Y-51950D01*
X55550Y-47204D01*
X55578Y-47216D01*
X55741Y-47216D01*
X55804Y-47154D01*
X55804Y-46800D01*
X55796Y-46800D01*
X55796Y-46700D01*
X55804Y-46700D01*
X55804Y-46454D01*
X55804Y-46345D01*
X55804Y-46100D01*
X55796Y-46100D01*
X55796Y-46000D01*
X55804Y-46000D01*
X55804Y-45645D01*
X55741Y-45583D01*
X55578Y-45583D01*
X55550Y-45595D01*
X55550Y-45440D01*
X55572Y-45463D01*
X55664Y-45501D01*
X55867Y-45501D01*
X55929Y-45438D01*
X55929Y-44750D01*
X55922Y-44750D01*
X55922Y-44650D01*
X55929Y-44650D01*
X55929Y-43961D01*
X55867Y-43898D01*
X55664Y-43898D01*
X55572Y-43936D01*
X55550Y-43959D01*
X55550Y-43950D01*
X54850Y-43950D01*
X54850Y-42550D01*
X57250Y-42550D01*
X57250Y-45245D01*
X57221Y-45233D01*
X57058Y-45233D01*
X56995Y-45295D01*
X56995Y-45650D01*
X57003Y-45650D01*
X57003Y-45750D01*
X56995Y-45750D01*
X56995Y-45945D01*
X56995Y-46104D01*
X56995Y-46300D01*
X57003Y-46300D01*
X57003Y-46400D01*
X56995Y-46400D01*
X56995Y-46407D01*
X56895Y-46407D01*
X56895Y-46400D01*
X56895Y-46300D01*
X56895Y-46104D01*
X56895Y-45945D01*
X56895Y-45750D01*
X56895Y-45650D01*
X56895Y-45295D01*
X56833Y-45233D01*
X56669Y-45233D01*
X56577Y-45271D01*
X56507Y-45341D01*
X56495Y-45369D01*
X56495Y-45201D01*
X56495Y-44198D01*
X56495Y-44098D01*
X56457Y-44007D01*
X56387Y-43936D01*
X56295Y-43898D01*
X56092Y-43898D01*
X56029Y-43961D01*
X56029Y-44650D01*
X56433Y-44650D01*
X56495Y-44587D01*
X56495Y-44198D01*
X56495Y-45201D01*
X56495Y-44812D01*
X56433Y-44750D01*
X56029Y-44750D01*
X56029Y-45438D01*
X56092Y-45501D01*
X56295Y-45501D01*
X56387Y-45463D01*
X56457Y-45392D01*
X56495Y-45301D01*
X56495Y-45201D01*
X56495Y-45369D01*
X56469Y-45433D01*
X56469Y-45532D01*
X56469Y-45587D01*
X56531Y-45650D01*
X56895Y-45650D01*
X56895Y-45750D01*
X56531Y-45750D01*
X56469Y-45812D01*
X56469Y-45867D01*
X56469Y-45966D01*
X56493Y-46025D01*
X56469Y-46083D01*
X56469Y-46182D01*
X56469Y-46237D01*
X56531Y-46300D01*
X56895Y-46300D01*
X56895Y-46400D01*
X56531Y-46400D01*
X56469Y-46462D01*
X56469Y-46517D01*
X56469Y-46616D01*
X56507Y-46708D01*
X56577Y-46778D01*
X56643Y-46805D01*
X56642Y-46807D01*
X56604Y-46898D01*
X56604Y-46998D01*
X56604Y-47387D01*
X56666Y-47450D01*
X57070Y-47450D01*
X57070Y-47442D01*
X57170Y-47442D01*
X57170Y-47450D01*
X57177Y-47450D01*
X57177Y-47550D01*
X57170Y-47550D01*
X57170Y-48238D01*
X57232Y-48301D01*
X57250Y-48301D01*
X57250Y-48710D01*
X57216Y-48724D01*
X57124Y-48815D01*
X57075Y-48935D01*
X57074Y-49064D01*
X57108Y-49144D01*
X57098Y-49144D01*
X57082Y-49151D01*
X57070Y-49139D01*
X57070Y-48238D01*
X57070Y-47550D01*
X56666Y-47550D01*
X56604Y-47612D01*
X56604Y-48001D01*
X56604Y-48101D01*
X56642Y-48192D01*
X56712Y-48263D01*
X56804Y-48301D01*
X57007Y-48301D01*
X57070Y-48238D01*
X57070Y-49139D01*
X57013Y-49082D01*
X56921Y-49044D01*
X56718Y-49044D01*
X56656Y-49107D01*
X56656Y-49550D01*
X56664Y-49550D01*
X56664Y-49650D01*
X56656Y-49650D01*
X56656Y-50092D01*
X56718Y-50155D01*
X56921Y-50155D01*
X57013Y-50117D01*
X57082Y-50048D01*
X57097Y-50055D01*
X57157Y-50055D01*
X57250Y-50055D01*
X57250Y-51133D01*
X57250Y-51133D01*
G37*
G54D12*
X57250Y-51133D02*
X57158Y-51133D01*
X57095Y-51195D01*
X57095Y-51550D01*
X57103Y-51550D01*
X57103Y-51650D01*
X57095Y-51650D01*
X57095Y-51657D01*
X56995Y-51657D01*
X56995Y-51650D01*
X56995Y-51550D01*
X56995Y-51195D01*
X56933Y-51133D01*
X56769Y-51133D01*
X56677Y-51171D01*
X56607Y-51241D01*
X56569Y-51333D01*
X56569Y-51432D01*
X56569Y-51487D01*
X56631Y-51550D01*
X56995Y-51550D01*
X56995Y-51650D01*
X56631Y-51650D01*
X56569Y-51712D01*
X56569Y-51767D01*
X56569Y-51866D01*
X56604Y-51950D01*
X56556Y-51950D01*
X56556Y-50092D01*
X56556Y-49650D01*
X56556Y-49550D01*
X56556Y-49107D01*
X56493Y-49044D01*
X56330Y-49044D01*
X56330Y-46917D01*
X56330Y-46582D01*
X56330Y-46483D01*
X56295Y-46400D01*
X56330Y-46316D01*
X56330Y-46217D01*
X56330Y-45882D01*
X56330Y-45783D01*
X56292Y-45691D01*
X56222Y-45621D01*
X56130Y-45583D01*
X55966Y-45583D01*
X55904Y-45645D01*
X55904Y-46000D01*
X56268Y-46000D01*
X56330Y-45937D01*
X56330Y-45882D01*
X56330Y-46217D01*
X56330Y-46162D01*
X56268Y-46100D01*
X55904Y-46100D01*
X55904Y-46345D01*
X55904Y-46454D01*
X55904Y-46700D01*
X56268Y-46700D01*
X56330Y-46637D01*
X56330Y-46582D01*
X56330Y-46917D01*
X56330Y-46862D01*
X56268Y-46800D01*
X55904Y-46800D01*
X55904Y-47154D01*
X55966Y-47216D01*
X56130Y-47216D01*
X56222Y-47178D01*
X56292Y-47108D01*
X56330Y-47016D01*
X56330Y-46917D01*
X56330Y-49044D01*
X56291Y-49044D01*
X56199Y-49082D01*
X56128Y-49153D01*
X56090Y-49244D01*
X56090Y-49344D01*
X56090Y-49487D01*
X56153Y-49550D01*
X56556Y-49550D01*
X56556Y-49650D01*
X56153Y-49650D01*
X56090Y-49712D01*
X56090Y-49855D01*
X56090Y-49955D01*
X56128Y-50046D01*
X56199Y-50117D01*
X56291Y-50155D01*
X56493Y-50155D01*
X56556Y-50092D01*
X56556Y-51950D01*
X55550Y-51950D01*
X55550Y-47204D01*
X55578Y-47216D01*
X55741Y-47216D01*
X55804Y-47154D01*
X55804Y-46800D01*
X55796Y-46800D01*
X55796Y-46700D01*
X55804Y-46700D01*
X55804Y-46454D01*
X55804Y-46345D01*
X55804Y-46100D01*
X55796Y-46100D01*
X55796Y-46000D01*
X55804Y-46000D01*
X55804Y-45645D01*
X55741Y-45583D01*
X55578Y-45583D01*
X55550Y-45595D01*
X55550Y-45440D01*
X55572Y-45463D01*
X55664Y-45501D01*
X55867Y-45501D01*
X55929Y-45438D01*
X55929Y-44750D01*
X55922Y-44750D01*
X55922Y-44650D01*
X55929Y-44650D01*
X55929Y-43961D01*
X55867Y-43898D01*
X55664Y-43898D01*
X55572Y-43936D01*
X55550Y-43959D01*
X55550Y-43950D01*
X54850Y-43950D01*
X54850Y-42550D01*
X57250Y-42550D01*
X57250Y-45245D01*
X57221Y-45233D01*
X57058Y-45233D01*
X56995Y-45295D01*
X56995Y-45650D01*
X57003Y-45650D01*
X57003Y-45750D01*
X56995Y-45750D01*
X56995Y-45945D01*
X56995Y-46104D01*
X56995Y-46300D01*
X57003Y-46300D01*
X57003Y-46400D01*
X56995Y-46400D01*
X56995Y-46407D01*
X56895Y-46407D01*
X56895Y-46400D01*
X56895Y-46300D01*
X56895Y-46104D01*
X56895Y-45945D01*
X56895Y-45750D01*
X56895Y-45650D01*
X56895Y-45295D01*
X56833Y-45233D01*
X56669Y-45233D01*
X56577Y-45271D01*
X56507Y-45341D01*
X56495Y-45369D01*
X56495Y-45201D01*
X56495Y-44198D01*
X56495Y-44098D01*
X56457Y-44007D01*
X56387Y-43936D01*
X56295Y-43898D01*
X56092Y-43898D01*
X56029Y-43961D01*
X56029Y-44650D01*
X56433Y-44650D01*
X56495Y-44587D01*
X56495Y-44198D01*
X56495Y-45201D01*
X56495Y-44812D01*
X56433Y-44750D01*
X56029Y-44750D01*
X56029Y-45438D01*
X56092Y-45501D01*
X56295Y-45501D01*
X56387Y-45463D01*
X56457Y-45392D01*
X56495Y-45301D01*
X56495Y-45201D01*
X56495Y-45369D01*
X56469Y-45433D01*
X56469Y-45532D01*
X56469Y-45587D01*
X56531Y-45650D01*
X56895Y-45650D01*
X56895Y-45750D01*
X56531Y-45750D01*
X56469Y-45812D01*
X56469Y-45867D01*
X56469Y-45966D01*
X56493Y-46025D01*
X56469Y-46083D01*
X56469Y-46182D01*
X56469Y-46237D01*
X56531Y-46300D01*
X56895Y-46300D01*
X56895Y-46400D01*
X56531Y-46400D01*
X56469Y-46462D01*
X56469Y-46517D01*
X56469Y-46616D01*
X56507Y-46708D01*
X56577Y-46778D01*
X56643Y-46805D01*
X56642Y-46807D01*
X56604Y-46898D01*
X56604Y-46998D01*
X56604Y-47387D01*
X56666Y-47450D01*
X57070Y-47450D01*
X57070Y-47442D01*
X57170Y-47442D01*
X57170Y-47450D01*
X57177Y-47450D01*
X57177Y-47550D01*
X57170Y-47550D01*
X57170Y-48238D01*
X57232Y-48301D01*
X57250Y-48301D01*
X57250Y-48710D01*
X57216Y-48724D01*
X57124Y-48815D01*
X57075Y-48935D01*
X57074Y-49064D01*
X57108Y-49144D01*
X57098Y-49144D01*
X57082Y-49151D01*
X57070Y-49139D01*
X57070Y-48238D01*
X57070Y-47550D01*
X56666Y-47550D01*
X56604Y-47612D01*
X56604Y-48001D01*
X56604Y-48101D01*
X56642Y-48192D01*
X56712Y-48263D01*
X56804Y-48301D01*
X57007Y-48301D01*
X57070Y-48238D01*
X57070Y-49139D01*
X57013Y-49082D01*
X56921Y-49044D01*
X56718Y-49044D01*
X56656Y-49107D01*
X56656Y-49550D01*
X56664Y-49550D01*
X56664Y-49650D01*
X56656Y-49650D01*
X56656Y-50092D01*
X56718Y-50155D01*
X56921Y-50155D01*
X57013Y-50117D01*
X57082Y-50048D01*
X57097Y-50055D01*
X57157Y-50055D01*
X57250Y-50055D01*
X57250Y-51133D01*
M02*
