G04 (created by PCBNEW (2013-07-07 BZR 4022)-stable) date 5/12/2015 8:03:53 AM*
%MOIN*%
G04 Gerber Fmt 3.4, Leading zero omitted, Abs format*
%FSLAX34Y34*%
G01*
G70*
G90*
G04 APERTURE LIST*
%ADD10C,0.006*%
%ADD11C,0.01*%
%ADD12C,0.00590551*%
G04 APERTURE END LIST*
G54D10*
G54D11*
X38000Y-28000D02*
X73000Y-28000D01*
X38000Y-55000D02*
X38000Y-28000D01*
X73000Y-55000D02*
X38000Y-55000D01*
X73000Y-28000D02*
X73000Y-55000D01*
X64237Y-31037D02*
G75*
G03X64237Y-31037I-176J0D01*
G74*
G01*
X64415Y-32887D02*
X66384Y-32887D01*
X66384Y-32887D02*
X66384Y-31312D01*
X66384Y-31312D02*
X64809Y-31312D01*
X64809Y-31312D02*
X64415Y-31706D01*
X64415Y-31706D02*
X64415Y-32887D01*
X66714Y-45262D02*
G75*
G03X66714Y-45262I-176J0D01*
G74*
G01*
X66184Y-43412D02*
X64215Y-43412D01*
X64215Y-43412D02*
X64215Y-44987D01*
X64215Y-44987D02*
X65790Y-44987D01*
X65790Y-44987D02*
X66184Y-44593D01*
X66184Y-44593D02*
X66184Y-43412D01*
X51433Y-33029D02*
G75*
G02X51629Y-32833I196J0D01*
G74*
G01*
X55566Y-33029D02*
X55566Y-36770D01*
X55566Y-36770D02*
X55370Y-36966D01*
X55370Y-36966D02*
X51629Y-36966D01*
X51629Y-36966D02*
X51433Y-36770D01*
X51433Y-36770D02*
X51433Y-33029D01*
X55566Y-33029D02*
X55370Y-32833D01*
X55370Y-32833D02*
X51629Y-32833D01*
X58529Y-36348D02*
G75*
G03X58529Y-36348I-141J0D01*
G74*
G01*
X58190Y-35009D02*
X57009Y-35009D01*
X57009Y-35009D02*
X57009Y-36190D01*
X57009Y-36190D02*
X57993Y-36190D01*
X57993Y-36190D02*
X58190Y-35993D01*
X58190Y-35993D02*
X58190Y-35009D01*
X43271Y-34574D02*
X42484Y-34574D01*
X42877Y-34968D02*
X42877Y-34181D01*
X40200Y-31700D02*
X40200Y-34299D01*
X40200Y-34299D02*
X42405Y-34299D01*
X42405Y-34299D02*
X42799Y-33905D01*
X42799Y-33905D02*
X42799Y-32094D01*
X42799Y-32094D02*
X42405Y-31700D01*
X42405Y-31700D02*
X40200Y-31700D01*
X57425Y-45371D02*
X57425Y-44584D01*
X57031Y-44977D02*
X57818Y-44977D01*
X60299Y-42300D02*
X57700Y-42300D01*
X57700Y-42300D02*
X57700Y-44505D01*
X57700Y-44505D02*
X58094Y-44899D01*
X58094Y-44899D02*
X59905Y-44899D01*
X59905Y-44899D02*
X60299Y-44505D01*
X60299Y-44505D02*
X60299Y-42300D01*
G54D12*
X63509Y-29409D02*
X63321Y-29278D01*
X63509Y-29184D02*
X63115Y-29184D01*
X63115Y-29334D01*
X63134Y-29371D01*
X63153Y-29390D01*
X63190Y-29409D01*
X63246Y-29409D01*
X63284Y-29390D01*
X63303Y-29371D01*
X63321Y-29334D01*
X63321Y-29184D01*
X63115Y-29540D02*
X63115Y-29803D01*
X63509Y-29634D01*
X63115Y-30028D02*
X63115Y-30065D01*
X63134Y-30103D01*
X63153Y-30121D01*
X63190Y-30140D01*
X63265Y-30159D01*
X63359Y-30159D01*
X63434Y-30140D01*
X63471Y-30121D01*
X63490Y-30103D01*
X63509Y-30065D01*
X63509Y-30028D01*
X63490Y-29990D01*
X63471Y-29971D01*
X63434Y-29953D01*
X63359Y-29934D01*
X63265Y-29934D01*
X63190Y-29953D01*
X63153Y-29971D01*
X63134Y-29990D01*
X63115Y-30028D01*
X63153Y-30309D02*
X63134Y-30328D01*
X63115Y-30365D01*
X63115Y-30459D01*
X63134Y-30496D01*
X63153Y-30515D01*
X63190Y-30534D01*
X63228Y-30534D01*
X63284Y-30515D01*
X63509Y-30290D01*
X63509Y-30534D01*
X63409Y-46059D02*
X63221Y-45928D01*
X63409Y-45834D02*
X63015Y-45834D01*
X63015Y-45984D01*
X63034Y-46021D01*
X63053Y-46040D01*
X63090Y-46059D01*
X63146Y-46059D01*
X63184Y-46040D01*
X63203Y-46021D01*
X63221Y-45984D01*
X63221Y-45834D01*
X63015Y-46415D02*
X63015Y-46228D01*
X63203Y-46209D01*
X63184Y-46228D01*
X63165Y-46265D01*
X63165Y-46359D01*
X63184Y-46396D01*
X63203Y-46415D01*
X63240Y-46434D01*
X63334Y-46434D01*
X63371Y-46415D01*
X63390Y-46396D01*
X63409Y-46359D01*
X63409Y-46265D01*
X63390Y-46228D01*
X63371Y-46209D01*
X63015Y-46678D02*
X63015Y-46715D01*
X63034Y-46753D01*
X63053Y-46771D01*
X63090Y-46790D01*
X63165Y-46809D01*
X63259Y-46809D01*
X63334Y-46790D01*
X63371Y-46771D01*
X63390Y-46753D01*
X63409Y-46715D01*
X63409Y-46678D01*
X63390Y-46640D01*
X63371Y-46621D01*
X63334Y-46603D01*
X63259Y-46584D01*
X63165Y-46584D01*
X63090Y-46603D01*
X63053Y-46621D01*
X63034Y-46640D01*
X63015Y-46678D01*
X63015Y-47146D02*
X63015Y-47071D01*
X63034Y-47034D01*
X63053Y-47015D01*
X63109Y-46978D01*
X63184Y-46959D01*
X63334Y-46959D01*
X63371Y-46978D01*
X63390Y-46996D01*
X63409Y-47034D01*
X63409Y-47109D01*
X63390Y-47146D01*
X63371Y-47165D01*
X63334Y-47184D01*
X63240Y-47184D01*
X63203Y-47165D01*
X63184Y-47146D01*
X63165Y-47109D01*
X63165Y-47034D01*
X63184Y-46996D01*
X63203Y-46978D01*
X63240Y-46959D01*
X62459Y-30909D02*
X62271Y-30778D01*
X62459Y-30684D02*
X62065Y-30684D01*
X62065Y-30834D01*
X62084Y-30871D01*
X62103Y-30890D01*
X62140Y-30909D01*
X62196Y-30909D01*
X62234Y-30890D01*
X62253Y-30871D01*
X62271Y-30834D01*
X62271Y-30684D01*
X62065Y-31040D02*
X62065Y-31303D01*
X62459Y-31134D01*
X62065Y-31528D02*
X62065Y-31565D01*
X62084Y-31603D01*
X62103Y-31621D01*
X62140Y-31640D01*
X62215Y-31659D01*
X62309Y-31659D01*
X62384Y-31640D01*
X62421Y-31621D01*
X62440Y-31603D01*
X62459Y-31565D01*
X62459Y-31528D01*
X62440Y-31490D01*
X62421Y-31471D01*
X62384Y-31453D01*
X62309Y-31434D01*
X62215Y-31434D01*
X62140Y-31453D01*
X62103Y-31471D01*
X62084Y-31490D01*
X62065Y-31528D01*
X62196Y-31996D02*
X62459Y-31996D01*
X62046Y-31903D02*
X62328Y-31809D01*
X62328Y-32053D01*
X63459Y-33909D02*
X63271Y-33778D01*
X63459Y-33684D02*
X63065Y-33684D01*
X63065Y-33834D01*
X63084Y-33871D01*
X63103Y-33890D01*
X63140Y-33909D01*
X63196Y-33909D01*
X63234Y-33890D01*
X63253Y-33871D01*
X63271Y-33834D01*
X63271Y-33684D01*
X63065Y-34040D02*
X63065Y-34303D01*
X63459Y-34134D01*
X63065Y-34528D02*
X63065Y-34565D01*
X63084Y-34603D01*
X63103Y-34621D01*
X63140Y-34640D01*
X63215Y-34659D01*
X63309Y-34659D01*
X63384Y-34640D01*
X63421Y-34621D01*
X63440Y-34603D01*
X63459Y-34565D01*
X63459Y-34528D01*
X63440Y-34490D01*
X63421Y-34471D01*
X63384Y-34453D01*
X63309Y-34434D01*
X63215Y-34434D01*
X63140Y-34453D01*
X63103Y-34471D01*
X63084Y-34490D01*
X63065Y-34528D01*
X63065Y-34790D02*
X63065Y-35034D01*
X63215Y-34903D01*
X63215Y-34959D01*
X63234Y-34996D01*
X63253Y-35015D01*
X63290Y-35034D01*
X63384Y-35034D01*
X63421Y-35015D01*
X63440Y-34996D01*
X63459Y-34959D01*
X63459Y-34846D01*
X63440Y-34809D01*
X63421Y-34790D01*
X44259Y-33609D02*
X44071Y-33478D01*
X44259Y-33384D02*
X43865Y-33384D01*
X43865Y-33534D01*
X43884Y-33571D01*
X43903Y-33590D01*
X43940Y-33609D01*
X43996Y-33609D01*
X44034Y-33590D01*
X44053Y-33571D01*
X44071Y-33534D01*
X44071Y-33384D01*
X44034Y-33834D02*
X44015Y-33796D01*
X43996Y-33778D01*
X43959Y-33759D01*
X43940Y-33759D01*
X43903Y-33778D01*
X43884Y-33796D01*
X43865Y-33834D01*
X43865Y-33909D01*
X43884Y-33946D01*
X43903Y-33965D01*
X43940Y-33984D01*
X43959Y-33984D01*
X43996Y-33965D01*
X44015Y-33946D01*
X44034Y-33909D01*
X44034Y-33834D01*
X44053Y-33796D01*
X44071Y-33778D01*
X44109Y-33759D01*
X44184Y-33759D01*
X44221Y-33778D01*
X44240Y-33796D01*
X44259Y-33834D01*
X44259Y-33909D01*
X44240Y-33946D01*
X44221Y-33965D01*
X44184Y-33984D01*
X44109Y-33984D01*
X44071Y-33965D01*
X44053Y-33946D01*
X44034Y-33909D01*
X43865Y-34228D02*
X43865Y-34265D01*
X43884Y-34303D01*
X43903Y-34321D01*
X43940Y-34340D01*
X44015Y-34359D01*
X44109Y-34359D01*
X44184Y-34340D01*
X44221Y-34321D01*
X44240Y-34303D01*
X44259Y-34265D01*
X44259Y-34228D01*
X44240Y-34190D01*
X44221Y-34171D01*
X44184Y-34153D01*
X44109Y-34134D01*
X44015Y-34134D01*
X43940Y-34153D01*
X43903Y-34171D01*
X43884Y-34190D01*
X43865Y-34228D01*
X43865Y-34490D02*
X43865Y-34734D01*
X44015Y-34603D01*
X44015Y-34659D01*
X44034Y-34696D01*
X44053Y-34715D01*
X44090Y-34734D01*
X44184Y-34734D01*
X44221Y-34715D01*
X44240Y-34696D01*
X44259Y-34659D01*
X44259Y-34546D01*
X44240Y-34509D01*
X44221Y-34490D01*
X65640Y-53659D02*
X65771Y-53471D01*
X65865Y-53659D02*
X65865Y-53265D01*
X65715Y-53265D01*
X65678Y-53284D01*
X65659Y-53303D01*
X65640Y-53340D01*
X65640Y-53396D01*
X65659Y-53434D01*
X65678Y-53453D01*
X65715Y-53471D01*
X65865Y-53471D01*
X65303Y-53396D02*
X65303Y-53659D01*
X65396Y-53246D02*
X65490Y-53528D01*
X65246Y-53528D01*
X65021Y-53265D02*
X64984Y-53265D01*
X64946Y-53284D01*
X64928Y-53303D01*
X64909Y-53340D01*
X64890Y-53415D01*
X64890Y-53509D01*
X64909Y-53584D01*
X64928Y-53621D01*
X64946Y-53640D01*
X64984Y-53659D01*
X65021Y-53659D01*
X65059Y-53640D01*
X65078Y-53621D01*
X65096Y-53584D01*
X65115Y-53509D01*
X65115Y-53415D01*
X65096Y-53340D01*
X65078Y-53303D01*
X65059Y-53284D01*
X65021Y-53265D01*
X64759Y-53265D02*
X64515Y-53265D01*
X64646Y-53415D01*
X64590Y-53415D01*
X64553Y-53434D01*
X64534Y-53453D01*
X64515Y-53490D01*
X64515Y-53584D01*
X64534Y-53621D01*
X64553Y-53640D01*
X64590Y-53659D01*
X64703Y-53659D01*
X64740Y-53640D01*
X64759Y-53621D01*
X68009Y-30809D02*
X67821Y-30678D01*
X68009Y-30584D02*
X67615Y-30584D01*
X67615Y-30734D01*
X67634Y-30771D01*
X67653Y-30790D01*
X67690Y-30809D01*
X67746Y-30809D01*
X67784Y-30790D01*
X67803Y-30771D01*
X67821Y-30734D01*
X67821Y-30584D01*
X67615Y-30940D02*
X67615Y-31203D01*
X68009Y-31034D01*
X67615Y-31428D02*
X67615Y-31465D01*
X67634Y-31503D01*
X67653Y-31521D01*
X67690Y-31540D01*
X67765Y-31559D01*
X67859Y-31559D01*
X67934Y-31540D01*
X67971Y-31521D01*
X67990Y-31503D01*
X68009Y-31465D01*
X68009Y-31428D01*
X67990Y-31390D01*
X67971Y-31371D01*
X67934Y-31353D01*
X67859Y-31334D01*
X67765Y-31334D01*
X67690Y-31353D01*
X67653Y-31371D01*
X67634Y-31390D01*
X67615Y-31428D01*
X67784Y-31784D02*
X67765Y-31746D01*
X67746Y-31728D01*
X67709Y-31709D01*
X67690Y-31709D01*
X67653Y-31728D01*
X67634Y-31746D01*
X67615Y-31784D01*
X67615Y-31859D01*
X67634Y-31896D01*
X67653Y-31915D01*
X67690Y-31934D01*
X67709Y-31934D01*
X67746Y-31915D01*
X67765Y-31896D01*
X67784Y-31859D01*
X67784Y-31784D01*
X67803Y-31746D01*
X67821Y-31728D01*
X67859Y-31709D01*
X67934Y-31709D01*
X67971Y-31728D01*
X67990Y-31746D01*
X68009Y-31784D01*
X68009Y-31859D01*
X67990Y-31896D01*
X67971Y-31915D01*
X67934Y-31934D01*
X67859Y-31934D01*
X67821Y-31915D01*
X67803Y-31896D01*
X67784Y-31859D01*
X62159Y-42959D02*
X61971Y-42828D01*
X62159Y-42734D02*
X61765Y-42734D01*
X61765Y-42884D01*
X61784Y-42921D01*
X61803Y-42940D01*
X61840Y-42959D01*
X61896Y-42959D01*
X61934Y-42940D01*
X61953Y-42921D01*
X61971Y-42884D01*
X61971Y-42734D01*
X61765Y-43315D02*
X61765Y-43128D01*
X61953Y-43109D01*
X61934Y-43128D01*
X61915Y-43165D01*
X61915Y-43259D01*
X61934Y-43296D01*
X61953Y-43315D01*
X61990Y-43334D01*
X62084Y-43334D01*
X62121Y-43315D01*
X62140Y-43296D01*
X62159Y-43259D01*
X62159Y-43165D01*
X62140Y-43128D01*
X62121Y-43109D01*
X61765Y-43578D02*
X61765Y-43615D01*
X61784Y-43653D01*
X61803Y-43671D01*
X61840Y-43690D01*
X61915Y-43709D01*
X62009Y-43709D01*
X62084Y-43690D01*
X62121Y-43671D01*
X62140Y-43653D01*
X62159Y-43615D01*
X62159Y-43578D01*
X62140Y-43540D01*
X62121Y-43521D01*
X62084Y-43503D01*
X62009Y-43484D01*
X61915Y-43484D01*
X61840Y-43503D01*
X61803Y-43521D01*
X61784Y-43540D01*
X61765Y-43578D01*
X61765Y-44065D02*
X61765Y-43878D01*
X61953Y-43859D01*
X61934Y-43878D01*
X61915Y-43915D01*
X61915Y-44009D01*
X61934Y-44046D01*
X61953Y-44065D01*
X61990Y-44084D01*
X62084Y-44084D01*
X62121Y-44065D01*
X62140Y-44046D01*
X62159Y-44009D01*
X62159Y-43915D01*
X62140Y-43878D01*
X62121Y-43859D01*
X68040Y-42559D02*
X68171Y-42371D01*
X68265Y-42559D02*
X68265Y-42165D01*
X68115Y-42165D01*
X68078Y-42184D01*
X68059Y-42203D01*
X68040Y-42240D01*
X68040Y-42296D01*
X68059Y-42334D01*
X68078Y-42353D01*
X68115Y-42371D01*
X68265Y-42371D01*
X67684Y-42165D02*
X67871Y-42165D01*
X67890Y-42353D01*
X67871Y-42334D01*
X67834Y-42315D01*
X67740Y-42315D01*
X67703Y-42334D01*
X67684Y-42353D01*
X67665Y-42390D01*
X67665Y-42484D01*
X67684Y-42521D01*
X67703Y-42540D01*
X67740Y-42559D01*
X67834Y-42559D01*
X67871Y-42540D01*
X67890Y-42521D01*
X67421Y-42165D02*
X67384Y-42165D01*
X67346Y-42184D01*
X67328Y-42203D01*
X67309Y-42240D01*
X67290Y-42315D01*
X67290Y-42409D01*
X67309Y-42484D01*
X67328Y-42521D01*
X67346Y-42540D01*
X67384Y-42559D01*
X67421Y-42559D01*
X67459Y-42540D01*
X67478Y-42521D01*
X67496Y-42484D01*
X67515Y-42409D01*
X67515Y-42315D01*
X67496Y-42240D01*
X67478Y-42203D01*
X67459Y-42184D01*
X67421Y-42165D01*
X66915Y-42559D02*
X67140Y-42559D01*
X67028Y-42559D02*
X67028Y-42165D01*
X67065Y-42221D01*
X67103Y-42259D01*
X67140Y-42278D01*
X64359Y-47609D02*
X64171Y-47478D01*
X64359Y-47384D02*
X63965Y-47384D01*
X63965Y-47534D01*
X63984Y-47571D01*
X64003Y-47590D01*
X64040Y-47609D01*
X64096Y-47609D01*
X64134Y-47590D01*
X64153Y-47571D01*
X64171Y-47534D01*
X64171Y-47384D01*
X64096Y-47946D02*
X64359Y-47946D01*
X63946Y-47853D02*
X64228Y-47759D01*
X64228Y-48003D01*
X63965Y-48228D02*
X63965Y-48265D01*
X63984Y-48303D01*
X64003Y-48321D01*
X64040Y-48340D01*
X64115Y-48359D01*
X64209Y-48359D01*
X64284Y-48340D01*
X64321Y-48321D01*
X64340Y-48303D01*
X64359Y-48265D01*
X64359Y-48228D01*
X64340Y-48190D01*
X64321Y-48171D01*
X64284Y-48153D01*
X64209Y-48134D01*
X64115Y-48134D01*
X64040Y-48153D01*
X64003Y-48171D01*
X63984Y-48190D01*
X63965Y-48228D01*
X64096Y-48696D02*
X64359Y-48696D01*
X63946Y-48603D02*
X64228Y-48509D01*
X64228Y-48753D01*
X72259Y-46359D02*
X72071Y-46228D01*
X72259Y-46134D02*
X71865Y-46134D01*
X71865Y-46284D01*
X71884Y-46321D01*
X71903Y-46340D01*
X71940Y-46359D01*
X71996Y-46359D01*
X72034Y-46340D01*
X72053Y-46321D01*
X72071Y-46284D01*
X72071Y-46134D01*
X71865Y-46490D02*
X71865Y-46734D01*
X72015Y-46603D01*
X72015Y-46659D01*
X72034Y-46696D01*
X72053Y-46715D01*
X72090Y-46734D01*
X72184Y-46734D01*
X72221Y-46715D01*
X72240Y-46696D01*
X72259Y-46659D01*
X72259Y-46546D01*
X72240Y-46509D01*
X72221Y-46490D01*
X71865Y-46978D02*
X71865Y-47015D01*
X71884Y-47053D01*
X71903Y-47071D01*
X71940Y-47090D01*
X72015Y-47109D01*
X72109Y-47109D01*
X72184Y-47090D01*
X72221Y-47071D01*
X72240Y-47053D01*
X72259Y-47015D01*
X72259Y-46978D01*
X72240Y-46940D01*
X72221Y-46921D01*
X72184Y-46903D01*
X72109Y-46884D01*
X72015Y-46884D01*
X71940Y-46903D01*
X71903Y-46921D01*
X71884Y-46940D01*
X71865Y-46978D01*
X72259Y-47484D02*
X72259Y-47259D01*
X72259Y-47371D02*
X71865Y-47371D01*
X71921Y-47334D01*
X71959Y-47296D01*
X71978Y-47259D01*
X71440Y-47559D02*
X71571Y-47371D01*
X71665Y-47559D02*
X71665Y-47165D01*
X71515Y-47165D01*
X71478Y-47184D01*
X71459Y-47203D01*
X71440Y-47240D01*
X71440Y-47296D01*
X71459Y-47334D01*
X71478Y-47353D01*
X71515Y-47371D01*
X71665Y-47371D01*
X71309Y-47165D02*
X71065Y-47165D01*
X71196Y-47315D01*
X71140Y-47315D01*
X71103Y-47334D01*
X71084Y-47353D01*
X71065Y-47390D01*
X71065Y-47484D01*
X71084Y-47521D01*
X71103Y-47540D01*
X71140Y-47559D01*
X71253Y-47559D01*
X71290Y-47540D01*
X71309Y-47521D01*
X70821Y-47165D02*
X70784Y-47165D01*
X70746Y-47184D01*
X70728Y-47203D01*
X70709Y-47240D01*
X70690Y-47315D01*
X70690Y-47409D01*
X70709Y-47484D01*
X70728Y-47521D01*
X70746Y-47540D01*
X70784Y-47559D01*
X70821Y-47559D01*
X70859Y-47540D01*
X70878Y-47521D01*
X70896Y-47484D01*
X70915Y-47409D01*
X70915Y-47315D01*
X70896Y-47240D01*
X70878Y-47203D01*
X70859Y-47184D01*
X70821Y-47165D01*
X70540Y-47203D02*
X70521Y-47184D01*
X70484Y-47165D01*
X70390Y-47165D01*
X70353Y-47184D01*
X70334Y-47203D01*
X70315Y-47240D01*
X70315Y-47278D01*
X70334Y-47334D01*
X70559Y-47559D01*
X70315Y-47559D01*
X70590Y-44159D02*
X70721Y-43971D01*
X70815Y-44159D02*
X70815Y-43765D01*
X70665Y-43765D01*
X70628Y-43784D01*
X70609Y-43803D01*
X70590Y-43840D01*
X70590Y-43896D01*
X70609Y-43934D01*
X70628Y-43953D01*
X70665Y-43971D01*
X70815Y-43971D01*
X70459Y-43765D02*
X70215Y-43765D01*
X70346Y-43915D01*
X70290Y-43915D01*
X70253Y-43934D01*
X70234Y-43953D01*
X70215Y-43990D01*
X70215Y-44084D01*
X70234Y-44121D01*
X70253Y-44140D01*
X70290Y-44159D01*
X70403Y-44159D01*
X70440Y-44140D01*
X70459Y-44121D01*
X69971Y-43765D02*
X69934Y-43765D01*
X69896Y-43784D01*
X69878Y-43803D01*
X69859Y-43840D01*
X69840Y-43915D01*
X69840Y-44009D01*
X69859Y-44084D01*
X69878Y-44121D01*
X69896Y-44140D01*
X69934Y-44159D01*
X69971Y-44159D01*
X70009Y-44140D01*
X70028Y-44121D01*
X70046Y-44084D01*
X70065Y-44009D01*
X70065Y-43915D01*
X70046Y-43840D01*
X70028Y-43803D01*
X70009Y-43784D01*
X69971Y-43765D01*
X69709Y-43765D02*
X69465Y-43765D01*
X69596Y-43915D01*
X69540Y-43915D01*
X69503Y-43934D01*
X69484Y-43953D01*
X69465Y-43990D01*
X69465Y-44084D01*
X69484Y-44121D01*
X69503Y-44140D01*
X69540Y-44159D01*
X69653Y-44159D01*
X69690Y-44140D01*
X69709Y-44121D01*
X71048Y-49159D02*
X70860Y-49028D01*
X71048Y-48934D02*
X70654Y-48934D01*
X70654Y-49084D01*
X70673Y-49121D01*
X70692Y-49140D01*
X70729Y-49159D01*
X70785Y-49159D01*
X70823Y-49140D01*
X70842Y-49121D01*
X70860Y-49084D01*
X70860Y-48934D01*
X70654Y-49290D02*
X70654Y-49534D01*
X70804Y-49403D01*
X70804Y-49459D01*
X70823Y-49496D01*
X70842Y-49515D01*
X70879Y-49534D01*
X70973Y-49534D01*
X71010Y-49515D01*
X71029Y-49496D01*
X71048Y-49459D01*
X71048Y-49346D01*
X71029Y-49309D01*
X71010Y-49290D01*
X70654Y-49778D02*
X70654Y-49815D01*
X70673Y-49853D01*
X70692Y-49871D01*
X70729Y-49890D01*
X70804Y-49909D01*
X70898Y-49909D01*
X70973Y-49890D01*
X71010Y-49871D01*
X71029Y-49853D01*
X71048Y-49815D01*
X71048Y-49778D01*
X71029Y-49740D01*
X71010Y-49721D01*
X70973Y-49703D01*
X70898Y-49684D01*
X70804Y-49684D01*
X70729Y-49703D01*
X70692Y-49721D01*
X70673Y-49740D01*
X70654Y-49778D01*
X70785Y-50246D02*
X71048Y-50246D01*
X70635Y-50153D02*
X70917Y-50059D01*
X70917Y-50303D01*
X47540Y-50859D02*
X47671Y-50671D01*
X47765Y-50859D02*
X47765Y-50465D01*
X47615Y-50465D01*
X47578Y-50484D01*
X47559Y-50503D01*
X47540Y-50540D01*
X47540Y-50596D01*
X47559Y-50634D01*
X47578Y-50653D01*
X47615Y-50671D01*
X47765Y-50671D01*
X47390Y-50503D02*
X47371Y-50484D01*
X47334Y-50465D01*
X47240Y-50465D01*
X47203Y-50484D01*
X47184Y-50503D01*
X47165Y-50540D01*
X47165Y-50578D01*
X47184Y-50634D01*
X47409Y-50859D01*
X47165Y-50859D01*
X46790Y-50859D02*
X47015Y-50859D01*
X46903Y-50859D02*
X46903Y-50465D01*
X46940Y-50521D01*
X46978Y-50559D01*
X47015Y-50578D01*
X46640Y-50503D02*
X46621Y-50484D01*
X46584Y-50465D01*
X46490Y-50465D01*
X46453Y-50484D01*
X46434Y-50503D01*
X46415Y-50540D01*
X46415Y-50578D01*
X46434Y-50634D01*
X46659Y-50859D01*
X46415Y-50859D01*
X47490Y-48259D02*
X47621Y-48071D01*
X47715Y-48259D02*
X47715Y-47865D01*
X47565Y-47865D01*
X47528Y-47884D01*
X47509Y-47903D01*
X47490Y-47940D01*
X47490Y-47996D01*
X47509Y-48034D01*
X47528Y-48053D01*
X47565Y-48071D01*
X47715Y-48071D01*
X47340Y-47903D02*
X47321Y-47884D01*
X47284Y-47865D01*
X47190Y-47865D01*
X47153Y-47884D01*
X47134Y-47903D01*
X47115Y-47940D01*
X47115Y-47978D01*
X47134Y-48034D01*
X47359Y-48259D01*
X47115Y-48259D01*
X46740Y-48259D02*
X46965Y-48259D01*
X46853Y-48259D02*
X46853Y-47865D01*
X46890Y-47921D01*
X46928Y-47959D01*
X46965Y-47978D01*
X46609Y-47865D02*
X46365Y-47865D01*
X46496Y-48015D01*
X46440Y-48015D01*
X46403Y-48034D01*
X46384Y-48053D01*
X46365Y-48090D01*
X46365Y-48184D01*
X46384Y-48221D01*
X46403Y-48240D01*
X46440Y-48259D01*
X46553Y-48259D01*
X46590Y-48240D01*
X46609Y-48221D01*
X65840Y-36648D02*
X65971Y-36460D01*
X66065Y-36648D02*
X66065Y-36254D01*
X65915Y-36254D01*
X65878Y-36273D01*
X65859Y-36292D01*
X65840Y-36329D01*
X65840Y-36385D01*
X65859Y-36423D01*
X65878Y-36442D01*
X65915Y-36460D01*
X66065Y-36460D01*
X65503Y-36254D02*
X65578Y-36254D01*
X65615Y-36273D01*
X65634Y-36292D01*
X65671Y-36348D01*
X65690Y-36423D01*
X65690Y-36573D01*
X65671Y-36610D01*
X65653Y-36629D01*
X65615Y-36648D01*
X65540Y-36648D01*
X65503Y-36629D01*
X65484Y-36610D01*
X65465Y-36573D01*
X65465Y-36479D01*
X65484Y-36442D01*
X65503Y-36423D01*
X65540Y-36404D01*
X65615Y-36404D01*
X65653Y-36423D01*
X65671Y-36442D01*
X65690Y-36479D01*
X65221Y-36254D02*
X65184Y-36254D01*
X65146Y-36273D01*
X65128Y-36292D01*
X65109Y-36329D01*
X65090Y-36404D01*
X65090Y-36498D01*
X65109Y-36573D01*
X65128Y-36610D01*
X65146Y-36629D01*
X65184Y-36648D01*
X65221Y-36648D01*
X65259Y-36629D01*
X65278Y-36610D01*
X65296Y-36573D01*
X65315Y-36498D01*
X65315Y-36404D01*
X65296Y-36329D01*
X65278Y-36292D01*
X65259Y-36273D01*
X65221Y-36254D01*
X64734Y-36254D02*
X64921Y-36254D01*
X64940Y-36442D01*
X64921Y-36423D01*
X64884Y-36404D01*
X64790Y-36404D01*
X64753Y-36423D01*
X64734Y-36442D01*
X64715Y-36479D01*
X64715Y-36573D01*
X64734Y-36610D01*
X64753Y-36629D01*
X64790Y-36648D01*
X64884Y-36648D01*
X64921Y-36629D01*
X64940Y-36610D01*
X65390Y-40009D02*
X65521Y-39821D01*
X65615Y-40009D02*
X65615Y-39615D01*
X65465Y-39615D01*
X65428Y-39634D01*
X65409Y-39653D01*
X65390Y-39690D01*
X65390Y-39746D01*
X65409Y-39784D01*
X65428Y-39803D01*
X65465Y-39821D01*
X65615Y-39821D01*
X65053Y-39615D02*
X65128Y-39615D01*
X65165Y-39634D01*
X65184Y-39653D01*
X65221Y-39709D01*
X65240Y-39784D01*
X65240Y-39934D01*
X65221Y-39971D01*
X65203Y-39990D01*
X65165Y-40009D01*
X65090Y-40009D01*
X65053Y-39990D01*
X65034Y-39971D01*
X65015Y-39934D01*
X65015Y-39840D01*
X65034Y-39803D01*
X65053Y-39784D01*
X65090Y-39765D01*
X65165Y-39765D01*
X65203Y-39784D01*
X65221Y-39803D01*
X65240Y-39840D01*
X64771Y-39615D02*
X64734Y-39615D01*
X64696Y-39634D01*
X64678Y-39653D01*
X64659Y-39690D01*
X64640Y-39765D01*
X64640Y-39859D01*
X64659Y-39934D01*
X64678Y-39971D01*
X64696Y-39990D01*
X64734Y-40009D01*
X64771Y-40009D01*
X64809Y-39990D01*
X64828Y-39971D01*
X64846Y-39934D01*
X64865Y-39859D01*
X64865Y-39765D01*
X64846Y-39690D01*
X64828Y-39653D01*
X64809Y-39634D01*
X64771Y-39615D01*
X64303Y-39615D02*
X64378Y-39615D01*
X64415Y-39634D01*
X64434Y-39653D01*
X64471Y-39709D01*
X64490Y-39784D01*
X64490Y-39934D01*
X64471Y-39971D01*
X64453Y-39990D01*
X64415Y-40009D01*
X64340Y-40009D01*
X64303Y-39990D01*
X64284Y-39971D01*
X64265Y-39934D01*
X64265Y-39840D01*
X64284Y-39803D01*
X64303Y-39784D01*
X64340Y-39765D01*
X64415Y-39765D01*
X64453Y-39784D01*
X64471Y-39803D01*
X64490Y-39840D01*
X51559Y-50359D02*
X51371Y-50228D01*
X51559Y-50134D02*
X51165Y-50134D01*
X51165Y-50284D01*
X51184Y-50321D01*
X51203Y-50340D01*
X51240Y-50359D01*
X51296Y-50359D01*
X51334Y-50340D01*
X51353Y-50321D01*
X51371Y-50284D01*
X51371Y-50134D01*
X51203Y-50509D02*
X51184Y-50528D01*
X51165Y-50565D01*
X51165Y-50659D01*
X51184Y-50696D01*
X51203Y-50715D01*
X51240Y-50734D01*
X51278Y-50734D01*
X51334Y-50715D01*
X51559Y-50490D01*
X51559Y-50734D01*
X51559Y-51109D02*
X51559Y-50884D01*
X51559Y-50996D02*
X51165Y-50996D01*
X51221Y-50959D01*
X51259Y-50921D01*
X51278Y-50884D01*
X51296Y-51446D02*
X51559Y-51446D01*
X51146Y-51353D02*
X51428Y-51259D01*
X51428Y-51503D01*
X51809Y-47309D02*
X51621Y-47178D01*
X51809Y-47084D02*
X51415Y-47084D01*
X51415Y-47234D01*
X51434Y-47271D01*
X51453Y-47290D01*
X51490Y-47309D01*
X51546Y-47309D01*
X51584Y-47290D01*
X51603Y-47271D01*
X51621Y-47234D01*
X51621Y-47084D01*
X51453Y-47459D02*
X51434Y-47478D01*
X51415Y-47515D01*
X51415Y-47609D01*
X51434Y-47646D01*
X51453Y-47665D01*
X51490Y-47684D01*
X51528Y-47684D01*
X51584Y-47665D01*
X51809Y-47440D01*
X51809Y-47684D01*
X51809Y-48059D02*
X51809Y-47834D01*
X51809Y-47946D02*
X51415Y-47946D01*
X51471Y-47909D01*
X51509Y-47871D01*
X51528Y-47834D01*
X51415Y-48415D02*
X51415Y-48228D01*
X51603Y-48209D01*
X51584Y-48228D01*
X51565Y-48265D01*
X51565Y-48359D01*
X51584Y-48396D01*
X51603Y-48415D01*
X51640Y-48434D01*
X51734Y-48434D01*
X51771Y-48415D01*
X51790Y-48396D01*
X51809Y-48359D01*
X51809Y-48265D01*
X51790Y-48228D01*
X51771Y-48209D01*
X49840Y-40159D02*
X49971Y-39971D01*
X50065Y-40159D02*
X50065Y-39765D01*
X49915Y-39765D01*
X49878Y-39784D01*
X49859Y-39803D01*
X49840Y-39840D01*
X49840Y-39896D01*
X49859Y-39934D01*
X49878Y-39953D01*
X49915Y-39971D01*
X50065Y-39971D01*
X49690Y-39803D02*
X49671Y-39784D01*
X49634Y-39765D01*
X49540Y-39765D01*
X49503Y-39784D01*
X49484Y-39803D01*
X49465Y-39840D01*
X49465Y-39878D01*
X49484Y-39934D01*
X49709Y-40159D01*
X49465Y-40159D01*
X49090Y-40159D02*
X49315Y-40159D01*
X49203Y-40159D02*
X49203Y-39765D01*
X49240Y-39821D01*
X49278Y-39859D01*
X49315Y-39878D01*
X48846Y-39765D02*
X48809Y-39765D01*
X48771Y-39784D01*
X48753Y-39803D01*
X48734Y-39840D01*
X48715Y-39915D01*
X48715Y-40009D01*
X48734Y-40084D01*
X48753Y-40121D01*
X48771Y-40140D01*
X48809Y-40159D01*
X48846Y-40159D01*
X48884Y-40140D01*
X48903Y-40121D01*
X48921Y-40084D01*
X48940Y-40009D01*
X48940Y-39915D01*
X48921Y-39840D01*
X48903Y-39803D01*
X48884Y-39784D01*
X48846Y-39765D01*
X67948Y-44559D02*
X67760Y-44428D01*
X67948Y-44334D02*
X67554Y-44334D01*
X67554Y-44484D01*
X67573Y-44521D01*
X67592Y-44540D01*
X67629Y-44559D01*
X67685Y-44559D01*
X67723Y-44540D01*
X67742Y-44521D01*
X67760Y-44484D01*
X67760Y-44334D01*
X67554Y-44915D02*
X67554Y-44728D01*
X67742Y-44709D01*
X67723Y-44728D01*
X67704Y-44765D01*
X67704Y-44859D01*
X67723Y-44896D01*
X67742Y-44915D01*
X67779Y-44934D01*
X67873Y-44934D01*
X67910Y-44915D01*
X67929Y-44896D01*
X67948Y-44859D01*
X67948Y-44765D01*
X67929Y-44728D01*
X67910Y-44709D01*
X67554Y-45178D02*
X67554Y-45215D01*
X67573Y-45253D01*
X67592Y-45271D01*
X67629Y-45290D01*
X67704Y-45309D01*
X67798Y-45309D01*
X67873Y-45290D01*
X67910Y-45271D01*
X67929Y-45253D01*
X67948Y-45215D01*
X67948Y-45178D01*
X67929Y-45140D01*
X67910Y-45121D01*
X67873Y-45103D01*
X67798Y-45084D01*
X67704Y-45084D01*
X67629Y-45103D01*
X67592Y-45121D01*
X67573Y-45140D01*
X67554Y-45178D01*
X67592Y-45459D02*
X67573Y-45478D01*
X67554Y-45515D01*
X67554Y-45609D01*
X67573Y-45646D01*
X67592Y-45665D01*
X67629Y-45684D01*
X67667Y-45684D01*
X67723Y-45665D01*
X67948Y-45440D01*
X67948Y-45684D01*
X49840Y-50248D02*
X49971Y-50060D01*
X50065Y-50248D02*
X50065Y-49854D01*
X49915Y-49854D01*
X49878Y-49873D01*
X49859Y-49892D01*
X49840Y-49929D01*
X49840Y-49985D01*
X49859Y-50023D01*
X49878Y-50042D01*
X49915Y-50060D01*
X50065Y-50060D01*
X49690Y-49892D02*
X49671Y-49873D01*
X49634Y-49854D01*
X49540Y-49854D01*
X49503Y-49873D01*
X49484Y-49892D01*
X49465Y-49929D01*
X49465Y-49967D01*
X49484Y-50023D01*
X49709Y-50248D01*
X49465Y-50248D01*
X49221Y-49854D02*
X49184Y-49854D01*
X49146Y-49873D01*
X49128Y-49892D01*
X49109Y-49929D01*
X49090Y-50004D01*
X49090Y-50098D01*
X49109Y-50173D01*
X49128Y-50210D01*
X49146Y-50229D01*
X49184Y-50248D01*
X49221Y-50248D01*
X49259Y-50229D01*
X49278Y-50210D01*
X49296Y-50173D01*
X49315Y-50098D01*
X49315Y-50004D01*
X49296Y-49929D01*
X49278Y-49892D01*
X49259Y-49873D01*
X49221Y-49854D01*
X48903Y-50248D02*
X48828Y-50248D01*
X48790Y-50229D01*
X48771Y-50210D01*
X48734Y-50154D01*
X48715Y-50079D01*
X48715Y-49929D01*
X48734Y-49892D01*
X48753Y-49873D01*
X48790Y-49854D01*
X48865Y-49854D01*
X48903Y-49873D01*
X48921Y-49892D01*
X48940Y-49929D01*
X48940Y-50023D01*
X48921Y-50060D01*
X48903Y-50079D01*
X48865Y-50098D01*
X48790Y-50098D01*
X48753Y-50079D01*
X48734Y-50060D01*
X48715Y-50023D01*
X49790Y-48209D02*
X49921Y-48021D01*
X50015Y-48209D02*
X50015Y-47815D01*
X49865Y-47815D01*
X49828Y-47834D01*
X49809Y-47853D01*
X49790Y-47890D01*
X49790Y-47946D01*
X49809Y-47984D01*
X49828Y-48003D01*
X49865Y-48021D01*
X50015Y-48021D01*
X49640Y-47853D02*
X49621Y-47834D01*
X49584Y-47815D01*
X49490Y-47815D01*
X49453Y-47834D01*
X49434Y-47853D01*
X49415Y-47890D01*
X49415Y-47928D01*
X49434Y-47984D01*
X49659Y-48209D01*
X49415Y-48209D01*
X49171Y-47815D02*
X49134Y-47815D01*
X49096Y-47834D01*
X49078Y-47853D01*
X49059Y-47890D01*
X49040Y-47965D01*
X49040Y-48059D01*
X49059Y-48134D01*
X49078Y-48171D01*
X49096Y-48190D01*
X49134Y-48209D01*
X49171Y-48209D01*
X49209Y-48190D01*
X49228Y-48171D01*
X49246Y-48134D01*
X49265Y-48059D01*
X49265Y-47965D01*
X49246Y-47890D01*
X49228Y-47853D01*
X49209Y-47834D01*
X49171Y-47815D01*
X48815Y-47984D02*
X48853Y-47965D01*
X48871Y-47946D01*
X48890Y-47909D01*
X48890Y-47890D01*
X48871Y-47853D01*
X48853Y-47834D01*
X48815Y-47815D01*
X48740Y-47815D01*
X48703Y-47834D01*
X48684Y-47853D01*
X48665Y-47890D01*
X48665Y-47909D01*
X48684Y-47946D01*
X48703Y-47965D01*
X48740Y-47984D01*
X48815Y-47984D01*
X48853Y-48003D01*
X48871Y-48021D01*
X48890Y-48059D01*
X48890Y-48134D01*
X48871Y-48171D01*
X48853Y-48190D01*
X48815Y-48209D01*
X48740Y-48209D01*
X48703Y-48190D01*
X48684Y-48171D01*
X48665Y-48134D01*
X48665Y-48059D01*
X48684Y-48021D01*
X48703Y-48003D01*
X48740Y-47984D01*
X52540Y-42259D02*
X52671Y-42071D01*
X52765Y-42259D02*
X52765Y-41865D01*
X52615Y-41865D01*
X52578Y-41884D01*
X52559Y-41903D01*
X52540Y-41940D01*
X52540Y-41996D01*
X52559Y-42034D01*
X52578Y-42053D01*
X52615Y-42071D01*
X52765Y-42071D01*
X52390Y-41903D02*
X52371Y-41884D01*
X52334Y-41865D01*
X52240Y-41865D01*
X52203Y-41884D01*
X52184Y-41903D01*
X52165Y-41940D01*
X52165Y-41978D01*
X52184Y-42034D01*
X52409Y-42259D01*
X52165Y-42259D01*
X51921Y-41865D02*
X51884Y-41865D01*
X51846Y-41884D01*
X51828Y-41903D01*
X51809Y-41940D01*
X51790Y-42015D01*
X51790Y-42109D01*
X51809Y-42184D01*
X51828Y-42221D01*
X51846Y-42240D01*
X51884Y-42259D01*
X51921Y-42259D01*
X51959Y-42240D01*
X51978Y-42221D01*
X51996Y-42184D01*
X52015Y-42109D01*
X52015Y-42015D01*
X51996Y-41940D01*
X51978Y-41903D01*
X51959Y-41884D01*
X51921Y-41865D01*
X51659Y-41865D02*
X51396Y-41865D01*
X51565Y-42259D01*
X52540Y-42959D02*
X52671Y-42771D01*
X52765Y-42959D02*
X52765Y-42565D01*
X52615Y-42565D01*
X52578Y-42584D01*
X52559Y-42603D01*
X52540Y-42640D01*
X52540Y-42696D01*
X52559Y-42734D01*
X52578Y-42753D01*
X52615Y-42771D01*
X52765Y-42771D01*
X52390Y-42603D02*
X52371Y-42584D01*
X52334Y-42565D01*
X52240Y-42565D01*
X52203Y-42584D01*
X52184Y-42603D01*
X52165Y-42640D01*
X52165Y-42678D01*
X52184Y-42734D01*
X52409Y-42959D01*
X52165Y-42959D01*
X51921Y-42565D02*
X51884Y-42565D01*
X51846Y-42584D01*
X51828Y-42603D01*
X51809Y-42640D01*
X51790Y-42715D01*
X51790Y-42809D01*
X51809Y-42884D01*
X51828Y-42921D01*
X51846Y-42940D01*
X51884Y-42959D01*
X51921Y-42959D01*
X51959Y-42940D01*
X51978Y-42921D01*
X51996Y-42884D01*
X52015Y-42809D01*
X52015Y-42715D01*
X51996Y-42640D01*
X51978Y-42603D01*
X51959Y-42584D01*
X51921Y-42565D01*
X51453Y-42565D02*
X51528Y-42565D01*
X51565Y-42584D01*
X51584Y-42603D01*
X51621Y-42659D01*
X51640Y-42734D01*
X51640Y-42884D01*
X51621Y-42921D01*
X51603Y-42940D01*
X51565Y-42959D01*
X51490Y-42959D01*
X51453Y-42940D01*
X51434Y-42921D01*
X51415Y-42884D01*
X51415Y-42790D01*
X51434Y-42753D01*
X51453Y-42734D01*
X51490Y-42715D01*
X51565Y-42715D01*
X51603Y-42734D01*
X51621Y-42753D01*
X51640Y-42790D01*
X52540Y-45759D02*
X52671Y-45571D01*
X52765Y-45759D02*
X52765Y-45365D01*
X52615Y-45365D01*
X52578Y-45384D01*
X52559Y-45403D01*
X52540Y-45440D01*
X52540Y-45496D01*
X52559Y-45534D01*
X52578Y-45553D01*
X52615Y-45571D01*
X52765Y-45571D01*
X52390Y-45403D02*
X52371Y-45384D01*
X52334Y-45365D01*
X52240Y-45365D01*
X52203Y-45384D01*
X52184Y-45403D01*
X52165Y-45440D01*
X52165Y-45478D01*
X52184Y-45534D01*
X52409Y-45759D01*
X52165Y-45759D01*
X51921Y-45365D02*
X51884Y-45365D01*
X51846Y-45384D01*
X51828Y-45403D01*
X51809Y-45440D01*
X51790Y-45515D01*
X51790Y-45609D01*
X51809Y-45684D01*
X51828Y-45721D01*
X51846Y-45740D01*
X51884Y-45759D01*
X51921Y-45759D01*
X51959Y-45740D01*
X51978Y-45721D01*
X51996Y-45684D01*
X52015Y-45609D01*
X52015Y-45515D01*
X51996Y-45440D01*
X51978Y-45403D01*
X51959Y-45384D01*
X51921Y-45365D01*
X51434Y-45365D02*
X51621Y-45365D01*
X51640Y-45553D01*
X51621Y-45534D01*
X51584Y-45515D01*
X51490Y-45515D01*
X51453Y-45534D01*
X51434Y-45553D01*
X51415Y-45590D01*
X51415Y-45684D01*
X51434Y-45721D01*
X51453Y-45740D01*
X51490Y-45759D01*
X51584Y-45759D01*
X51621Y-45740D01*
X51640Y-45721D01*
X52540Y-45059D02*
X52671Y-44871D01*
X52765Y-45059D02*
X52765Y-44665D01*
X52615Y-44665D01*
X52578Y-44684D01*
X52559Y-44703D01*
X52540Y-44740D01*
X52540Y-44796D01*
X52559Y-44834D01*
X52578Y-44853D01*
X52615Y-44871D01*
X52765Y-44871D01*
X52390Y-44703D02*
X52371Y-44684D01*
X52334Y-44665D01*
X52240Y-44665D01*
X52203Y-44684D01*
X52184Y-44703D01*
X52165Y-44740D01*
X52165Y-44778D01*
X52184Y-44834D01*
X52409Y-45059D01*
X52165Y-45059D01*
X51921Y-44665D02*
X51884Y-44665D01*
X51846Y-44684D01*
X51828Y-44703D01*
X51809Y-44740D01*
X51790Y-44815D01*
X51790Y-44909D01*
X51809Y-44984D01*
X51828Y-45021D01*
X51846Y-45040D01*
X51884Y-45059D01*
X51921Y-45059D01*
X51959Y-45040D01*
X51978Y-45021D01*
X51996Y-44984D01*
X52015Y-44909D01*
X52015Y-44815D01*
X51996Y-44740D01*
X51978Y-44703D01*
X51959Y-44684D01*
X51921Y-44665D01*
X51453Y-44796D02*
X51453Y-45059D01*
X51546Y-44646D02*
X51640Y-44928D01*
X51396Y-44928D01*
X52540Y-44359D02*
X52671Y-44171D01*
X52765Y-44359D02*
X52765Y-43965D01*
X52615Y-43965D01*
X52578Y-43984D01*
X52559Y-44003D01*
X52540Y-44040D01*
X52540Y-44096D01*
X52559Y-44134D01*
X52578Y-44153D01*
X52615Y-44171D01*
X52765Y-44171D01*
X52390Y-44003D02*
X52371Y-43984D01*
X52334Y-43965D01*
X52240Y-43965D01*
X52203Y-43984D01*
X52184Y-44003D01*
X52165Y-44040D01*
X52165Y-44078D01*
X52184Y-44134D01*
X52409Y-44359D01*
X52165Y-44359D01*
X51921Y-43965D02*
X51884Y-43965D01*
X51846Y-43984D01*
X51828Y-44003D01*
X51809Y-44040D01*
X51790Y-44115D01*
X51790Y-44209D01*
X51809Y-44284D01*
X51828Y-44321D01*
X51846Y-44340D01*
X51884Y-44359D01*
X51921Y-44359D01*
X51959Y-44340D01*
X51978Y-44321D01*
X51996Y-44284D01*
X52015Y-44209D01*
X52015Y-44115D01*
X51996Y-44040D01*
X51978Y-44003D01*
X51959Y-43984D01*
X51921Y-43965D01*
X51659Y-43965D02*
X51415Y-43965D01*
X51546Y-44115D01*
X51490Y-44115D01*
X51453Y-44134D01*
X51434Y-44153D01*
X51415Y-44190D01*
X51415Y-44284D01*
X51434Y-44321D01*
X51453Y-44340D01*
X51490Y-44359D01*
X51603Y-44359D01*
X51640Y-44340D01*
X51659Y-44321D01*
X52540Y-43659D02*
X52671Y-43471D01*
X52765Y-43659D02*
X52765Y-43265D01*
X52615Y-43265D01*
X52578Y-43284D01*
X52559Y-43303D01*
X52540Y-43340D01*
X52540Y-43396D01*
X52559Y-43434D01*
X52578Y-43453D01*
X52615Y-43471D01*
X52765Y-43471D01*
X52390Y-43303D02*
X52371Y-43284D01*
X52334Y-43265D01*
X52240Y-43265D01*
X52203Y-43284D01*
X52184Y-43303D01*
X52165Y-43340D01*
X52165Y-43378D01*
X52184Y-43434D01*
X52409Y-43659D01*
X52165Y-43659D01*
X51921Y-43265D02*
X51884Y-43265D01*
X51846Y-43284D01*
X51828Y-43303D01*
X51809Y-43340D01*
X51790Y-43415D01*
X51790Y-43509D01*
X51809Y-43584D01*
X51828Y-43621D01*
X51846Y-43640D01*
X51884Y-43659D01*
X51921Y-43659D01*
X51959Y-43640D01*
X51978Y-43621D01*
X51996Y-43584D01*
X52015Y-43509D01*
X52015Y-43415D01*
X51996Y-43340D01*
X51978Y-43303D01*
X51959Y-43284D01*
X51921Y-43265D01*
X51640Y-43303D02*
X51621Y-43284D01*
X51584Y-43265D01*
X51490Y-43265D01*
X51453Y-43284D01*
X51434Y-43303D01*
X51415Y-43340D01*
X51415Y-43378D01*
X51434Y-43434D01*
X51659Y-43659D01*
X51415Y-43659D01*
X62459Y-33009D02*
X62271Y-32878D01*
X62459Y-32784D02*
X62065Y-32784D01*
X62065Y-32934D01*
X62084Y-32971D01*
X62103Y-32990D01*
X62140Y-33009D01*
X62196Y-33009D01*
X62234Y-32990D01*
X62253Y-32971D01*
X62271Y-32934D01*
X62271Y-32784D01*
X62065Y-33140D02*
X62065Y-33403D01*
X62459Y-33234D01*
X62065Y-33628D02*
X62065Y-33665D01*
X62084Y-33703D01*
X62103Y-33721D01*
X62140Y-33740D01*
X62215Y-33759D01*
X62309Y-33759D01*
X62384Y-33740D01*
X62421Y-33721D01*
X62440Y-33703D01*
X62459Y-33665D01*
X62459Y-33628D01*
X62440Y-33590D01*
X62421Y-33571D01*
X62384Y-33553D01*
X62309Y-33534D01*
X62215Y-33534D01*
X62140Y-33553D01*
X62103Y-33571D01*
X62084Y-33590D01*
X62065Y-33628D01*
X62459Y-34134D02*
X62459Y-33909D01*
X62459Y-34021D02*
X62065Y-34021D01*
X62121Y-33984D01*
X62159Y-33946D01*
X62178Y-33909D01*
X68059Y-32459D02*
X67871Y-32328D01*
X68059Y-32234D02*
X67665Y-32234D01*
X67665Y-32384D01*
X67684Y-32421D01*
X67703Y-32440D01*
X67740Y-32459D01*
X67796Y-32459D01*
X67834Y-32440D01*
X67853Y-32421D01*
X67871Y-32384D01*
X67871Y-32234D01*
X67665Y-32590D02*
X67665Y-32853D01*
X68059Y-32684D01*
X67665Y-33078D02*
X67665Y-33115D01*
X67684Y-33153D01*
X67703Y-33171D01*
X67740Y-33190D01*
X67815Y-33209D01*
X67909Y-33209D01*
X67984Y-33190D01*
X68021Y-33171D01*
X68040Y-33153D01*
X68059Y-33115D01*
X68059Y-33078D01*
X68040Y-33040D01*
X68021Y-33021D01*
X67984Y-33003D01*
X67909Y-32984D01*
X67815Y-32984D01*
X67740Y-33003D01*
X67703Y-33021D01*
X67684Y-33040D01*
X67665Y-33078D01*
X67665Y-33340D02*
X67665Y-33603D01*
X68059Y-33434D01*
X48090Y-31059D02*
X48221Y-30871D01*
X48315Y-31059D02*
X48315Y-30665D01*
X48165Y-30665D01*
X48128Y-30684D01*
X48109Y-30703D01*
X48090Y-30740D01*
X48090Y-30796D01*
X48109Y-30834D01*
X48128Y-30853D01*
X48165Y-30871D01*
X48315Y-30871D01*
X47865Y-30834D02*
X47903Y-30815D01*
X47921Y-30796D01*
X47940Y-30759D01*
X47940Y-30740D01*
X47921Y-30703D01*
X47903Y-30684D01*
X47865Y-30665D01*
X47790Y-30665D01*
X47753Y-30684D01*
X47734Y-30703D01*
X47715Y-30740D01*
X47715Y-30759D01*
X47734Y-30796D01*
X47753Y-30815D01*
X47790Y-30834D01*
X47865Y-30834D01*
X47903Y-30853D01*
X47921Y-30871D01*
X47940Y-30909D01*
X47940Y-30984D01*
X47921Y-31021D01*
X47903Y-31040D01*
X47865Y-31059D01*
X47790Y-31059D01*
X47753Y-31040D01*
X47734Y-31021D01*
X47715Y-30984D01*
X47715Y-30909D01*
X47734Y-30871D01*
X47753Y-30853D01*
X47790Y-30834D01*
X47471Y-30665D02*
X47434Y-30665D01*
X47396Y-30684D01*
X47378Y-30703D01*
X47359Y-30740D01*
X47340Y-30815D01*
X47340Y-30909D01*
X47359Y-30984D01*
X47378Y-31021D01*
X47396Y-31040D01*
X47434Y-31059D01*
X47471Y-31059D01*
X47509Y-31040D01*
X47528Y-31021D01*
X47546Y-30984D01*
X47565Y-30909D01*
X47565Y-30815D01*
X47546Y-30740D01*
X47528Y-30703D01*
X47509Y-30684D01*
X47471Y-30665D01*
X46984Y-30665D02*
X47171Y-30665D01*
X47190Y-30853D01*
X47171Y-30834D01*
X47134Y-30815D01*
X47040Y-30815D01*
X47003Y-30834D01*
X46984Y-30853D01*
X46965Y-30890D01*
X46965Y-30984D01*
X46984Y-31021D01*
X47003Y-31040D01*
X47040Y-31059D01*
X47134Y-31059D01*
X47171Y-31040D01*
X47190Y-31021D01*
X67724Y-29865D02*
X67724Y-30184D01*
X67706Y-30221D01*
X67687Y-30240D01*
X67649Y-30259D01*
X67574Y-30259D01*
X67537Y-30240D01*
X67518Y-30221D01*
X67499Y-30184D01*
X67499Y-29865D01*
X67349Y-29865D02*
X67087Y-29865D01*
X67256Y-30259D01*
X66862Y-29865D02*
X66825Y-29865D01*
X66787Y-29884D01*
X66768Y-29903D01*
X66750Y-29940D01*
X66731Y-30015D01*
X66731Y-30109D01*
X66750Y-30184D01*
X66768Y-30221D01*
X66787Y-30240D01*
X66825Y-30259D01*
X66862Y-30259D01*
X66900Y-30240D01*
X66918Y-30221D01*
X66937Y-30184D01*
X66956Y-30109D01*
X66956Y-30015D01*
X66937Y-29940D01*
X66918Y-29903D01*
X66900Y-29884D01*
X66862Y-29865D01*
X66356Y-30259D02*
X66581Y-30259D01*
X66468Y-30259D02*
X66468Y-29865D01*
X66506Y-29921D01*
X66543Y-29959D01*
X66581Y-29978D01*
X63715Y-45725D02*
X64034Y-45725D01*
X64071Y-45743D01*
X64090Y-45762D01*
X64109Y-45800D01*
X64109Y-45875D01*
X64090Y-45912D01*
X64071Y-45931D01*
X64034Y-45950D01*
X63715Y-45950D01*
X63715Y-46325D02*
X63715Y-46137D01*
X63903Y-46118D01*
X63884Y-46137D01*
X63865Y-46175D01*
X63865Y-46268D01*
X63884Y-46306D01*
X63903Y-46325D01*
X63940Y-46343D01*
X64034Y-46343D01*
X64071Y-46325D01*
X64090Y-46306D01*
X64109Y-46268D01*
X64109Y-46175D01*
X64090Y-46137D01*
X64071Y-46118D01*
X63715Y-46587D02*
X63715Y-46624D01*
X63734Y-46662D01*
X63753Y-46681D01*
X63790Y-46699D01*
X63865Y-46718D01*
X63959Y-46718D01*
X64034Y-46699D01*
X64071Y-46681D01*
X64090Y-46662D01*
X64109Y-46624D01*
X64109Y-46587D01*
X64090Y-46549D01*
X64071Y-46531D01*
X64034Y-46512D01*
X63959Y-46493D01*
X63865Y-46493D01*
X63790Y-46512D01*
X63753Y-46531D01*
X63734Y-46549D01*
X63715Y-46587D01*
X64109Y-47093D02*
X64109Y-46868D01*
X64109Y-46981D02*
X63715Y-46981D01*
X63771Y-46943D01*
X63809Y-46906D01*
X63828Y-46868D01*
X54240Y-37609D02*
X54428Y-37609D01*
X54428Y-37215D01*
X54053Y-37384D02*
X54090Y-37365D01*
X54109Y-37346D01*
X54128Y-37309D01*
X54128Y-37290D01*
X54109Y-37253D01*
X54090Y-37234D01*
X54053Y-37215D01*
X53978Y-37215D01*
X53940Y-37234D01*
X53921Y-37253D01*
X53903Y-37290D01*
X53903Y-37309D01*
X53921Y-37346D01*
X53940Y-37365D01*
X53978Y-37384D01*
X54053Y-37384D01*
X54090Y-37403D01*
X54109Y-37421D01*
X54128Y-37459D01*
X54128Y-37534D01*
X54109Y-37571D01*
X54090Y-37590D01*
X54053Y-37609D01*
X53978Y-37609D01*
X53940Y-37590D01*
X53921Y-37571D01*
X53903Y-37534D01*
X53903Y-37459D01*
X53921Y-37421D01*
X53940Y-37403D01*
X53978Y-37384D01*
X53659Y-37215D02*
X53621Y-37215D01*
X53584Y-37234D01*
X53565Y-37253D01*
X53546Y-37290D01*
X53528Y-37365D01*
X53528Y-37459D01*
X53546Y-37534D01*
X53565Y-37571D01*
X53584Y-37590D01*
X53621Y-37609D01*
X53659Y-37609D01*
X53696Y-37590D01*
X53715Y-37571D01*
X53734Y-37534D01*
X53753Y-37459D01*
X53753Y-37365D01*
X53734Y-37290D01*
X53715Y-37253D01*
X53696Y-37234D01*
X53659Y-37215D01*
X53396Y-37215D02*
X53153Y-37215D01*
X53284Y-37365D01*
X53228Y-37365D01*
X53190Y-37384D01*
X53171Y-37403D01*
X53153Y-37440D01*
X53153Y-37534D01*
X53171Y-37571D01*
X53190Y-37590D01*
X53228Y-37609D01*
X53340Y-37609D01*
X53378Y-37590D01*
X53396Y-37571D01*
X58415Y-34725D02*
X58734Y-34725D01*
X58771Y-34743D01*
X58790Y-34762D01*
X58809Y-34800D01*
X58809Y-34875D01*
X58790Y-34912D01*
X58771Y-34931D01*
X58734Y-34950D01*
X58415Y-34950D01*
X58584Y-35193D02*
X58565Y-35156D01*
X58546Y-35137D01*
X58509Y-35118D01*
X58490Y-35118D01*
X58453Y-35137D01*
X58434Y-35156D01*
X58415Y-35193D01*
X58415Y-35268D01*
X58434Y-35306D01*
X58453Y-35325D01*
X58490Y-35343D01*
X58509Y-35343D01*
X58546Y-35325D01*
X58565Y-35306D01*
X58584Y-35268D01*
X58584Y-35193D01*
X58603Y-35156D01*
X58621Y-35137D01*
X58659Y-35118D01*
X58734Y-35118D01*
X58771Y-35137D01*
X58790Y-35156D01*
X58809Y-35193D01*
X58809Y-35268D01*
X58790Y-35306D01*
X58771Y-35325D01*
X58734Y-35343D01*
X58659Y-35343D01*
X58621Y-35325D01*
X58603Y-35306D01*
X58584Y-35268D01*
X58415Y-35587D02*
X58415Y-35624D01*
X58434Y-35662D01*
X58453Y-35681D01*
X58490Y-35699D01*
X58565Y-35718D01*
X58659Y-35718D01*
X58734Y-35699D01*
X58771Y-35681D01*
X58790Y-35662D01*
X58809Y-35624D01*
X58809Y-35587D01*
X58790Y-35549D01*
X58771Y-35531D01*
X58734Y-35512D01*
X58659Y-35493D01*
X58565Y-35493D01*
X58490Y-35512D01*
X58453Y-35531D01*
X58434Y-35549D01*
X58415Y-35587D01*
X58415Y-35849D02*
X58415Y-36093D01*
X58565Y-35962D01*
X58565Y-36018D01*
X58584Y-36056D01*
X58603Y-36074D01*
X58640Y-36093D01*
X58734Y-36093D01*
X58771Y-36074D01*
X58790Y-36056D01*
X58809Y-36018D01*
X58809Y-35906D01*
X58790Y-35868D01*
X58771Y-35849D01*
X58821Y-31959D02*
X58840Y-31940D01*
X58859Y-31884D01*
X58859Y-31846D01*
X58840Y-31790D01*
X58803Y-31753D01*
X58765Y-31734D01*
X58690Y-31715D01*
X58634Y-31715D01*
X58559Y-31734D01*
X58521Y-31753D01*
X58484Y-31790D01*
X58465Y-31846D01*
X58465Y-31884D01*
X58484Y-31940D01*
X58503Y-31959D01*
X58634Y-32184D02*
X58615Y-32146D01*
X58596Y-32128D01*
X58559Y-32109D01*
X58540Y-32109D01*
X58503Y-32128D01*
X58484Y-32146D01*
X58465Y-32184D01*
X58465Y-32259D01*
X58484Y-32296D01*
X58503Y-32315D01*
X58540Y-32334D01*
X58559Y-32334D01*
X58596Y-32315D01*
X58615Y-32296D01*
X58634Y-32259D01*
X58634Y-32184D01*
X58653Y-32146D01*
X58671Y-32128D01*
X58709Y-32109D01*
X58784Y-32109D01*
X58821Y-32128D01*
X58840Y-32146D01*
X58859Y-32184D01*
X58859Y-32259D01*
X58840Y-32296D01*
X58821Y-32315D01*
X58784Y-32334D01*
X58709Y-32334D01*
X58671Y-32315D01*
X58653Y-32296D01*
X58634Y-32259D01*
X58859Y-32709D02*
X58859Y-32484D01*
X58859Y-32596D02*
X58465Y-32596D01*
X58521Y-32559D01*
X58559Y-32521D01*
X58578Y-32484D01*
X58465Y-32840D02*
X58465Y-33084D01*
X58615Y-32953D01*
X58615Y-33009D01*
X58634Y-33046D01*
X58653Y-33065D01*
X58690Y-33084D01*
X58784Y-33084D01*
X58821Y-33065D01*
X58840Y-33046D01*
X58859Y-33009D01*
X58859Y-32896D01*
X58840Y-32859D01*
X58821Y-32840D01*
X62771Y-49259D02*
X62790Y-49240D01*
X62809Y-49184D01*
X62809Y-49146D01*
X62790Y-49090D01*
X62753Y-49053D01*
X62715Y-49034D01*
X62640Y-49015D01*
X62584Y-49015D01*
X62509Y-49034D01*
X62471Y-49053D01*
X62434Y-49090D01*
X62415Y-49146D01*
X62415Y-49184D01*
X62434Y-49240D01*
X62453Y-49259D01*
X62546Y-49596D02*
X62809Y-49596D01*
X62396Y-49503D02*
X62678Y-49409D01*
X62678Y-49653D01*
X62415Y-49878D02*
X62415Y-49915D01*
X62434Y-49953D01*
X62453Y-49971D01*
X62490Y-49990D01*
X62565Y-50009D01*
X62659Y-50009D01*
X62734Y-49990D01*
X62771Y-49971D01*
X62790Y-49953D01*
X62809Y-49915D01*
X62809Y-49878D01*
X62790Y-49840D01*
X62771Y-49821D01*
X62734Y-49803D01*
X62659Y-49784D01*
X62565Y-49784D01*
X62490Y-49803D01*
X62453Y-49821D01*
X62434Y-49840D01*
X62415Y-49878D01*
X62415Y-50140D02*
X62415Y-50384D01*
X62565Y-50253D01*
X62565Y-50309D01*
X62584Y-50346D01*
X62603Y-50365D01*
X62640Y-50384D01*
X62734Y-50384D01*
X62771Y-50365D01*
X62790Y-50346D01*
X62809Y-50309D01*
X62809Y-50196D01*
X62790Y-50159D01*
X62771Y-50140D01*
X48140Y-36521D02*
X48159Y-36540D01*
X48215Y-36559D01*
X48253Y-36559D01*
X48309Y-36540D01*
X48346Y-36503D01*
X48365Y-36465D01*
X48384Y-36390D01*
X48384Y-36334D01*
X48365Y-36259D01*
X48346Y-36221D01*
X48309Y-36184D01*
X48253Y-36165D01*
X48215Y-36165D01*
X48159Y-36184D01*
X48140Y-36203D01*
X47915Y-36334D02*
X47953Y-36315D01*
X47971Y-36296D01*
X47990Y-36259D01*
X47990Y-36240D01*
X47971Y-36203D01*
X47953Y-36184D01*
X47915Y-36165D01*
X47840Y-36165D01*
X47803Y-36184D01*
X47784Y-36203D01*
X47765Y-36240D01*
X47765Y-36259D01*
X47784Y-36296D01*
X47803Y-36315D01*
X47840Y-36334D01*
X47915Y-36334D01*
X47953Y-36353D01*
X47971Y-36371D01*
X47990Y-36409D01*
X47990Y-36484D01*
X47971Y-36521D01*
X47953Y-36540D01*
X47915Y-36559D01*
X47840Y-36559D01*
X47803Y-36540D01*
X47784Y-36521D01*
X47765Y-36484D01*
X47765Y-36409D01*
X47784Y-36371D01*
X47803Y-36353D01*
X47840Y-36334D01*
X47390Y-36559D02*
X47615Y-36559D01*
X47503Y-36559D02*
X47503Y-36165D01*
X47540Y-36221D01*
X47578Y-36259D01*
X47615Y-36278D01*
X47165Y-36334D02*
X47203Y-36315D01*
X47221Y-36296D01*
X47240Y-36259D01*
X47240Y-36240D01*
X47221Y-36203D01*
X47203Y-36184D01*
X47165Y-36165D01*
X47090Y-36165D01*
X47053Y-36184D01*
X47034Y-36203D01*
X47015Y-36240D01*
X47015Y-36259D01*
X47034Y-36296D01*
X47053Y-36315D01*
X47090Y-36334D01*
X47165Y-36334D01*
X47203Y-36353D01*
X47221Y-36371D01*
X47240Y-36409D01*
X47240Y-36484D01*
X47221Y-36521D01*
X47203Y-36540D01*
X47165Y-36559D01*
X47090Y-36559D01*
X47053Y-36540D01*
X47034Y-36521D01*
X47015Y-36484D01*
X47015Y-36409D01*
X47034Y-36371D01*
X47053Y-36353D01*
X47090Y-36334D01*
X49821Y-37959D02*
X49840Y-37940D01*
X49859Y-37884D01*
X49859Y-37846D01*
X49840Y-37790D01*
X49803Y-37753D01*
X49765Y-37734D01*
X49690Y-37715D01*
X49634Y-37715D01*
X49559Y-37734D01*
X49521Y-37753D01*
X49484Y-37790D01*
X49465Y-37846D01*
X49465Y-37884D01*
X49484Y-37940D01*
X49503Y-37959D01*
X49634Y-38184D02*
X49615Y-38146D01*
X49596Y-38128D01*
X49559Y-38109D01*
X49540Y-38109D01*
X49503Y-38128D01*
X49484Y-38146D01*
X49465Y-38184D01*
X49465Y-38259D01*
X49484Y-38296D01*
X49503Y-38315D01*
X49540Y-38334D01*
X49559Y-38334D01*
X49596Y-38315D01*
X49615Y-38296D01*
X49634Y-38259D01*
X49634Y-38184D01*
X49653Y-38146D01*
X49671Y-38128D01*
X49709Y-38109D01*
X49784Y-38109D01*
X49821Y-38128D01*
X49840Y-38146D01*
X49859Y-38184D01*
X49859Y-38259D01*
X49840Y-38296D01*
X49821Y-38315D01*
X49784Y-38334D01*
X49709Y-38334D01*
X49671Y-38315D01*
X49653Y-38296D01*
X49634Y-38259D01*
X49465Y-38578D02*
X49465Y-38615D01*
X49484Y-38653D01*
X49503Y-38671D01*
X49540Y-38690D01*
X49615Y-38709D01*
X49709Y-38709D01*
X49784Y-38690D01*
X49821Y-38671D01*
X49840Y-38653D01*
X49859Y-38615D01*
X49859Y-38578D01*
X49840Y-38540D01*
X49821Y-38521D01*
X49784Y-38503D01*
X49709Y-38484D01*
X49615Y-38484D01*
X49540Y-38503D01*
X49503Y-38521D01*
X49484Y-38540D01*
X49465Y-38578D01*
X49465Y-38840D02*
X49465Y-39084D01*
X49615Y-38953D01*
X49615Y-39009D01*
X49634Y-39046D01*
X49653Y-39065D01*
X49690Y-39084D01*
X49784Y-39084D01*
X49821Y-39065D01*
X49840Y-39046D01*
X49859Y-39009D01*
X49859Y-38896D01*
X49840Y-38859D01*
X49821Y-38840D01*
X60737Y-39309D02*
X60756Y-39290D01*
X60775Y-39234D01*
X60775Y-39196D01*
X60756Y-39140D01*
X60718Y-39103D01*
X60681Y-39084D01*
X60606Y-39065D01*
X60550Y-39065D01*
X60475Y-39084D01*
X60437Y-39103D01*
X60400Y-39140D01*
X60381Y-39196D01*
X60381Y-39234D01*
X60400Y-39290D01*
X60418Y-39309D01*
X60381Y-39646D02*
X60381Y-39571D01*
X60400Y-39534D01*
X60418Y-39515D01*
X60475Y-39478D01*
X60550Y-39459D01*
X60700Y-39459D01*
X60737Y-39478D01*
X60756Y-39496D01*
X60775Y-39534D01*
X60775Y-39609D01*
X60756Y-39646D01*
X60737Y-39665D01*
X60700Y-39684D01*
X60606Y-39684D01*
X60568Y-39665D01*
X60550Y-39646D01*
X60531Y-39609D01*
X60531Y-39534D01*
X60550Y-39496D01*
X60568Y-39478D01*
X60606Y-39459D01*
X60381Y-39928D02*
X60381Y-39965D01*
X60400Y-40003D01*
X60418Y-40021D01*
X60456Y-40040D01*
X60531Y-40059D01*
X60625Y-40059D01*
X60700Y-40040D01*
X60737Y-40021D01*
X60756Y-40003D01*
X60775Y-39965D01*
X60775Y-39928D01*
X60756Y-39890D01*
X60737Y-39871D01*
X60700Y-39853D01*
X60625Y-39834D01*
X60531Y-39834D01*
X60456Y-39853D01*
X60418Y-39871D01*
X60400Y-39890D01*
X60381Y-39928D01*
X60381Y-40190D02*
X60381Y-40434D01*
X60531Y-40303D01*
X60531Y-40359D01*
X60550Y-40396D01*
X60568Y-40415D01*
X60606Y-40434D01*
X60700Y-40434D01*
X60737Y-40415D01*
X60756Y-40396D01*
X60775Y-40359D01*
X60775Y-40246D01*
X60756Y-40209D01*
X60737Y-40190D01*
X52740Y-32106D02*
X52759Y-32124D01*
X52815Y-32143D01*
X52853Y-32143D01*
X52909Y-32124D01*
X52946Y-32087D01*
X52965Y-32049D01*
X52984Y-31974D01*
X52984Y-31918D01*
X52965Y-31843D01*
X52946Y-31806D01*
X52909Y-31768D01*
X52853Y-31749D01*
X52815Y-31749D01*
X52759Y-31768D01*
X52740Y-31787D01*
X52515Y-31918D02*
X52553Y-31899D01*
X52571Y-31881D01*
X52590Y-31843D01*
X52590Y-31824D01*
X52571Y-31787D01*
X52553Y-31768D01*
X52515Y-31749D01*
X52440Y-31749D01*
X52403Y-31768D01*
X52384Y-31787D01*
X52365Y-31824D01*
X52365Y-31843D01*
X52384Y-31881D01*
X52403Y-31899D01*
X52440Y-31918D01*
X52515Y-31918D01*
X52553Y-31937D01*
X52571Y-31956D01*
X52590Y-31993D01*
X52590Y-32068D01*
X52571Y-32106D01*
X52553Y-32124D01*
X52515Y-32143D01*
X52440Y-32143D01*
X52403Y-32124D01*
X52384Y-32106D01*
X52365Y-32068D01*
X52365Y-31993D01*
X52384Y-31956D01*
X52403Y-31937D01*
X52440Y-31918D01*
X51990Y-32143D02*
X52215Y-32143D01*
X52103Y-32143D02*
X52103Y-31749D01*
X52140Y-31806D01*
X52178Y-31843D01*
X52215Y-31862D01*
X51859Y-31749D02*
X51596Y-31749D01*
X51765Y-32143D01*
X47540Y-32721D02*
X47559Y-32740D01*
X47615Y-32759D01*
X47653Y-32759D01*
X47709Y-32740D01*
X47746Y-32703D01*
X47765Y-32665D01*
X47784Y-32590D01*
X47784Y-32534D01*
X47765Y-32459D01*
X47746Y-32421D01*
X47709Y-32384D01*
X47653Y-32365D01*
X47615Y-32365D01*
X47559Y-32384D01*
X47540Y-32403D01*
X47315Y-32534D02*
X47353Y-32515D01*
X47371Y-32496D01*
X47390Y-32459D01*
X47390Y-32440D01*
X47371Y-32403D01*
X47353Y-32384D01*
X47315Y-32365D01*
X47240Y-32365D01*
X47203Y-32384D01*
X47184Y-32403D01*
X47165Y-32440D01*
X47165Y-32459D01*
X47184Y-32496D01*
X47203Y-32515D01*
X47240Y-32534D01*
X47315Y-32534D01*
X47353Y-32553D01*
X47371Y-32571D01*
X47390Y-32609D01*
X47390Y-32684D01*
X47371Y-32721D01*
X47353Y-32740D01*
X47315Y-32759D01*
X47240Y-32759D01*
X47203Y-32740D01*
X47184Y-32721D01*
X47165Y-32684D01*
X47165Y-32609D01*
X47184Y-32571D01*
X47203Y-32553D01*
X47240Y-32534D01*
X46921Y-32365D02*
X46884Y-32365D01*
X46846Y-32384D01*
X46828Y-32403D01*
X46809Y-32440D01*
X46790Y-32515D01*
X46790Y-32609D01*
X46809Y-32684D01*
X46828Y-32721D01*
X46846Y-32740D01*
X46884Y-32759D01*
X46921Y-32759D01*
X46959Y-32740D01*
X46978Y-32721D01*
X46996Y-32684D01*
X47015Y-32609D01*
X47015Y-32515D01*
X46996Y-32440D01*
X46978Y-32403D01*
X46959Y-32384D01*
X46921Y-32365D01*
X46565Y-32534D02*
X46603Y-32515D01*
X46621Y-32496D01*
X46640Y-32459D01*
X46640Y-32440D01*
X46621Y-32403D01*
X46603Y-32384D01*
X46565Y-32365D01*
X46490Y-32365D01*
X46453Y-32384D01*
X46434Y-32403D01*
X46415Y-32440D01*
X46415Y-32459D01*
X46434Y-32496D01*
X46453Y-32515D01*
X46490Y-32534D01*
X46565Y-32534D01*
X46603Y-32553D01*
X46621Y-32571D01*
X46640Y-32609D01*
X46640Y-32684D01*
X46621Y-32721D01*
X46603Y-32740D01*
X46565Y-32759D01*
X46490Y-32759D01*
X46453Y-32740D01*
X46434Y-32721D01*
X46415Y-32684D01*
X46415Y-32609D01*
X46434Y-32571D01*
X46453Y-32553D01*
X46490Y-32534D01*
X55790Y-43521D02*
X55809Y-43540D01*
X55865Y-43559D01*
X55903Y-43559D01*
X55959Y-43540D01*
X55996Y-43503D01*
X56015Y-43465D01*
X56034Y-43390D01*
X56034Y-43334D01*
X56015Y-43259D01*
X55996Y-43221D01*
X55959Y-43184D01*
X55903Y-43165D01*
X55865Y-43165D01*
X55809Y-43184D01*
X55790Y-43203D01*
X55659Y-43165D02*
X55415Y-43165D01*
X55546Y-43315D01*
X55490Y-43315D01*
X55453Y-43334D01*
X55434Y-43353D01*
X55415Y-43390D01*
X55415Y-43484D01*
X55434Y-43521D01*
X55453Y-43540D01*
X55490Y-43559D01*
X55603Y-43559D01*
X55640Y-43540D01*
X55659Y-43521D01*
X55171Y-43165D02*
X55134Y-43165D01*
X55096Y-43184D01*
X55078Y-43203D01*
X55059Y-43240D01*
X55040Y-43315D01*
X55040Y-43409D01*
X55059Y-43484D01*
X55078Y-43521D01*
X55096Y-43540D01*
X55134Y-43559D01*
X55171Y-43559D01*
X55209Y-43540D01*
X55228Y-43521D01*
X55246Y-43484D01*
X55265Y-43409D01*
X55265Y-43315D01*
X55246Y-43240D01*
X55228Y-43203D01*
X55209Y-43184D01*
X55171Y-43165D01*
X54890Y-43203D02*
X54871Y-43184D01*
X54834Y-43165D01*
X54740Y-43165D01*
X54703Y-43184D01*
X54684Y-43203D01*
X54665Y-43240D01*
X54665Y-43278D01*
X54684Y-43334D01*
X54909Y-43559D01*
X54665Y-43559D01*
X58840Y-39171D02*
X58859Y-39190D01*
X58915Y-39209D01*
X58953Y-39209D01*
X59009Y-39190D01*
X59046Y-39153D01*
X59065Y-39115D01*
X59084Y-39040D01*
X59084Y-38984D01*
X59065Y-38909D01*
X59046Y-38871D01*
X59009Y-38834D01*
X58953Y-38815D01*
X58915Y-38815D01*
X58859Y-38834D01*
X58840Y-38853D01*
X58615Y-38984D02*
X58653Y-38965D01*
X58671Y-38946D01*
X58690Y-38909D01*
X58690Y-38890D01*
X58671Y-38853D01*
X58653Y-38834D01*
X58615Y-38815D01*
X58540Y-38815D01*
X58503Y-38834D01*
X58484Y-38853D01*
X58465Y-38890D01*
X58465Y-38909D01*
X58484Y-38946D01*
X58503Y-38965D01*
X58540Y-38984D01*
X58615Y-38984D01*
X58653Y-39003D01*
X58671Y-39021D01*
X58690Y-39059D01*
X58690Y-39134D01*
X58671Y-39171D01*
X58653Y-39190D01*
X58615Y-39209D01*
X58540Y-39209D01*
X58503Y-39190D01*
X58484Y-39171D01*
X58465Y-39134D01*
X58465Y-39059D01*
X58484Y-39021D01*
X58503Y-39003D01*
X58540Y-38984D01*
X58221Y-38815D02*
X58184Y-38815D01*
X58146Y-38834D01*
X58128Y-38853D01*
X58109Y-38890D01*
X58090Y-38965D01*
X58090Y-39059D01*
X58109Y-39134D01*
X58128Y-39171D01*
X58146Y-39190D01*
X58184Y-39209D01*
X58221Y-39209D01*
X58259Y-39190D01*
X58278Y-39171D01*
X58296Y-39134D01*
X58315Y-39059D01*
X58315Y-38965D01*
X58296Y-38890D01*
X58278Y-38853D01*
X58259Y-38834D01*
X58221Y-38815D01*
X57753Y-38946D02*
X57753Y-39209D01*
X57846Y-38796D02*
X57940Y-39078D01*
X57696Y-39078D01*
X55990Y-40606D02*
X56009Y-40624D01*
X56065Y-40643D01*
X56103Y-40643D01*
X56159Y-40624D01*
X56196Y-40587D01*
X56215Y-40549D01*
X56234Y-40474D01*
X56234Y-40418D01*
X56215Y-40343D01*
X56196Y-40306D01*
X56159Y-40268D01*
X56103Y-40249D01*
X56065Y-40249D01*
X56009Y-40268D01*
X55990Y-40287D01*
X55765Y-40418D02*
X55803Y-40399D01*
X55821Y-40381D01*
X55840Y-40343D01*
X55840Y-40324D01*
X55821Y-40287D01*
X55803Y-40268D01*
X55765Y-40249D01*
X55690Y-40249D01*
X55653Y-40268D01*
X55634Y-40287D01*
X55615Y-40324D01*
X55615Y-40343D01*
X55634Y-40381D01*
X55653Y-40399D01*
X55690Y-40418D01*
X55765Y-40418D01*
X55803Y-40437D01*
X55821Y-40456D01*
X55840Y-40493D01*
X55840Y-40568D01*
X55821Y-40606D01*
X55803Y-40624D01*
X55765Y-40643D01*
X55690Y-40643D01*
X55653Y-40624D01*
X55634Y-40606D01*
X55615Y-40568D01*
X55615Y-40493D01*
X55634Y-40456D01*
X55653Y-40437D01*
X55690Y-40418D01*
X55240Y-40643D02*
X55465Y-40643D01*
X55353Y-40643D02*
X55353Y-40249D01*
X55390Y-40306D01*
X55428Y-40343D01*
X55465Y-40362D01*
X54996Y-40249D02*
X54959Y-40249D01*
X54921Y-40268D01*
X54903Y-40287D01*
X54884Y-40324D01*
X54865Y-40399D01*
X54865Y-40493D01*
X54884Y-40568D01*
X54903Y-40606D01*
X54921Y-40624D01*
X54959Y-40643D01*
X54996Y-40643D01*
X55034Y-40624D01*
X55053Y-40606D01*
X55071Y-40568D01*
X55090Y-40493D01*
X55090Y-40399D01*
X55071Y-40324D01*
X55053Y-40287D01*
X55034Y-40268D01*
X54996Y-40249D01*
X57690Y-48571D02*
X57709Y-48590D01*
X57765Y-48609D01*
X57803Y-48609D01*
X57859Y-48590D01*
X57896Y-48553D01*
X57915Y-48515D01*
X57934Y-48440D01*
X57934Y-48384D01*
X57915Y-48309D01*
X57896Y-48271D01*
X57859Y-48234D01*
X57803Y-48215D01*
X57765Y-48215D01*
X57709Y-48234D01*
X57690Y-48253D01*
X57559Y-48215D02*
X57315Y-48215D01*
X57446Y-48365D01*
X57390Y-48365D01*
X57353Y-48384D01*
X57334Y-48403D01*
X57315Y-48440D01*
X57315Y-48534D01*
X57334Y-48571D01*
X57353Y-48590D01*
X57390Y-48609D01*
X57503Y-48609D01*
X57540Y-48590D01*
X57559Y-48571D01*
X56940Y-48609D02*
X57165Y-48609D01*
X57053Y-48609D02*
X57053Y-48215D01*
X57090Y-48271D01*
X57128Y-48309D01*
X57165Y-48328D01*
X56696Y-48215D02*
X56659Y-48215D01*
X56621Y-48234D01*
X56603Y-48253D01*
X56584Y-48290D01*
X56565Y-48365D01*
X56565Y-48459D01*
X56584Y-48534D01*
X56603Y-48571D01*
X56621Y-48590D01*
X56659Y-48609D01*
X56696Y-48609D01*
X56734Y-48590D01*
X56753Y-48571D01*
X56771Y-48534D01*
X56790Y-48459D01*
X56790Y-48365D01*
X56771Y-48290D01*
X56753Y-48253D01*
X56734Y-48234D01*
X56696Y-48215D01*
X45021Y-33709D02*
X45040Y-33690D01*
X45059Y-33634D01*
X45059Y-33596D01*
X45040Y-33540D01*
X45003Y-33503D01*
X44965Y-33484D01*
X44890Y-33465D01*
X44834Y-33465D01*
X44759Y-33484D01*
X44721Y-33503D01*
X44684Y-33540D01*
X44665Y-33596D01*
X44665Y-33634D01*
X44684Y-33690D01*
X44703Y-33709D01*
X44834Y-33934D02*
X44815Y-33896D01*
X44796Y-33878D01*
X44759Y-33859D01*
X44740Y-33859D01*
X44703Y-33878D01*
X44684Y-33896D01*
X44665Y-33934D01*
X44665Y-34009D01*
X44684Y-34046D01*
X44703Y-34065D01*
X44740Y-34084D01*
X44759Y-34084D01*
X44796Y-34065D01*
X44815Y-34046D01*
X44834Y-34009D01*
X44834Y-33934D01*
X44853Y-33896D01*
X44871Y-33878D01*
X44909Y-33859D01*
X44984Y-33859D01*
X45021Y-33878D01*
X45040Y-33896D01*
X45059Y-33934D01*
X45059Y-34009D01*
X45040Y-34046D01*
X45021Y-34065D01*
X44984Y-34084D01*
X44909Y-34084D01*
X44871Y-34065D01*
X44853Y-34046D01*
X44834Y-34009D01*
X44665Y-34328D02*
X44665Y-34365D01*
X44684Y-34403D01*
X44703Y-34421D01*
X44740Y-34440D01*
X44815Y-34459D01*
X44909Y-34459D01*
X44984Y-34440D01*
X45021Y-34421D01*
X45040Y-34403D01*
X45059Y-34365D01*
X45059Y-34328D01*
X45040Y-34290D01*
X45021Y-34271D01*
X44984Y-34253D01*
X44909Y-34234D01*
X44815Y-34234D01*
X44740Y-34253D01*
X44703Y-34271D01*
X44684Y-34290D01*
X44665Y-34328D01*
X45059Y-34646D02*
X45059Y-34721D01*
X45040Y-34759D01*
X45021Y-34778D01*
X44965Y-34815D01*
X44890Y-34834D01*
X44740Y-34834D01*
X44703Y-34815D01*
X44684Y-34796D01*
X44665Y-34759D01*
X44665Y-34684D01*
X44684Y-34646D01*
X44703Y-34628D01*
X44740Y-34609D01*
X44834Y-34609D01*
X44871Y-34628D01*
X44890Y-34646D01*
X44909Y-34684D01*
X44909Y-34759D01*
X44890Y-34796D01*
X44871Y-34815D01*
X44834Y-34834D01*
X68021Y-39759D02*
X68040Y-39740D01*
X68059Y-39684D01*
X68059Y-39646D01*
X68040Y-39590D01*
X68003Y-39553D01*
X67965Y-39534D01*
X67890Y-39515D01*
X67834Y-39515D01*
X67759Y-39534D01*
X67721Y-39553D01*
X67684Y-39590D01*
X67665Y-39646D01*
X67665Y-39684D01*
X67684Y-39740D01*
X67703Y-39759D01*
X67665Y-40096D02*
X67665Y-40021D01*
X67684Y-39984D01*
X67703Y-39965D01*
X67759Y-39928D01*
X67834Y-39909D01*
X67984Y-39909D01*
X68021Y-39928D01*
X68040Y-39946D01*
X68059Y-39984D01*
X68059Y-40059D01*
X68040Y-40096D01*
X68021Y-40115D01*
X67984Y-40134D01*
X67890Y-40134D01*
X67853Y-40115D01*
X67834Y-40096D01*
X67815Y-40059D01*
X67815Y-39984D01*
X67834Y-39946D01*
X67853Y-39928D01*
X67890Y-39909D01*
X67665Y-40378D02*
X67665Y-40415D01*
X67684Y-40453D01*
X67703Y-40471D01*
X67740Y-40490D01*
X67815Y-40509D01*
X67909Y-40509D01*
X67984Y-40490D01*
X68021Y-40471D01*
X68040Y-40453D01*
X68059Y-40415D01*
X68059Y-40378D01*
X68040Y-40340D01*
X68021Y-40321D01*
X67984Y-40303D01*
X67909Y-40284D01*
X67815Y-40284D01*
X67740Y-40303D01*
X67703Y-40321D01*
X67684Y-40340D01*
X67665Y-40378D01*
X68059Y-40696D02*
X68059Y-40771D01*
X68040Y-40809D01*
X68021Y-40828D01*
X67965Y-40865D01*
X67890Y-40884D01*
X67740Y-40884D01*
X67703Y-40865D01*
X67684Y-40846D01*
X67665Y-40809D01*
X67665Y-40734D01*
X67684Y-40696D01*
X67703Y-40678D01*
X67740Y-40659D01*
X67834Y-40659D01*
X67871Y-40678D01*
X67890Y-40696D01*
X67909Y-40734D01*
X67909Y-40809D01*
X67890Y-40846D01*
X67871Y-40865D01*
X67834Y-40884D01*
X65640Y-41213D02*
X65659Y-41231D01*
X65715Y-41250D01*
X65753Y-41250D01*
X65809Y-41231D01*
X65846Y-41194D01*
X65865Y-41156D01*
X65884Y-41081D01*
X65884Y-41025D01*
X65865Y-40950D01*
X65846Y-40913D01*
X65809Y-40875D01*
X65753Y-40856D01*
X65715Y-40856D01*
X65659Y-40875D01*
X65640Y-40894D01*
X65284Y-40856D02*
X65471Y-40856D01*
X65490Y-41044D01*
X65471Y-41025D01*
X65434Y-41006D01*
X65340Y-41006D01*
X65303Y-41025D01*
X65284Y-41044D01*
X65265Y-41081D01*
X65265Y-41175D01*
X65284Y-41213D01*
X65303Y-41231D01*
X65340Y-41250D01*
X65434Y-41250D01*
X65471Y-41231D01*
X65490Y-41213D01*
X65021Y-40856D02*
X64984Y-40856D01*
X64946Y-40875D01*
X64928Y-40894D01*
X64909Y-40931D01*
X64890Y-41006D01*
X64890Y-41100D01*
X64909Y-41175D01*
X64928Y-41213D01*
X64946Y-41231D01*
X64984Y-41250D01*
X65021Y-41250D01*
X65059Y-41231D01*
X65078Y-41213D01*
X65096Y-41175D01*
X65115Y-41100D01*
X65115Y-41006D01*
X65096Y-40931D01*
X65078Y-40894D01*
X65059Y-40875D01*
X65021Y-40856D01*
X64534Y-40856D02*
X64721Y-40856D01*
X64740Y-41044D01*
X64721Y-41025D01*
X64684Y-41006D01*
X64590Y-41006D01*
X64553Y-41025D01*
X64534Y-41044D01*
X64515Y-41081D01*
X64515Y-41175D01*
X64534Y-41213D01*
X64553Y-41231D01*
X64590Y-41250D01*
X64684Y-41250D01*
X64721Y-41231D01*
X64740Y-41213D01*
X57990Y-50421D02*
X58009Y-50440D01*
X58065Y-50459D01*
X58103Y-50459D01*
X58159Y-50440D01*
X58196Y-50403D01*
X58215Y-50365D01*
X58234Y-50290D01*
X58234Y-50234D01*
X58215Y-50159D01*
X58196Y-50121D01*
X58159Y-50084D01*
X58103Y-50065D01*
X58065Y-50065D01*
X58009Y-50084D01*
X57990Y-50103D01*
X57859Y-50065D02*
X57615Y-50065D01*
X57746Y-50215D01*
X57690Y-50215D01*
X57653Y-50234D01*
X57634Y-50253D01*
X57615Y-50290D01*
X57615Y-50384D01*
X57634Y-50421D01*
X57653Y-50440D01*
X57690Y-50459D01*
X57803Y-50459D01*
X57840Y-50440D01*
X57859Y-50421D01*
X57240Y-50459D02*
X57465Y-50459D01*
X57353Y-50459D02*
X57353Y-50065D01*
X57390Y-50121D01*
X57428Y-50159D01*
X57465Y-50178D01*
X56865Y-50459D02*
X57090Y-50459D01*
X56978Y-50459D02*
X56978Y-50065D01*
X57015Y-50121D01*
X57053Y-50159D01*
X57090Y-50178D01*
X68021Y-35409D02*
X68040Y-35390D01*
X68059Y-35334D01*
X68059Y-35296D01*
X68040Y-35240D01*
X68003Y-35203D01*
X67965Y-35184D01*
X67890Y-35165D01*
X67834Y-35165D01*
X67759Y-35184D01*
X67721Y-35203D01*
X67684Y-35240D01*
X67665Y-35296D01*
X67665Y-35334D01*
X67684Y-35390D01*
X67703Y-35409D01*
X67665Y-35746D02*
X67665Y-35671D01*
X67684Y-35634D01*
X67703Y-35615D01*
X67759Y-35578D01*
X67834Y-35559D01*
X67984Y-35559D01*
X68021Y-35578D01*
X68040Y-35596D01*
X68059Y-35634D01*
X68059Y-35709D01*
X68040Y-35746D01*
X68021Y-35765D01*
X67984Y-35784D01*
X67890Y-35784D01*
X67853Y-35765D01*
X67834Y-35746D01*
X67815Y-35709D01*
X67815Y-35634D01*
X67834Y-35596D01*
X67853Y-35578D01*
X67890Y-35559D01*
X67665Y-36028D02*
X67665Y-36065D01*
X67684Y-36103D01*
X67703Y-36121D01*
X67740Y-36140D01*
X67815Y-36159D01*
X67909Y-36159D01*
X67984Y-36140D01*
X68021Y-36121D01*
X68040Y-36103D01*
X68059Y-36065D01*
X68059Y-36028D01*
X68040Y-35990D01*
X68021Y-35971D01*
X67984Y-35953D01*
X67909Y-35934D01*
X67815Y-35934D01*
X67740Y-35953D01*
X67703Y-35971D01*
X67684Y-35990D01*
X67665Y-36028D01*
X67834Y-36384D02*
X67815Y-36346D01*
X67796Y-36328D01*
X67759Y-36309D01*
X67740Y-36309D01*
X67703Y-36328D01*
X67684Y-36346D01*
X67665Y-36384D01*
X67665Y-36459D01*
X67684Y-36496D01*
X67703Y-36515D01*
X67740Y-36534D01*
X67759Y-36534D01*
X67796Y-36515D01*
X67815Y-36496D01*
X67834Y-36459D01*
X67834Y-36384D01*
X67853Y-36346D01*
X67871Y-36328D01*
X67909Y-36309D01*
X67984Y-36309D01*
X68021Y-36328D01*
X68040Y-36346D01*
X68059Y-36384D01*
X68059Y-36459D01*
X68040Y-36496D01*
X68021Y-36515D01*
X67984Y-36534D01*
X67909Y-36534D01*
X67871Y-36515D01*
X67853Y-36496D01*
X67834Y-36459D01*
X52740Y-38071D02*
X52759Y-38090D01*
X52815Y-38109D01*
X52853Y-38109D01*
X52909Y-38090D01*
X52946Y-38053D01*
X52965Y-38015D01*
X52984Y-37940D01*
X52984Y-37884D01*
X52965Y-37809D01*
X52946Y-37771D01*
X52909Y-37734D01*
X52853Y-37715D01*
X52815Y-37715D01*
X52759Y-37734D01*
X52740Y-37753D01*
X52515Y-37884D02*
X52553Y-37865D01*
X52571Y-37846D01*
X52590Y-37809D01*
X52590Y-37790D01*
X52571Y-37753D01*
X52553Y-37734D01*
X52515Y-37715D01*
X52440Y-37715D01*
X52403Y-37734D01*
X52384Y-37753D01*
X52365Y-37790D01*
X52365Y-37809D01*
X52384Y-37846D01*
X52403Y-37865D01*
X52440Y-37884D01*
X52515Y-37884D01*
X52553Y-37903D01*
X52571Y-37921D01*
X52590Y-37959D01*
X52590Y-38034D01*
X52571Y-38071D01*
X52553Y-38090D01*
X52515Y-38109D01*
X52440Y-38109D01*
X52403Y-38090D01*
X52384Y-38071D01*
X52365Y-38034D01*
X52365Y-37959D01*
X52384Y-37921D01*
X52403Y-37903D01*
X52440Y-37884D01*
X52121Y-37715D02*
X52084Y-37715D01*
X52046Y-37734D01*
X52028Y-37753D01*
X52009Y-37790D01*
X51990Y-37865D01*
X51990Y-37959D01*
X52009Y-38034D01*
X52028Y-38071D01*
X52046Y-38090D01*
X52084Y-38109D01*
X52121Y-38109D01*
X52159Y-38090D01*
X52178Y-38071D01*
X52196Y-38034D01*
X52215Y-37959D01*
X52215Y-37865D01*
X52196Y-37790D01*
X52178Y-37753D01*
X52159Y-37734D01*
X52121Y-37715D01*
X51634Y-37715D02*
X51821Y-37715D01*
X51840Y-37903D01*
X51821Y-37884D01*
X51784Y-37865D01*
X51690Y-37865D01*
X51653Y-37884D01*
X51634Y-37903D01*
X51615Y-37940D01*
X51615Y-38034D01*
X51634Y-38071D01*
X51653Y-38090D01*
X51690Y-38109D01*
X51784Y-38109D01*
X51821Y-38090D01*
X51840Y-38071D01*
X66471Y-46359D02*
X66490Y-46340D01*
X66509Y-46284D01*
X66509Y-46246D01*
X66490Y-46190D01*
X66453Y-46153D01*
X66415Y-46134D01*
X66340Y-46115D01*
X66284Y-46115D01*
X66209Y-46134D01*
X66171Y-46153D01*
X66134Y-46190D01*
X66115Y-46246D01*
X66115Y-46284D01*
X66134Y-46340D01*
X66153Y-46359D01*
X66115Y-46715D02*
X66115Y-46528D01*
X66303Y-46509D01*
X66284Y-46528D01*
X66265Y-46565D01*
X66265Y-46659D01*
X66284Y-46696D01*
X66303Y-46715D01*
X66340Y-46734D01*
X66434Y-46734D01*
X66471Y-46715D01*
X66490Y-46696D01*
X66509Y-46659D01*
X66509Y-46565D01*
X66490Y-46528D01*
X66471Y-46509D01*
X66115Y-46978D02*
X66115Y-47015D01*
X66134Y-47053D01*
X66153Y-47071D01*
X66190Y-47090D01*
X66265Y-47109D01*
X66359Y-47109D01*
X66434Y-47090D01*
X66471Y-47071D01*
X66490Y-47053D01*
X66509Y-47015D01*
X66509Y-46978D01*
X66490Y-46940D01*
X66471Y-46921D01*
X66434Y-46903D01*
X66359Y-46884D01*
X66265Y-46884D01*
X66190Y-46903D01*
X66153Y-46921D01*
X66134Y-46940D01*
X66115Y-46978D01*
X66115Y-47446D02*
X66115Y-47371D01*
X66134Y-47334D01*
X66153Y-47315D01*
X66209Y-47278D01*
X66284Y-47259D01*
X66434Y-47259D01*
X66471Y-47278D01*
X66490Y-47296D01*
X66509Y-47334D01*
X66509Y-47409D01*
X66490Y-47446D01*
X66471Y-47465D01*
X66434Y-47484D01*
X66340Y-47484D01*
X66303Y-47465D01*
X66284Y-47446D01*
X66265Y-47409D01*
X66265Y-47334D01*
X66284Y-47296D01*
X66303Y-47278D01*
X66340Y-47259D01*
X55940Y-47471D02*
X55959Y-47490D01*
X56015Y-47509D01*
X56053Y-47509D01*
X56109Y-47490D01*
X56146Y-47453D01*
X56165Y-47415D01*
X56184Y-47340D01*
X56184Y-47284D01*
X56165Y-47209D01*
X56146Y-47171D01*
X56109Y-47134D01*
X56053Y-47115D01*
X56015Y-47115D01*
X55959Y-47134D01*
X55940Y-47153D01*
X55809Y-47115D02*
X55565Y-47115D01*
X55696Y-47265D01*
X55640Y-47265D01*
X55603Y-47284D01*
X55584Y-47303D01*
X55565Y-47340D01*
X55565Y-47434D01*
X55584Y-47471D01*
X55603Y-47490D01*
X55640Y-47509D01*
X55753Y-47509D01*
X55790Y-47490D01*
X55809Y-47471D01*
X55321Y-47115D02*
X55284Y-47115D01*
X55246Y-47134D01*
X55228Y-47153D01*
X55209Y-47190D01*
X55190Y-47265D01*
X55190Y-47359D01*
X55209Y-47434D01*
X55228Y-47471D01*
X55246Y-47490D01*
X55284Y-47509D01*
X55321Y-47509D01*
X55359Y-47490D01*
X55378Y-47471D01*
X55396Y-47434D01*
X55415Y-47359D01*
X55415Y-47265D01*
X55396Y-47190D01*
X55378Y-47153D01*
X55359Y-47134D01*
X55321Y-47115D01*
X54815Y-47509D02*
X55040Y-47509D01*
X54928Y-47509D02*
X54928Y-47115D01*
X54965Y-47171D01*
X55003Y-47209D01*
X55040Y-47228D01*
X57840Y-52421D02*
X57859Y-52440D01*
X57915Y-52459D01*
X57953Y-52459D01*
X58009Y-52440D01*
X58046Y-52403D01*
X58065Y-52365D01*
X58084Y-52290D01*
X58084Y-52234D01*
X58065Y-52159D01*
X58046Y-52121D01*
X58009Y-52084D01*
X57953Y-52065D01*
X57915Y-52065D01*
X57859Y-52084D01*
X57840Y-52103D01*
X57709Y-52065D02*
X57465Y-52065D01*
X57596Y-52215D01*
X57540Y-52215D01*
X57503Y-52234D01*
X57484Y-52253D01*
X57465Y-52290D01*
X57465Y-52384D01*
X57484Y-52421D01*
X57503Y-52440D01*
X57540Y-52459D01*
X57653Y-52459D01*
X57690Y-52440D01*
X57709Y-52421D01*
X57315Y-52103D02*
X57296Y-52084D01*
X57259Y-52065D01*
X57165Y-52065D01*
X57128Y-52084D01*
X57109Y-52103D01*
X57090Y-52140D01*
X57090Y-52178D01*
X57109Y-52234D01*
X57334Y-52459D01*
X57090Y-52459D01*
X56846Y-52065D02*
X56809Y-52065D01*
X56771Y-52084D01*
X56753Y-52103D01*
X56734Y-52140D01*
X56715Y-52215D01*
X56715Y-52309D01*
X56734Y-52384D01*
X56753Y-52421D01*
X56771Y-52440D01*
X56809Y-52459D01*
X56846Y-52459D01*
X56884Y-52440D01*
X56903Y-52421D01*
X56921Y-52384D01*
X56940Y-52309D01*
X56940Y-52215D01*
X56921Y-52140D01*
X56903Y-52103D01*
X56884Y-52084D01*
X56846Y-52065D01*
X55940Y-45671D02*
X55959Y-45690D01*
X56015Y-45709D01*
X56053Y-45709D01*
X56109Y-45690D01*
X56146Y-45653D01*
X56165Y-45615D01*
X56184Y-45540D01*
X56184Y-45484D01*
X56165Y-45409D01*
X56146Y-45371D01*
X56109Y-45334D01*
X56053Y-45315D01*
X56015Y-45315D01*
X55959Y-45334D01*
X55940Y-45353D01*
X55809Y-45315D02*
X55565Y-45315D01*
X55696Y-45465D01*
X55640Y-45465D01*
X55603Y-45484D01*
X55584Y-45503D01*
X55565Y-45540D01*
X55565Y-45634D01*
X55584Y-45671D01*
X55603Y-45690D01*
X55640Y-45709D01*
X55753Y-45709D01*
X55790Y-45690D01*
X55809Y-45671D01*
X55321Y-45315D02*
X55284Y-45315D01*
X55246Y-45334D01*
X55228Y-45353D01*
X55209Y-45390D01*
X55190Y-45465D01*
X55190Y-45559D01*
X55209Y-45634D01*
X55228Y-45671D01*
X55246Y-45690D01*
X55284Y-45709D01*
X55321Y-45709D01*
X55359Y-45690D01*
X55378Y-45671D01*
X55396Y-45634D01*
X55415Y-45559D01*
X55415Y-45465D01*
X55396Y-45390D01*
X55378Y-45353D01*
X55359Y-45334D01*
X55321Y-45315D01*
X55059Y-45315D02*
X54796Y-45315D01*
X54965Y-45709D01*
X59640Y-46471D02*
X59659Y-46490D01*
X59715Y-46509D01*
X59753Y-46509D01*
X59809Y-46490D01*
X59846Y-46453D01*
X59865Y-46415D01*
X59884Y-46340D01*
X59884Y-46284D01*
X59865Y-46209D01*
X59846Y-46171D01*
X59809Y-46134D01*
X59753Y-46115D01*
X59715Y-46115D01*
X59659Y-46134D01*
X59640Y-46153D01*
X59509Y-46115D02*
X59265Y-46115D01*
X59396Y-46265D01*
X59340Y-46265D01*
X59303Y-46284D01*
X59284Y-46303D01*
X59265Y-46340D01*
X59265Y-46434D01*
X59284Y-46471D01*
X59303Y-46490D01*
X59340Y-46509D01*
X59453Y-46509D01*
X59490Y-46490D01*
X59509Y-46471D01*
X58890Y-46509D02*
X59115Y-46509D01*
X59003Y-46509D02*
X59003Y-46115D01*
X59040Y-46171D01*
X59078Y-46209D01*
X59115Y-46228D01*
X58740Y-46153D02*
X58721Y-46134D01*
X58684Y-46115D01*
X58590Y-46115D01*
X58553Y-46134D01*
X58534Y-46153D01*
X58515Y-46190D01*
X58515Y-46228D01*
X58534Y-46284D01*
X58759Y-46509D01*
X58515Y-46509D01*
X49471Y-31459D02*
X49490Y-31440D01*
X49509Y-31384D01*
X49509Y-31346D01*
X49490Y-31290D01*
X49453Y-31253D01*
X49415Y-31234D01*
X49340Y-31215D01*
X49284Y-31215D01*
X49209Y-31234D01*
X49171Y-31253D01*
X49134Y-31290D01*
X49115Y-31346D01*
X49115Y-31384D01*
X49134Y-31440D01*
X49153Y-31459D01*
X49284Y-31684D02*
X49265Y-31646D01*
X49246Y-31628D01*
X49209Y-31609D01*
X49190Y-31609D01*
X49153Y-31628D01*
X49134Y-31646D01*
X49115Y-31684D01*
X49115Y-31759D01*
X49134Y-31796D01*
X49153Y-31815D01*
X49190Y-31834D01*
X49209Y-31834D01*
X49246Y-31815D01*
X49265Y-31796D01*
X49284Y-31759D01*
X49284Y-31684D01*
X49303Y-31646D01*
X49321Y-31628D01*
X49359Y-31609D01*
X49434Y-31609D01*
X49471Y-31628D01*
X49490Y-31646D01*
X49509Y-31684D01*
X49509Y-31759D01*
X49490Y-31796D01*
X49471Y-31815D01*
X49434Y-31834D01*
X49359Y-31834D01*
X49321Y-31815D01*
X49303Y-31796D01*
X49284Y-31759D01*
X49509Y-32209D02*
X49509Y-31984D01*
X49509Y-32096D02*
X49115Y-32096D01*
X49171Y-32059D01*
X49209Y-32021D01*
X49228Y-31984D01*
X49115Y-32565D02*
X49115Y-32378D01*
X49303Y-32359D01*
X49284Y-32378D01*
X49265Y-32415D01*
X49265Y-32509D01*
X49284Y-32546D01*
X49303Y-32565D01*
X49340Y-32584D01*
X49434Y-32584D01*
X49471Y-32565D01*
X49490Y-32546D01*
X49509Y-32509D01*
X49509Y-32415D01*
X49490Y-32378D01*
X49471Y-32359D01*
X59690Y-45821D02*
X59709Y-45840D01*
X59765Y-45859D01*
X59803Y-45859D01*
X59859Y-45840D01*
X59896Y-45803D01*
X59915Y-45765D01*
X59934Y-45690D01*
X59934Y-45634D01*
X59915Y-45559D01*
X59896Y-45521D01*
X59859Y-45484D01*
X59803Y-45465D01*
X59765Y-45465D01*
X59709Y-45484D01*
X59690Y-45503D01*
X59559Y-45465D02*
X59315Y-45465D01*
X59446Y-45615D01*
X59390Y-45615D01*
X59353Y-45634D01*
X59334Y-45653D01*
X59315Y-45690D01*
X59315Y-45784D01*
X59334Y-45821D01*
X59353Y-45840D01*
X59390Y-45859D01*
X59503Y-45859D01*
X59540Y-45840D01*
X59559Y-45821D01*
X58940Y-45859D02*
X59165Y-45859D01*
X59053Y-45859D02*
X59053Y-45465D01*
X59090Y-45521D01*
X59128Y-45559D01*
X59165Y-45578D01*
X58603Y-45596D02*
X58603Y-45859D01*
X58696Y-45446D02*
X58790Y-45728D01*
X58546Y-45728D01*
X62091Y-44559D02*
X62110Y-44540D01*
X62129Y-44484D01*
X62129Y-44446D01*
X62110Y-44390D01*
X62073Y-44353D01*
X62035Y-44334D01*
X61960Y-44315D01*
X61904Y-44315D01*
X61829Y-44334D01*
X61791Y-44353D01*
X61754Y-44390D01*
X61735Y-44446D01*
X61735Y-44484D01*
X61754Y-44540D01*
X61773Y-44559D01*
X61735Y-44915D02*
X61735Y-44728D01*
X61923Y-44709D01*
X61904Y-44728D01*
X61885Y-44765D01*
X61885Y-44859D01*
X61904Y-44896D01*
X61923Y-44915D01*
X61960Y-44934D01*
X62054Y-44934D01*
X62091Y-44915D01*
X62110Y-44896D01*
X62129Y-44859D01*
X62129Y-44765D01*
X62110Y-44728D01*
X62091Y-44709D01*
X62129Y-45309D02*
X62129Y-45084D01*
X62129Y-45196D02*
X61735Y-45196D01*
X61791Y-45159D01*
X61829Y-45121D01*
X61848Y-45084D01*
X61735Y-45553D02*
X61735Y-45590D01*
X61754Y-45628D01*
X61773Y-45646D01*
X61810Y-45665D01*
X61885Y-45684D01*
X61979Y-45684D01*
X62054Y-45665D01*
X62091Y-45646D01*
X62110Y-45628D01*
X62129Y-45590D01*
X62129Y-45553D01*
X62110Y-45515D01*
X62091Y-45496D01*
X62054Y-45478D01*
X61979Y-45459D01*
X61885Y-45459D01*
X61810Y-45478D01*
X61773Y-45496D01*
X61754Y-45515D01*
X61735Y-45553D01*
X63471Y-41509D02*
X63490Y-41490D01*
X63509Y-41434D01*
X63509Y-41396D01*
X63490Y-41340D01*
X63453Y-41303D01*
X63415Y-41284D01*
X63340Y-41265D01*
X63284Y-41265D01*
X63209Y-41284D01*
X63171Y-41303D01*
X63134Y-41340D01*
X63115Y-41396D01*
X63115Y-41434D01*
X63134Y-41490D01*
X63153Y-41509D01*
X63115Y-41865D02*
X63115Y-41678D01*
X63303Y-41659D01*
X63284Y-41678D01*
X63265Y-41715D01*
X63265Y-41809D01*
X63284Y-41846D01*
X63303Y-41865D01*
X63340Y-41884D01*
X63434Y-41884D01*
X63471Y-41865D01*
X63490Y-41846D01*
X63509Y-41809D01*
X63509Y-41715D01*
X63490Y-41678D01*
X63471Y-41659D01*
X63115Y-42128D02*
X63115Y-42165D01*
X63134Y-42203D01*
X63153Y-42221D01*
X63190Y-42240D01*
X63265Y-42259D01*
X63359Y-42259D01*
X63434Y-42240D01*
X63471Y-42221D01*
X63490Y-42203D01*
X63509Y-42165D01*
X63509Y-42128D01*
X63490Y-42090D01*
X63471Y-42071D01*
X63434Y-42053D01*
X63359Y-42034D01*
X63265Y-42034D01*
X63190Y-42053D01*
X63153Y-42071D01*
X63134Y-42090D01*
X63115Y-42128D01*
X63509Y-42446D02*
X63509Y-42521D01*
X63490Y-42559D01*
X63471Y-42578D01*
X63415Y-42615D01*
X63340Y-42634D01*
X63190Y-42634D01*
X63153Y-42615D01*
X63134Y-42596D01*
X63115Y-42559D01*
X63115Y-42484D01*
X63134Y-42446D01*
X63153Y-42428D01*
X63190Y-42409D01*
X63284Y-42409D01*
X63321Y-42428D01*
X63340Y-42446D01*
X63359Y-42484D01*
X63359Y-42559D01*
X63340Y-42596D01*
X63321Y-42615D01*
X63284Y-42634D01*
X63840Y-36551D02*
X63859Y-36570D01*
X63915Y-36589D01*
X63953Y-36589D01*
X64009Y-36570D01*
X64046Y-36533D01*
X64065Y-36495D01*
X64084Y-36420D01*
X64084Y-36364D01*
X64065Y-36289D01*
X64046Y-36251D01*
X64009Y-36214D01*
X63953Y-36195D01*
X63915Y-36195D01*
X63859Y-36214D01*
X63840Y-36233D01*
X63503Y-36195D02*
X63578Y-36195D01*
X63615Y-36214D01*
X63634Y-36233D01*
X63671Y-36289D01*
X63690Y-36364D01*
X63690Y-36514D01*
X63671Y-36551D01*
X63653Y-36570D01*
X63615Y-36589D01*
X63540Y-36589D01*
X63503Y-36570D01*
X63484Y-36551D01*
X63465Y-36514D01*
X63465Y-36420D01*
X63484Y-36383D01*
X63503Y-36364D01*
X63540Y-36345D01*
X63615Y-36345D01*
X63653Y-36364D01*
X63671Y-36383D01*
X63690Y-36420D01*
X63221Y-36195D02*
X63184Y-36195D01*
X63146Y-36214D01*
X63128Y-36233D01*
X63109Y-36270D01*
X63090Y-36345D01*
X63090Y-36439D01*
X63109Y-36514D01*
X63128Y-36551D01*
X63146Y-36570D01*
X63184Y-36589D01*
X63221Y-36589D01*
X63259Y-36570D01*
X63278Y-36551D01*
X63296Y-36514D01*
X63315Y-36439D01*
X63315Y-36345D01*
X63296Y-36270D01*
X63278Y-36233D01*
X63259Y-36214D01*
X63221Y-36195D01*
X62715Y-36589D02*
X62940Y-36589D01*
X62828Y-36589D02*
X62828Y-36195D01*
X62865Y-36251D01*
X62903Y-36289D01*
X62940Y-36308D01*
X66951Y-37659D02*
X66970Y-37640D01*
X66989Y-37584D01*
X66989Y-37546D01*
X66970Y-37490D01*
X66933Y-37453D01*
X66895Y-37434D01*
X66820Y-37415D01*
X66764Y-37415D01*
X66689Y-37434D01*
X66651Y-37453D01*
X66614Y-37490D01*
X66595Y-37546D01*
X66595Y-37584D01*
X66614Y-37640D01*
X66633Y-37659D01*
X66595Y-37996D02*
X66595Y-37921D01*
X66614Y-37884D01*
X66633Y-37865D01*
X66689Y-37828D01*
X66764Y-37809D01*
X66914Y-37809D01*
X66951Y-37828D01*
X66970Y-37846D01*
X66989Y-37884D01*
X66989Y-37959D01*
X66970Y-37996D01*
X66951Y-38015D01*
X66914Y-38034D01*
X66820Y-38034D01*
X66783Y-38015D01*
X66764Y-37996D01*
X66745Y-37959D01*
X66745Y-37884D01*
X66764Y-37846D01*
X66783Y-37828D01*
X66820Y-37809D01*
X66595Y-38278D02*
X66595Y-38315D01*
X66614Y-38353D01*
X66633Y-38371D01*
X66670Y-38390D01*
X66745Y-38409D01*
X66839Y-38409D01*
X66914Y-38390D01*
X66951Y-38371D01*
X66970Y-38353D01*
X66989Y-38315D01*
X66989Y-38278D01*
X66970Y-38240D01*
X66951Y-38221D01*
X66914Y-38203D01*
X66839Y-38184D01*
X66745Y-38184D01*
X66670Y-38203D01*
X66633Y-38221D01*
X66614Y-38240D01*
X66595Y-38278D01*
X66726Y-38746D02*
X66989Y-38746D01*
X66576Y-38653D02*
X66858Y-38559D01*
X66858Y-38803D01*
X64071Y-37659D02*
X64090Y-37640D01*
X64109Y-37584D01*
X64109Y-37546D01*
X64090Y-37490D01*
X64053Y-37453D01*
X64015Y-37434D01*
X63940Y-37415D01*
X63884Y-37415D01*
X63809Y-37434D01*
X63771Y-37453D01*
X63734Y-37490D01*
X63715Y-37546D01*
X63715Y-37584D01*
X63734Y-37640D01*
X63753Y-37659D01*
X63715Y-37996D02*
X63715Y-37921D01*
X63734Y-37884D01*
X63753Y-37865D01*
X63809Y-37828D01*
X63884Y-37809D01*
X64034Y-37809D01*
X64071Y-37828D01*
X64090Y-37846D01*
X64109Y-37884D01*
X64109Y-37959D01*
X64090Y-37996D01*
X64071Y-38015D01*
X64034Y-38034D01*
X63940Y-38034D01*
X63903Y-38015D01*
X63884Y-37996D01*
X63865Y-37959D01*
X63865Y-37884D01*
X63884Y-37846D01*
X63903Y-37828D01*
X63940Y-37809D01*
X63715Y-38278D02*
X63715Y-38315D01*
X63734Y-38353D01*
X63753Y-38371D01*
X63790Y-38390D01*
X63865Y-38409D01*
X63959Y-38409D01*
X64034Y-38390D01*
X64071Y-38371D01*
X64090Y-38353D01*
X64109Y-38315D01*
X64109Y-38278D01*
X64090Y-38240D01*
X64071Y-38221D01*
X64034Y-38203D01*
X63959Y-38184D01*
X63865Y-38184D01*
X63790Y-38203D01*
X63753Y-38221D01*
X63734Y-38240D01*
X63715Y-38278D01*
X63715Y-38540D02*
X63715Y-38803D01*
X64109Y-38634D01*
X63590Y-39921D02*
X63609Y-39940D01*
X63665Y-39959D01*
X63703Y-39959D01*
X63759Y-39940D01*
X63796Y-39903D01*
X63815Y-39865D01*
X63834Y-39790D01*
X63834Y-39734D01*
X63815Y-39659D01*
X63796Y-39621D01*
X63759Y-39584D01*
X63703Y-39565D01*
X63665Y-39565D01*
X63609Y-39584D01*
X63590Y-39603D01*
X63253Y-39565D02*
X63328Y-39565D01*
X63365Y-39584D01*
X63384Y-39603D01*
X63421Y-39659D01*
X63440Y-39734D01*
X63440Y-39884D01*
X63421Y-39921D01*
X63403Y-39940D01*
X63365Y-39959D01*
X63290Y-39959D01*
X63253Y-39940D01*
X63234Y-39921D01*
X63215Y-39884D01*
X63215Y-39790D01*
X63234Y-39753D01*
X63253Y-39734D01*
X63290Y-39715D01*
X63365Y-39715D01*
X63403Y-39734D01*
X63421Y-39753D01*
X63440Y-39790D01*
X62971Y-39565D02*
X62934Y-39565D01*
X62896Y-39584D01*
X62878Y-39603D01*
X62859Y-39640D01*
X62840Y-39715D01*
X62840Y-39809D01*
X62859Y-39884D01*
X62878Y-39921D01*
X62896Y-39940D01*
X62934Y-39959D01*
X62971Y-39959D01*
X63009Y-39940D01*
X63028Y-39921D01*
X63046Y-39884D01*
X63065Y-39809D01*
X63065Y-39715D01*
X63046Y-39640D01*
X63028Y-39603D01*
X63009Y-39584D01*
X62971Y-39565D01*
X62690Y-39603D02*
X62671Y-39584D01*
X62634Y-39565D01*
X62540Y-39565D01*
X62503Y-39584D01*
X62484Y-39603D01*
X62465Y-39640D01*
X62465Y-39678D01*
X62484Y-39734D01*
X62709Y-39959D01*
X62465Y-39959D01*
X68590Y-47971D02*
X68609Y-47990D01*
X68665Y-48009D01*
X68703Y-48009D01*
X68759Y-47990D01*
X68796Y-47953D01*
X68815Y-47915D01*
X68834Y-47840D01*
X68834Y-47784D01*
X68815Y-47709D01*
X68796Y-47671D01*
X68759Y-47634D01*
X68703Y-47615D01*
X68665Y-47615D01*
X68609Y-47634D01*
X68590Y-47653D01*
X68253Y-47746D02*
X68253Y-48009D01*
X68346Y-47596D02*
X68440Y-47878D01*
X68196Y-47878D01*
X67971Y-47615D02*
X67934Y-47615D01*
X67896Y-47634D01*
X67878Y-47653D01*
X67859Y-47690D01*
X67840Y-47765D01*
X67840Y-47859D01*
X67859Y-47934D01*
X67878Y-47971D01*
X67896Y-47990D01*
X67934Y-48009D01*
X67971Y-48009D01*
X68009Y-47990D01*
X68028Y-47971D01*
X68046Y-47934D01*
X68065Y-47859D01*
X68065Y-47765D01*
X68046Y-47690D01*
X68028Y-47653D01*
X68009Y-47634D01*
X67971Y-47615D01*
X67690Y-47653D02*
X67671Y-47634D01*
X67634Y-47615D01*
X67540Y-47615D01*
X67503Y-47634D01*
X67484Y-47653D01*
X67465Y-47690D01*
X67465Y-47728D01*
X67484Y-47784D01*
X67709Y-48009D01*
X67465Y-48009D01*
X65840Y-29371D02*
X65859Y-29390D01*
X65915Y-29409D01*
X65953Y-29409D01*
X66009Y-29390D01*
X66046Y-29353D01*
X66065Y-29315D01*
X66084Y-29240D01*
X66084Y-29184D01*
X66065Y-29109D01*
X66046Y-29071D01*
X66009Y-29034D01*
X65953Y-29015D01*
X65915Y-29015D01*
X65859Y-29034D01*
X65840Y-29053D01*
X65709Y-29015D02*
X65446Y-29015D01*
X65615Y-29409D01*
X65221Y-29015D02*
X65184Y-29015D01*
X65146Y-29034D01*
X65128Y-29053D01*
X65109Y-29090D01*
X65090Y-29165D01*
X65090Y-29259D01*
X65109Y-29334D01*
X65128Y-29371D01*
X65146Y-29390D01*
X65184Y-29409D01*
X65221Y-29409D01*
X65259Y-29390D01*
X65278Y-29371D01*
X65296Y-29334D01*
X65315Y-29259D01*
X65315Y-29165D01*
X65296Y-29090D01*
X65278Y-29053D01*
X65259Y-29034D01*
X65221Y-29015D01*
X64753Y-29015D02*
X64828Y-29015D01*
X64865Y-29034D01*
X64884Y-29053D01*
X64921Y-29109D01*
X64940Y-29184D01*
X64940Y-29334D01*
X64921Y-29371D01*
X64903Y-29390D01*
X64865Y-29409D01*
X64790Y-29409D01*
X64753Y-29390D01*
X64734Y-29371D01*
X64715Y-29334D01*
X64715Y-29240D01*
X64734Y-29203D01*
X64753Y-29184D01*
X64790Y-29165D01*
X64865Y-29165D01*
X64903Y-29184D01*
X64921Y-29203D01*
X64940Y-29240D01*
X65290Y-49571D02*
X65309Y-49590D01*
X65365Y-49609D01*
X65403Y-49609D01*
X65459Y-49590D01*
X65496Y-49553D01*
X65515Y-49515D01*
X65534Y-49440D01*
X65534Y-49384D01*
X65515Y-49309D01*
X65496Y-49271D01*
X65459Y-49234D01*
X65403Y-49215D01*
X65365Y-49215D01*
X65309Y-49234D01*
X65290Y-49253D01*
X64953Y-49346D02*
X64953Y-49609D01*
X65046Y-49196D02*
X65140Y-49478D01*
X64896Y-49478D01*
X64671Y-49215D02*
X64634Y-49215D01*
X64596Y-49234D01*
X64578Y-49253D01*
X64559Y-49290D01*
X64540Y-49365D01*
X64540Y-49459D01*
X64559Y-49534D01*
X64578Y-49571D01*
X64596Y-49590D01*
X64634Y-49609D01*
X64671Y-49609D01*
X64709Y-49590D01*
X64728Y-49571D01*
X64746Y-49534D01*
X64765Y-49459D01*
X64765Y-49365D01*
X64746Y-49290D01*
X64728Y-49253D01*
X64709Y-49234D01*
X64671Y-49215D01*
X64203Y-49346D02*
X64203Y-49609D01*
X64296Y-49196D02*
X64390Y-49478D01*
X64146Y-49478D01*
X66591Y-51559D02*
X66610Y-51540D01*
X66629Y-51484D01*
X66629Y-51446D01*
X66610Y-51390D01*
X66573Y-51353D01*
X66535Y-51334D01*
X66460Y-51315D01*
X66404Y-51315D01*
X66329Y-51334D01*
X66291Y-51353D01*
X66254Y-51390D01*
X66235Y-51446D01*
X66235Y-51484D01*
X66254Y-51540D01*
X66273Y-51559D01*
X66366Y-51896D02*
X66629Y-51896D01*
X66216Y-51803D02*
X66498Y-51709D01*
X66498Y-51953D01*
X66235Y-52178D02*
X66235Y-52215D01*
X66254Y-52253D01*
X66273Y-52271D01*
X66310Y-52290D01*
X66385Y-52309D01*
X66479Y-52309D01*
X66554Y-52290D01*
X66591Y-52271D01*
X66610Y-52253D01*
X66629Y-52215D01*
X66629Y-52178D01*
X66610Y-52140D01*
X66591Y-52121D01*
X66554Y-52103D01*
X66479Y-52084D01*
X66385Y-52084D01*
X66310Y-52103D01*
X66273Y-52121D01*
X66254Y-52140D01*
X66235Y-52178D01*
X66629Y-52684D02*
X66629Y-52459D01*
X66629Y-52571D02*
X66235Y-52571D01*
X66291Y-52534D01*
X66329Y-52496D01*
X66348Y-52459D01*
X65840Y-35151D02*
X65859Y-35170D01*
X65915Y-35189D01*
X65953Y-35189D01*
X66009Y-35170D01*
X66046Y-35133D01*
X66065Y-35095D01*
X66084Y-35020D01*
X66084Y-34964D01*
X66065Y-34889D01*
X66046Y-34851D01*
X66009Y-34814D01*
X65953Y-34795D01*
X65915Y-34795D01*
X65859Y-34814D01*
X65840Y-34833D01*
X65709Y-34795D02*
X65446Y-34795D01*
X65615Y-35189D01*
X65221Y-34795D02*
X65184Y-34795D01*
X65146Y-34814D01*
X65128Y-34833D01*
X65109Y-34870D01*
X65090Y-34945D01*
X65090Y-35039D01*
X65109Y-35114D01*
X65128Y-35151D01*
X65146Y-35170D01*
X65184Y-35189D01*
X65221Y-35189D01*
X65259Y-35170D01*
X65278Y-35151D01*
X65296Y-35114D01*
X65315Y-35039D01*
X65315Y-34945D01*
X65296Y-34870D01*
X65278Y-34833D01*
X65259Y-34814D01*
X65221Y-34795D01*
X64734Y-34795D02*
X64921Y-34795D01*
X64940Y-34983D01*
X64921Y-34964D01*
X64884Y-34945D01*
X64790Y-34945D01*
X64753Y-34964D01*
X64734Y-34983D01*
X64715Y-35020D01*
X64715Y-35114D01*
X64734Y-35151D01*
X64753Y-35170D01*
X64790Y-35189D01*
X64884Y-35189D01*
X64921Y-35170D01*
X64940Y-35151D01*
X66821Y-49959D02*
X66840Y-49940D01*
X66859Y-49884D01*
X66859Y-49846D01*
X66840Y-49790D01*
X66803Y-49753D01*
X66765Y-49734D01*
X66690Y-49715D01*
X66634Y-49715D01*
X66559Y-49734D01*
X66521Y-49753D01*
X66484Y-49790D01*
X66465Y-49846D01*
X66465Y-49884D01*
X66484Y-49940D01*
X66503Y-49959D01*
X66596Y-50296D02*
X66859Y-50296D01*
X66446Y-50203D02*
X66728Y-50109D01*
X66728Y-50353D01*
X66465Y-50578D02*
X66465Y-50615D01*
X66484Y-50653D01*
X66503Y-50671D01*
X66540Y-50690D01*
X66615Y-50709D01*
X66709Y-50709D01*
X66784Y-50690D01*
X66821Y-50671D01*
X66840Y-50653D01*
X66859Y-50615D01*
X66859Y-50578D01*
X66840Y-50540D01*
X66821Y-50521D01*
X66784Y-50503D01*
X66709Y-50484D01*
X66615Y-50484D01*
X66540Y-50503D01*
X66503Y-50521D01*
X66484Y-50540D01*
X66465Y-50578D01*
X66634Y-50934D02*
X66615Y-50896D01*
X66596Y-50878D01*
X66559Y-50859D01*
X66540Y-50859D01*
X66503Y-50878D01*
X66484Y-50896D01*
X66465Y-50934D01*
X66465Y-51009D01*
X66484Y-51046D01*
X66503Y-51065D01*
X66540Y-51084D01*
X66559Y-51084D01*
X66596Y-51065D01*
X66615Y-51046D01*
X66634Y-51009D01*
X66634Y-50934D01*
X66653Y-50896D01*
X66671Y-50878D01*
X66709Y-50859D01*
X66784Y-50859D01*
X66821Y-50878D01*
X66840Y-50896D01*
X66859Y-50934D01*
X66859Y-51009D01*
X66840Y-51046D01*
X66821Y-51065D01*
X66784Y-51084D01*
X66709Y-51084D01*
X66671Y-51065D01*
X66653Y-51046D01*
X66634Y-51009D01*
X41915Y-34946D02*
X41934Y-34965D01*
X41990Y-34984D01*
X42028Y-34984D01*
X42084Y-34965D01*
X42121Y-34928D01*
X42140Y-34890D01*
X42159Y-34815D01*
X42159Y-34759D01*
X42140Y-34684D01*
X42121Y-34646D01*
X42084Y-34609D01*
X42028Y-34590D01*
X41990Y-34590D01*
X41934Y-34609D01*
X41915Y-34628D01*
X41690Y-34759D02*
X41728Y-34740D01*
X41746Y-34721D01*
X41765Y-34684D01*
X41765Y-34665D01*
X41746Y-34628D01*
X41728Y-34609D01*
X41690Y-34590D01*
X41615Y-34590D01*
X41578Y-34609D01*
X41559Y-34628D01*
X41540Y-34665D01*
X41540Y-34684D01*
X41559Y-34721D01*
X41578Y-34740D01*
X41615Y-34759D01*
X41690Y-34759D01*
X41728Y-34778D01*
X41746Y-34796D01*
X41765Y-34834D01*
X41765Y-34909D01*
X41746Y-34946D01*
X41728Y-34965D01*
X41690Y-34984D01*
X41615Y-34984D01*
X41578Y-34965D01*
X41559Y-34946D01*
X41540Y-34909D01*
X41540Y-34834D01*
X41559Y-34796D01*
X41578Y-34778D01*
X41615Y-34759D01*
X41296Y-34590D02*
X41259Y-34590D01*
X41221Y-34609D01*
X41203Y-34628D01*
X41184Y-34665D01*
X41165Y-34740D01*
X41165Y-34834D01*
X41184Y-34909D01*
X41203Y-34946D01*
X41221Y-34965D01*
X41259Y-34984D01*
X41296Y-34984D01*
X41334Y-34965D01*
X41353Y-34946D01*
X41371Y-34909D01*
X41390Y-34834D01*
X41390Y-34740D01*
X41371Y-34665D01*
X41353Y-34628D01*
X41334Y-34609D01*
X41296Y-34590D01*
X41034Y-34590D02*
X40771Y-34590D01*
X40940Y-34984D01*
X58240Y-42121D02*
X58259Y-42140D01*
X58315Y-42159D01*
X58353Y-42159D01*
X58409Y-42140D01*
X58446Y-42103D01*
X58465Y-42065D01*
X58484Y-41990D01*
X58484Y-41934D01*
X58465Y-41859D01*
X58446Y-41821D01*
X58409Y-41784D01*
X58353Y-41765D01*
X58315Y-41765D01*
X58259Y-41784D01*
X58240Y-41803D01*
X58109Y-41765D02*
X57865Y-41765D01*
X57996Y-41915D01*
X57940Y-41915D01*
X57903Y-41934D01*
X57884Y-41953D01*
X57865Y-41990D01*
X57865Y-42084D01*
X57884Y-42121D01*
X57903Y-42140D01*
X57940Y-42159D01*
X58053Y-42159D01*
X58090Y-42140D01*
X58109Y-42121D01*
X57490Y-42159D02*
X57715Y-42159D01*
X57603Y-42159D02*
X57603Y-41765D01*
X57640Y-41821D01*
X57678Y-41859D01*
X57715Y-41878D01*
X57134Y-41765D02*
X57321Y-41765D01*
X57340Y-41953D01*
X57321Y-41934D01*
X57284Y-41915D01*
X57190Y-41915D01*
X57153Y-41934D01*
X57134Y-41953D01*
X57115Y-41990D01*
X57115Y-42084D01*
X57134Y-42121D01*
X57153Y-42140D01*
X57190Y-42159D01*
X57284Y-42159D01*
X57321Y-42140D01*
X57340Y-42121D01*
X53903Y-47346D02*
X53903Y-47215D01*
X54109Y-47215D02*
X53715Y-47215D01*
X53715Y-47403D01*
X53903Y-47684D02*
X53921Y-47740D01*
X53940Y-47759D01*
X53978Y-47778D01*
X54034Y-47778D01*
X54071Y-47759D01*
X54090Y-47740D01*
X54109Y-47703D01*
X54109Y-47553D01*
X53715Y-47553D01*
X53715Y-47684D01*
X53734Y-47721D01*
X53753Y-47740D01*
X53790Y-47759D01*
X53828Y-47759D01*
X53865Y-47740D01*
X53884Y-47721D01*
X53903Y-47684D01*
X53903Y-47553D01*
X53715Y-47909D02*
X53715Y-48153D01*
X53865Y-48021D01*
X53865Y-48078D01*
X53884Y-48115D01*
X53903Y-48134D01*
X53940Y-48153D01*
X54034Y-48153D01*
X54071Y-48134D01*
X54090Y-48115D01*
X54109Y-48078D01*
X54109Y-47965D01*
X54090Y-47928D01*
X54071Y-47909D01*
X53715Y-48396D02*
X53715Y-48434D01*
X53734Y-48471D01*
X53753Y-48490D01*
X53790Y-48509D01*
X53865Y-48528D01*
X53959Y-48528D01*
X54034Y-48509D01*
X54071Y-48490D01*
X54090Y-48471D01*
X54109Y-48434D01*
X54109Y-48396D01*
X54090Y-48359D01*
X54071Y-48340D01*
X54034Y-48321D01*
X53959Y-48303D01*
X53865Y-48303D01*
X53790Y-48321D01*
X53753Y-48340D01*
X53734Y-48359D01*
X53715Y-48396D01*
X54109Y-48903D02*
X54109Y-48678D01*
X54109Y-48790D02*
X53715Y-48790D01*
X53771Y-48753D01*
X53809Y-48715D01*
X53828Y-48678D01*
X60453Y-37246D02*
X60453Y-37115D01*
X60659Y-37115D02*
X60265Y-37115D01*
X60265Y-37303D01*
X60453Y-37584D02*
X60471Y-37640D01*
X60490Y-37659D01*
X60528Y-37678D01*
X60584Y-37678D01*
X60621Y-37659D01*
X60640Y-37640D01*
X60659Y-37603D01*
X60659Y-37453D01*
X60265Y-37453D01*
X60265Y-37584D01*
X60284Y-37621D01*
X60303Y-37640D01*
X60340Y-37659D01*
X60378Y-37659D01*
X60415Y-37640D01*
X60434Y-37621D01*
X60453Y-37584D01*
X60453Y-37453D01*
X60265Y-38015D02*
X60265Y-37940D01*
X60284Y-37903D01*
X60303Y-37884D01*
X60359Y-37846D01*
X60434Y-37828D01*
X60584Y-37828D01*
X60621Y-37846D01*
X60640Y-37865D01*
X60659Y-37903D01*
X60659Y-37978D01*
X60640Y-38015D01*
X60621Y-38034D01*
X60584Y-38053D01*
X60490Y-38053D01*
X60453Y-38034D01*
X60434Y-38015D01*
X60415Y-37978D01*
X60415Y-37903D01*
X60434Y-37865D01*
X60453Y-37846D01*
X60490Y-37828D01*
X60265Y-38296D02*
X60265Y-38334D01*
X60284Y-38371D01*
X60303Y-38390D01*
X60340Y-38409D01*
X60415Y-38428D01*
X60509Y-38428D01*
X60584Y-38409D01*
X60621Y-38390D01*
X60640Y-38371D01*
X60659Y-38334D01*
X60659Y-38296D01*
X60640Y-38259D01*
X60621Y-38240D01*
X60584Y-38221D01*
X60509Y-38203D01*
X60415Y-38203D01*
X60340Y-38221D01*
X60303Y-38240D01*
X60284Y-38259D01*
X60265Y-38296D01*
X60659Y-38803D02*
X60659Y-38578D01*
X60659Y-38690D02*
X60265Y-38690D01*
X60321Y-38653D01*
X60359Y-38615D01*
X60378Y-38578D01*
X62003Y-51443D02*
X62134Y-51443D01*
X62134Y-51649D02*
X62134Y-51256D01*
X61946Y-51256D01*
X61665Y-51443D02*
X61609Y-51462D01*
X61590Y-51481D01*
X61571Y-51518D01*
X61571Y-51574D01*
X61590Y-51612D01*
X61609Y-51631D01*
X61646Y-51649D01*
X61796Y-51649D01*
X61796Y-51256D01*
X61665Y-51256D01*
X61628Y-51274D01*
X61609Y-51293D01*
X61590Y-51331D01*
X61590Y-51368D01*
X61609Y-51406D01*
X61628Y-51424D01*
X61665Y-51443D01*
X61796Y-51443D01*
X61234Y-51387D02*
X61234Y-51649D01*
X61328Y-51237D02*
X61421Y-51518D01*
X61178Y-51518D01*
X60953Y-51256D02*
X60915Y-51256D01*
X60878Y-51274D01*
X60859Y-51293D01*
X60840Y-51331D01*
X60821Y-51406D01*
X60821Y-51499D01*
X60840Y-51574D01*
X60859Y-51612D01*
X60878Y-51631D01*
X60915Y-51649D01*
X60953Y-51649D01*
X60990Y-51631D01*
X61009Y-51612D01*
X61028Y-51574D01*
X61046Y-51499D01*
X61046Y-51406D01*
X61028Y-51331D01*
X61009Y-51293D01*
X60990Y-51274D01*
X60953Y-51256D01*
X60446Y-51649D02*
X60671Y-51649D01*
X60559Y-51649D02*
X60559Y-51256D01*
X60596Y-51312D01*
X60634Y-51349D01*
X60671Y-51368D01*
X59553Y-47896D02*
X59553Y-47765D01*
X59759Y-47765D02*
X59365Y-47765D01*
X59365Y-47953D01*
X59553Y-48234D02*
X59571Y-48290D01*
X59590Y-48309D01*
X59628Y-48328D01*
X59684Y-48328D01*
X59721Y-48309D01*
X59740Y-48290D01*
X59759Y-48253D01*
X59759Y-48103D01*
X59365Y-48103D01*
X59365Y-48234D01*
X59384Y-48271D01*
X59403Y-48290D01*
X59440Y-48309D01*
X59478Y-48309D01*
X59515Y-48290D01*
X59534Y-48271D01*
X59553Y-48234D01*
X59553Y-48103D01*
X59365Y-48459D02*
X59365Y-48703D01*
X59515Y-48571D01*
X59515Y-48628D01*
X59534Y-48665D01*
X59553Y-48684D01*
X59590Y-48703D01*
X59684Y-48703D01*
X59721Y-48684D01*
X59740Y-48665D01*
X59759Y-48628D01*
X59759Y-48515D01*
X59740Y-48478D01*
X59721Y-48459D01*
X59365Y-48946D02*
X59365Y-48984D01*
X59384Y-49021D01*
X59403Y-49040D01*
X59440Y-49059D01*
X59515Y-49078D01*
X59609Y-49078D01*
X59684Y-49059D01*
X59721Y-49040D01*
X59740Y-49021D01*
X59759Y-48984D01*
X59759Y-48946D01*
X59740Y-48909D01*
X59721Y-48890D01*
X59684Y-48871D01*
X59609Y-48853D01*
X59515Y-48853D01*
X59440Y-48871D01*
X59403Y-48890D01*
X59384Y-48909D01*
X59365Y-48946D01*
X59403Y-49228D02*
X59384Y-49246D01*
X59365Y-49284D01*
X59365Y-49378D01*
X59384Y-49415D01*
X59403Y-49434D01*
X59440Y-49453D01*
X59478Y-49453D01*
X59534Y-49434D01*
X59759Y-49209D01*
X59759Y-49453D01*
M02*
