G04 (created by PCBNEW (2013-07-07 BZR 4022)-stable) date 5/10/2015 2:36:51 PM*
%MOIN*%
G04 Gerber Fmt 3.4, Leading zero omitted, Abs format*
%FSLAX34Y34*%
G01*
G70*
G90*
G04 APERTURE LIST*
%ADD10C,0.006*%
%ADD11C,0.01*%
%ADD12C,0.035*%
%ADD13R,0.065X0.065*%
%ADD14C,0.065*%
%ADD15R,0.055X0.055*%
%ADD16C,0.055*%
%ADD17C,0.224409*%
%ADD18C,0.015*%
G04 APERTURE END LIST*
G54D10*
G54D11*
X38000Y-28000D02*
X73000Y-28000D01*
X38000Y-55000D02*
X38000Y-28000D01*
X73000Y-55000D02*
X38000Y-55000D01*
X73000Y-28000D02*
X73000Y-55000D01*
G54D12*
X55800Y-49850D03*
X55800Y-49400D03*
X55800Y-50300D03*
X55800Y-50750D03*
X55800Y-51650D03*
X55800Y-51200D03*
X56300Y-51200D03*
X56300Y-51650D03*
X56300Y-50750D03*
X56300Y-50300D03*
X56400Y-47950D03*
X56400Y-47050D03*
X56400Y-47500D03*
X56400Y-46150D03*
X56400Y-45700D03*
X56400Y-46600D03*
X56900Y-45150D03*
X42700Y-48800D03*
X42700Y-49300D03*
X42700Y-49800D03*
X42200Y-49800D03*
X42200Y-49300D03*
X42200Y-48800D03*
X56600Y-36700D03*
X56600Y-36200D03*
X57950Y-31750D03*
X57250Y-31750D03*
X50650Y-37100D03*
X56100Y-38000D03*
X56900Y-39850D03*
X56900Y-39150D03*
X50900Y-33100D03*
X50900Y-33750D03*
X52050Y-32100D03*
X51450Y-32100D03*
X50900Y-32500D03*
X50900Y-30600D03*
X50900Y-31200D03*
X50900Y-31850D03*
G54D13*
X45400Y-51300D03*
G54D14*
X45400Y-50300D03*
X45400Y-49300D03*
X45400Y-48300D03*
X45400Y-47300D03*
X45400Y-46300D03*
X45400Y-45300D03*
X45400Y-44300D03*
X45400Y-43300D03*
X45400Y-42300D03*
X45400Y-41300D03*
X45400Y-40300D03*
X45400Y-39300D03*
X45400Y-38300D03*
X44400Y-38300D03*
X43400Y-38300D03*
X42400Y-38300D03*
X41400Y-38300D03*
X40400Y-38300D03*
X39400Y-38300D03*
X39400Y-39300D03*
X39400Y-40300D03*
X39400Y-41300D03*
X39400Y-42300D03*
X39400Y-43300D03*
X39400Y-44300D03*
X39400Y-45300D03*
X39400Y-46300D03*
X39400Y-47300D03*
X39400Y-48300D03*
X39400Y-49300D03*
X39400Y-50300D03*
X39400Y-51300D03*
G54D15*
X42800Y-29500D03*
G54D16*
X43800Y-29500D03*
X44800Y-29500D03*
G54D15*
X71500Y-38500D03*
G54D16*
X71500Y-37500D03*
X71500Y-36500D03*
G54D15*
X71500Y-31600D03*
G54D16*
X71500Y-32600D03*
X71500Y-33600D03*
G54D15*
X71500Y-43500D03*
G54D16*
X71500Y-44500D03*
X71500Y-45500D03*
G54D15*
X71500Y-51000D03*
G54D16*
X71500Y-50000D03*
X71500Y-49000D03*
G54D15*
X47000Y-29500D03*
G54D16*
X48000Y-29500D03*
G54D15*
X51600Y-29500D03*
G54D16*
X52600Y-29500D03*
G54D15*
X69000Y-34092D03*
G54D16*
X69000Y-33107D03*
G54D15*
X69000Y-52492D03*
G54D16*
X69000Y-51507D03*
G54D15*
X69000Y-48507D03*
G54D16*
X69000Y-49492D03*
G54D15*
X69000Y-43192D03*
G54D16*
X69000Y-42207D03*
G54D15*
X69000Y-45107D03*
G54D16*
X69000Y-46092D03*
G54D15*
X69000Y-30107D03*
G54D16*
X69000Y-31092D03*
G54D15*
X69000Y-39107D03*
G54D16*
X69000Y-40092D03*
G54D15*
X69000Y-37092D03*
G54D16*
X69000Y-36107D03*
G54D12*
X48300Y-40700D03*
X48300Y-40200D03*
X48300Y-41200D03*
X50500Y-40200D03*
X50500Y-40700D03*
X50500Y-41200D03*
X45800Y-33600D03*
X45800Y-34200D03*
X45800Y-34800D03*
X44600Y-36000D03*
X45800Y-33000D03*
X45800Y-32400D03*
X45200Y-35200D03*
X44600Y-35200D03*
X45200Y-36000D03*
X45800Y-35400D03*
X45800Y-31800D03*
X45800Y-36000D03*
X48700Y-33200D03*
X48350Y-33600D03*
X49000Y-33600D03*
X47750Y-34450D03*
X48300Y-35050D03*
X48300Y-35650D03*
X48300Y-34450D03*
X50400Y-35600D03*
X50400Y-35100D03*
X49800Y-34600D03*
X50400Y-34600D03*
X49800Y-36100D03*
X50400Y-36100D03*
X46000Y-37100D03*
X46600Y-36700D03*
X47200Y-37100D03*
X48650Y-47000D03*
X48100Y-47000D03*
G54D17*
X71500Y-29500D03*
X71500Y-53500D03*
X39500Y-53500D03*
X39500Y-29500D03*
G54D12*
X39100Y-33200D03*
X39100Y-32700D03*
X42300Y-32100D03*
X42800Y-32100D03*
X43300Y-32100D03*
X42300Y-31100D03*
X42300Y-31600D03*
X53700Y-30600D03*
X53700Y-31400D03*
X54900Y-38550D03*
X54900Y-38000D03*
X51650Y-38700D03*
X51650Y-39200D03*
X52100Y-40050D03*
X52550Y-40050D03*
X50100Y-46950D03*
X50650Y-46950D03*
X52850Y-46850D03*
X53400Y-47400D03*
X52850Y-47400D03*
X56550Y-33650D03*
X56050Y-33650D03*
X58700Y-33650D03*
X57700Y-37050D03*
X58250Y-37050D03*
X58800Y-37050D03*
X46100Y-38600D03*
X46600Y-38600D03*
X47100Y-38600D03*
X41700Y-48800D03*
X41700Y-49300D03*
X41700Y-49800D03*
X54650Y-46400D03*
X56900Y-44250D03*
X56900Y-44700D03*
X52200Y-50350D03*
X50700Y-50850D03*
X60500Y-31900D03*
X61000Y-37750D03*
X60500Y-45100D03*
X60500Y-50900D03*
X58300Y-51100D03*
X59050Y-48950D03*
X54000Y-50400D03*
X52550Y-43150D03*
X54300Y-45850D03*
X51100Y-43150D03*
X67700Y-49186D03*
X67700Y-51613D03*
X63850Y-51200D03*
X63850Y-49600D03*
X65450Y-50050D03*
X62200Y-52700D03*
X65450Y-44550D03*
X67700Y-45400D03*
X67700Y-43000D03*
X63850Y-43450D03*
X60900Y-45700D03*
X63850Y-45000D03*
X60900Y-46450D03*
X68050Y-36950D03*
X68050Y-39250D03*
X60050Y-49100D03*
X62000Y-35150D03*
X65150Y-38450D03*
X65150Y-31750D03*
X60750Y-33500D03*
X62300Y-32500D03*
X67950Y-33450D03*
X67950Y-30700D03*
X51350Y-49250D03*
X54350Y-48750D03*
X51350Y-48750D03*
X57400Y-49000D03*
X51100Y-45150D03*
X51100Y-44650D03*
X51100Y-44150D03*
X51100Y-43650D03*
X55200Y-48100D03*
X51100Y-42650D03*
X48200Y-50850D03*
X47600Y-45150D03*
X47600Y-44650D03*
X46300Y-43000D03*
X47600Y-42650D03*
X41200Y-46500D03*
X47600Y-43113D03*
X47600Y-44200D03*
X47486Y-49486D03*
X47600Y-43650D03*
X47500Y-48750D03*
X47100Y-46400D03*
X47100Y-47600D03*
X47650Y-50050D03*
X47800Y-42150D03*
X70100Y-47900D03*
X70100Y-46600D03*
X59000Y-41500D03*
X61600Y-29250D03*
X63050Y-29250D03*
X67100Y-29400D03*
X67100Y-34800D03*
X65650Y-32450D03*
X62500Y-34400D03*
X62500Y-35800D03*
X61600Y-41000D03*
X63050Y-40950D03*
X65650Y-37750D03*
X67100Y-35400D03*
X67100Y-40800D03*
X67100Y-41700D03*
X67100Y-46700D03*
X64950Y-43845D03*
X62600Y-45900D03*
X62600Y-42500D03*
X61600Y-42500D03*
X70200Y-45900D03*
X70200Y-48700D03*
X67650Y-52350D03*
X67100Y-52900D03*
X67100Y-47900D03*
X67600Y-48450D03*
X62550Y-52100D03*
X62550Y-48700D03*
X61600Y-48250D03*
X64950Y-50754D03*
X54000Y-54050D03*
X52200Y-54050D03*
X56050Y-43800D03*
X56050Y-42800D03*
X55200Y-43800D03*
X55200Y-42800D03*
X51350Y-49800D03*
X51150Y-48100D03*
X51150Y-45800D03*
X51050Y-42150D03*
X48000Y-32750D03*
X44900Y-31650D03*
X64950Y-50050D03*
X65800Y-48650D03*
X65800Y-52150D03*
X64950Y-44550D03*
X65800Y-45950D03*
X65750Y-42450D03*
X65650Y-38450D03*
X65900Y-36350D03*
X65900Y-39850D03*
X63750Y-39850D03*
X63750Y-36350D03*
X65900Y-33850D03*
X65950Y-30350D03*
X63750Y-30350D03*
X63750Y-33850D03*
X65650Y-31750D03*
X70750Y-50000D03*
X58300Y-45700D03*
X58250Y-46150D03*
X47300Y-31850D03*
X57450Y-35700D03*
X53000Y-39350D03*
G54D18*
X66550Y-50050D02*
X65450Y-50050D01*
X62200Y-52700D02*
X63750Y-54250D01*
X65300Y-54250D02*
X66250Y-54250D01*
X66250Y-54250D02*
X66550Y-53950D01*
X66550Y-53950D02*
X66550Y-50050D01*
X66550Y-50050D02*
X66550Y-44550D01*
X66550Y-44550D02*
X65450Y-44550D01*
X63750Y-54250D02*
X65300Y-54250D01*
X65150Y-38450D02*
X65150Y-35150D01*
X62000Y-35150D02*
X65150Y-35150D01*
X65150Y-35150D02*
X65150Y-31750D01*
G54D10*
G36*
X46550Y-36250D02*
X44450Y-36250D01*
X44450Y-34950D01*
X45450Y-34950D01*
X45450Y-31550D01*
X46550Y-31550D01*
X46550Y-36250D01*
X46550Y-36250D01*
G37*
G54D11*
X46550Y-36250D02*
X44450Y-36250D01*
X44450Y-34950D01*
X45450Y-34950D01*
X45450Y-31550D01*
X46550Y-31550D01*
X46550Y-36250D01*
G54D10*
G36*
X47450Y-37350D02*
X39950Y-37350D01*
X39950Y-31600D01*
X39950Y-31220D01*
X41250Y-29920D01*
X41250Y-28600D01*
X41250Y-28200D01*
X43250Y-28200D01*
X43250Y-29046D01*
X43216Y-29012D01*
X43124Y-28974D01*
X42912Y-28975D01*
X42850Y-29037D01*
X42850Y-29450D01*
X42857Y-29450D01*
X42857Y-29550D01*
X42850Y-29550D01*
X42850Y-29962D01*
X42912Y-30025D01*
X43124Y-30025D01*
X43216Y-29987D01*
X43250Y-29953D01*
X43250Y-30350D01*
X42750Y-30350D01*
X42750Y-29962D01*
X42750Y-29550D01*
X42750Y-29450D01*
X42750Y-29037D01*
X42687Y-28975D01*
X42475Y-28974D01*
X42383Y-29012D01*
X42313Y-29083D01*
X42275Y-29175D01*
X42274Y-29274D01*
X42275Y-29387D01*
X42337Y-29450D01*
X42750Y-29450D01*
X42750Y-29550D01*
X42337Y-29550D01*
X42275Y-29612D01*
X42274Y-29725D01*
X42275Y-29824D01*
X42313Y-29916D01*
X42383Y-29987D01*
X42475Y-30025D01*
X42687Y-30025D01*
X42750Y-29962D01*
X42750Y-30350D01*
X42079Y-30350D01*
X41550Y-30879D01*
X41550Y-35120D01*
X42979Y-36550D01*
X47450Y-36550D01*
X47450Y-37350D01*
X47450Y-37350D01*
G37*
G54D11*
X47450Y-37350D02*
X39950Y-37350D01*
X39950Y-31600D01*
X39950Y-31220D01*
X41250Y-29920D01*
X41250Y-28600D01*
X41250Y-28200D01*
X43250Y-28200D01*
X43250Y-29046D01*
X43216Y-29012D01*
X43124Y-28974D01*
X42912Y-28975D01*
X42850Y-29037D01*
X42850Y-29450D01*
X42857Y-29450D01*
X42857Y-29550D01*
X42850Y-29550D01*
X42850Y-29962D01*
X42912Y-30025D01*
X43124Y-30025D01*
X43216Y-29987D01*
X43250Y-29953D01*
X43250Y-30350D01*
X42750Y-30350D01*
X42750Y-29962D01*
X42750Y-29550D01*
X42750Y-29450D01*
X42750Y-29037D01*
X42687Y-28975D01*
X42475Y-28974D01*
X42383Y-29012D01*
X42313Y-29083D01*
X42275Y-29175D01*
X42274Y-29274D01*
X42275Y-29387D01*
X42337Y-29450D01*
X42750Y-29450D01*
X42750Y-29550D01*
X42337Y-29550D01*
X42275Y-29612D01*
X42274Y-29725D01*
X42275Y-29824D01*
X42313Y-29916D01*
X42383Y-29987D01*
X42475Y-30025D01*
X42687Y-30025D01*
X42750Y-29962D01*
X42750Y-30350D01*
X42079Y-30350D01*
X41550Y-30879D01*
X41550Y-35120D01*
X42979Y-36550D01*
X47450Y-36550D01*
X47450Y-37350D01*
G54D10*
G36*
X49150Y-33850D02*
X48325Y-33850D01*
X48325Y-32685D01*
X48275Y-32566D01*
X48184Y-32474D01*
X48064Y-32425D01*
X47935Y-32424D01*
X47816Y-32474D01*
X47724Y-32565D01*
X47675Y-32685D01*
X47674Y-32814D01*
X47724Y-32933D01*
X47815Y-33025D01*
X47935Y-33074D01*
X48064Y-33075D01*
X48183Y-33025D01*
X48275Y-32934D01*
X48324Y-32814D01*
X48325Y-32685D01*
X48325Y-33850D01*
X47650Y-33850D01*
X47650Y-31150D01*
X44676Y-31150D01*
X43576Y-32450D01*
X42050Y-32450D01*
X42050Y-30850D01*
X43518Y-30850D01*
X44318Y-30150D01*
X49150Y-30150D01*
X49150Y-33850D01*
X49150Y-33850D01*
G37*
G54D11*
X49150Y-33850D02*
X48325Y-33850D01*
X48325Y-32685D01*
X48275Y-32566D01*
X48184Y-32474D01*
X48064Y-32425D01*
X47935Y-32424D01*
X47816Y-32474D01*
X47724Y-32565D01*
X47675Y-32685D01*
X47674Y-32814D01*
X47724Y-32933D01*
X47815Y-33025D01*
X47935Y-33074D01*
X48064Y-33075D01*
X48183Y-33025D01*
X48275Y-32934D01*
X48324Y-32814D01*
X48325Y-32685D01*
X48325Y-33850D01*
X47650Y-33850D01*
X47650Y-31150D01*
X44676Y-31150D01*
X43576Y-32450D01*
X42050Y-32450D01*
X42050Y-30850D01*
X43518Y-30850D01*
X44318Y-30150D01*
X49150Y-30150D01*
X49150Y-33850D01*
G54D10*
G36*
X53600Y-49550D02*
X52950Y-49550D01*
X52950Y-54800D01*
X52525Y-54800D01*
X52525Y-53985D01*
X52475Y-53866D01*
X52384Y-53774D01*
X52264Y-53725D01*
X52135Y-53724D01*
X52016Y-53774D01*
X51924Y-53865D01*
X51875Y-53985D01*
X51874Y-54114D01*
X51924Y-54233D01*
X52015Y-54325D01*
X52135Y-54374D01*
X52264Y-54375D01*
X52383Y-54325D01*
X52475Y-54234D01*
X52524Y-54114D01*
X52525Y-53985D01*
X52525Y-54800D01*
X51675Y-54800D01*
X51675Y-49735D01*
X51625Y-49616D01*
X51534Y-49524D01*
X51625Y-49434D01*
X51674Y-49314D01*
X51675Y-49185D01*
X51625Y-49066D01*
X51559Y-48999D01*
X51625Y-48934D01*
X51674Y-48814D01*
X51675Y-48685D01*
X51625Y-48566D01*
X51534Y-48474D01*
X51475Y-48450D01*
X51475Y-48035D01*
X51475Y-45735D01*
X51425Y-45616D01*
X51334Y-45524D01*
X51214Y-45475D01*
X51164Y-45475D01*
X51283Y-45425D01*
X51375Y-45334D01*
X51424Y-45214D01*
X51425Y-45085D01*
X51375Y-44966D01*
X51309Y-44899D01*
X51375Y-44834D01*
X51424Y-44714D01*
X51425Y-44585D01*
X51375Y-44466D01*
X51309Y-44399D01*
X51375Y-44334D01*
X51424Y-44214D01*
X51425Y-44085D01*
X51375Y-43966D01*
X51309Y-43899D01*
X51375Y-43834D01*
X51424Y-43714D01*
X51425Y-43585D01*
X51375Y-43466D01*
X51309Y-43399D01*
X51375Y-43334D01*
X51424Y-43214D01*
X51425Y-43085D01*
X51375Y-42966D01*
X51309Y-42899D01*
X51375Y-42834D01*
X51424Y-42714D01*
X51425Y-42585D01*
X51375Y-42466D01*
X51284Y-42374D01*
X51325Y-42334D01*
X51374Y-42214D01*
X51375Y-42085D01*
X51325Y-41966D01*
X51234Y-41874D01*
X51114Y-41825D01*
X50985Y-41824D01*
X50866Y-41874D01*
X50825Y-41915D01*
X50825Y-41135D01*
X50775Y-41016D01*
X50709Y-40949D01*
X50775Y-40884D01*
X50824Y-40764D01*
X50825Y-40635D01*
X50775Y-40516D01*
X50709Y-40449D01*
X50775Y-40384D01*
X50824Y-40264D01*
X50825Y-40135D01*
X50775Y-40016D01*
X50684Y-39924D01*
X50564Y-39875D01*
X50435Y-39874D01*
X50316Y-39924D01*
X50224Y-40015D01*
X50175Y-40135D01*
X50174Y-40264D01*
X50224Y-40383D01*
X50290Y-40450D01*
X50224Y-40515D01*
X50175Y-40635D01*
X50174Y-40764D01*
X50224Y-40883D01*
X50290Y-40950D01*
X50224Y-41015D01*
X50175Y-41135D01*
X50174Y-41264D01*
X50224Y-41383D01*
X50315Y-41475D01*
X50435Y-41524D01*
X50564Y-41525D01*
X50683Y-41475D01*
X50775Y-41384D01*
X50824Y-41264D01*
X50825Y-41135D01*
X50825Y-41915D01*
X50774Y-41965D01*
X50725Y-42085D01*
X50724Y-42214D01*
X50774Y-42333D01*
X50865Y-42425D01*
X50824Y-42465D01*
X50775Y-42585D01*
X50774Y-42714D01*
X50824Y-42833D01*
X50890Y-42900D01*
X50824Y-42965D01*
X50775Y-43085D01*
X50774Y-43214D01*
X50824Y-43333D01*
X50890Y-43400D01*
X50824Y-43465D01*
X50775Y-43585D01*
X50774Y-43714D01*
X50824Y-43833D01*
X50890Y-43900D01*
X50824Y-43965D01*
X50775Y-44085D01*
X50774Y-44214D01*
X50824Y-44333D01*
X50890Y-44400D01*
X50824Y-44465D01*
X50775Y-44585D01*
X50774Y-44714D01*
X50824Y-44833D01*
X50890Y-44900D01*
X50824Y-44965D01*
X50775Y-45085D01*
X50774Y-45214D01*
X50824Y-45333D01*
X50915Y-45425D01*
X51035Y-45474D01*
X51085Y-45474D01*
X50966Y-45524D01*
X50874Y-45615D01*
X50825Y-45735D01*
X50824Y-45864D01*
X50874Y-45983D01*
X50965Y-46075D01*
X51085Y-46124D01*
X51214Y-46125D01*
X51333Y-46075D01*
X51425Y-45984D01*
X51474Y-45864D01*
X51475Y-45735D01*
X51475Y-48035D01*
X51425Y-47916D01*
X51334Y-47824D01*
X51214Y-47775D01*
X51085Y-47774D01*
X50966Y-47824D01*
X50874Y-47915D01*
X50825Y-48035D01*
X50824Y-48164D01*
X50874Y-48283D01*
X50965Y-48375D01*
X51085Y-48424D01*
X51214Y-48425D01*
X51333Y-48375D01*
X51425Y-48284D01*
X51474Y-48164D01*
X51475Y-48035D01*
X51475Y-48450D01*
X51414Y-48425D01*
X51285Y-48424D01*
X51166Y-48474D01*
X51074Y-48565D01*
X51025Y-48685D01*
X51024Y-48814D01*
X51074Y-48933D01*
X51140Y-49000D01*
X51074Y-49065D01*
X51025Y-49185D01*
X51024Y-49314D01*
X51074Y-49433D01*
X51165Y-49525D01*
X51074Y-49615D01*
X51025Y-49735D01*
X51024Y-49864D01*
X51074Y-49983D01*
X51165Y-50075D01*
X51285Y-50124D01*
X51414Y-50125D01*
X51533Y-50075D01*
X51625Y-49984D01*
X51674Y-49864D01*
X51675Y-49735D01*
X51675Y-54800D01*
X49650Y-54800D01*
X49650Y-38450D01*
X51850Y-38450D01*
X51850Y-39840D01*
X51824Y-39865D01*
X51775Y-39985D01*
X51774Y-40114D01*
X51824Y-40233D01*
X51850Y-40259D01*
X51850Y-40650D01*
X52650Y-40650D01*
X52650Y-42839D01*
X52614Y-42825D01*
X52485Y-42824D01*
X52366Y-42874D01*
X52274Y-42965D01*
X52225Y-43085D01*
X52224Y-43214D01*
X52274Y-43333D01*
X52365Y-43425D01*
X52485Y-43474D01*
X52614Y-43475D01*
X52650Y-43460D01*
X52650Y-44550D01*
X53600Y-44550D01*
X53600Y-49550D01*
X53600Y-49550D01*
G37*
G54D11*
X53600Y-49550D02*
X52950Y-49550D01*
X52950Y-54800D01*
X52525Y-54800D01*
X52525Y-53985D01*
X52475Y-53866D01*
X52384Y-53774D01*
X52264Y-53725D01*
X52135Y-53724D01*
X52016Y-53774D01*
X51924Y-53865D01*
X51875Y-53985D01*
X51874Y-54114D01*
X51924Y-54233D01*
X52015Y-54325D01*
X52135Y-54374D01*
X52264Y-54375D01*
X52383Y-54325D01*
X52475Y-54234D01*
X52524Y-54114D01*
X52525Y-53985D01*
X52525Y-54800D01*
X51675Y-54800D01*
X51675Y-49735D01*
X51625Y-49616D01*
X51534Y-49524D01*
X51625Y-49434D01*
X51674Y-49314D01*
X51675Y-49185D01*
X51625Y-49066D01*
X51559Y-48999D01*
X51625Y-48934D01*
X51674Y-48814D01*
X51675Y-48685D01*
X51625Y-48566D01*
X51534Y-48474D01*
X51475Y-48450D01*
X51475Y-48035D01*
X51475Y-45735D01*
X51425Y-45616D01*
X51334Y-45524D01*
X51214Y-45475D01*
X51164Y-45475D01*
X51283Y-45425D01*
X51375Y-45334D01*
X51424Y-45214D01*
X51425Y-45085D01*
X51375Y-44966D01*
X51309Y-44899D01*
X51375Y-44834D01*
X51424Y-44714D01*
X51425Y-44585D01*
X51375Y-44466D01*
X51309Y-44399D01*
X51375Y-44334D01*
X51424Y-44214D01*
X51425Y-44085D01*
X51375Y-43966D01*
X51309Y-43899D01*
X51375Y-43834D01*
X51424Y-43714D01*
X51425Y-43585D01*
X51375Y-43466D01*
X51309Y-43399D01*
X51375Y-43334D01*
X51424Y-43214D01*
X51425Y-43085D01*
X51375Y-42966D01*
X51309Y-42899D01*
X51375Y-42834D01*
X51424Y-42714D01*
X51425Y-42585D01*
X51375Y-42466D01*
X51284Y-42374D01*
X51325Y-42334D01*
X51374Y-42214D01*
X51375Y-42085D01*
X51325Y-41966D01*
X51234Y-41874D01*
X51114Y-41825D01*
X50985Y-41824D01*
X50866Y-41874D01*
X50825Y-41915D01*
X50825Y-41135D01*
X50775Y-41016D01*
X50709Y-40949D01*
X50775Y-40884D01*
X50824Y-40764D01*
X50825Y-40635D01*
X50775Y-40516D01*
X50709Y-40449D01*
X50775Y-40384D01*
X50824Y-40264D01*
X50825Y-40135D01*
X50775Y-40016D01*
X50684Y-39924D01*
X50564Y-39875D01*
X50435Y-39874D01*
X50316Y-39924D01*
X50224Y-40015D01*
X50175Y-40135D01*
X50174Y-40264D01*
X50224Y-40383D01*
X50290Y-40450D01*
X50224Y-40515D01*
X50175Y-40635D01*
X50174Y-40764D01*
X50224Y-40883D01*
X50290Y-40950D01*
X50224Y-41015D01*
X50175Y-41135D01*
X50174Y-41264D01*
X50224Y-41383D01*
X50315Y-41475D01*
X50435Y-41524D01*
X50564Y-41525D01*
X50683Y-41475D01*
X50775Y-41384D01*
X50824Y-41264D01*
X50825Y-41135D01*
X50825Y-41915D01*
X50774Y-41965D01*
X50725Y-42085D01*
X50724Y-42214D01*
X50774Y-42333D01*
X50865Y-42425D01*
X50824Y-42465D01*
X50775Y-42585D01*
X50774Y-42714D01*
X50824Y-42833D01*
X50890Y-42900D01*
X50824Y-42965D01*
X50775Y-43085D01*
X50774Y-43214D01*
X50824Y-43333D01*
X50890Y-43400D01*
X50824Y-43465D01*
X50775Y-43585D01*
X50774Y-43714D01*
X50824Y-43833D01*
X50890Y-43900D01*
X50824Y-43965D01*
X50775Y-44085D01*
X50774Y-44214D01*
X50824Y-44333D01*
X50890Y-44400D01*
X50824Y-44465D01*
X50775Y-44585D01*
X50774Y-44714D01*
X50824Y-44833D01*
X50890Y-44900D01*
X50824Y-44965D01*
X50775Y-45085D01*
X50774Y-45214D01*
X50824Y-45333D01*
X50915Y-45425D01*
X51035Y-45474D01*
X51085Y-45474D01*
X50966Y-45524D01*
X50874Y-45615D01*
X50825Y-45735D01*
X50824Y-45864D01*
X50874Y-45983D01*
X50965Y-46075D01*
X51085Y-46124D01*
X51214Y-46125D01*
X51333Y-46075D01*
X51425Y-45984D01*
X51474Y-45864D01*
X51475Y-45735D01*
X51475Y-48035D01*
X51425Y-47916D01*
X51334Y-47824D01*
X51214Y-47775D01*
X51085Y-47774D01*
X50966Y-47824D01*
X50874Y-47915D01*
X50825Y-48035D01*
X50824Y-48164D01*
X50874Y-48283D01*
X50965Y-48375D01*
X51085Y-48424D01*
X51214Y-48425D01*
X51333Y-48375D01*
X51425Y-48284D01*
X51474Y-48164D01*
X51475Y-48035D01*
X51475Y-48450D01*
X51414Y-48425D01*
X51285Y-48424D01*
X51166Y-48474D01*
X51074Y-48565D01*
X51025Y-48685D01*
X51024Y-48814D01*
X51074Y-48933D01*
X51140Y-49000D01*
X51074Y-49065D01*
X51025Y-49185D01*
X51024Y-49314D01*
X51074Y-49433D01*
X51165Y-49525D01*
X51074Y-49615D01*
X51025Y-49735D01*
X51024Y-49864D01*
X51074Y-49983D01*
X51165Y-50075D01*
X51285Y-50124D01*
X51414Y-50125D01*
X51533Y-50075D01*
X51625Y-49984D01*
X51674Y-49864D01*
X51675Y-49735D01*
X51675Y-54800D01*
X49650Y-54800D01*
X49650Y-38450D01*
X51850Y-38450D01*
X51850Y-39840D01*
X51824Y-39865D01*
X51775Y-39985D01*
X51774Y-40114D01*
X51824Y-40233D01*
X51850Y-40259D01*
X51850Y-40650D01*
X52650Y-40650D01*
X52650Y-42839D01*
X52614Y-42825D01*
X52485Y-42824D01*
X52366Y-42874D01*
X52274Y-42965D01*
X52225Y-43085D01*
X52224Y-43214D01*
X52274Y-43333D01*
X52365Y-43425D01*
X52485Y-43474D01*
X52614Y-43475D01*
X52650Y-43460D01*
X52650Y-44550D01*
X53600Y-44550D01*
X53600Y-49550D01*
G54D10*
G36*
X61350Y-53950D02*
X61225Y-53950D01*
X61225Y-46385D01*
X61225Y-45635D01*
X61175Y-45516D01*
X61084Y-45424D01*
X61075Y-45420D01*
X61075Y-33435D01*
X61025Y-33316D01*
X60934Y-33224D01*
X60814Y-33175D01*
X60685Y-33174D01*
X60566Y-33224D01*
X60474Y-33315D01*
X60425Y-33435D01*
X60424Y-33564D01*
X60474Y-33683D01*
X60565Y-33775D01*
X60685Y-33824D01*
X60814Y-33825D01*
X60933Y-33775D01*
X61025Y-33684D01*
X61074Y-33564D01*
X61075Y-33435D01*
X61075Y-45420D01*
X60964Y-45375D01*
X60835Y-45374D01*
X60716Y-45424D01*
X60624Y-45515D01*
X60575Y-45635D01*
X60574Y-45764D01*
X60624Y-45883D01*
X60715Y-45975D01*
X60835Y-46024D01*
X60964Y-46025D01*
X61083Y-45975D01*
X61175Y-45884D01*
X61224Y-45764D01*
X61225Y-45635D01*
X61225Y-46385D01*
X61175Y-46266D01*
X61084Y-46174D01*
X60964Y-46125D01*
X60835Y-46124D01*
X60716Y-46174D01*
X60624Y-46265D01*
X60575Y-46385D01*
X60574Y-46514D01*
X60624Y-46633D01*
X60715Y-46725D01*
X60835Y-46774D01*
X60964Y-46775D01*
X61083Y-46725D01*
X61175Y-46634D01*
X61224Y-46514D01*
X61225Y-46385D01*
X61225Y-53950D01*
X60375Y-53950D01*
X60375Y-49035D01*
X60325Y-48916D01*
X60234Y-48824D01*
X60114Y-48775D01*
X59985Y-48774D01*
X59866Y-48824D01*
X59774Y-48915D01*
X59725Y-49035D01*
X59724Y-49164D01*
X59774Y-49283D01*
X59865Y-49375D01*
X59985Y-49424D01*
X60114Y-49425D01*
X60233Y-49375D01*
X60325Y-49284D01*
X60374Y-49164D01*
X60375Y-49035D01*
X60375Y-53950D01*
X59325Y-53950D01*
X59325Y-41435D01*
X59275Y-41316D01*
X59184Y-41224D01*
X59064Y-41175D01*
X59025Y-41175D01*
X59025Y-33585D01*
X58975Y-33466D01*
X58884Y-33374D01*
X58764Y-33325D01*
X58635Y-33324D01*
X58516Y-33374D01*
X58424Y-33465D01*
X58375Y-33585D01*
X58374Y-33714D01*
X58424Y-33833D01*
X58515Y-33925D01*
X58635Y-33974D01*
X58764Y-33975D01*
X58883Y-33925D01*
X58975Y-33834D01*
X59024Y-33714D01*
X59025Y-33585D01*
X59025Y-41175D01*
X58935Y-41174D01*
X58816Y-41224D01*
X58724Y-41315D01*
X58675Y-41435D01*
X58674Y-41564D01*
X58724Y-41683D01*
X58815Y-41775D01*
X58935Y-41824D01*
X59064Y-41825D01*
X59183Y-41775D01*
X59275Y-41684D01*
X59324Y-41564D01*
X59325Y-41435D01*
X59325Y-53950D01*
X58625Y-53950D01*
X58625Y-45635D01*
X58575Y-45516D01*
X58484Y-45424D01*
X58364Y-45375D01*
X58275Y-45374D01*
X58275Y-31685D01*
X58225Y-31566D01*
X58134Y-31474D01*
X58014Y-31425D01*
X57885Y-31424D01*
X57766Y-31474D01*
X57674Y-31565D01*
X57625Y-31685D01*
X57624Y-31814D01*
X57674Y-31933D01*
X57765Y-32025D01*
X57885Y-32074D01*
X58014Y-32075D01*
X58133Y-32025D01*
X58225Y-31934D01*
X58274Y-31814D01*
X58275Y-31685D01*
X58275Y-45374D01*
X58235Y-45374D01*
X58116Y-45424D01*
X58024Y-45515D01*
X57975Y-45635D01*
X57974Y-45764D01*
X58024Y-45883D01*
X58040Y-45899D01*
X57974Y-45965D01*
X57925Y-46085D01*
X57924Y-46214D01*
X57974Y-46333D01*
X58065Y-46425D01*
X58185Y-46474D01*
X58314Y-46475D01*
X58433Y-46425D01*
X58525Y-46334D01*
X58574Y-46214D01*
X58575Y-46085D01*
X58525Y-45966D01*
X58509Y-45950D01*
X58575Y-45884D01*
X58624Y-45764D01*
X58625Y-45635D01*
X58625Y-53950D01*
X57725Y-53950D01*
X57725Y-48935D01*
X57675Y-48816D01*
X57584Y-48724D01*
X57464Y-48675D01*
X57335Y-48674D01*
X57216Y-48724D01*
X57124Y-48815D01*
X57075Y-48935D01*
X57074Y-49064D01*
X57124Y-49183D01*
X57215Y-49275D01*
X57335Y-49324D01*
X57464Y-49325D01*
X57583Y-49275D01*
X57675Y-49184D01*
X57724Y-49064D01*
X57725Y-48935D01*
X57725Y-53950D01*
X56625Y-53950D01*
X56625Y-51585D01*
X56575Y-51466D01*
X56534Y-51425D01*
X56575Y-51384D01*
X56624Y-51264D01*
X56625Y-51135D01*
X56575Y-51016D01*
X56534Y-50975D01*
X56575Y-50934D01*
X56624Y-50814D01*
X56625Y-50685D01*
X56575Y-50566D01*
X56534Y-50525D01*
X56575Y-50484D01*
X56624Y-50364D01*
X56625Y-50235D01*
X56575Y-50116D01*
X56484Y-50024D01*
X56364Y-49975D01*
X56235Y-49974D01*
X56116Y-50024D01*
X56049Y-50090D01*
X56034Y-50075D01*
X56075Y-50034D01*
X56124Y-49914D01*
X56125Y-49785D01*
X56075Y-49666D01*
X56034Y-49625D01*
X56075Y-49584D01*
X56124Y-49464D01*
X56125Y-49335D01*
X56075Y-49216D01*
X55984Y-49124D01*
X55864Y-49075D01*
X55735Y-49074D01*
X55616Y-49124D01*
X55524Y-49215D01*
X55475Y-49335D01*
X55474Y-49464D01*
X55524Y-49583D01*
X55565Y-49624D01*
X55524Y-49665D01*
X55475Y-49785D01*
X55474Y-49914D01*
X55524Y-50033D01*
X55565Y-50074D01*
X55524Y-50115D01*
X55475Y-50235D01*
X55474Y-50364D01*
X55524Y-50483D01*
X55565Y-50524D01*
X55524Y-50565D01*
X55475Y-50685D01*
X55474Y-50814D01*
X55524Y-50933D01*
X55565Y-50974D01*
X55524Y-51015D01*
X55475Y-51135D01*
X55474Y-51264D01*
X55524Y-51383D01*
X55565Y-51424D01*
X55524Y-51465D01*
X55475Y-51585D01*
X55474Y-51714D01*
X55524Y-51833D01*
X55615Y-51925D01*
X55735Y-51974D01*
X55864Y-51975D01*
X55983Y-51925D01*
X56050Y-51859D01*
X56115Y-51925D01*
X56235Y-51974D01*
X56364Y-51975D01*
X56483Y-51925D01*
X56575Y-51834D01*
X56624Y-51714D01*
X56625Y-51585D01*
X56625Y-53950D01*
X54310Y-53950D01*
X54275Y-53866D01*
X54184Y-53774D01*
X54064Y-53725D01*
X53935Y-53724D01*
X53816Y-53774D01*
X53724Y-53865D01*
X53689Y-53950D01*
X53550Y-53950D01*
X53550Y-50050D01*
X54550Y-50050D01*
X54550Y-49009D01*
X54625Y-48934D01*
X54674Y-48814D01*
X54675Y-48685D01*
X54625Y-48566D01*
X54609Y-48550D01*
X57550Y-48550D01*
X57550Y-36010D01*
X57633Y-35975D01*
X57725Y-35884D01*
X57774Y-35764D01*
X57775Y-35635D01*
X57725Y-35516D01*
X57634Y-35424D01*
X57550Y-35389D01*
X57550Y-31874D01*
X57574Y-31814D01*
X57575Y-31685D01*
X57550Y-31624D01*
X57550Y-28550D01*
X61350Y-28550D01*
X61350Y-29040D01*
X61324Y-29065D01*
X61275Y-29185D01*
X61274Y-29314D01*
X61324Y-29433D01*
X61350Y-29459D01*
X61350Y-40790D01*
X61324Y-40815D01*
X61275Y-40935D01*
X61274Y-41064D01*
X61324Y-41183D01*
X61350Y-41209D01*
X61350Y-42290D01*
X61324Y-42315D01*
X61275Y-42435D01*
X61274Y-42564D01*
X61324Y-42683D01*
X61350Y-42709D01*
X61350Y-48040D01*
X61324Y-48065D01*
X61275Y-48185D01*
X61274Y-48314D01*
X61324Y-48433D01*
X61350Y-48459D01*
X61350Y-53950D01*
X61350Y-53950D01*
G37*
G54D11*
X61350Y-53950D02*
X61225Y-53950D01*
X61225Y-46385D01*
X61225Y-45635D01*
X61175Y-45516D01*
X61084Y-45424D01*
X61075Y-45420D01*
X61075Y-33435D01*
X61025Y-33316D01*
X60934Y-33224D01*
X60814Y-33175D01*
X60685Y-33174D01*
X60566Y-33224D01*
X60474Y-33315D01*
X60425Y-33435D01*
X60424Y-33564D01*
X60474Y-33683D01*
X60565Y-33775D01*
X60685Y-33824D01*
X60814Y-33825D01*
X60933Y-33775D01*
X61025Y-33684D01*
X61074Y-33564D01*
X61075Y-33435D01*
X61075Y-45420D01*
X60964Y-45375D01*
X60835Y-45374D01*
X60716Y-45424D01*
X60624Y-45515D01*
X60575Y-45635D01*
X60574Y-45764D01*
X60624Y-45883D01*
X60715Y-45975D01*
X60835Y-46024D01*
X60964Y-46025D01*
X61083Y-45975D01*
X61175Y-45884D01*
X61224Y-45764D01*
X61225Y-45635D01*
X61225Y-46385D01*
X61175Y-46266D01*
X61084Y-46174D01*
X60964Y-46125D01*
X60835Y-46124D01*
X60716Y-46174D01*
X60624Y-46265D01*
X60575Y-46385D01*
X60574Y-46514D01*
X60624Y-46633D01*
X60715Y-46725D01*
X60835Y-46774D01*
X60964Y-46775D01*
X61083Y-46725D01*
X61175Y-46634D01*
X61224Y-46514D01*
X61225Y-46385D01*
X61225Y-53950D01*
X60375Y-53950D01*
X60375Y-49035D01*
X60325Y-48916D01*
X60234Y-48824D01*
X60114Y-48775D01*
X59985Y-48774D01*
X59866Y-48824D01*
X59774Y-48915D01*
X59725Y-49035D01*
X59724Y-49164D01*
X59774Y-49283D01*
X59865Y-49375D01*
X59985Y-49424D01*
X60114Y-49425D01*
X60233Y-49375D01*
X60325Y-49284D01*
X60374Y-49164D01*
X60375Y-49035D01*
X60375Y-53950D01*
X59325Y-53950D01*
X59325Y-41435D01*
X59275Y-41316D01*
X59184Y-41224D01*
X59064Y-41175D01*
X59025Y-41175D01*
X59025Y-33585D01*
X58975Y-33466D01*
X58884Y-33374D01*
X58764Y-33325D01*
X58635Y-33324D01*
X58516Y-33374D01*
X58424Y-33465D01*
X58375Y-33585D01*
X58374Y-33714D01*
X58424Y-33833D01*
X58515Y-33925D01*
X58635Y-33974D01*
X58764Y-33975D01*
X58883Y-33925D01*
X58975Y-33834D01*
X59024Y-33714D01*
X59025Y-33585D01*
X59025Y-41175D01*
X58935Y-41174D01*
X58816Y-41224D01*
X58724Y-41315D01*
X58675Y-41435D01*
X58674Y-41564D01*
X58724Y-41683D01*
X58815Y-41775D01*
X58935Y-41824D01*
X59064Y-41825D01*
X59183Y-41775D01*
X59275Y-41684D01*
X59324Y-41564D01*
X59325Y-41435D01*
X59325Y-53950D01*
X58625Y-53950D01*
X58625Y-45635D01*
X58575Y-45516D01*
X58484Y-45424D01*
X58364Y-45375D01*
X58275Y-45374D01*
X58275Y-31685D01*
X58225Y-31566D01*
X58134Y-31474D01*
X58014Y-31425D01*
X57885Y-31424D01*
X57766Y-31474D01*
X57674Y-31565D01*
X57625Y-31685D01*
X57624Y-31814D01*
X57674Y-31933D01*
X57765Y-32025D01*
X57885Y-32074D01*
X58014Y-32075D01*
X58133Y-32025D01*
X58225Y-31934D01*
X58274Y-31814D01*
X58275Y-31685D01*
X58275Y-45374D01*
X58235Y-45374D01*
X58116Y-45424D01*
X58024Y-45515D01*
X57975Y-45635D01*
X57974Y-45764D01*
X58024Y-45883D01*
X58040Y-45899D01*
X57974Y-45965D01*
X57925Y-46085D01*
X57924Y-46214D01*
X57974Y-46333D01*
X58065Y-46425D01*
X58185Y-46474D01*
X58314Y-46475D01*
X58433Y-46425D01*
X58525Y-46334D01*
X58574Y-46214D01*
X58575Y-46085D01*
X58525Y-45966D01*
X58509Y-45950D01*
X58575Y-45884D01*
X58624Y-45764D01*
X58625Y-45635D01*
X58625Y-53950D01*
X57725Y-53950D01*
X57725Y-48935D01*
X57675Y-48816D01*
X57584Y-48724D01*
X57464Y-48675D01*
X57335Y-48674D01*
X57216Y-48724D01*
X57124Y-48815D01*
X57075Y-48935D01*
X57074Y-49064D01*
X57124Y-49183D01*
X57215Y-49275D01*
X57335Y-49324D01*
X57464Y-49325D01*
X57583Y-49275D01*
X57675Y-49184D01*
X57724Y-49064D01*
X57725Y-48935D01*
X57725Y-53950D01*
X56625Y-53950D01*
X56625Y-51585D01*
X56575Y-51466D01*
X56534Y-51425D01*
X56575Y-51384D01*
X56624Y-51264D01*
X56625Y-51135D01*
X56575Y-51016D01*
X56534Y-50975D01*
X56575Y-50934D01*
X56624Y-50814D01*
X56625Y-50685D01*
X56575Y-50566D01*
X56534Y-50525D01*
X56575Y-50484D01*
X56624Y-50364D01*
X56625Y-50235D01*
X56575Y-50116D01*
X56484Y-50024D01*
X56364Y-49975D01*
X56235Y-49974D01*
X56116Y-50024D01*
X56049Y-50090D01*
X56034Y-50075D01*
X56075Y-50034D01*
X56124Y-49914D01*
X56125Y-49785D01*
X56075Y-49666D01*
X56034Y-49625D01*
X56075Y-49584D01*
X56124Y-49464D01*
X56125Y-49335D01*
X56075Y-49216D01*
X55984Y-49124D01*
X55864Y-49075D01*
X55735Y-49074D01*
X55616Y-49124D01*
X55524Y-49215D01*
X55475Y-49335D01*
X55474Y-49464D01*
X55524Y-49583D01*
X55565Y-49624D01*
X55524Y-49665D01*
X55475Y-49785D01*
X55474Y-49914D01*
X55524Y-50033D01*
X55565Y-50074D01*
X55524Y-50115D01*
X55475Y-50235D01*
X55474Y-50364D01*
X55524Y-50483D01*
X55565Y-50524D01*
X55524Y-50565D01*
X55475Y-50685D01*
X55474Y-50814D01*
X55524Y-50933D01*
X55565Y-50974D01*
X55524Y-51015D01*
X55475Y-51135D01*
X55474Y-51264D01*
X55524Y-51383D01*
X55565Y-51424D01*
X55524Y-51465D01*
X55475Y-51585D01*
X55474Y-51714D01*
X55524Y-51833D01*
X55615Y-51925D01*
X55735Y-51974D01*
X55864Y-51975D01*
X55983Y-51925D01*
X56050Y-51859D01*
X56115Y-51925D01*
X56235Y-51974D01*
X56364Y-51975D01*
X56483Y-51925D01*
X56575Y-51834D01*
X56624Y-51714D01*
X56625Y-51585D01*
X56625Y-53950D01*
X54310Y-53950D01*
X54275Y-53866D01*
X54184Y-53774D01*
X54064Y-53725D01*
X53935Y-53724D01*
X53816Y-53774D01*
X53724Y-53865D01*
X53689Y-53950D01*
X53550Y-53950D01*
X53550Y-50050D01*
X54550Y-50050D01*
X54550Y-49009D01*
X54625Y-48934D01*
X54674Y-48814D01*
X54675Y-48685D01*
X54625Y-48566D01*
X54609Y-48550D01*
X57550Y-48550D01*
X57550Y-36010D01*
X57633Y-35975D01*
X57725Y-35884D01*
X57774Y-35764D01*
X57775Y-35635D01*
X57725Y-35516D01*
X57634Y-35424D01*
X57550Y-35389D01*
X57550Y-31874D01*
X57574Y-31814D01*
X57575Y-31685D01*
X57550Y-31624D01*
X57550Y-28550D01*
X61350Y-28550D01*
X61350Y-29040D01*
X61324Y-29065D01*
X61275Y-29185D01*
X61274Y-29314D01*
X61324Y-29433D01*
X61350Y-29459D01*
X61350Y-40790D01*
X61324Y-40815D01*
X61275Y-40935D01*
X61274Y-41064D01*
X61324Y-41183D01*
X61350Y-41209D01*
X61350Y-42290D01*
X61324Y-42315D01*
X61275Y-42435D01*
X61274Y-42564D01*
X61324Y-42683D01*
X61350Y-42709D01*
X61350Y-48040D01*
X61324Y-48065D01*
X61275Y-48185D01*
X61274Y-48314D01*
X61324Y-48433D01*
X61350Y-48459D01*
X61350Y-53950D01*
G54D10*
G36*
X47850Y-40250D02*
X45875Y-40250D01*
X45875Y-40205D01*
X45875Y-39205D01*
X45875Y-38205D01*
X45802Y-38031D01*
X45669Y-37897D01*
X45494Y-37825D01*
X45305Y-37824D01*
X45131Y-37897D01*
X44997Y-38030D01*
X44925Y-38205D01*
X44924Y-38394D01*
X44997Y-38568D01*
X45130Y-38702D01*
X45305Y-38774D01*
X45494Y-38775D01*
X45668Y-38702D01*
X45802Y-38569D01*
X45874Y-38394D01*
X45875Y-38205D01*
X45875Y-39205D01*
X45802Y-39031D01*
X45669Y-38897D01*
X45494Y-38825D01*
X45305Y-38824D01*
X45131Y-38897D01*
X44997Y-39030D01*
X44925Y-39205D01*
X44924Y-39394D01*
X44997Y-39568D01*
X45130Y-39702D01*
X45305Y-39774D01*
X45494Y-39775D01*
X45668Y-39702D01*
X45802Y-39569D01*
X45874Y-39394D01*
X45875Y-39205D01*
X45875Y-40205D01*
X45802Y-40031D01*
X45669Y-39897D01*
X45494Y-39825D01*
X45305Y-39824D01*
X45131Y-39897D01*
X44997Y-40030D01*
X44925Y-40205D01*
X44925Y-40250D01*
X44875Y-40250D01*
X44875Y-38205D01*
X44802Y-38031D01*
X44669Y-37897D01*
X44494Y-37825D01*
X44305Y-37824D01*
X44131Y-37897D01*
X43997Y-38030D01*
X43925Y-38205D01*
X43924Y-38394D01*
X43997Y-38568D01*
X44130Y-38702D01*
X44305Y-38774D01*
X44494Y-38775D01*
X44668Y-38702D01*
X44802Y-38569D01*
X44874Y-38394D01*
X44875Y-38205D01*
X44875Y-40250D01*
X43875Y-40250D01*
X43875Y-38205D01*
X43802Y-38031D01*
X43669Y-37897D01*
X43494Y-37825D01*
X43305Y-37824D01*
X43131Y-37897D01*
X42997Y-38030D01*
X42925Y-38205D01*
X42924Y-38394D01*
X42997Y-38568D01*
X43130Y-38702D01*
X43305Y-38774D01*
X43494Y-38775D01*
X43668Y-38702D01*
X43802Y-38569D01*
X43874Y-38394D01*
X43875Y-38205D01*
X43875Y-40250D01*
X42875Y-40250D01*
X42875Y-38205D01*
X42802Y-38031D01*
X42669Y-37897D01*
X42494Y-37825D01*
X42305Y-37824D01*
X42131Y-37897D01*
X41997Y-38030D01*
X41925Y-38205D01*
X41924Y-38394D01*
X41997Y-38568D01*
X42130Y-38702D01*
X42305Y-38774D01*
X42494Y-38775D01*
X42668Y-38702D01*
X42802Y-38569D01*
X42874Y-38394D01*
X42875Y-38205D01*
X42875Y-40250D01*
X41875Y-40250D01*
X41875Y-38205D01*
X41802Y-38031D01*
X41669Y-37897D01*
X41494Y-37825D01*
X41305Y-37824D01*
X41131Y-37897D01*
X40997Y-38030D01*
X40925Y-38205D01*
X40924Y-38394D01*
X40997Y-38568D01*
X41130Y-38702D01*
X41305Y-38774D01*
X41494Y-38775D01*
X41668Y-38702D01*
X41802Y-38569D01*
X41874Y-38394D01*
X41875Y-38205D01*
X41875Y-40250D01*
X40950Y-40250D01*
X40950Y-46290D01*
X40924Y-46315D01*
X40875Y-46435D01*
X40875Y-38205D01*
X40802Y-38031D01*
X40669Y-37897D01*
X40494Y-37825D01*
X40305Y-37824D01*
X40131Y-37897D01*
X39997Y-38030D01*
X39925Y-38205D01*
X39924Y-38394D01*
X39997Y-38568D01*
X40130Y-38702D01*
X40305Y-38774D01*
X40494Y-38775D01*
X40668Y-38702D01*
X40802Y-38569D01*
X40874Y-38394D01*
X40875Y-38205D01*
X40875Y-46435D01*
X40875Y-46435D01*
X40874Y-46564D01*
X40924Y-46683D01*
X40950Y-46709D01*
X40950Y-52150D01*
X39979Y-52150D01*
X39979Y-51387D01*
X39969Y-51159D01*
X39901Y-50997D01*
X39875Y-50988D01*
X39875Y-50205D01*
X39875Y-49205D01*
X39875Y-48205D01*
X39875Y-47205D01*
X39875Y-46205D01*
X39875Y-45205D01*
X39875Y-44205D01*
X39875Y-43205D01*
X39875Y-42205D01*
X39875Y-41205D01*
X39875Y-40205D01*
X39875Y-39205D01*
X39875Y-38205D01*
X39802Y-38031D01*
X39669Y-37897D01*
X39494Y-37825D01*
X39305Y-37824D01*
X39131Y-37897D01*
X38997Y-38030D01*
X38925Y-38205D01*
X38924Y-38394D01*
X38997Y-38568D01*
X39130Y-38702D01*
X39305Y-38774D01*
X39494Y-38775D01*
X39668Y-38702D01*
X39802Y-38569D01*
X39874Y-38394D01*
X39875Y-38205D01*
X39875Y-39205D01*
X39802Y-39031D01*
X39669Y-38897D01*
X39494Y-38825D01*
X39305Y-38824D01*
X39131Y-38897D01*
X38997Y-39030D01*
X38925Y-39205D01*
X38924Y-39394D01*
X38997Y-39568D01*
X39130Y-39702D01*
X39305Y-39774D01*
X39494Y-39775D01*
X39668Y-39702D01*
X39802Y-39569D01*
X39874Y-39394D01*
X39875Y-39205D01*
X39875Y-40205D01*
X39802Y-40031D01*
X39669Y-39897D01*
X39494Y-39825D01*
X39305Y-39824D01*
X39131Y-39897D01*
X38997Y-40030D01*
X38925Y-40205D01*
X38924Y-40394D01*
X38997Y-40568D01*
X39130Y-40702D01*
X39305Y-40774D01*
X39494Y-40775D01*
X39668Y-40702D01*
X39802Y-40569D01*
X39874Y-40394D01*
X39875Y-40205D01*
X39875Y-41205D01*
X39802Y-41031D01*
X39669Y-40897D01*
X39494Y-40825D01*
X39305Y-40824D01*
X39131Y-40897D01*
X38997Y-41030D01*
X38925Y-41205D01*
X38924Y-41394D01*
X38997Y-41568D01*
X39130Y-41702D01*
X39305Y-41774D01*
X39494Y-41775D01*
X39668Y-41702D01*
X39802Y-41569D01*
X39874Y-41394D01*
X39875Y-41205D01*
X39875Y-42205D01*
X39802Y-42031D01*
X39669Y-41897D01*
X39494Y-41825D01*
X39305Y-41824D01*
X39131Y-41897D01*
X38997Y-42030D01*
X38925Y-42205D01*
X38924Y-42394D01*
X38997Y-42568D01*
X39130Y-42702D01*
X39305Y-42774D01*
X39494Y-42775D01*
X39668Y-42702D01*
X39802Y-42569D01*
X39874Y-42394D01*
X39875Y-42205D01*
X39875Y-43205D01*
X39802Y-43031D01*
X39669Y-42897D01*
X39494Y-42825D01*
X39305Y-42824D01*
X39131Y-42897D01*
X38997Y-43030D01*
X38925Y-43205D01*
X38924Y-43394D01*
X38997Y-43568D01*
X39130Y-43702D01*
X39305Y-43774D01*
X39494Y-43775D01*
X39668Y-43702D01*
X39802Y-43569D01*
X39874Y-43394D01*
X39875Y-43205D01*
X39875Y-44205D01*
X39802Y-44031D01*
X39669Y-43897D01*
X39494Y-43825D01*
X39305Y-43824D01*
X39131Y-43897D01*
X38997Y-44030D01*
X38925Y-44205D01*
X38924Y-44394D01*
X38997Y-44568D01*
X39130Y-44702D01*
X39305Y-44774D01*
X39494Y-44775D01*
X39668Y-44702D01*
X39802Y-44569D01*
X39874Y-44394D01*
X39875Y-44205D01*
X39875Y-45205D01*
X39802Y-45031D01*
X39669Y-44897D01*
X39494Y-44825D01*
X39305Y-44824D01*
X39131Y-44897D01*
X38997Y-45030D01*
X38925Y-45205D01*
X38924Y-45394D01*
X38997Y-45568D01*
X39130Y-45702D01*
X39305Y-45774D01*
X39494Y-45775D01*
X39668Y-45702D01*
X39802Y-45569D01*
X39874Y-45394D01*
X39875Y-45205D01*
X39875Y-46205D01*
X39802Y-46031D01*
X39669Y-45897D01*
X39494Y-45825D01*
X39305Y-45824D01*
X39131Y-45897D01*
X38997Y-46030D01*
X38925Y-46205D01*
X38924Y-46394D01*
X38997Y-46568D01*
X39130Y-46702D01*
X39305Y-46774D01*
X39494Y-46775D01*
X39668Y-46702D01*
X39802Y-46569D01*
X39874Y-46394D01*
X39875Y-46205D01*
X39875Y-47205D01*
X39802Y-47031D01*
X39669Y-46897D01*
X39494Y-46825D01*
X39305Y-46824D01*
X39131Y-46897D01*
X38997Y-47030D01*
X38925Y-47205D01*
X38924Y-47394D01*
X38997Y-47568D01*
X39130Y-47702D01*
X39305Y-47774D01*
X39494Y-47775D01*
X39668Y-47702D01*
X39802Y-47569D01*
X39874Y-47394D01*
X39875Y-47205D01*
X39875Y-48205D01*
X39802Y-48031D01*
X39669Y-47897D01*
X39494Y-47825D01*
X39305Y-47824D01*
X39131Y-47897D01*
X38997Y-48030D01*
X38925Y-48205D01*
X38924Y-48394D01*
X38997Y-48568D01*
X39130Y-48702D01*
X39305Y-48774D01*
X39494Y-48775D01*
X39668Y-48702D01*
X39802Y-48569D01*
X39874Y-48394D01*
X39875Y-48205D01*
X39875Y-49205D01*
X39802Y-49031D01*
X39669Y-48897D01*
X39494Y-48825D01*
X39305Y-48824D01*
X39131Y-48897D01*
X38997Y-49030D01*
X38925Y-49205D01*
X38924Y-49394D01*
X38997Y-49568D01*
X39130Y-49702D01*
X39305Y-49774D01*
X39494Y-49775D01*
X39668Y-49702D01*
X39802Y-49569D01*
X39874Y-49394D01*
X39875Y-49205D01*
X39875Y-50205D01*
X39802Y-50031D01*
X39669Y-49897D01*
X39494Y-49825D01*
X39305Y-49824D01*
X39131Y-49897D01*
X38997Y-50030D01*
X38925Y-50205D01*
X38924Y-50394D01*
X38997Y-50568D01*
X39130Y-50702D01*
X39229Y-50743D01*
X39097Y-50798D01*
X39066Y-50895D01*
X39400Y-51229D01*
X39733Y-50895D01*
X39702Y-50798D01*
X39561Y-50747D01*
X39668Y-50702D01*
X39802Y-50569D01*
X39874Y-50394D01*
X39875Y-50205D01*
X39875Y-50988D01*
X39804Y-50966D01*
X39470Y-51300D01*
X39804Y-51633D01*
X39901Y-51602D01*
X39979Y-51387D01*
X39979Y-52150D01*
X39733Y-52150D01*
X39733Y-51704D01*
X39400Y-51370D01*
X39329Y-51441D01*
X39329Y-51300D01*
X38995Y-50966D01*
X38898Y-50997D01*
X38820Y-51212D01*
X38830Y-51440D01*
X38898Y-51602D01*
X38995Y-51633D01*
X39329Y-51300D01*
X39329Y-51441D01*
X39066Y-51704D01*
X39097Y-51801D01*
X39312Y-51879D01*
X39540Y-51869D01*
X39702Y-51801D01*
X39733Y-51704D01*
X39733Y-52150D01*
X38200Y-52150D01*
X38200Y-37650D01*
X47850Y-37650D01*
X47850Y-40250D01*
X47850Y-40250D01*
G37*
G54D11*
X47850Y-40250D02*
X45875Y-40250D01*
X45875Y-40205D01*
X45875Y-39205D01*
X45875Y-38205D01*
X45802Y-38031D01*
X45669Y-37897D01*
X45494Y-37825D01*
X45305Y-37824D01*
X45131Y-37897D01*
X44997Y-38030D01*
X44925Y-38205D01*
X44924Y-38394D01*
X44997Y-38568D01*
X45130Y-38702D01*
X45305Y-38774D01*
X45494Y-38775D01*
X45668Y-38702D01*
X45802Y-38569D01*
X45874Y-38394D01*
X45875Y-38205D01*
X45875Y-39205D01*
X45802Y-39031D01*
X45669Y-38897D01*
X45494Y-38825D01*
X45305Y-38824D01*
X45131Y-38897D01*
X44997Y-39030D01*
X44925Y-39205D01*
X44924Y-39394D01*
X44997Y-39568D01*
X45130Y-39702D01*
X45305Y-39774D01*
X45494Y-39775D01*
X45668Y-39702D01*
X45802Y-39569D01*
X45874Y-39394D01*
X45875Y-39205D01*
X45875Y-40205D01*
X45802Y-40031D01*
X45669Y-39897D01*
X45494Y-39825D01*
X45305Y-39824D01*
X45131Y-39897D01*
X44997Y-40030D01*
X44925Y-40205D01*
X44925Y-40250D01*
X44875Y-40250D01*
X44875Y-38205D01*
X44802Y-38031D01*
X44669Y-37897D01*
X44494Y-37825D01*
X44305Y-37824D01*
X44131Y-37897D01*
X43997Y-38030D01*
X43925Y-38205D01*
X43924Y-38394D01*
X43997Y-38568D01*
X44130Y-38702D01*
X44305Y-38774D01*
X44494Y-38775D01*
X44668Y-38702D01*
X44802Y-38569D01*
X44874Y-38394D01*
X44875Y-38205D01*
X44875Y-40250D01*
X43875Y-40250D01*
X43875Y-38205D01*
X43802Y-38031D01*
X43669Y-37897D01*
X43494Y-37825D01*
X43305Y-37824D01*
X43131Y-37897D01*
X42997Y-38030D01*
X42925Y-38205D01*
X42924Y-38394D01*
X42997Y-38568D01*
X43130Y-38702D01*
X43305Y-38774D01*
X43494Y-38775D01*
X43668Y-38702D01*
X43802Y-38569D01*
X43874Y-38394D01*
X43875Y-38205D01*
X43875Y-40250D01*
X42875Y-40250D01*
X42875Y-38205D01*
X42802Y-38031D01*
X42669Y-37897D01*
X42494Y-37825D01*
X42305Y-37824D01*
X42131Y-37897D01*
X41997Y-38030D01*
X41925Y-38205D01*
X41924Y-38394D01*
X41997Y-38568D01*
X42130Y-38702D01*
X42305Y-38774D01*
X42494Y-38775D01*
X42668Y-38702D01*
X42802Y-38569D01*
X42874Y-38394D01*
X42875Y-38205D01*
X42875Y-40250D01*
X41875Y-40250D01*
X41875Y-38205D01*
X41802Y-38031D01*
X41669Y-37897D01*
X41494Y-37825D01*
X41305Y-37824D01*
X41131Y-37897D01*
X40997Y-38030D01*
X40925Y-38205D01*
X40924Y-38394D01*
X40997Y-38568D01*
X41130Y-38702D01*
X41305Y-38774D01*
X41494Y-38775D01*
X41668Y-38702D01*
X41802Y-38569D01*
X41874Y-38394D01*
X41875Y-38205D01*
X41875Y-40250D01*
X40950Y-40250D01*
X40950Y-46290D01*
X40924Y-46315D01*
X40875Y-46435D01*
X40875Y-38205D01*
X40802Y-38031D01*
X40669Y-37897D01*
X40494Y-37825D01*
X40305Y-37824D01*
X40131Y-37897D01*
X39997Y-38030D01*
X39925Y-38205D01*
X39924Y-38394D01*
X39997Y-38568D01*
X40130Y-38702D01*
X40305Y-38774D01*
X40494Y-38775D01*
X40668Y-38702D01*
X40802Y-38569D01*
X40874Y-38394D01*
X40875Y-38205D01*
X40875Y-46435D01*
X40875Y-46435D01*
X40874Y-46564D01*
X40924Y-46683D01*
X40950Y-46709D01*
X40950Y-52150D01*
X39979Y-52150D01*
X39979Y-51387D01*
X39969Y-51159D01*
X39901Y-50997D01*
X39875Y-50988D01*
X39875Y-50205D01*
X39875Y-49205D01*
X39875Y-48205D01*
X39875Y-47205D01*
X39875Y-46205D01*
X39875Y-45205D01*
X39875Y-44205D01*
X39875Y-43205D01*
X39875Y-42205D01*
X39875Y-41205D01*
X39875Y-40205D01*
X39875Y-39205D01*
X39875Y-38205D01*
X39802Y-38031D01*
X39669Y-37897D01*
X39494Y-37825D01*
X39305Y-37824D01*
X39131Y-37897D01*
X38997Y-38030D01*
X38925Y-38205D01*
X38924Y-38394D01*
X38997Y-38568D01*
X39130Y-38702D01*
X39305Y-38774D01*
X39494Y-38775D01*
X39668Y-38702D01*
X39802Y-38569D01*
X39874Y-38394D01*
X39875Y-38205D01*
X39875Y-39205D01*
X39802Y-39031D01*
X39669Y-38897D01*
X39494Y-38825D01*
X39305Y-38824D01*
X39131Y-38897D01*
X38997Y-39030D01*
X38925Y-39205D01*
X38924Y-39394D01*
X38997Y-39568D01*
X39130Y-39702D01*
X39305Y-39774D01*
X39494Y-39775D01*
X39668Y-39702D01*
X39802Y-39569D01*
X39874Y-39394D01*
X39875Y-39205D01*
X39875Y-40205D01*
X39802Y-40031D01*
X39669Y-39897D01*
X39494Y-39825D01*
X39305Y-39824D01*
X39131Y-39897D01*
X38997Y-40030D01*
X38925Y-40205D01*
X38924Y-40394D01*
X38997Y-40568D01*
X39130Y-40702D01*
X39305Y-40774D01*
X39494Y-40775D01*
X39668Y-40702D01*
X39802Y-40569D01*
X39874Y-40394D01*
X39875Y-40205D01*
X39875Y-41205D01*
X39802Y-41031D01*
X39669Y-40897D01*
X39494Y-40825D01*
X39305Y-40824D01*
X39131Y-40897D01*
X38997Y-41030D01*
X38925Y-41205D01*
X38924Y-41394D01*
X38997Y-41568D01*
X39130Y-41702D01*
X39305Y-41774D01*
X39494Y-41775D01*
X39668Y-41702D01*
X39802Y-41569D01*
X39874Y-41394D01*
X39875Y-41205D01*
X39875Y-42205D01*
X39802Y-42031D01*
X39669Y-41897D01*
X39494Y-41825D01*
X39305Y-41824D01*
X39131Y-41897D01*
X38997Y-42030D01*
X38925Y-42205D01*
X38924Y-42394D01*
X38997Y-42568D01*
X39130Y-42702D01*
X39305Y-42774D01*
X39494Y-42775D01*
X39668Y-42702D01*
X39802Y-42569D01*
X39874Y-42394D01*
X39875Y-42205D01*
X39875Y-43205D01*
X39802Y-43031D01*
X39669Y-42897D01*
X39494Y-42825D01*
X39305Y-42824D01*
X39131Y-42897D01*
X38997Y-43030D01*
X38925Y-43205D01*
X38924Y-43394D01*
X38997Y-43568D01*
X39130Y-43702D01*
X39305Y-43774D01*
X39494Y-43775D01*
X39668Y-43702D01*
X39802Y-43569D01*
X39874Y-43394D01*
X39875Y-43205D01*
X39875Y-44205D01*
X39802Y-44031D01*
X39669Y-43897D01*
X39494Y-43825D01*
X39305Y-43824D01*
X39131Y-43897D01*
X38997Y-44030D01*
X38925Y-44205D01*
X38924Y-44394D01*
X38997Y-44568D01*
X39130Y-44702D01*
X39305Y-44774D01*
X39494Y-44775D01*
X39668Y-44702D01*
X39802Y-44569D01*
X39874Y-44394D01*
X39875Y-44205D01*
X39875Y-45205D01*
X39802Y-45031D01*
X39669Y-44897D01*
X39494Y-44825D01*
X39305Y-44824D01*
X39131Y-44897D01*
X38997Y-45030D01*
X38925Y-45205D01*
X38924Y-45394D01*
X38997Y-45568D01*
X39130Y-45702D01*
X39305Y-45774D01*
X39494Y-45775D01*
X39668Y-45702D01*
X39802Y-45569D01*
X39874Y-45394D01*
X39875Y-45205D01*
X39875Y-46205D01*
X39802Y-46031D01*
X39669Y-45897D01*
X39494Y-45825D01*
X39305Y-45824D01*
X39131Y-45897D01*
X38997Y-46030D01*
X38925Y-46205D01*
X38924Y-46394D01*
X38997Y-46568D01*
X39130Y-46702D01*
X39305Y-46774D01*
X39494Y-46775D01*
X39668Y-46702D01*
X39802Y-46569D01*
X39874Y-46394D01*
X39875Y-46205D01*
X39875Y-47205D01*
X39802Y-47031D01*
X39669Y-46897D01*
X39494Y-46825D01*
X39305Y-46824D01*
X39131Y-46897D01*
X38997Y-47030D01*
X38925Y-47205D01*
X38924Y-47394D01*
X38997Y-47568D01*
X39130Y-47702D01*
X39305Y-47774D01*
X39494Y-47775D01*
X39668Y-47702D01*
X39802Y-47569D01*
X39874Y-47394D01*
X39875Y-47205D01*
X39875Y-48205D01*
X39802Y-48031D01*
X39669Y-47897D01*
X39494Y-47825D01*
X39305Y-47824D01*
X39131Y-47897D01*
X38997Y-48030D01*
X38925Y-48205D01*
X38924Y-48394D01*
X38997Y-48568D01*
X39130Y-48702D01*
X39305Y-48774D01*
X39494Y-48775D01*
X39668Y-48702D01*
X39802Y-48569D01*
X39874Y-48394D01*
X39875Y-48205D01*
X39875Y-49205D01*
X39802Y-49031D01*
X39669Y-48897D01*
X39494Y-48825D01*
X39305Y-48824D01*
X39131Y-48897D01*
X38997Y-49030D01*
X38925Y-49205D01*
X38924Y-49394D01*
X38997Y-49568D01*
X39130Y-49702D01*
X39305Y-49774D01*
X39494Y-49775D01*
X39668Y-49702D01*
X39802Y-49569D01*
X39874Y-49394D01*
X39875Y-49205D01*
X39875Y-50205D01*
X39802Y-50031D01*
X39669Y-49897D01*
X39494Y-49825D01*
X39305Y-49824D01*
X39131Y-49897D01*
X38997Y-50030D01*
X38925Y-50205D01*
X38924Y-50394D01*
X38997Y-50568D01*
X39130Y-50702D01*
X39229Y-50743D01*
X39097Y-50798D01*
X39066Y-50895D01*
X39400Y-51229D01*
X39733Y-50895D01*
X39702Y-50798D01*
X39561Y-50747D01*
X39668Y-50702D01*
X39802Y-50569D01*
X39874Y-50394D01*
X39875Y-50205D01*
X39875Y-50988D01*
X39804Y-50966D01*
X39470Y-51300D01*
X39804Y-51633D01*
X39901Y-51602D01*
X39979Y-51387D01*
X39979Y-52150D01*
X39733Y-52150D01*
X39733Y-51704D01*
X39400Y-51370D01*
X39329Y-51441D01*
X39329Y-51300D01*
X38995Y-50966D01*
X38898Y-50997D01*
X38820Y-51212D01*
X38830Y-51440D01*
X38898Y-51602D01*
X38995Y-51633D01*
X39329Y-51300D01*
X39329Y-51441D01*
X39066Y-51704D01*
X39097Y-51801D01*
X39312Y-51879D01*
X39540Y-51869D01*
X39702Y-51801D01*
X39733Y-51704D01*
X39733Y-52150D01*
X38200Y-52150D01*
X38200Y-37650D01*
X47850Y-37650D01*
X47850Y-40250D01*
G54D10*
G36*
X49150Y-54800D02*
X48125Y-54800D01*
X48125Y-42085D01*
X48075Y-41966D01*
X47984Y-41874D01*
X47864Y-41825D01*
X47735Y-41824D01*
X47616Y-41874D01*
X47524Y-41965D01*
X47475Y-42085D01*
X47474Y-42214D01*
X47522Y-42330D01*
X47416Y-42374D01*
X47324Y-42465D01*
X47275Y-42585D01*
X47274Y-42714D01*
X47324Y-42833D01*
X47372Y-42881D01*
X47324Y-42929D01*
X47275Y-43048D01*
X47274Y-43177D01*
X47324Y-43297D01*
X47408Y-43381D01*
X47324Y-43465D01*
X47275Y-43585D01*
X47274Y-43714D01*
X47324Y-43833D01*
X47415Y-43925D01*
X47324Y-44015D01*
X47275Y-44135D01*
X47274Y-44264D01*
X47324Y-44383D01*
X47365Y-44424D01*
X47324Y-44465D01*
X47275Y-44585D01*
X47274Y-44714D01*
X47324Y-44833D01*
X47390Y-44900D01*
X47324Y-44965D01*
X47275Y-45085D01*
X47274Y-45214D01*
X47324Y-45333D01*
X47415Y-45425D01*
X47535Y-45474D01*
X47664Y-45475D01*
X47783Y-45425D01*
X47875Y-45334D01*
X47924Y-45214D01*
X47925Y-45085D01*
X47875Y-44966D01*
X47809Y-44899D01*
X47875Y-44834D01*
X47924Y-44714D01*
X47925Y-44585D01*
X47875Y-44466D01*
X47834Y-44425D01*
X47875Y-44384D01*
X47924Y-44264D01*
X47925Y-44135D01*
X47875Y-44016D01*
X47784Y-43924D01*
X47875Y-43834D01*
X47924Y-43714D01*
X47925Y-43585D01*
X47875Y-43466D01*
X47791Y-43381D01*
X47875Y-43297D01*
X47924Y-43178D01*
X47925Y-43049D01*
X47875Y-42929D01*
X47827Y-42881D01*
X47875Y-42834D01*
X47924Y-42714D01*
X47925Y-42585D01*
X47877Y-42469D01*
X47983Y-42425D01*
X48075Y-42334D01*
X48124Y-42214D01*
X48125Y-42085D01*
X48125Y-54800D01*
X47975Y-54800D01*
X47975Y-49985D01*
X47925Y-49866D01*
X47834Y-49774D01*
X47825Y-49770D01*
X47825Y-48685D01*
X47775Y-48566D01*
X47684Y-48474D01*
X47564Y-48425D01*
X47435Y-48424D01*
X47425Y-48429D01*
X47425Y-47535D01*
X47425Y-46335D01*
X47375Y-46216D01*
X47284Y-46124D01*
X47164Y-46075D01*
X47035Y-46074D01*
X46916Y-46124D01*
X46824Y-46215D01*
X46775Y-46335D01*
X46774Y-46464D01*
X46824Y-46583D01*
X46915Y-46675D01*
X47035Y-46724D01*
X47164Y-46725D01*
X47283Y-46675D01*
X47375Y-46584D01*
X47424Y-46464D01*
X47425Y-46335D01*
X47425Y-47535D01*
X47375Y-47416D01*
X47284Y-47324D01*
X47164Y-47275D01*
X47035Y-47274D01*
X46916Y-47324D01*
X46824Y-47415D01*
X46775Y-47535D01*
X46774Y-47664D01*
X46824Y-47783D01*
X46915Y-47875D01*
X47035Y-47924D01*
X47164Y-47925D01*
X47283Y-47875D01*
X47375Y-47784D01*
X47424Y-47664D01*
X47425Y-47535D01*
X47425Y-48429D01*
X47316Y-48474D01*
X47224Y-48565D01*
X47175Y-48685D01*
X47174Y-48814D01*
X47224Y-48933D01*
X47315Y-49025D01*
X47435Y-49074D01*
X47564Y-49075D01*
X47683Y-49025D01*
X47775Y-48934D01*
X47824Y-48814D01*
X47825Y-48685D01*
X47825Y-49770D01*
X47714Y-49725D01*
X47707Y-49725D01*
X47761Y-49670D01*
X47811Y-49551D01*
X47811Y-49422D01*
X47762Y-49302D01*
X47670Y-49211D01*
X47551Y-49161D01*
X47422Y-49161D01*
X47302Y-49210D01*
X47211Y-49302D01*
X47161Y-49421D01*
X47161Y-49550D01*
X47210Y-49670D01*
X47302Y-49761D01*
X47421Y-49811D01*
X47428Y-49811D01*
X47374Y-49865D01*
X47325Y-49985D01*
X47324Y-50114D01*
X47374Y-50233D01*
X47465Y-50325D01*
X47585Y-50374D01*
X47714Y-50375D01*
X47833Y-50325D01*
X47925Y-50234D01*
X47974Y-50114D01*
X47975Y-49985D01*
X47975Y-54800D01*
X46625Y-54800D01*
X46625Y-42935D01*
X46575Y-42816D01*
X46484Y-42724D01*
X46364Y-42675D01*
X46235Y-42674D01*
X46116Y-42724D01*
X46024Y-42815D01*
X45975Y-42935D01*
X45974Y-43064D01*
X46024Y-43183D01*
X46115Y-43275D01*
X46235Y-43324D01*
X46364Y-43325D01*
X46483Y-43275D01*
X46575Y-43184D01*
X46624Y-43064D01*
X46625Y-42935D01*
X46625Y-54800D01*
X45875Y-54800D01*
X45875Y-50205D01*
X45875Y-49205D01*
X45875Y-48205D01*
X45875Y-47205D01*
X45875Y-46205D01*
X45875Y-45205D01*
X45875Y-44205D01*
X45875Y-43205D01*
X45875Y-42205D01*
X45802Y-42031D01*
X45669Y-41897D01*
X45494Y-41825D01*
X45305Y-41824D01*
X45131Y-41897D01*
X44997Y-42030D01*
X44925Y-42205D01*
X44924Y-42394D01*
X44997Y-42568D01*
X45130Y-42702D01*
X45305Y-42774D01*
X45494Y-42775D01*
X45668Y-42702D01*
X45802Y-42569D01*
X45874Y-42394D01*
X45875Y-42205D01*
X45875Y-43205D01*
X45802Y-43031D01*
X45669Y-42897D01*
X45494Y-42825D01*
X45305Y-42824D01*
X45131Y-42897D01*
X44997Y-43030D01*
X44925Y-43205D01*
X44924Y-43394D01*
X44997Y-43568D01*
X45130Y-43702D01*
X45305Y-43774D01*
X45494Y-43775D01*
X45668Y-43702D01*
X45802Y-43569D01*
X45874Y-43394D01*
X45875Y-43205D01*
X45875Y-44205D01*
X45802Y-44031D01*
X45669Y-43897D01*
X45494Y-43825D01*
X45305Y-43824D01*
X45131Y-43897D01*
X44997Y-44030D01*
X44925Y-44205D01*
X44924Y-44394D01*
X44997Y-44568D01*
X45130Y-44702D01*
X45305Y-44774D01*
X45494Y-44775D01*
X45668Y-44702D01*
X45802Y-44569D01*
X45874Y-44394D01*
X45875Y-44205D01*
X45875Y-45205D01*
X45802Y-45031D01*
X45669Y-44897D01*
X45494Y-44825D01*
X45305Y-44824D01*
X45131Y-44897D01*
X44997Y-45030D01*
X44925Y-45205D01*
X44924Y-45394D01*
X44997Y-45568D01*
X45130Y-45702D01*
X45305Y-45774D01*
X45494Y-45775D01*
X45668Y-45702D01*
X45802Y-45569D01*
X45874Y-45394D01*
X45875Y-45205D01*
X45875Y-46205D01*
X45802Y-46031D01*
X45669Y-45897D01*
X45494Y-45825D01*
X45305Y-45824D01*
X45131Y-45897D01*
X44997Y-46030D01*
X44925Y-46205D01*
X44924Y-46394D01*
X44997Y-46568D01*
X45130Y-46702D01*
X45305Y-46774D01*
X45494Y-46775D01*
X45668Y-46702D01*
X45802Y-46569D01*
X45874Y-46394D01*
X45875Y-46205D01*
X45875Y-47205D01*
X45802Y-47031D01*
X45669Y-46897D01*
X45494Y-46825D01*
X45305Y-46824D01*
X45131Y-46897D01*
X44997Y-47030D01*
X44925Y-47205D01*
X44924Y-47394D01*
X44997Y-47568D01*
X45130Y-47702D01*
X45305Y-47774D01*
X45494Y-47775D01*
X45668Y-47702D01*
X45802Y-47569D01*
X45874Y-47394D01*
X45875Y-47205D01*
X45875Y-48205D01*
X45802Y-48031D01*
X45669Y-47897D01*
X45494Y-47825D01*
X45305Y-47824D01*
X45131Y-47897D01*
X44997Y-48030D01*
X44925Y-48205D01*
X44924Y-48394D01*
X44997Y-48568D01*
X45130Y-48702D01*
X45305Y-48774D01*
X45494Y-48775D01*
X45668Y-48702D01*
X45802Y-48569D01*
X45874Y-48394D01*
X45875Y-48205D01*
X45875Y-49205D01*
X45802Y-49031D01*
X45669Y-48897D01*
X45494Y-48825D01*
X45305Y-48824D01*
X45131Y-48897D01*
X44997Y-49030D01*
X44925Y-49205D01*
X44924Y-49394D01*
X44997Y-49568D01*
X45130Y-49702D01*
X45305Y-49774D01*
X45494Y-49775D01*
X45668Y-49702D01*
X45802Y-49569D01*
X45874Y-49394D01*
X45875Y-49205D01*
X45875Y-50205D01*
X45802Y-50031D01*
X45669Y-49897D01*
X45494Y-49825D01*
X45305Y-49824D01*
X45131Y-49897D01*
X44997Y-50030D01*
X44925Y-50205D01*
X44924Y-50394D01*
X44997Y-50568D01*
X45130Y-50702D01*
X45305Y-50774D01*
X45494Y-50775D01*
X45668Y-50702D01*
X45802Y-50569D01*
X45874Y-50394D01*
X45875Y-50205D01*
X45875Y-54800D01*
X45875Y-54800D01*
X45875Y-51595D01*
X45875Y-50945D01*
X45852Y-50890D01*
X45810Y-50847D01*
X45754Y-50825D01*
X45695Y-50824D01*
X45045Y-50824D01*
X44990Y-50847D01*
X44947Y-50889D01*
X44925Y-50945D01*
X44924Y-51004D01*
X44924Y-51654D01*
X44947Y-51709D01*
X44989Y-51752D01*
X45045Y-51774D01*
X45104Y-51775D01*
X45754Y-51775D01*
X45809Y-51752D01*
X45852Y-51710D01*
X45874Y-51654D01*
X45875Y-51595D01*
X45875Y-54800D01*
X41550Y-54800D01*
X41550Y-40850D01*
X45245Y-40850D01*
X45131Y-40897D01*
X44997Y-41030D01*
X44925Y-41205D01*
X44924Y-41394D01*
X44997Y-41568D01*
X45130Y-41702D01*
X45305Y-41774D01*
X45494Y-41775D01*
X45668Y-41702D01*
X45802Y-41569D01*
X45874Y-41394D01*
X45875Y-41205D01*
X45802Y-41031D01*
X45669Y-40897D01*
X45554Y-40850D01*
X48010Y-40850D01*
X48024Y-40883D01*
X48090Y-40950D01*
X48024Y-41015D01*
X47975Y-41135D01*
X47974Y-41264D01*
X48024Y-41383D01*
X48115Y-41475D01*
X48235Y-41524D01*
X48364Y-41525D01*
X48483Y-41475D01*
X48575Y-41384D01*
X48624Y-41264D01*
X48625Y-41135D01*
X48575Y-41016D01*
X48509Y-40949D01*
X48575Y-40884D01*
X48589Y-40850D01*
X49150Y-40850D01*
X49150Y-54800D01*
X49150Y-54800D01*
G37*
G54D11*
X49150Y-54800D02*
X48125Y-54800D01*
X48125Y-42085D01*
X48075Y-41966D01*
X47984Y-41874D01*
X47864Y-41825D01*
X47735Y-41824D01*
X47616Y-41874D01*
X47524Y-41965D01*
X47475Y-42085D01*
X47474Y-42214D01*
X47522Y-42330D01*
X47416Y-42374D01*
X47324Y-42465D01*
X47275Y-42585D01*
X47274Y-42714D01*
X47324Y-42833D01*
X47372Y-42881D01*
X47324Y-42929D01*
X47275Y-43048D01*
X47274Y-43177D01*
X47324Y-43297D01*
X47408Y-43381D01*
X47324Y-43465D01*
X47275Y-43585D01*
X47274Y-43714D01*
X47324Y-43833D01*
X47415Y-43925D01*
X47324Y-44015D01*
X47275Y-44135D01*
X47274Y-44264D01*
X47324Y-44383D01*
X47365Y-44424D01*
X47324Y-44465D01*
X47275Y-44585D01*
X47274Y-44714D01*
X47324Y-44833D01*
X47390Y-44900D01*
X47324Y-44965D01*
X47275Y-45085D01*
X47274Y-45214D01*
X47324Y-45333D01*
X47415Y-45425D01*
X47535Y-45474D01*
X47664Y-45475D01*
X47783Y-45425D01*
X47875Y-45334D01*
X47924Y-45214D01*
X47925Y-45085D01*
X47875Y-44966D01*
X47809Y-44899D01*
X47875Y-44834D01*
X47924Y-44714D01*
X47925Y-44585D01*
X47875Y-44466D01*
X47834Y-44425D01*
X47875Y-44384D01*
X47924Y-44264D01*
X47925Y-44135D01*
X47875Y-44016D01*
X47784Y-43924D01*
X47875Y-43834D01*
X47924Y-43714D01*
X47925Y-43585D01*
X47875Y-43466D01*
X47791Y-43381D01*
X47875Y-43297D01*
X47924Y-43178D01*
X47925Y-43049D01*
X47875Y-42929D01*
X47827Y-42881D01*
X47875Y-42834D01*
X47924Y-42714D01*
X47925Y-42585D01*
X47877Y-42469D01*
X47983Y-42425D01*
X48075Y-42334D01*
X48124Y-42214D01*
X48125Y-42085D01*
X48125Y-54800D01*
X47975Y-54800D01*
X47975Y-49985D01*
X47925Y-49866D01*
X47834Y-49774D01*
X47825Y-49770D01*
X47825Y-48685D01*
X47775Y-48566D01*
X47684Y-48474D01*
X47564Y-48425D01*
X47435Y-48424D01*
X47425Y-48429D01*
X47425Y-47535D01*
X47425Y-46335D01*
X47375Y-46216D01*
X47284Y-46124D01*
X47164Y-46075D01*
X47035Y-46074D01*
X46916Y-46124D01*
X46824Y-46215D01*
X46775Y-46335D01*
X46774Y-46464D01*
X46824Y-46583D01*
X46915Y-46675D01*
X47035Y-46724D01*
X47164Y-46725D01*
X47283Y-46675D01*
X47375Y-46584D01*
X47424Y-46464D01*
X47425Y-46335D01*
X47425Y-47535D01*
X47375Y-47416D01*
X47284Y-47324D01*
X47164Y-47275D01*
X47035Y-47274D01*
X46916Y-47324D01*
X46824Y-47415D01*
X46775Y-47535D01*
X46774Y-47664D01*
X46824Y-47783D01*
X46915Y-47875D01*
X47035Y-47924D01*
X47164Y-47925D01*
X47283Y-47875D01*
X47375Y-47784D01*
X47424Y-47664D01*
X47425Y-47535D01*
X47425Y-48429D01*
X47316Y-48474D01*
X47224Y-48565D01*
X47175Y-48685D01*
X47174Y-48814D01*
X47224Y-48933D01*
X47315Y-49025D01*
X47435Y-49074D01*
X47564Y-49075D01*
X47683Y-49025D01*
X47775Y-48934D01*
X47824Y-48814D01*
X47825Y-48685D01*
X47825Y-49770D01*
X47714Y-49725D01*
X47707Y-49725D01*
X47761Y-49670D01*
X47811Y-49551D01*
X47811Y-49422D01*
X47762Y-49302D01*
X47670Y-49211D01*
X47551Y-49161D01*
X47422Y-49161D01*
X47302Y-49210D01*
X47211Y-49302D01*
X47161Y-49421D01*
X47161Y-49550D01*
X47210Y-49670D01*
X47302Y-49761D01*
X47421Y-49811D01*
X47428Y-49811D01*
X47374Y-49865D01*
X47325Y-49985D01*
X47324Y-50114D01*
X47374Y-50233D01*
X47465Y-50325D01*
X47585Y-50374D01*
X47714Y-50375D01*
X47833Y-50325D01*
X47925Y-50234D01*
X47974Y-50114D01*
X47975Y-49985D01*
X47975Y-54800D01*
X46625Y-54800D01*
X46625Y-42935D01*
X46575Y-42816D01*
X46484Y-42724D01*
X46364Y-42675D01*
X46235Y-42674D01*
X46116Y-42724D01*
X46024Y-42815D01*
X45975Y-42935D01*
X45974Y-43064D01*
X46024Y-43183D01*
X46115Y-43275D01*
X46235Y-43324D01*
X46364Y-43325D01*
X46483Y-43275D01*
X46575Y-43184D01*
X46624Y-43064D01*
X46625Y-42935D01*
X46625Y-54800D01*
X45875Y-54800D01*
X45875Y-50205D01*
X45875Y-49205D01*
X45875Y-48205D01*
X45875Y-47205D01*
X45875Y-46205D01*
X45875Y-45205D01*
X45875Y-44205D01*
X45875Y-43205D01*
X45875Y-42205D01*
X45802Y-42031D01*
X45669Y-41897D01*
X45494Y-41825D01*
X45305Y-41824D01*
X45131Y-41897D01*
X44997Y-42030D01*
X44925Y-42205D01*
X44924Y-42394D01*
X44997Y-42568D01*
X45130Y-42702D01*
X45305Y-42774D01*
X45494Y-42775D01*
X45668Y-42702D01*
X45802Y-42569D01*
X45874Y-42394D01*
X45875Y-42205D01*
X45875Y-43205D01*
X45802Y-43031D01*
X45669Y-42897D01*
X45494Y-42825D01*
X45305Y-42824D01*
X45131Y-42897D01*
X44997Y-43030D01*
X44925Y-43205D01*
X44924Y-43394D01*
X44997Y-43568D01*
X45130Y-43702D01*
X45305Y-43774D01*
X45494Y-43775D01*
X45668Y-43702D01*
X45802Y-43569D01*
X45874Y-43394D01*
X45875Y-43205D01*
X45875Y-44205D01*
X45802Y-44031D01*
X45669Y-43897D01*
X45494Y-43825D01*
X45305Y-43824D01*
X45131Y-43897D01*
X44997Y-44030D01*
X44925Y-44205D01*
X44924Y-44394D01*
X44997Y-44568D01*
X45130Y-44702D01*
X45305Y-44774D01*
X45494Y-44775D01*
X45668Y-44702D01*
X45802Y-44569D01*
X45874Y-44394D01*
X45875Y-44205D01*
X45875Y-45205D01*
X45802Y-45031D01*
X45669Y-44897D01*
X45494Y-44825D01*
X45305Y-44824D01*
X45131Y-44897D01*
X44997Y-45030D01*
X44925Y-45205D01*
X44924Y-45394D01*
X44997Y-45568D01*
X45130Y-45702D01*
X45305Y-45774D01*
X45494Y-45775D01*
X45668Y-45702D01*
X45802Y-45569D01*
X45874Y-45394D01*
X45875Y-45205D01*
X45875Y-46205D01*
X45802Y-46031D01*
X45669Y-45897D01*
X45494Y-45825D01*
X45305Y-45824D01*
X45131Y-45897D01*
X44997Y-46030D01*
X44925Y-46205D01*
X44924Y-46394D01*
X44997Y-46568D01*
X45130Y-46702D01*
X45305Y-46774D01*
X45494Y-46775D01*
X45668Y-46702D01*
X45802Y-46569D01*
X45874Y-46394D01*
X45875Y-46205D01*
X45875Y-47205D01*
X45802Y-47031D01*
X45669Y-46897D01*
X45494Y-46825D01*
X45305Y-46824D01*
X45131Y-46897D01*
X44997Y-47030D01*
X44925Y-47205D01*
X44924Y-47394D01*
X44997Y-47568D01*
X45130Y-47702D01*
X45305Y-47774D01*
X45494Y-47775D01*
X45668Y-47702D01*
X45802Y-47569D01*
X45874Y-47394D01*
X45875Y-47205D01*
X45875Y-48205D01*
X45802Y-48031D01*
X45669Y-47897D01*
X45494Y-47825D01*
X45305Y-47824D01*
X45131Y-47897D01*
X44997Y-48030D01*
X44925Y-48205D01*
X44924Y-48394D01*
X44997Y-48568D01*
X45130Y-48702D01*
X45305Y-48774D01*
X45494Y-48775D01*
X45668Y-48702D01*
X45802Y-48569D01*
X45874Y-48394D01*
X45875Y-48205D01*
X45875Y-49205D01*
X45802Y-49031D01*
X45669Y-48897D01*
X45494Y-48825D01*
X45305Y-48824D01*
X45131Y-48897D01*
X44997Y-49030D01*
X44925Y-49205D01*
X44924Y-49394D01*
X44997Y-49568D01*
X45130Y-49702D01*
X45305Y-49774D01*
X45494Y-49775D01*
X45668Y-49702D01*
X45802Y-49569D01*
X45874Y-49394D01*
X45875Y-49205D01*
X45875Y-50205D01*
X45802Y-50031D01*
X45669Y-49897D01*
X45494Y-49825D01*
X45305Y-49824D01*
X45131Y-49897D01*
X44997Y-50030D01*
X44925Y-50205D01*
X44924Y-50394D01*
X44997Y-50568D01*
X45130Y-50702D01*
X45305Y-50774D01*
X45494Y-50775D01*
X45668Y-50702D01*
X45802Y-50569D01*
X45874Y-50394D01*
X45875Y-50205D01*
X45875Y-54800D01*
X45875Y-54800D01*
X45875Y-51595D01*
X45875Y-50945D01*
X45852Y-50890D01*
X45810Y-50847D01*
X45754Y-50825D01*
X45695Y-50824D01*
X45045Y-50824D01*
X44990Y-50847D01*
X44947Y-50889D01*
X44925Y-50945D01*
X44924Y-51004D01*
X44924Y-51654D01*
X44947Y-51709D01*
X44989Y-51752D01*
X45045Y-51774D01*
X45104Y-51775D01*
X45754Y-51775D01*
X45809Y-51752D01*
X45852Y-51710D01*
X45874Y-51654D01*
X45875Y-51595D01*
X45875Y-54800D01*
X41550Y-54800D01*
X41550Y-40850D01*
X45245Y-40850D01*
X45131Y-40897D01*
X44997Y-41030D01*
X44925Y-41205D01*
X44924Y-41394D01*
X44997Y-41568D01*
X45130Y-41702D01*
X45305Y-41774D01*
X45494Y-41775D01*
X45668Y-41702D01*
X45802Y-41569D01*
X45874Y-41394D01*
X45875Y-41205D01*
X45802Y-41031D01*
X45669Y-40897D01*
X45554Y-40850D01*
X48010Y-40850D01*
X48024Y-40883D01*
X48090Y-40950D01*
X48024Y-41015D01*
X47975Y-41135D01*
X47974Y-41264D01*
X48024Y-41383D01*
X48115Y-41475D01*
X48235Y-41524D01*
X48364Y-41525D01*
X48483Y-41475D01*
X48575Y-41384D01*
X48624Y-41264D01*
X48625Y-41135D01*
X48575Y-41016D01*
X48509Y-40949D01*
X48575Y-40884D01*
X48589Y-40850D01*
X49150Y-40850D01*
X49150Y-54800D01*
G54D10*
G36*
X57250Y-47750D02*
X55550Y-47750D01*
X55550Y-43950D01*
X54850Y-43950D01*
X54850Y-42550D01*
X57250Y-42550D01*
X57250Y-47750D01*
X57250Y-47750D01*
G37*
G54D11*
X57250Y-47750D02*
X55550Y-47750D01*
X55550Y-43950D01*
X54850Y-43950D01*
X54850Y-42550D01*
X57250Y-42550D01*
X57250Y-47750D01*
M02*
