M48
;DRILL file {Pcbnew (2013-07-07 BZR 4022)-stable} date 5/12/2015 8:03:56 AM
;FORMAT={2:4/ absolute / inch / suppress trailing zeros}
FMAT,2
INCH,LZ
T1C0.020
T2C0.032
T3C0.038
T4C0.130
%
G90
G05
M72
T1
X0391Y-0327
X0391Y-0332
X0412Y-0465
X0417Y-0488
X0417Y-0493
X0417Y-0498
X0422Y-0488
X0422Y-0493
X0422Y-0498
X0423Y-0311
X0423Y-0316
X0423Y-0321
X0427Y-0488
X0427Y-0493
X0427Y-0498
X0428Y-0321
X0433Y-0321
X0446Y-0352
X0446Y-036
X0449Y-03165
X0452Y-0352
X0452Y-036
X0458Y-0318
X0458Y-0324
X0458Y-033
X0458Y-0336
X0458Y-0342
X0458Y-0348
X0458Y-0354
X0458Y-036
X046Y-0371
X0461Y-0386
X0463Y-043
X0466Y-0367
X0466Y-0386
X0471Y-0386
X0471Y-0464
X0471Y-0476
X0472Y-0371
X0473Y-03185
X047487Y-049487
X0475Y-04875
X0476Y-04265
X0476Y-043113
X0476Y-04365
X0476Y-0442
X0476Y-04465
X0476Y-04515
X04765Y-05005
X04775Y-03445
X0478Y-04215
X048Y-03275
X0481Y-047
X0482Y-05085
X0483Y-03445
X0483Y-03505
X0483Y-03565
X0483Y-0402
X0483Y-0407
X0483Y-0412
X04835Y-0336
X04865Y-047
X0487Y-0332
X049Y-0336
X0498Y-0346
X0498Y-0361
X0501Y-04695
X0504Y-0346
X0504Y-0351
X0504Y-0356
X0504Y-0361
X0505Y-0402
X0505Y-0407
X0505Y-0412
X05065Y-0371
X05065Y-04695
X0507Y-05085
X0509Y-0306
X0509Y-0312
X0509Y-03185
X0509Y-0325
X0509Y-0331
X0509Y-03375
X05105Y-04215
X0511Y-04265
X0511Y-04315
X0511Y-04365
X0511Y-04415
X0511Y-04465
X0511Y-04515
X05115Y-0458
X05115Y-0481
X05135Y-04875
X05135Y-04925
X05135Y-0498
X05145Y-0321
X05165Y-0387
X05165Y-0392
X05205Y-0321
X0521Y-04005
X0522Y-05035
X0522Y-05405
X05255Y-04005
X05255Y-04315
X05285Y-04685
X05285Y-0474
X053Y-03935
X0534Y-0474
X0537Y-0306
X0537Y-0314
X054Y-0504
X054Y-05405
X0543Y-04585
X05435Y-04875
X05465Y-0464
X0549Y-038
X0549Y-03855
X0552Y-0428
X0552Y-0438
X0552Y-0481
X0558Y-0494
X0558Y-04985
X0558Y-0503
X0558Y-05075
X0558Y-0512
X0558Y-05165
X05605Y-03365
X05605Y-0428
X05605Y-0438
X0561Y-038
X0563Y-0503
X0563Y-05075
X0563Y-0512
X0563Y-05165
X0564Y-0457
X0564Y-04615
X0564Y-0466
X0564Y-04705
X0564Y-0475
X0564Y-04795
X05655Y-03365
X0566Y-0362
X0566Y-0367
X0569Y-03915
X0569Y-03985
X0569Y-04425
X0569Y-0447
X0569Y-04515
X05725Y-03175
X0574Y-049
X05745Y-0357
X0577Y-03705
X05795Y-03175
X05825Y-03705
X05825Y-04615
X0583Y-0457
X0583Y-0511
X0587Y-03365
X0588Y-03705
X059Y-0415
X05905Y-04895
X06005Y-0491
X0605Y-0319
X0605Y-0451
X0605Y-0509
X06075Y-0335
X0609Y-0457
X0609Y-04645
X061Y-03775
X0616Y-02925
X0616Y-041
X0616Y-0425
X0616Y-04825
X062Y-03515
X0622Y-0527
X0623Y-0325
X0625Y-0344
X0625Y-0358
X06255Y-0487
X06255Y-0521
X0626Y-0425
X0626Y-0459
X06305Y-02925
X06305Y-04095
X06375Y-03035
X06375Y-03385
X06375Y-03635
X06375Y-03985
X06385Y-04345
X06385Y-045
X06385Y-0496
X06385Y-0512
X06495Y-043846
X06495Y-04455
X06495Y-05005
X06495Y-050754
X06515Y-03175
X06515Y-03845
X06545Y-04455
X06545Y-05005
X06565Y-03175
X06565Y-03245
X06565Y-03775
X06565Y-03845
X06575Y-04245
X0658Y-04595
X0658Y-04865
X0658Y-05215
X0659Y-03385
X0659Y-03635
X0659Y-03985
X06595Y-03035
X0671Y-0294
X0671Y-0348
X0671Y-0354
X0671Y-0408
X0671Y-0417
X0671Y-0467
X0671Y-0479
X0671Y-0529
X0676Y-04845
X06765Y-05235
X0677Y-043
X0677Y-0454
X0677Y-049187
X0677Y-051613
X06795Y-0307
X06795Y-03345
X06805Y-03695
X06805Y-03925
X0701Y-0466
X0701Y-0479
X0702Y-0459
X0702Y-0487
X07075Y-05
T2
X0428Y-0295
X0438Y-0295
X0448Y-0295
X047Y-0295
X048Y-0295
X0516Y-0295
X0526Y-0295
X069Y-030108
X069Y-031092
X069Y-033108
X069Y-034092
X069Y-036108
X069Y-037092
X069Y-039108
X069Y-040092
X069Y-042208
X069Y-043192
X069Y-045108
X069Y-046092
X069Y-048508
X069Y-049492
X069Y-051508
X069Y-052492
X0715Y-0316
X0715Y-0326
X0715Y-0336
X0715Y-0365
X0715Y-0375
X0715Y-0385
X0715Y-0435
X0715Y-0445
X0715Y-0455
X0715Y-049
X0715Y-05
X0715Y-051
T3
X0394Y-0383
X0394Y-0393
X0394Y-0403
X0394Y-0413
X0394Y-0423
X0394Y-0433
X0394Y-0443
X0394Y-0453
X0394Y-0463
X0394Y-0473
X0394Y-0483
X0394Y-0493
X0394Y-0503
X0394Y-0513
X0404Y-0383
X0414Y-0383
X0424Y-0383
X0434Y-0383
X0444Y-0383
X0454Y-0383
X0454Y-0393
X0454Y-0403
X0454Y-0413
X0454Y-0423
X0454Y-0433
X0454Y-0443
X0454Y-0453
X0454Y-0463
X0454Y-0473
X0454Y-0483
X0454Y-0493
X0454Y-0503
X0454Y-0513
T4
X0395Y-0295
X0395Y-0535
X0715Y-0295
X0715Y-0535
T0
M30
