G04 (created by PCBNEW (2013-07-07 BZR 4022)-stable) date 5/10/2015 2:36:51 PM*
%MOIN*%
G04 Gerber Fmt 3.4, Leading zero omitted, Abs format*
%FSLAX34Y34*%
G01*
G70*
G90*
G04 APERTURE LIST*
%ADD10C,0.006*%
%ADD11C,0.012*%
%ADD12C,0.01*%
%ADD13C,0.035*%
%ADD14R,0.0472441X0.0354331*%
%ADD15R,0.0354331X0.0472441*%
%ADD16R,0.0354331X0.0314961*%
%ADD17R,0.216535X0.0787402*%
%ADD18R,0.023622X0.0610236*%
%ADD19R,0.065X0.065*%
%ADD20C,0.065*%
%ADD21R,0.0610236X0.023622*%
%ADD22R,0.055X0.055*%
%ADD23C,0.055*%
%ADD24R,0.1X0.14*%
%ADD25R,0.14X0.1*%
%ADD26R,0.05X0.0165*%
%ADD27R,0.0354331X0.0165354*%
%ADD28R,0.0433071X0.0492126*%
%ADD29R,0.0531496X0.110236*%
%ADD30R,0.110236X0.0531496*%
%ADD31R,0.0610236X0.0531496*%
%ADD32R,0.0531496X0.0610236*%
%ADD33R,0.0452756X0.0433071*%
%ADD34R,0.0433071X0.0452756*%
%ADD35R,0.0511811X0.015748*%
%ADD36R,0.0393701X0.0472441*%
%ADD37R,0.0314961X0.0314961*%
%ADD38C,0.224409*%
%ADD39C,0.02*%
%ADD40C,0.035*%
%ADD41C,0.015*%
%ADD42C,0.03*%
%ADD43C,0.025*%
%ADD44C,0.05*%
%ADD45C,0.04*%
G04 APERTURE END LIST*
G54D10*
G54D11*
X43222Y-53581D02*
X43194Y-53552D01*
X43137Y-53467D01*
X43108Y-53410D01*
X43080Y-53324D01*
X43051Y-53181D01*
X43051Y-53067D01*
X43080Y-52924D01*
X43108Y-52838D01*
X43137Y-52781D01*
X43194Y-52695D01*
X43222Y-52667D01*
X43708Y-53324D02*
X43651Y-53352D01*
X43537Y-53352D01*
X43480Y-53324D01*
X43451Y-53295D01*
X43422Y-53238D01*
X43422Y-53067D01*
X43451Y-53010D01*
X43480Y-52981D01*
X43537Y-52952D01*
X43651Y-52952D01*
X43708Y-52981D01*
X43908Y-53581D02*
X43937Y-53552D01*
X43994Y-53467D01*
X44022Y-53410D01*
X44051Y-53324D01*
X44080Y-53181D01*
X44080Y-53067D01*
X44051Y-52924D01*
X44022Y-52838D01*
X43994Y-52781D01*
X43937Y-52695D01*
X43908Y-52667D01*
X44794Y-52810D02*
X44822Y-52781D01*
X44880Y-52752D01*
X45022Y-52752D01*
X45080Y-52781D01*
X45108Y-52810D01*
X45137Y-52867D01*
X45137Y-52924D01*
X45108Y-53010D01*
X44765Y-53352D01*
X45137Y-53352D01*
X45508Y-52752D02*
X45565Y-52752D01*
X45622Y-52781D01*
X45651Y-52810D01*
X45680Y-52867D01*
X45708Y-52981D01*
X45708Y-53124D01*
X45680Y-53238D01*
X45651Y-53295D01*
X45622Y-53324D01*
X45565Y-53352D01*
X45508Y-53352D01*
X45451Y-53324D01*
X45422Y-53295D01*
X45394Y-53238D01*
X45365Y-53124D01*
X45365Y-52981D01*
X45394Y-52867D01*
X45422Y-52810D01*
X45451Y-52781D01*
X45508Y-52752D01*
X46280Y-53352D02*
X45937Y-53352D01*
X46108Y-53352D02*
X46108Y-52752D01*
X46051Y-52838D01*
X45994Y-52895D01*
X45937Y-52924D01*
X46822Y-52752D02*
X46537Y-52752D01*
X46508Y-53038D01*
X46537Y-53010D01*
X46594Y-52981D01*
X46737Y-52981D01*
X46794Y-53010D01*
X46822Y-53038D01*
X46851Y-53095D01*
X46851Y-53238D01*
X46822Y-53295D01*
X46794Y-53324D01*
X46737Y-53352D01*
X46594Y-53352D01*
X46537Y-53324D01*
X46508Y-53295D01*
X47908Y-53352D02*
X47708Y-53067D01*
X47565Y-53352D02*
X47565Y-52752D01*
X47794Y-52752D01*
X47851Y-52781D01*
X47880Y-52810D01*
X47908Y-52867D01*
X47908Y-52952D01*
X47880Y-53010D01*
X47851Y-53038D01*
X47794Y-53067D01*
X47565Y-53067D01*
X48365Y-53038D02*
X48165Y-53038D01*
X48165Y-53352D02*
X48165Y-52752D01*
X48451Y-52752D01*
X48622Y-52752D02*
X48765Y-53352D01*
X48880Y-52924D01*
X48994Y-53352D01*
X49137Y-52752D01*
X49365Y-53352D02*
X49365Y-52752D01*
X49365Y-53038D02*
X49708Y-53038D01*
X49708Y-53352D02*
X49708Y-52752D01*
X43215Y-54385D02*
X43187Y-54414D01*
X43101Y-54442D01*
X43044Y-54442D01*
X42958Y-54414D01*
X42901Y-54357D01*
X42872Y-54300D01*
X42844Y-54185D01*
X42844Y-54100D01*
X42872Y-53985D01*
X42901Y-53928D01*
X42958Y-53871D01*
X43044Y-53842D01*
X43101Y-53842D01*
X43187Y-53871D01*
X43215Y-53900D01*
X43815Y-54385D02*
X43787Y-54414D01*
X43701Y-54442D01*
X43644Y-54442D01*
X43558Y-54414D01*
X43501Y-54357D01*
X43472Y-54300D01*
X43444Y-54185D01*
X43444Y-54100D01*
X43472Y-53985D01*
X43501Y-53928D01*
X43558Y-53871D01*
X43644Y-53842D01*
X43701Y-53842D01*
X43787Y-53871D01*
X43815Y-53900D01*
X44072Y-54214D02*
X44530Y-54214D01*
X45015Y-54128D02*
X45101Y-54157D01*
X45130Y-54185D01*
X45158Y-54242D01*
X45158Y-54328D01*
X45130Y-54385D01*
X45101Y-54414D01*
X45044Y-54442D01*
X44815Y-54442D01*
X44815Y-53842D01*
X45015Y-53842D01*
X45072Y-53871D01*
X45101Y-53900D01*
X45130Y-53957D01*
X45130Y-54014D01*
X45101Y-54071D01*
X45072Y-54100D01*
X45015Y-54128D01*
X44815Y-54128D01*
X45530Y-54157D02*
X45530Y-54442D01*
X45330Y-53842D02*
X45530Y-54157D01*
X45730Y-53842D01*
X45930Y-54214D02*
X46387Y-54214D01*
X46644Y-54414D02*
X46730Y-54442D01*
X46872Y-54442D01*
X46930Y-54414D01*
X46958Y-54385D01*
X46987Y-54328D01*
X46987Y-54271D01*
X46958Y-54214D01*
X46930Y-54185D01*
X46872Y-54157D01*
X46758Y-54128D01*
X46701Y-54100D01*
X46672Y-54071D01*
X46644Y-54014D01*
X46644Y-53957D01*
X46672Y-53900D01*
X46701Y-53871D01*
X46758Y-53842D01*
X46901Y-53842D01*
X46987Y-53871D01*
X47215Y-54271D02*
X47501Y-54271D01*
X47158Y-54442D02*
X47358Y-53842D01*
X47558Y-54442D01*
X47758Y-54214D02*
X48215Y-54214D01*
X48501Y-54442D02*
X48501Y-53842D01*
X48844Y-54442D01*
X48844Y-53842D01*
X49472Y-54385D02*
X49444Y-54414D01*
X49358Y-54442D01*
X49301Y-54442D01*
X49215Y-54414D01*
X49158Y-54357D01*
X49130Y-54300D01*
X49101Y-54185D01*
X49101Y-54100D01*
X49130Y-53985D01*
X49158Y-53928D01*
X49215Y-53871D01*
X49301Y-53842D01*
X49358Y-53842D01*
X49444Y-53871D01*
X49472Y-53900D01*
X50130Y-54042D02*
X50272Y-54442D01*
X50415Y-54042D01*
X50901Y-54042D02*
X50901Y-54442D01*
X50758Y-53814D02*
X50615Y-54242D01*
X50987Y-54242D01*
X51215Y-54385D02*
X51244Y-54414D01*
X51215Y-54442D01*
X51187Y-54414D01*
X51215Y-54385D01*
X51215Y-54442D01*
X51615Y-53842D02*
X51672Y-53842D01*
X51730Y-53871D01*
X51758Y-53900D01*
X51787Y-53957D01*
X51815Y-54071D01*
X51815Y-54214D01*
X51787Y-54328D01*
X51758Y-54385D01*
X51730Y-54414D01*
X51672Y-54442D01*
X51615Y-54442D01*
X51558Y-54414D01*
X51530Y-54385D01*
X51501Y-54328D01*
X51472Y-54214D01*
X51472Y-54071D01*
X51501Y-53957D01*
X51530Y-53900D01*
X51558Y-53871D01*
X51615Y-53842D01*
G54D12*
X38000Y-28000D02*
X73000Y-28000D01*
X38000Y-55000D02*
X38000Y-28000D01*
X73000Y-55000D02*
X38000Y-55000D01*
X73000Y-28000D02*
X73000Y-55000D01*
G54D13*
X55800Y-49850D03*
X55800Y-49400D03*
X55800Y-50300D03*
X55800Y-50750D03*
X55800Y-51650D03*
X55800Y-51200D03*
X56300Y-51200D03*
X56300Y-51650D03*
X56300Y-50750D03*
X56300Y-50300D03*
X56400Y-47950D03*
X56400Y-47050D03*
X56400Y-47500D03*
X56400Y-46150D03*
X56400Y-45700D03*
X56400Y-46600D03*
X56900Y-45150D03*
X42700Y-48800D03*
X42700Y-49300D03*
X42700Y-49800D03*
X42200Y-49800D03*
X42200Y-49300D03*
X42200Y-48800D03*
X56600Y-36700D03*
X56600Y-36200D03*
X57950Y-31750D03*
X57250Y-31750D03*
X50650Y-37100D03*
X56100Y-38000D03*
X56900Y-39850D03*
X56900Y-39150D03*
X50900Y-33100D03*
X50900Y-33750D03*
X52050Y-32100D03*
X51450Y-32100D03*
X50900Y-32500D03*
X50900Y-30600D03*
X50900Y-31200D03*
X50900Y-31850D03*
G54D14*
X62900Y-38486D03*
X62900Y-39313D03*
G54D15*
X65613Y-41800D03*
X64786Y-41800D03*
X65613Y-46600D03*
X64786Y-46600D03*
X58613Y-52700D03*
X57786Y-52700D03*
X64986Y-34400D03*
X65813Y-34400D03*
X64986Y-29800D03*
X65813Y-29800D03*
G54D14*
X67100Y-49186D03*
X67100Y-50013D03*
X63250Y-51613D03*
X63250Y-50786D03*
X62900Y-37713D03*
X62900Y-36886D03*
X67100Y-37713D03*
X67100Y-36886D03*
X63800Y-39313D03*
X63800Y-38486D03*
X63800Y-36886D03*
X63800Y-37713D03*
X67100Y-51613D03*
X67100Y-50786D03*
X63250Y-49186D03*
X63250Y-50013D03*
G54D15*
X60063Y-49700D03*
X59236Y-49700D03*
G54D14*
X54000Y-52686D03*
X54000Y-53513D03*
G54D15*
X52736Y-43950D03*
X53563Y-43950D03*
X52736Y-44650D03*
X53563Y-44650D03*
X52736Y-45350D03*
X53563Y-45350D03*
X52736Y-46050D03*
X53563Y-46050D03*
X40386Y-47300D03*
X41213Y-47300D03*
G54D14*
X67100Y-38486D03*
X67100Y-39313D03*
X52200Y-52686D03*
X52200Y-53513D03*
X46600Y-38013D03*
X46600Y-37186D03*
G54D16*
X47965Y-32300D03*
X48634Y-32300D03*
X46665Y-32300D03*
X47334Y-32300D03*
X47965Y-31500D03*
X48634Y-31500D03*
G54D17*
X53429Y-41800D03*
X57170Y-41800D03*
G54D18*
X65450Y-51462D03*
X65950Y-51462D03*
X64950Y-51462D03*
X64450Y-51462D03*
X64450Y-49337D03*
X64950Y-49337D03*
X65950Y-49337D03*
X65450Y-49337D03*
X65150Y-37037D03*
X64650Y-37037D03*
X65650Y-37037D03*
X66150Y-37037D03*
X66150Y-39162D03*
X65650Y-39162D03*
X64650Y-39162D03*
X65150Y-39162D03*
X57800Y-51762D03*
X58300Y-51762D03*
X57300Y-51762D03*
X56800Y-51762D03*
X56800Y-49637D03*
X57300Y-49637D03*
X58300Y-49637D03*
X57800Y-49637D03*
G54D19*
X45400Y-51300D03*
G54D20*
X45400Y-50300D03*
X45400Y-49300D03*
X45400Y-48300D03*
X45400Y-47300D03*
X45400Y-46300D03*
X45400Y-45300D03*
X45400Y-44300D03*
X45400Y-43300D03*
X45400Y-42300D03*
X45400Y-41300D03*
X45400Y-40300D03*
X45400Y-39300D03*
X45400Y-38300D03*
X44400Y-38300D03*
X43400Y-38300D03*
X42400Y-38300D03*
X41400Y-38300D03*
X40400Y-38300D03*
X39400Y-38300D03*
X39400Y-39300D03*
X39400Y-40300D03*
X39400Y-41300D03*
X39400Y-42300D03*
X39400Y-43300D03*
X39400Y-44300D03*
X39400Y-45300D03*
X39400Y-46300D03*
X39400Y-47300D03*
X39400Y-48300D03*
X39400Y-49300D03*
X39400Y-50300D03*
X39400Y-51300D03*
G54D21*
X48337Y-48250D03*
X48337Y-48750D03*
X48337Y-49250D03*
X48337Y-49750D03*
X50462Y-49750D03*
X50462Y-49250D03*
X50462Y-48750D03*
X50462Y-48250D03*
X50462Y-45650D03*
X50462Y-45150D03*
X50462Y-44650D03*
X50462Y-44150D03*
X50462Y-43650D03*
X50462Y-43150D03*
X50462Y-42650D03*
X50462Y-42150D03*
X48337Y-42150D03*
X48337Y-42650D03*
X48337Y-43150D03*
X48337Y-43650D03*
X48337Y-44150D03*
X48337Y-44650D03*
X48337Y-45150D03*
X48337Y-45650D03*
G54D22*
X42800Y-29500D03*
G54D23*
X43800Y-29500D03*
X44800Y-29500D03*
G54D22*
X71500Y-38500D03*
G54D23*
X71500Y-37500D03*
X71500Y-36500D03*
G54D22*
X71500Y-31600D03*
G54D23*
X71500Y-32600D03*
X71500Y-33600D03*
G54D22*
X71500Y-43500D03*
G54D23*
X71500Y-44500D03*
X71500Y-45500D03*
G54D22*
X71500Y-51000D03*
G54D23*
X71500Y-50000D03*
X71500Y-49000D03*
G54D22*
X47000Y-29500D03*
G54D23*
X48000Y-29500D03*
G54D22*
X51600Y-29500D03*
G54D23*
X52600Y-29500D03*
G54D22*
X69000Y-34092D03*
G54D23*
X69000Y-33107D03*
G54D22*
X69000Y-52492D03*
G54D23*
X69000Y-51507D03*
G54D22*
X69000Y-48507D03*
G54D23*
X69000Y-49492D03*
G54D22*
X69000Y-43192D03*
G54D23*
X69000Y-42207D03*
G54D22*
X69000Y-45107D03*
G54D23*
X69000Y-46092D03*
G54D22*
X69000Y-30107D03*
G54D23*
X69000Y-31092D03*
G54D22*
X69000Y-39107D03*
G54D23*
X69000Y-40092D03*
G54D22*
X69000Y-37092D03*
G54D23*
X69000Y-36107D03*
G54D24*
X39700Y-35000D03*
X43700Y-35000D03*
G54D25*
X53500Y-36900D03*
X53500Y-32900D03*
G54D26*
X44950Y-32825D03*
X44950Y-33075D03*
X44950Y-33325D03*
X44950Y-33575D03*
X44950Y-33825D03*
X44950Y-34075D03*
X44950Y-34325D03*
X44950Y-34575D03*
X47050Y-34575D03*
X47050Y-34325D03*
X47050Y-34075D03*
X47050Y-33825D03*
X47050Y-33575D03*
X47050Y-33325D03*
X47050Y-33075D03*
X47050Y-32825D03*
G54D27*
X52253Y-38816D03*
X52253Y-39072D03*
X52253Y-39327D03*
X52253Y-39583D03*
X53946Y-39583D03*
X53946Y-39327D03*
X53946Y-39072D03*
X53946Y-38816D03*
G54D28*
X54000Y-50937D03*
X54000Y-51862D03*
X52200Y-50937D03*
X52200Y-51862D03*
G54D29*
X51670Y-31000D03*
X52929Y-31000D03*
G54D30*
X50650Y-39029D03*
X50650Y-37770D03*
X57600Y-33629D03*
X57600Y-32370D03*
G54D29*
X54920Y-39500D03*
X56179Y-39500D03*
G54D30*
X61600Y-44329D03*
X61600Y-43070D03*
G54D29*
X58129Y-38000D03*
X56870Y-38000D03*
G54D30*
X61600Y-31129D03*
X61600Y-29870D03*
G54D31*
X67100Y-34193D03*
X67100Y-33406D03*
X59700Y-45706D03*
X59700Y-46493D03*
X59700Y-48093D03*
X59700Y-47306D03*
G54D32*
X65593Y-52800D03*
X64806Y-52800D03*
X65593Y-48000D03*
X64806Y-48000D03*
X58093Y-36400D03*
X57306Y-36400D03*
G54D31*
X67100Y-30793D03*
X67100Y-30006D03*
G54D33*
X57404Y-48450D03*
X56695Y-48450D03*
X48354Y-47600D03*
X47645Y-47600D03*
G54D34*
X49400Y-31545D03*
X49400Y-32254D03*
G54D33*
X55204Y-43300D03*
X54495Y-43300D03*
X48354Y-46400D03*
X47645Y-46400D03*
X50445Y-46300D03*
X51154Y-46300D03*
X50445Y-47600D03*
X51154Y-47600D03*
G54D34*
X62550Y-49954D03*
X62550Y-49245D03*
X67100Y-45445D03*
X67100Y-46154D03*
X66000Y-44554D03*
X66000Y-43845D03*
X67100Y-42954D03*
X67100Y-42245D03*
G54D33*
X65045Y-35800D03*
X65754Y-35800D03*
G54D34*
X64400Y-44554D03*
X64400Y-43845D03*
X62550Y-50845D03*
X62550Y-51554D03*
G54D33*
X65045Y-40400D03*
X65754Y-40400D03*
X63754Y-29800D03*
X63045Y-29800D03*
X56045Y-43300D03*
X56754Y-43300D03*
G54D34*
X64600Y-31745D03*
X64600Y-32454D03*
X66200Y-31745D03*
X66200Y-32454D03*
G54D33*
X63045Y-34400D03*
X63754Y-34400D03*
G54D35*
X57600Y-45772D03*
X57600Y-45516D03*
X57600Y-45260D03*
X57600Y-45004D03*
X57600Y-44748D03*
X57600Y-44492D03*
X57600Y-44236D03*
X57600Y-46027D03*
X57600Y-46283D03*
X57600Y-46539D03*
X57600Y-46795D03*
X57600Y-47051D03*
X57600Y-47307D03*
X57600Y-47563D03*
X55199Y-47563D03*
X55199Y-47307D03*
X55199Y-47051D03*
X55199Y-46795D03*
X55199Y-46539D03*
X55199Y-46283D03*
X55199Y-46027D03*
X55199Y-44236D03*
X55199Y-44492D03*
X55199Y-44748D03*
X55199Y-45004D03*
X55199Y-45260D03*
X55199Y-45516D03*
X55199Y-45772D03*
G54D36*
X49733Y-35300D03*
X48866Y-35300D03*
X43833Y-31200D03*
X42966Y-31200D03*
G54D37*
X60985Y-31900D03*
X61614Y-31900D03*
X60985Y-45100D03*
X61614Y-45100D03*
G54D13*
X48300Y-40700D03*
X48300Y-40200D03*
X48300Y-41200D03*
X50500Y-40200D03*
X50500Y-40700D03*
X50500Y-41200D03*
X45800Y-33600D03*
X45800Y-34200D03*
X45800Y-34800D03*
X44600Y-36000D03*
X45800Y-33000D03*
X45800Y-32400D03*
X45200Y-35200D03*
X44600Y-35200D03*
X45200Y-36000D03*
X45800Y-35400D03*
X45800Y-31800D03*
X45800Y-36000D03*
X48700Y-33200D03*
X48350Y-33600D03*
X49000Y-33600D03*
X47750Y-34450D03*
X48300Y-35050D03*
X48300Y-35650D03*
X48300Y-34450D03*
X50400Y-35600D03*
X50400Y-35100D03*
X49800Y-34600D03*
X50400Y-34600D03*
X49800Y-36100D03*
X50400Y-36100D03*
X46000Y-37100D03*
X46600Y-36700D03*
X47200Y-37100D03*
X48650Y-47000D03*
X48100Y-47000D03*
G54D38*
X71500Y-29500D03*
X71500Y-53500D03*
X39500Y-53500D03*
X39500Y-29500D03*
G54D13*
X39100Y-33200D03*
X39100Y-32700D03*
X42300Y-32100D03*
X42800Y-32100D03*
X43300Y-32100D03*
X42300Y-31100D03*
X42300Y-31600D03*
X53700Y-30600D03*
X53700Y-31400D03*
X54900Y-38550D03*
X54900Y-38000D03*
X51650Y-38700D03*
X51650Y-39200D03*
X52100Y-40050D03*
X52550Y-40050D03*
X50100Y-46950D03*
X50650Y-46950D03*
X52850Y-46850D03*
X53400Y-47400D03*
X52850Y-47400D03*
X56550Y-33650D03*
X56050Y-33650D03*
X58700Y-33650D03*
X57700Y-37050D03*
X58250Y-37050D03*
X58800Y-37050D03*
X46100Y-38600D03*
X46600Y-38600D03*
X47100Y-38600D03*
X41700Y-48800D03*
X41700Y-49300D03*
X41700Y-49800D03*
X54650Y-46400D03*
X56900Y-44250D03*
X56900Y-44700D03*
X52200Y-50350D03*
X50700Y-50850D03*
X60500Y-31900D03*
X61000Y-37750D03*
X60500Y-45100D03*
X60500Y-50900D03*
X58300Y-51100D03*
X59050Y-48950D03*
X54000Y-50400D03*
X52550Y-43150D03*
X54300Y-45850D03*
X51100Y-43150D03*
X67700Y-49186D03*
X67700Y-51613D03*
X63850Y-51200D03*
X63850Y-49600D03*
X65450Y-50050D03*
X62200Y-52700D03*
X65450Y-44550D03*
X67700Y-45400D03*
X67700Y-43000D03*
X63850Y-43450D03*
X60900Y-45700D03*
X63850Y-45000D03*
X60900Y-46450D03*
X68050Y-36950D03*
X68050Y-39250D03*
X60050Y-49100D03*
X62000Y-35150D03*
X65150Y-38450D03*
X65150Y-31750D03*
X60750Y-33500D03*
X62300Y-32500D03*
X67950Y-33450D03*
X67950Y-30700D03*
X51350Y-49250D03*
X54350Y-48750D03*
X51350Y-48750D03*
X57400Y-49000D03*
X51100Y-45150D03*
X51100Y-44650D03*
X51100Y-44150D03*
X51100Y-43650D03*
X55200Y-48100D03*
X51100Y-42650D03*
X48200Y-50850D03*
X47600Y-45150D03*
X47600Y-44650D03*
X46300Y-43000D03*
X47600Y-42650D03*
X41200Y-46500D03*
X47600Y-43113D03*
X47600Y-44200D03*
X47486Y-49486D03*
X47600Y-43650D03*
X47500Y-48750D03*
X47100Y-46400D03*
X47100Y-47600D03*
X47650Y-50050D03*
X47800Y-42150D03*
X70100Y-47900D03*
X70100Y-46600D03*
X59000Y-41500D03*
X61600Y-29250D03*
X63050Y-29250D03*
X67100Y-29400D03*
X67100Y-34800D03*
X65650Y-32450D03*
X62500Y-34400D03*
X62500Y-35800D03*
X61600Y-41000D03*
X63050Y-40950D03*
X65650Y-37750D03*
X67100Y-35400D03*
X67100Y-40800D03*
X67100Y-41700D03*
X67100Y-46700D03*
X64950Y-43845D03*
X62600Y-45900D03*
X62600Y-42500D03*
X61600Y-42500D03*
X70200Y-45900D03*
X70200Y-48700D03*
X67650Y-52350D03*
X67100Y-52900D03*
X67100Y-47900D03*
X67600Y-48450D03*
X62550Y-52100D03*
X62550Y-48700D03*
X61600Y-48250D03*
X64950Y-50754D03*
X54000Y-54050D03*
X52200Y-54050D03*
X56050Y-43800D03*
X56050Y-42800D03*
X55200Y-43800D03*
X55200Y-42800D03*
X51350Y-49800D03*
X51150Y-48100D03*
X51150Y-45800D03*
X51050Y-42150D03*
X48000Y-32750D03*
X44900Y-31650D03*
X64950Y-50050D03*
X65800Y-48650D03*
X65800Y-52150D03*
X64950Y-44550D03*
X65800Y-45950D03*
X65750Y-42450D03*
X65650Y-38450D03*
X65900Y-36350D03*
X65900Y-39850D03*
X63750Y-39850D03*
X63750Y-36350D03*
X65900Y-33850D03*
X65950Y-30350D03*
X63750Y-30350D03*
X63750Y-33850D03*
X65650Y-31750D03*
X70750Y-50000D03*
X58300Y-45700D03*
X58250Y-46150D03*
X47300Y-31850D03*
X57450Y-35700D03*
X53000Y-39350D03*
G54D12*
X50650Y-39029D02*
X51479Y-39029D01*
X51479Y-39029D02*
X51650Y-39200D01*
G54D39*
X52200Y-50937D02*
X52200Y-50350D01*
X50462Y-48250D02*
X50462Y-47617D01*
X50462Y-47617D02*
X50445Y-47600D01*
X50462Y-45650D02*
X50462Y-46282D01*
X50462Y-46282D02*
X50445Y-46300D01*
G54D40*
X50445Y-47600D02*
X50445Y-46950D01*
X50445Y-46300D02*
X50445Y-46950D01*
X50445Y-46950D02*
X50450Y-46950D01*
X50100Y-46950D02*
X50450Y-46950D01*
X50450Y-46950D02*
X50650Y-46950D01*
G54D41*
X52253Y-39072D02*
X51777Y-39072D01*
X51777Y-39072D02*
X51650Y-39200D01*
X52253Y-38816D02*
X51766Y-38816D01*
X51766Y-38816D02*
X51650Y-38700D01*
G54D12*
X58129Y-38000D02*
X58129Y-37170D01*
X58129Y-37170D02*
X58250Y-37050D01*
G54D42*
X60985Y-31900D02*
X60500Y-31900D01*
X60985Y-45100D02*
X60500Y-45100D01*
G54D41*
X58300Y-51762D02*
X58300Y-51100D01*
G54D43*
X54000Y-50937D02*
X54000Y-50400D01*
G54D42*
X58093Y-36400D02*
X58093Y-37006D01*
X58137Y-37050D02*
X58250Y-37050D01*
X58093Y-37006D02*
X58137Y-37050D01*
G54D12*
X55199Y-45516D02*
X54016Y-45516D01*
X53850Y-46050D02*
X53563Y-46050D01*
X53950Y-45950D02*
X53850Y-46050D01*
X53950Y-45582D02*
X53950Y-45950D01*
X54016Y-45516D02*
X53950Y-45582D01*
X55199Y-45260D02*
X54010Y-45260D01*
X53920Y-45350D02*
X53563Y-45350D01*
X54010Y-45260D02*
X53920Y-45350D01*
X55199Y-45772D02*
X54377Y-45772D01*
X52550Y-43150D02*
X51100Y-43150D01*
X54377Y-45772D02*
X54300Y-45850D01*
X51100Y-43150D02*
X50462Y-43150D01*
X69000Y-48507D02*
X68992Y-48507D01*
X68992Y-48507D02*
X68313Y-49186D01*
X68313Y-49186D02*
X67700Y-49186D01*
X67700Y-49186D02*
X67100Y-49186D01*
X69000Y-52492D02*
X68992Y-52492D01*
X68992Y-52492D02*
X68113Y-51613D01*
X68113Y-51613D02*
X67700Y-51613D01*
X67700Y-51613D02*
X67100Y-51613D01*
G54D41*
X63250Y-50786D02*
X62609Y-50786D01*
X62609Y-50786D02*
X62550Y-50845D01*
G54D12*
X63850Y-51200D02*
X63850Y-50800D01*
X63850Y-50800D02*
X63836Y-50786D01*
X63836Y-50786D02*
X63250Y-50786D01*
X62550Y-50845D02*
X62095Y-50845D01*
X62095Y-50845D02*
X60750Y-49500D01*
X60750Y-49500D02*
X60750Y-48500D01*
X60750Y-48500D02*
X60343Y-48093D01*
X60343Y-48093D02*
X59700Y-48093D01*
X59700Y-48093D02*
X59193Y-48093D01*
X59193Y-48093D02*
X58407Y-47307D01*
X58407Y-47307D02*
X57600Y-47307D01*
G54D41*
X63250Y-50013D02*
X62609Y-50013D01*
X62609Y-50013D02*
X62550Y-49954D01*
G54D12*
X63850Y-49600D02*
X63850Y-49950D01*
X63850Y-49950D02*
X63786Y-50013D01*
X63786Y-50013D02*
X63250Y-50013D01*
X62550Y-49954D02*
X61904Y-49954D01*
X60406Y-47306D02*
X59700Y-47306D01*
X61050Y-49100D02*
X61904Y-49954D01*
X61050Y-47950D02*
X61050Y-49100D01*
X60406Y-47306D02*
X61050Y-47950D01*
X59700Y-47306D02*
X59156Y-47306D01*
X59156Y-47306D02*
X58901Y-47051D01*
X58901Y-47051D02*
X57600Y-47051D01*
G54D41*
X65450Y-50050D02*
X65450Y-49337D01*
X65450Y-44550D02*
X65454Y-44554D01*
X66000Y-44554D02*
X65454Y-44554D01*
X62200Y-52700D02*
X58613Y-52700D01*
G54D12*
X67100Y-45445D02*
X67654Y-45445D01*
X67654Y-45445D02*
X67700Y-45400D01*
X67100Y-42954D02*
X67654Y-42954D01*
X67654Y-42954D02*
X67700Y-43000D01*
X63850Y-43450D02*
X64786Y-42513D01*
X64786Y-42513D02*
X64786Y-41800D01*
X60900Y-45700D02*
X60893Y-45706D01*
X60893Y-45706D02*
X59700Y-45706D01*
X57600Y-46539D02*
X58460Y-46539D01*
X58460Y-46539D02*
X58750Y-46250D01*
X58750Y-46250D02*
X58750Y-45950D01*
X58750Y-45950D02*
X58993Y-45706D01*
X58993Y-45706D02*
X59700Y-45706D01*
X64786Y-45936D02*
X64786Y-46600D01*
X63850Y-45000D02*
X64786Y-45936D01*
X60900Y-46450D02*
X60856Y-46493D01*
X60856Y-46493D02*
X59700Y-46493D01*
X59700Y-46493D02*
X59056Y-46493D01*
X59056Y-46493D02*
X58754Y-46795D01*
X58754Y-46795D02*
X57600Y-46795D01*
X55199Y-45004D02*
X54254Y-45004D01*
X53900Y-44650D02*
X53563Y-44650D01*
X54254Y-45004D02*
X53900Y-44650D01*
X62900Y-38486D02*
X62436Y-38486D01*
X59089Y-45260D02*
X57600Y-45260D01*
X60550Y-43800D02*
X59089Y-45260D01*
X60550Y-39700D02*
X60550Y-43800D01*
X62000Y-38250D02*
X60550Y-39700D01*
X62200Y-38250D02*
X62000Y-38250D01*
X62436Y-38486D02*
X62200Y-38250D01*
X62900Y-37713D02*
X62186Y-37713D01*
X58945Y-45004D02*
X57600Y-45004D01*
X60300Y-43650D02*
X58945Y-45004D01*
X60300Y-39600D02*
X60300Y-43650D01*
X62186Y-37713D02*
X60300Y-39600D01*
X69000Y-37092D02*
X68192Y-37092D01*
X67986Y-36886D02*
X67100Y-36886D01*
X68192Y-37092D02*
X68050Y-36950D01*
X68050Y-36950D02*
X67986Y-36886D01*
X69000Y-39107D02*
X68192Y-39107D01*
X67986Y-39313D02*
X67100Y-39313D01*
X68192Y-39107D02*
X68050Y-39250D01*
X68050Y-39250D02*
X67986Y-39313D01*
G54D41*
X60063Y-49113D02*
X60050Y-49100D01*
X60063Y-49700D02*
X60063Y-49113D01*
X65150Y-39162D02*
X65150Y-38450D01*
X64600Y-31745D02*
X65145Y-31745D01*
X65145Y-31745D02*
X65150Y-31750D01*
G54D12*
X58557Y-44492D02*
X57600Y-44492D01*
X59450Y-43600D02*
X58557Y-44492D01*
X59450Y-34800D02*
X59450Y-43600D01*
X60750Y-33500D02*
X59450Y-34800D01*
X58701Y-44748D02*
X57600Y-44748D01*
X59700Y-43750D02*
X58701Y-44748D01*
X59700Y-35100D02*
X59700Y-43750D01*
X62300Y-32500D02*
X59700Y-35100D01*
X67100Y-33406D02*
X67906Y-33406D01*
X67906Y-33406D02*
X67950Y-33450D01*
X67100Y-30793D02*
X67856Y-30793D01*
X67856Y-30793D02*
X67950Y-30700D01*
X51350Y-49250D02*
X53750Y-49250D01*
X54204Y-46795D02*
X55199Y-46795D01*
X53950Y-47050D02*
X54204Y-46795D01*
X53950Y-49050D02*
X53950Y-47050D01*
X53750Y-49250D02*
X53950Y-49050D01*
X50462Y-49250D02*
X51350Y-49250D01*
X55199Y-44748D02*
X54298Y-44748D01*
X53900Y-43950D02*
X53563Y-43950D01*
X54050Y-44100D02*
X53900Y-43950D01*
X54050Y-44500D02*
X54050Y-44100D01*
X54298Y-44748D02*
X54050Y-44500D01*
X54548Y-47051D02*
X55199Y-47051D01*
X54350Y-47250D02*
X54548Y-47051D01*
X54350Y-48750D02*
X54350Y-47250D01*
X51350Y-48750D02*
X50462Y-48750D01*
G54D41*
X57300Y-49637D02*
X57300Y-50300D01*
X56800Y-50800D02*
X56800Y-51762D01*
X57300Y-50300D02*
X56800Y-50800D01*
X57300Y-49637D02*
X57300Y-49100D01*
X57300Y-49100D02*
X57400Y-49000D01*
X57404Y-48450D02*
X57404Y-48995D01*
X57404Y-48995D02*
X57400Y-49000D01*
X57600Y-47563D02*
X57600Y-47849D01*
X57404Y-48045D02*
X57404Y-48450D01*
X57600Y-47849D02*
X57404Y-48045D01*
G54D12*
X51100Y-45150D02*
X51400Y-45150D01*
X52300Y-46050D02*
X52736Y-46050D01*
X51400Y-45150D02*
X52300Y-46050D01*
X51100Y-45150D02*
X50462Y-45150D01*
X51100Y-44650D02*
X51550Y-44650D01*
X52250Y-45350D02*
X52736Y-45350D01*
X51550Y-44650D02*
X52250Y-45350D01*
X51100Y-44650D02*
X50462Y-44650D01*
X51100Y-44150D02*
X51650Y-44150D01*
X52150Y-44650D02*
X52736Y-44650D01*
X51650Y-44150D02*
X52150Y-44650D01*
X51100Y-44150D02*
X50462Y-44150D01*
X51100Y-43650D02*
X51800Y-43650D01*
X52100Y-43950D02*
X52736Y-43950D01*
X51800Y-43650D02*
X52100Y-43950D01*
X51100Y-43650D02*
X50462Y-43650D01*
X55199Y-48099D02*
X55199Y-47563D01*
X55200Y-48100D02*
X55199Y-48099D01*
X51100Y-42650D02*
X50462Y-42650D01*
G54D44*
X39400Y-49300D02*
X41700Y-49300D01*
G54D39*
X48354Y-47600D02*
X48354Y-48232D01*
X48354Y-48232D02*
X48337Y-48250D01*
X48337Y-45650D02*
X48337Y-46382D01*
X48337Y-46382D02*
X48354Y-46400D01*
G54D42*
X48354Y-47600D02*
X48354Y-46995D01*
X48354Y-46995D02*
X48104Y-46995D01*
X48104Y-46995D02*
X48100Y-47000D01*
X48354Y-46400D02*
X48354Y-46995D01*
X48358Y-47000D02*
X48650Y-47000D01*
X48354Y-46995D02*
X48358Y-47000D01*
G54D12*
X39400Y-38300D02*
X42450Y-41350D01*
X42450Y-41350D02*
X42800Y-41700D01*
X42800Y-41700D02*
X42850Y-41750D01*
X42850Y-41750D02*
X42900Y-41800D01*
X42900Y-41800D02*
X46300Y-41800D01*
X46300Y-41800D02*
X46650Y-42150D01*
X46650Y-42150D02*
X46650Y-44200D01*
X46650Y-44200D02*
X47600Y-45150D01*
X48337Y-45150D02*
X47600Y-45150D01*
X45400Y-41300D02*
X46500Y-41300D01*
X46500Y-41300D02*
X46900Y-41700D01*
X46900Y-41700D02*
X46900Y-43950D01*
X46900Y-43950D02*
X47600Y-44650D01*
X47600Y-44650D02*
X48337Y-44650D01*
X45400Y-48300D02*
X46050Y-48300D01*
X46300Y-48050D02*
X46300Y-43000D01*
X46050Y-48300D02*
X46300Y-48050D01*
X48337Y-42650D02*
X47600Y-42650D01*
X41213Y-47300D02*
X41213Y-46513D01*
X41213Y-46513D02*
X41200Y-46500D01*
X48300Y-43113D02*
X48337Y-43150D01*
X47600Y-43113D02*
X48300Y-43113D01*
X47650Y-44150D02*
X48337Y-44150D01*
X47600Y-44200D02*
X47650Y-44150D01*
X39400Y-44300D02*
X43000Y-44300D01*
X47173Y-49800D02*
X47486Y-49486D01*
X44850Y-49800D02*
X47173Y-49800D01*
X44000Y-48950D02*
X44850Y-49800D01*
X44000Y-45300D02*
X44000Y-48950D01*
X43000Y-44300D02*
X44000Y-45300D01*
X47723Y-49250D02*
X48337Y-49250D01*
X47486Y-49486D02*
X47723Y-49250D01*
X45400Y-39300D02*
X46350Y-39300D01*
X46350Y-39300D02*
X47100Y-40050D01*
X47100Y-40050D02*
X47100Y-43150D01*
X47100Y-43150D02*
X47600Y-43650D01*
X48337Y-43650D02*
X47600Y-43650D01*
X39400Y-43300D02*
X42600Y-43300D01*
X47450Y-48800D02*
X47500Y-48750D01*
X45100Y-48800D02*
X47450Y-48800D01*
X44450Y-48150D02*
X45100Y-48800D01*
X44450Y-45150D02*
X44450Y-48150D01*
X42600Y-43300D02*
X44450Y-45150D01*
X48337Y-48750D02*
X47500Y-48750D01*
G54D39*
X47645Y-46400D02*
X47100Y-46400D01*
X47645Y-47600D02*
X47100Y-47600D01*
X48337Y-49750D02*
X47950Y-49750D01*
X47950Y-49750D02*
X47650Y-50050D01*
X48337Y-42150D02*
X47800Y-42150D01*
G54D12*
X56870Y-38000D02*
X56100Y-38000D01*
X50650Y-37770D02*
X50650Y-37100D01*
G54D39*
X46665Y-32300D02*
X45900Y-32300D01*
X45900Y-32300D02*
X45800Y-32400D01*
G54D42*
X61600Y-29870D02*
X61600Y-29250D01*
G54D39*
X63045Y-29800D02*
X63045Y-29254D01*
X63045Y-29254D02*
X63050Y-29250D01*
G54D42*
X67100Y-30006D02*
X67100Y-29400D01*
X67100Y-34193D02*
X67100Y-34800D01*
G54D39*
X65650Y-32450D02*
X65650Y-32454D01*
G54D45*
X64600Y-32454D02*
X65650Y-32454D01*
X65650Y-32454D02*
X66200Y-32454D01*
G54D39*
X63045Y-34400D02*
X62500Y-34400D01*
X65650Y-37037D02*
X65650Y-37750D01*
G54D42*
X67100Y-42245D02*
X67100Y-41700D01*
X67100Y-46154D02*
X67100Y-46700D01*
X64400Y-43845D02*
X64950Y-43845D01*
X64950Y-43845D02*
X66000Y-43845D01*
X61600Y-43070D02*
X61600Y-42500D01*
X62550Y-51554D02*
X62550Y-52100D01*
X62550Y-49245D02*
X62550Y-48700D01*
G54D39*
X64950Y-50754D02*
X64950Y-51462D01*
G54D41*
X55199Y-47307D02*
X56142Y-47307D01*
X56142Y-47307D02*
X56400Y-47050D01*
X55199Y-46027D02*
X56277Y-46027D01*
X56277Y-46027D02*
X56400Y-46150D01*
X57600Y-46027D02*
X56522Y-46027D01*
X56522Y-46027D02*
X56400Y-46150D01*
G54D43*
X54000Y-53513D02*
X54000Y-54050D01*
X52200Y-53513D02*
X52200Y-54050D01*
G54D42*
X56045Y-43300D02*
X56045Y-43795D01*
X56045Y-43795D02*
X56050Y-43800D01*
X56045Y-43300D02*
X56045Y-42804D01*
X56045Y-42804D02*
X56050Y-42800D01*
X55204Y-43300D02*
X55204Y-43795D01*
X55204Y-43795D02*
X55200Y-43800D01*
X55204Y-43300D02*
X55204Y-42804D01*
X55204Y-42804D02*
X55200Y-42800D01*
G54D39*
X50462Y-49750D02*
X51300Y-49750D01*
X51300Y-49750D02*
X51350Y-49800D01*
G54D42*
X51154Y-47600D02*
X51154Y-48095D01*
X51154Y-48095D02*
X51150Y-48100D01*
X51154Y-46300D02*
X51154Y-45804D01*
X51154Y-45804D02*
X51150Y-45800D01*
G54D39*
X50462Y-42150D02*
X51050Y-42150D01*
G54D41*
X52300Y-40050D02*
X52300Y-39630D01*
X52300Y-39630D02*
X52253Y-39583D01*
G54D42*
X52100Y-40050D02*
X52300Y-40050D01*
X52300Y-40050D02*
X52550Y-40050D01*
G54D45*
X53700Y-31000D02*
X52929Y-31000D01*
X53700Y-30600D02*
X53700Y-31000D01*
X53700Y-31000D02*
X53700Y-31400D01*
G54D41*
X44950Y-32825D02*
X45625Y-32825D01*
X45625Y-32825D02*
X45800Y-33000D01*
X47050Y-34575D02*
X46175Y-34575D01*
X46175Y-34575D02*
X45800Y-34200D01*
X47050Y-32825D02*
X45975Y-32825D01*
X45975Y-32825D02*
X45800Y-33000D01*
X44950Y-34575D02*
X45575Y-34575D01*
X45575Y-34575D02*
X45800Y-34800D01*
X44950Y-34325D02*
X45675Y-34325D01*
X45675Y-34325D02*
X45800Y-34200D01*
X44950Y-33575D02*
X45775Y-33575D01*
X45775Y-33575D02*
X45800Y-33600D01*
X44950Y-33325D02*
X45475Y-33325D01*
X45475Y-33325D02*
X45800Y-33000D01*
X47050Y-34325D02*
X46500Y-34325D01*
X46500Y-33825D02*
X47050Y-33825D01*
X46500Y-34325D02*
X46500Y-33825D01*
X47050Y-33825D02*
X47875Y-33825D01*
X47875Y-33825D02*
X48125Y-33575D01*
X47050Y-33575D02*
X48125Y-33575D01*
X48125Y-33575D02*
X48975Y-33575D01*
X48975Y-33575D02*
X49000Y-33600D01*
G54D12*
X47050Y-33325D02*
X47425Y-33325D01*
X47425Y-33325D02*
X48000Y-32750D01*
X44475Y-33075D02*
X44950Y-33075D01*
X44250Y-32850D02*
X44475Y-33075D01*
X44250Y-32300D02*
X44250Y-32850D01*
X44900Y-31650D02*
X44250Y-32300D01*
G54D41*
X44950Y-33825D02*
X42525Y-33825D01*
X42525Y-33825D02*
X42500Y-33800D01*
G54D43*
X52200Y-51862D02*
X52200Y-52686D01*
X54000Y-51862D02*
X54000Y-52686D01*
G54D41*
X44950Y-34075D02*
X44525Y-34075D01*
X44525Y-34075D02*
X44500Y-34100D01*
G54D39*
X65450Y-51462D02*
X65450Y-50650D01*
X64950Y-50150D02*
X64950Y-50050D01*
X65450Y-50650D02*
X64950Y-50150D01*
X64950Y-50050D02*
X64950Y-49337D01*
G54D12*
X64806Y-52800D02*
X64806Y-52356D01*
X64806Y-52356D02*
X64450Y-52000D01*
X64450Y-52000D02*
X64450Y-51462D01*
X63250Y-51613D02*
X64086Y-51613D01*
X64086Y-51613D02*
X64237Y-51462D01*
X64237Y-51462D02*
X64450Y-51462D01*
X67100Y-50013D02*
X66763Y-50013D01*
X66337Y-49337D02*
X65950Y-49337D01*
X66550Y-49550D02*
X66337Y-49337D01*
X66550Y-49800D02*
X66550Y-49550D01*
X66763Y-50013D02*
X66550Y-49800D01*
X65593Y-48000D02*
X65593Y-48443D01*
X65593Y-48443D02*
X65800Y-48650D01*
X65950Y-48800D02*
X65950Y-49337D01*
X65800Y-48650D02*
X65950Y-48800D01*
X64806Y-48000D02*
X64806Y-48593D01*
X64806Y-48593D02*
X64450Y-48950D01*
X64450Y-48950D02*
X64450Y-49337D01*
X63250Y-49186D02*
X64036Y-49186D01*
X64036Y-49186D02*
X64187Y-49337D01*
X64187Y-49337D02*
X64450Y-49337D01*
X67100Y-50786D02*
X66763Y-50786D01*
X66437Y-51462D02*
X65950Y-51462D01*
X66550Y-51350D02*
X66437Y-51462D01*
X66550Y-51000D02*
X66550Y-51350D01*
X66763Y-50786D02*
X66550Y-51000D01*
X65593Y-52800D02*
X65593Y-52356D01*
X65593Y-52356D02*
X65800Y-52150D01*
X65950Y-52000D02*
X65950Y-51462D01*
X65800Y-52150D02*
X65950Y-52000D01*
G54D42*
X64945Y-44554D02*
X64400Y-44554D01*
X64950Y-44550D02*
X64945Y-44554D01*
X61614Y-45100D02*
X61614Y-44344D01*
X61614Y-44344D02*
X61600Y-44329D01*
X64400Y-44554D02*
X63504Y-44554D01*
X63279Y-44329D02*
X61600Y-44329D01*
X63504Y-44554D02*
X63279Y-44329D01*
G54D12*
X65613Y-46600D02*
X65613Y-46136D01*
X65613Y-46136D02*
X65800Y-45950D01*
X39400Y-47300D02*
X40386Y-47300D01*
X65613Y-41800D02*
X65613Y-42313D01*
X65613Y-42313D02*
X65750Y-42450D01*
G54D39*
X65150Y-37037D02*
X65150Y-37850D01*
X65650Y-38350D02*
X65650Y-38450D01*
X65150Y-37850D02*
X65650Y-38350D01*
X65650Y-38450D02*
X65650Y-39162D01*
G54D12*
X65754Y-35800D02*
X65754Y-36204D01*
X66150Y-36600D02*
X66150Y-37037D01*
X65754Y-36204D02*
X65900Y-36350D01*
X65900Y-36350D02*
X66150Y-36600D01*
X67100Y-37713D02*
X66413Y-37713D01*
X66150Y-37450D02*
X66150Y-37037D01*
X66413Y-37713D02*
X66150Y-37450D01*
X66150Y-39162D02*
X66150Y-39600D01*
X65754Y-39995D02*
X65754Y-40400D01*
X66150Y-39600D02*
X65900Y-39850D01*
X65900Y-39850D02*
X65754Y-39995D01*
X67100Y-38486D02*
X66413Y-38486D01*
X66150Y-38750D02*
X66150Y-39162D01*
X66413Y-38486D02*
X66150Y-38750D01*
X63800Y-39800D02*
X63800Y-39313D01*
X63750Y-39850D02*
X63800Y-39800D01*
X63800Y-39313D02*
X62900Y-39313D01*
X63800Y-36400D02*
X63800Y-36886D01*
X63750Y-36350D02*
X63800Y-36400D01*
X62900Y-36886D02*
X63800Y-36886D01*
X63800Y-38486D02*
X64536Y-38486D01*
X64650Y-38600D02*
X64650Y-39162D01*
X64536Y-38486D02*
X64650Y-38600D01*
X65045Y-40400D02*
X65045Y-39995D01*
X64650Y-39600D02*
X64650Y-39162D01*
X65045Y-39995D02*
X64650Y-39600D01*
X64650Y-37037D02*
X64650Y-36600D01*
X65045Y-36204D02*
X65045Y-35800D01*
X64650Y-36600D02*
X65045Y-36204D01*
X63800Y-37713D02*
X64536Y-37713D01*
X64650Y-37600D02*
X64650Y-37037D01*
X64536Y-37713D02*
X64650Y-37600D01*
X65813Y-34400D02*
X65813Y-33936D01*
X65813Y-33936D02*
X65900Y-33850D01*
X65813Y-29800D02*
X65813Y-30213D01*
X65813Y-30213D02*
X65950Y-30350D01*
X63754Y-29800D02*
X63754Y-30345D01*
X63754Y-30345D02*
X63750Y-30350D01*
X64986Y-29800D02*
X63754Y-29800D01*
X63754Y-34400D02*
X63754Y-33854D01*
X63754Y-33854D02*
X63750Y-33850D01*
X64986Y-34400D02*
X63754Y-34400D01*
G54D45*
X65650Y-31750D02*
X66195Y-31750D01*
X66195Y-31750D02*
X66200Y-31745D01*
G54D42*
X61600Y-31129D02*
X65629Y-31129D01*
X65650Y-31150D02*
X65650Y-31750D01*
X65629Y-31129D02*
X65650Y-31150D01*
X61614Y-31900D02*
X61614Y-31144D01*
X61614Y-31144D02*
X61600Y-31129D01*
G54D41*
X57800Y-51762D02*
X57800Y-52686D01*
X57800Y-52686D02*
X57786Y-52700D01*
X57300Y-51762D02*
X57800Y-51762D01*
X58300Y-49637D02*
X59173Y-49637D01*
X59173Y-49637D02*
X59236Y-49700D01*
X57800Y-49637D02*
X58300Y-49637D01*
G54D42*
X55199Y-46400D02*
X54650Y-46400D01*
G54D41*
X55199Y-46283D02*
X55199Y-46400D01*
X55199Y-46400D02*
X55199Y-46539D01*
G54D12*
X69000Y-49492D02*
X69792Y-49492D01*
X70300Y-50000D02*
X70750Y-50000D01*
X69792Y-49492D02*
X70300Y-50000D01*
X70750Y-50000D02*
X71500Y-50000D01*
X69000Y-51507D02*
X69842Y-51507D01*
X69842Y-51507D02*
X70350Y-51000D01*
X70350Y-51000D02*
X71500Y-51000D01*
X71500Y-37500D02*
X70392Y-37500D01*
X70392Y-37500D02*
X69000Y-36107D01*
X71500Y-38500D02*
X70592Y-38500D01*
X70592Y-38500D02*
X69000Y-40092D01*
G54D41*
X57600Y-45772D02*
X58227Y-45772D01*
X58227Y-45772D02*
X58300Y-45700D01*
X57600Y-46283D02*
X58116Y-46283D01*
X58116Y-46283D02*
X58250Y-46150D01*
G54D12*
X55199Y-44236D02*
X56363Y-44236D01*
X56754Y-43845D02*
X56754Y-43300D01*
X56363Y-44236D02*
X56754Y-43845D01*
X56754Y-43300D02*
X56754Y-42795D01*
X57170Y-42379D02*
X57170Y-41800D01*
X56754Y-42795D02*
X57170Y-42379D01*
X55199Y-44492D02*
X54842Y-44492D01*
X54500Y-43304D02*
X54495Y-43300D01*
X54500Y-44150D02*
X54500Y-43304D01*
X54842Y-44492D02*
X54500Y-44150D01*
X54495Y-43300D02*
X54495Y-42865D01*
X54495Y-42865D02*
X53429Y-41800D01*
X47334Y-31884D02*
X47334Y-32300D01*
X47300Y-31850D02*
X47334Y-31884D01*
X47050Y-33075D02*
X47378Y-33075D01*
X47378Y-33075D02*
X47550Y-32903D01*
X47550Y-32903D02*
X47550Y-32750D01*
X47550Y-32750D02*
X47334Y-32534D01*
X47334Y-32534D02*
X47334Y-32300D01*
X47965Y-32300D02*
X47965Y-31500D01*
G54D41*
X47965Y-32300D02*
X47334Y-32300D01*
G54D42*
X48866Y-35300D02*
X48300Y-35300D01*
X48300Y-35300D02*
X48300Y-35050D01*
G54D12*
X48634Y-32300D02*
X49354Y-32300D01*
X49354Y-32300D02*
X49400Y-32254D01*
X49400Y-32254D02*
X49400Y-34100D01*
X49400Y-34100D02*
X49050Y-34450D01*
X49050Y-34450D02*
X48300Y-34450D01*
G54D41*
X47050Y-34075D02*
X47675Y-34075D01*
X47675Y-34075D02*
X47750Y-34150D01*
G54D12*
X49400Y-31545D02*
X48680Y-31545D01*
X48680Y-31545D02*
X48634Y-31500D01*
G54D41*
X57306Y-35843D02*
X57306Y-36400D01*
X57450Y-35700D02*
X57306Y-35843D01*
G54D45*
X43800Y-29500D02*
X43800Y-31166D01*
X43800Y-31166D02*
X43833Y-31200D01*
G54D12*
X52977Y-39327D02*
X52253Y-39327D01*
X53000Y-39350D02*
X52977Y-39327D01*
G54D41*
X53946Y-39583D02*
X54836Y-39583D01*
X54836Y-39583D02*
X54920Y-39500D01*
X53946Y-38816D02*
X54920Y-38816D01*
G54D44*
X54920Y-39500D02*
X54920Y-38816D01*
X54920Y-38816D02*
X54920Y-38570D01*
X54920Y-38570D02*
X54900Y-38550D01*
X53500Y-36900D02*
X54900Y-36900D01*
X54900Y-36900D02*
X54900Y-38000D01*
G54D10*
G36*
X46550Y-36250D02*
X44450Y-36250D01*
X44450Y-34950D01*
X45450Y-34950D01*
X45450Y-34678D01*
X45450Y-34657D01*
X45450Y-34492D01*
X45450Y-34471D01*
X45450Y-34428D01*
X45450Y-34407D01*
X45450Y-34242D01*
X45450Y-34221D01*
X45450Y-33678D01*
X45450Y-33657D01*
X45450Y-33492D01*
X45450Y-33471D01*
X45450Y-33428D01*
X45450Y-33407D01*
X45450Y-33242D01*
X45450Y-33221D01*
X45450Y-32928D01*
X45450Y-32907D01*
X45450Y-32742D01*
X45450Y-32721D01*
X45450Y-31550D01*
X46550Y-31550D01*
X46550Y-31892D01*
X46438Y-31892D01*
X46346Y-31930D01*
X46276Y-32000D01*
X46238Y-32092D01*
X46238Y-32192D01*
X46238Y-32187D01*
X46300Y-32250D01*
X46550Y-32250D01*
X46550Y-32350D01*
X46300Y-32350D01*
X46238Y-32412D01*
X46238Y-32407D01*
X46238Y-32507D01*
X46276Y-32599D01*
X46346Y-32669D01*
X46438Y-32707D01*
X46550Y-32707D01*
X46550Y-32721D01*
X46550Y-32742D01*
X46550Y-32774D01*
X46550Y-32875D01*
X46550Y-32907D01*
X46550Y-32928D01*
X46550Y-33600D01*
X46500Y-33600D01*
X46413Y-33617D01*
X46340Y-33665D01*
X46292Y-33738D01*
X46275Y-33825D01*
X46275Y-34325D01*
X46292Y-34411D01*
X46340Y-34484D01*
X46413Y-34532D01*
X46500Y-34550D01*
X46550Y-34550D01*
X46550Y-34625D01*
X46550Y-34657D01*
X46550Y-34678D01*
X46550Y-36250D01*
X46550Y-36250D01*
G37*
G54D12*
X46550Y-36250D02*
X44450Y-36250D01*
X44450Y-34950D01*
X45450Y-34950D01*
X45450Y-34678D01*
X45450Y-34657D01*
X45450Y-34492D01*
X45450Y-34471D01*
X45450Y-34428D01*
X45450Y-34407D01*
X45450Y-34242D01*
X45450Y-34221D01*
X45450Y-33678D01*
X45450Y-33657D01*
X45450Y-33492D01*
X45450Y-33471D01*
X45450Y-33428D01*
X45450Y-33407D01*
X45450Y-33242D01*
X45450Y-33221D01*
X45450Y-32928D01*
X45450Y-32907D01*
X45450Y-32742D01*
X45450Y-32721D01*
X45450Y-31550D01*
X46550Y-31550D01*
X46550Y-31892D01*
X46438Y-31892D01*
X46346Y-31930D01*
X46276Y-32000D01*
X46238Y-32092D01*
X46238Y-32192D01*
X46238Y-32187D01*
X46300Y-32250D01*
X46550Y-32250D01*
X46550Y-32350D01*
X46300Y-32350D01*
X46238Y-32412D01*
X46238Y-32407D01*
X46238Y-32507D01*
X46276Y-32599D01*
X46346Y-32669D01*
X46438Y-32707D01*
X46550Y-32707D01*
X46550Y-32721D01*
X46550Y-32742D01*
X46550Y-32774D01*
X46550Y-32875D01*
X46550Y-32907D01*
X46550Y-32928D01*
X46550Y-33600D01*
X46500Y-33600D01*
X46413Y-33617D01*
X46340Y-33665D01*
X46292Y-33738D01*
X46275Y-33825D01*
X46275Y-34325D01*
X46292Y-34411D01*
X46340Y-34484D01*
X46413Y-34532D01*
X46500Y-34550D01*
X46550Y-34550D01*
X46550Y-34625D01*
X46550Y-34657D01*
X46550Y-34678D01*
X46550Y-36250D01*
G54D10*
G36*
X44550Y-34186D02*
X44150Y-34886D01*
X44150Y-35650D01*
X43250Y-35650D01*
X43250Y-34050D01*
X44550Y-34050D01*
X44550Y-34186D01*
X44550Y-34186D01*
G37*
G54D12*
X44550Y-34186D02*
X44150Y-34886D01*
X44150Y-35650D01*
X43250Y-35650D01*
X43250Y-34050D01*
X44550Y-34050D01*
X44550Y-34186D01*
G54D10*
G36*
X42650Y-33874D02*
X40183Y-35650D01*
X39250Y-35650D01*
X39250Y-33750D01*
X42650Y-33750D01*
X42650Y-33874D01*
X42650Y-33874D01*
G37*
G54D12*
X42650Y-33874D02*
X40183Y-35650D01*
X39250Y-35650D01*
X39250Y-33750D01*
X42650Y-33750D01*
X42650Y-33874D01*
G54D10*
G36*
X49150Y-33850D02*
X47675Y-33850D01*
X47675Y-33849D01*
X47674Y-33850D01*
X47650Y-33850D01*
X47650Y-33382D01*
X47957Y-33074D01*
X48064Y-33075D01*
X48125Y-33050D01*
X49150Y-33050D01*
X49150Y-33850D01*
X49150Y-33850D01*
G37*
G54D12*
X49150Y-33850D02*
X47675Y-33850D01*
X47675Y-33849D01*
X47674Y-33850D01*
X47650Y-33850D01*
X47650Y-33382D01*
X47957Y-33074D01*
X48064Y-33075D01*
X48125Y-33050D01*
X49150Y-33050D01*
X49150Y-33850D01*
G54D10*
G36*
X48750Y-35950D02*
X47475Y-35950D01*
X47475Y-34336D01*
X47511Y-34299D01*
X47549Y-34207D01*
X47549Y-34178D01*
X47487Y-34116D01*
X47475Y-34116D01*
X47475Y-34050D01*
X47874Y-34050D01*
X47875Y-34050D01*
X47875Y-34050D01*
X47875Y-34050D01*
X48750Y-34050D01*
X48750Y-34813D01*
X48620Y-34813D01*
X48528Y-34851D01*
X48458Y-34921D01*
X48420Y-35013D01*
X48420Y-35113D01*
X48420Y-35187D01*
X48482Y-35250D01*
X48750Y-35250D01*
X48750Y-35350D01*
X48482Y-35350D01*
X48420Y-35412D01*
X48420Y-35486D01*
X48420Y-35586D01*
X48458Y-35678D01*
X48528Y-35748D01*
X48620Y-35786D01*
X48750Y-35786D01*
X48750Y-35950D01*
X48750Y-35950D01*
G37*
G54D12*
X48750Y-35950D02*
X47475Y-35950D01*
X47475Y-34336D01*
X47511Y-34299D01*
X47549Y-34207D01*
X47549Y-34178D01*
X47487Y-34116D01*
X47475Y-34116D01*
X47475Y-34050D01*
X47874Y-34050D01*
X47875Y-34050D01*
X47875Y-34050D01*
X47875Y-34050D01*
X48750Y-34050D01*
X48750Y-34813D01*
X48620Y-34813D01*
X48528Y-34851D01*
X48458Y-34921D01*
X48420Y-35013D01*
X48420Y-35113D01*
X48420Y-35187D01*
X48482Y-35250D01*
X48750Y-35250D01*
X48750Y-35350D01*
X48482Y-35350D01*
X48420Y-35412D01*
X48420Y-35486D01*
X48420Y-35586D01*
X48458Y-35678D01*
X48528Y-35748D01*
X48620Y-35786D01*
X48750Y-35786D01*
X48750Y-35950D01*
G54D10*
G36*
X47450Y-37350D02*
X47086Y-37350D01*
X47086Y-36959D01*
X47048Y-36868D01*
X46978Y-36797D01*
X46886Y-36759D01*
X46786Y-36759D01*
X46712Y-36759D01*
X46650Y-36821D01*
X46650Y-37136D01*
X47023Y-37136D01*
X47086Y-37074D01*
X47086Y-36959D01*
X47086Y-37350D01*
X47086Y-37350D01*
X47086Y-37299D01*
X47023Y-37236D01*
X46650Y-37236D01*
X46650Y-37244D01*
X46550Y-37244D01*
X46550Y-37236D01*
X46550Y-37136D01*
X46550Y-36821D01*
X46487Y-36759D01*
X46413Y-36759D01*
X46313Y-36759D01*
X46221Y-36797D01*
X46151Y-36868D01*
X46113Y-36959D01*
X46113Y-37074D01*
X46176Y-37136D01*
X46550Y-37136D01*
X46550Y-37236D01*
X46176Y-37236D01*
X46113Y-37299D01*
X46113Y-37350D01*
X45750Y-37350D01*
X45750Y-36550D01*
X47450Y-36550D01*
X47450Y-37350D01*
X47450Y-37350D01*
G37*
G54D12*
X47450Y-37350D02*
X47086Y-37350D01*
X47086Y-36959D01*
X47048Y-36868D01*
X46978Y-36797D01*
X46886Y-36759D01*
X46786Y-36759D01*
X46712Y-36759D01*
X46650Y-36821D01*
X46650Y-37136D01*
X47023Y-37136D01*
X47086Y-37074D01*
X47086Y-36959D01*
X47086Y-37350D01*
X47086Y-37350D01*
X47086Y-37299D01*
X47023Y-37236D01*
X46650Y-37236D01*
X46650Y-37244D01*
X46550Y-37244D01*
X46550Y-37236D01*
X46550Y-37136D01*
X46550Y-36821D01*
X46487Y-36759D01*
X46413Y-36759D01*
X46313Y-36759D01*
X46221Y-36797D01*
X46151Y-36868D01*
X46113Y-36959D01*
X46113Y-37074D01*
X46176Y-37136D01*
X46550Y-37136D01*
X46550Y-37236D01*
X46176Y-37236D01*
X46113Y-37299D01*
X46113Y-37350D01*
X45750Y-37350D01*
X45750Y-36550D01*
X47450Y-36550D01*
X47450Y-37350D01*
G54D10*
G36*
X43550Y-32450D02*
X42916Y-32450D01*
X42916Y-31623D01*
X42916Y-31250D01*
X42582Y-31250D01*
X42520Y-31312D01*
X42520Y-31386D01*
X42520Y-31486D01*
X42558Y-31578D01*
X42628Y-31648D01*
X42720Y-31686D01*
X42854Y-31686D01*
X42916Y-31623D01*
X42916Y-32450D01*
X42050Y-32450D01*
X42050Y-30850D01*
X42546Y-30850D01*
X42520Y-30913D01*
X42520Y-31013D01*
X42520Y-31087D01*
X42582Y-31150D01*
X42916Y-31150D01*
X42916Y-31142D01*
X43016Y-31142D01*
X43016Y-31150D01*
X43024Y-31150D01*
X43024Y-31250D01*
X43016Y-31250D01*
X43016Y-31623D01*
X43079Y-31686D01*
X43150Y-31686D01*
X43150Y-31750D01*
X43550Y-31750D01*
X43550Y-32450D01*
X43550Y-32450D01*
G37*
G54D12*
X43550Y-32450D02*
X42916Y-32450D01*
X42916Y-31623D01*
X42916Y-31250D01*
X42582Y-31250D01*
X42520Y-31312D01*
X42520Y-31386D01*
X42520Y-31486D01*
X42558Y-31578D01*
X42628Y-31648D01*
X42720Y-31686D01*
X42854Y-31686D01*
X42916Y-31623D01*
X42916Y-32450D01*
X42050Y-32450D01*
X42050Y-30850D01*
X42546Y-30850D01*
X42520Y-30913D01*
X42520Y-31013D01*
X42520Y-31087D01*
X42582Y-31150D01*
X42916Y-31150D01*
X42916Y-31142D01*
X43016Y-31142D01*
X43016Y-31150D01*
X43024Y-31150D01*
X43024Y-31250D01*
X43016Y-31250D01*
X43016Y-31623D01*
X43079Y-31686D01*
X43150Y-31686D01*
X43150Y-31750D01*
X43550Y-31750D01*
X43550Y-32450D01*
G54D10*
G36*
X54850Y-33850D02*
X54450Y-33850D01*
X54450Y-33350D01*
X54450Y-32449D01*
X54449Y-32350D01*
X54411Y-32258D01*
X54341Y-32187D01*
X54249Y-32149D01*
X54050Y-32149D01*
X54050Y-31400D01*
X54050Y-31000D01*
X54050Y-30600D01*
X54023Y-30466D01*
X53947Y-30352D01*
X53833Y-30276D01*
X53700Y-30250D01*
X53566Y-30276D01*
X53452Y-30352D01*
X53376Y-30466D01*
X53350Y-30600D01*
X53350Y-30650D01*
X53345Y-30650D01*
X53345Y-30419D01*
X53322Y-30363D01*
X53280Y-30321D01*
X53225Y-30298D01*
X53165Y-30298D01*
X53025Y-30298D01*
X53025Y-29415D01*
X52960Y-29259D01*
X52841Y-29139D01*
X52684Y-29075D01*
X52515Y-29074D01*
X52359Y-29139D01*
X52239Y-29258D01*
X52175Y-29415D01*
X52174Y-29584D01*
X52239Y-29740D01*
X52358Y-29860D01*
X52515Y-29924D01*
X52684Y-29925D01*
X52840Y-29860D01*
X52960Y-29741D01*
X53024Y-29584D01*
X53025Y-29415D01*
X53025Y-30298D01*
X52634Y-30298D01*
X52579Y-30321D01*
X52537Y-30363D01*
X52514Y-30418D01*
X52514Y-30478D01*
X52514Y-31580D01*
X52536Y-31636D01*
X52579Y-31678D01*
X52634Y-31701D01*
X52693Y-31701D01*
X53225Y-31701D01*
X53280Y-31678D01*
X53322Y-31636D01*
X53345Y-31581D01*
X53345Y-31521D01*
X53345Y-31350D01*
X53350Y-31350D01*
X53350Y-31400D01*
X53376Y-31533D01*
X53452Y-31647D01*
X53566Y-31723D01*
X53700Y-31750D01*
X53833Y-31723D01*
X53947Y-31647D01*
X54023Y-31533D01*
X54050Y-31400D01*
X54050Y-32149D01*
X53612Y-32150D01*
X53550Y-32212D01*
X53550Y-32850D01*
X54387Y-32850D01*
X54450Y-32787D01*
X54450Y-32449D01*
X54450Y-33350D01*
X54450Y-33012D01*
X54387Y-32950D01*
X53550Y-32950D01*
X53550Y-33587D01*
X53612Y-33650D01*
X54249Y-33650D01*
X54341Y-33612D01*
X54411Y-33541D01*
X54449Y-33449D01*
X54450Y-33350D01*
X54450Y-33850D01*
X53450Y-33850D01*
X53450Y-33587D01*
X53450Y-32950D01*
X53450Y-32850D01*
X53450Y-32212D01*
X53387Y-32150D01*
X52750Y-32149D01*
X52658Y-32187D01*
X52588Y-32258D01*
X52550Y-32350D01*
X52549Y-32449D01*
X52550Y-32787D01*
X52612Y-32850D01*
X53450Y-32850D01*
X53450Y-32950D01*
X52612Y-32950D01*
X52550Y-33012D01*
X52549Y-33350D01*
X52550Y-33449D01*
X52588Y-33541D01*
X52658Y-33612D01*
X52750Y-33650D01*
X53387Y-33650D01*
X53450Y-33587D01*
X53450Y-33850D01*
X52479Y-33850D01*
X52185Y-34143D01*
X52185Y-31501D01*
X52185Y-30498D01*
X52185Y-30398D01*
X52147Y-30307D01*
X52125Y-30284D01*
X52125Y-29725D01*
X52125Y-29274D01*
X52124Y-29175D01*
X52086Y-29083D01*
X52016Y-29012D01*
X51924Y-28974D01*
X51712Y-28975D01*
X51650Y-29037D01*
X51650Y-29450D01*
X52062Y-29450D01*
X52125Y-29387D01*
X52125Y-29274D01*
X52125Y-29725D01*
X52125Y-29612D01*
X52062Y-29550D01*
X51650Y-29550D01*
X51650Y-29962D01*
X51712Y-30025D01*
X51924Y-30025D01*
X52016Y-29987D01*
X52086Y-29916D01*
X52124Y-29824D01*
X52125Y-29725D01*
X52125Y-30284D01*
X52077Y-30236D01*
X51985Y-30198D01*
X51782Y-30198D01*
X51720Y-30261D01*
X51720Y-30950D01*
X52123Y-30950D01*
X52185Y-30887D01*
X52185Y-30498D01*
X52185Y-31501D01*
X52185Y-31112D01*
X52123Y-31050D01*
X51720Y-31050D01*
X51720Y-31738D01*
X51782Y-31801D01*
X51985Y-31801D01*
X52077Y-31763D01*
X52147Y-31692D01*
X52185Y-31601D01*
X52185Y-31501D01*
X52185Y-34143D01*
X51620Y-34709D01*
X51620Y-31738D01*
X51620Y-31050D01*
X51620Y-30950D01*
X51620Y-30261D01*
X51557Y-30198D01*
X51550Y-30198D01*
X51550Y-29962D01*
X51550Y-29550D01*
X51550Y-29450D01*
X51550Y-29037D01*
X51487Y-28975D01*
X51275Y-28974D01*
X51183Y-29012D01*
X51113Y-29083D01*
X51075Y-29175D01*
X51074Y-29274D01*
X51075Y-29387D01*
X51137Y-29450D01*
X51550Y-29450D01*
X51550Y-29550D01*
X51137Y-29550D01*
X51075Y-29612D01*
X51074Y-29725D01*
X51075Y-29824D01*
X51113Y-29916D01*
X51183Y-29987D01*
X51275Y-30025D01*
X51487Y-30025D01*
X51550Y-29962D01*
X51550Y-30198D01*
X51354Y-30198D01*
X51262Y-30236D01*
X51192Y-30307D01*
X51154Y-30398D01*
X51154Y-30498D01*
X51154Y-30887D01*
X51216Y-30950D01*
X51620Y-30950D01*
X51620Y-31050D01*
X51216Y-31050D01*
X51154Y-31112D01*
X51154Y-31501D01*
X51154Y-31601D01*
X51192Y-31692D01*
X51262Y-31763D01*
X51354Y-31801D01*
X51557Y-31801D01*
X51620Y-31738D01*
X51620Y-34709D01*
X51350Y-34979D01*
X51350Y-36350D01*
X50179Y-36350D01*
X50179Y-35486D01*
X50179Y-35113D01*
X50179Y-35013D01*
X50141Y-34921D01*
X50071Y-34851D01*
X49979Y-34813D01*
X49845Y-34813D01*
X49783Y-34876D01*
X49783Y-35250D01*
X50117Y-35250D01*
X50179Y-35187D01*
X50179Y-35113D01*
X50179Y-35486D01*
X50179Y-35412D01*
X50117Y-35350D01*
X49783Y-35350D01*
X49783Y-35723D01*
X49845Y-35786D01*
X49979Y-35786D01*
X50071Y-35748D01*
X50141Y-35678D01*
X50179Y-35586D01*
X50179Y-35486D01*
X50179Y-36350D01*
X49550Y-36350D01*
X49550Y-35786D01*
X49620Y-35786D01*
X49683Y-35723D01*
X49683Y-35350D01*
X49675Y-35350D01*
X49675Y-35250D01*
X49683Y-35250D01*
X49683Y-34876D01*
X49620Y-34813D01*
X49550Y-34813D01*
X49550Y-34520D01*
X50550Y-33520D01*
X50550Y-28550D01*
X54850Y-28550D01*
X54850Y-33850D01*
X54850Y-33850D01*
G37*
G54D12*
X54850Y-33850D02*
X54450Y-33850D01*
X54450Y-33350D01*
X54450Y-32449D01*
X54449Y-32350D01*
X54411Y-32258D01*
X54341Y-32187D01*
X54249Y-32149D01*
X54050Y-32149D01*
X54050Y-31400D01*
X54050Y-31000D01*
X54050Y-30600D01*
X54023Y-30466D01*
X53947Y-30352D01*
X53833Y-30276D01*
X53700Y-30250D01*
X53566Y-30276D01*
X53452Y-30352D01*
X53376Y-30466D01*
X53350Y-30600D01*
X53350Y-30650D01*
X53345Y-30650D01*
X53345Y-30419D01*
X53322Y-30363D01*
X53280Y-30321D01*
X53225Y-30298D01*
X53165Y-30298D01*
X53025Y-30298D01*
X53025Y-29415D01*
X52960Y-29259D01*
X52841Y-29139D01*
X52684Y-29075D01*
X52515Y-29074D01*
X52359Y-29139D01*
X52239Y-29258D01*
X52175Y-29415D01*
X52174Y-29584D01*
X52239Y-29740D01*
X52358Y-29860D01*
X52515Y-29924D01*
X52684Y-29925D01*
X52840Y-29860D01*
X52960Y-29741D01*
X53024Y-29584D01*
X53025Y-29415D01*
X53025Y-30298D01*
X52634Y-30298D01*
X52579Y-30321D01*
X52537Y-30363D01*
X52514Y-30418D01*
X52514Y-30478D01*
X52514Y-31580D01*
X52536Y-31636D01*
X52579Y-31678D01*
X52634Y-31701D01*
X52693Y-31701D01*
X53225Y-31701D01*
X53280Y-31678D01*
X53322Y-31636D01*
X53345Y-31581D01*
X53345Y-31521D01*
X53345Y-31350D01*
X53350Y-31350D01*
X53350Y-31400D01*
X53376Y-31533D01*
X53452Y-31647D01*
X53566Y-31723D01*
X53700Y-31750D01*
X53833Y-31723D01*
X53947Y-31647D01*
X54023Y-31533D01*
X54050Y-31400D01*
X54050Y-32149D01*
X53612Y-32150D01*
X53550Y-32212D01*
X53550Y-32850D01*
X54387Y-32850D01*
X54450Y-32787D01*
X54450Y-32449D01*
X54450Y-33350D01*
X54450Y-33012D01*
X54387Y-32950D01*
X53550Y-32950D01*
X53550Y-33587D01*
X53612Y-33650D01*
X54249Y-33650D01*
X54341Y-33612D01*
X54411Y-33541D01*
X54449Y-33449D01*
X54450Y-33350D01*
X54450Y-33850D01*
X53450Y-33850D01*
X53450Y-33587D01*
X53450Y-32950D01*
X53450Y-32850D01*
X53450Y-32212D01*
X53387Y-32150D01*
X52750Y-32149D01*
X52658Y-32187D01*
X52588Y-32258D01*
X52550Y-32350D01*
X52549Y-32449D01*
X52550Y-32787D01*
X52612Y-32850D01*
X53450Y-32850D01*
X53450Y-32950D01*
X52612Y-32950D01*
X52550Y-33012D01*
X52549Y-33350D01*
X52550Y-33449D01*
X52588Y-33541D01*
X52658Y-33612D01*
X52750Y-33650D01*
X53387Y-33650D01*
X53450Y-33587D01*
X53450Y-33850D01*
X52479Y-33850D01*
X52185Y-34143D01*
X52185Y-31501D01*
X52185Y-30498D01*
X52185Y-30398D01*
X52147Y-30307D01*
X52125Y-30284D01*
X52125Y-29725D01*
X52125Y-29274D01*
X52124Y-29175D01*
X52086Y-29083D01*
X52016Y-29012D01*
X51924Y-28974D01*
X51712Y-28975D01*
X51650Y-29037D01*
X51650Y-29450D01*
X52062Y-29450D01*
X52125Y-29387D01*
X52125Y-29274D01*
X52125Y-29725D01*
X52125Y-29612D01*
X52062Y-29550D01*
X51650Y-29550D01*
X51650Y-29962D01*
X51712Y-30025D01*
X51924Y-30025D01*
X52016Y-29987D01*
X52086Y-29916D01*
X52124Y-29824D01*
X52125Y-29725D01*
X52125Y-30284D01*
X52077Y-30236D01*
X51985Y-30198D01*
X51782Y-30198D01*
X51720Y-30261D01*
X51720Y-30950D01*
X52123Y-30950D01*
X52185Y-30887D01*
X52185Y-30498D01*
X52185Y-31501D01*
X52185Y-31112D01*
X52123Y-31050D01*
X51720Y-31050D01*
X51720Y-31738D01*
X51782Y-31801D01*
X51985Y-31801D01*
X52077Y-31763D01*
X52147Y-31692D01*
X52185Y-31601D01*
X52185Y-31501D01*
X52185Y-34143D01*
X51620Y-34709D01*
X51620Y-31738D01*
X51620Y-31050D01*
X51620Y-30950D01*
X51620Y-30261D01*
X51557Y-30198D01*
X51550Y-30198D01*
X51550Y-29962D01*
X51550Y-29550D01*
X51550Y-29450D01*
X51550Y-29037D01*
X51487Y-28975D01*
X51275Y-28974D01*
X51183Y-29012D01*
X51113Y-29083D01*
X51075Y-29175D01*
X51074Y-29274D01*
X51075Y-29387D01*
X51137Y-29450D01*
X51550Y-29450D01*
X51550Y-29550D01*
X51137Y-29550D01*
X51075Y-29612D01*
X51074Y-29725D01*
X51075Y-29824D01*
X51113Y-29916D01*
X51183Y-29987D01*
X51275Y-30025D01*
X51487Y-30025D01*
X51550Y-29962D01*
X51550Y-30198D01*
X51354Y-30198D01*
X51262Y-30236D01*
X51192Y-30307D01*
X51154Y-30398D01*
X51154Y-30498D01*
X51154Y-30887D01*
X51216Y-30950D01*
X51620Y-30950D01*
X51620Y-31050D01*
X51216Y-31050D01*
X51154Y-31112D01*
X51154Y-31501D01*
X51154Y-31601D01*
X51192Y-31692D01*
X51262Y-31763D01*
X51354Y-31801D01*
X51557Y-31801D01*
X51620Y-31738D01*
X51620Y-34709D01*
X51350Y-34979D01*
X51350Y-36350D01*
X50179Y-36350D01*
X50179Y-35486D01*
X50179Y-35113D01*
X50179Y-35013D01*
X50141Y-34921D01*
X50071Y-34851D01*
X49979Y-34813D01*
X49845Y-34813D01*
X49783Y-34876D01*
X49783Y-35250D01*
X50117Y-35250D01*
X50179Y-35187D01*
X50179Y-35113D01*
X50179Y-35486D01*
X50179Y-35412D01*
X50117Y-35350D01*
X49783Y-35350D01*
X49783Y-35723D01*
X49845Y-35786D01*
X49979Y-35786D01*
X50071Y-35748D01*
X50141Y-35678D01*
X50179Y-35586D01*
X50179Y-35486D01*
X50179Y-36350D01*
X49550Y-36350D01*
X49550Y-35786D01*
X49620Y-35786D01*
X49683Y-35723D01*
X49683Y-35350D01*
X49675Y-35350D01*
X49675Y-35250D01*
X49683Y-35250D01*
X49683Y-34876D01*
X49620Y-34813D01*
X49550Y-34813D01*
X49550Y-34520D01*
X50550Y-33520D01*
X50550Y-28550D01*
X54850Y-28550D01*
X54850Y-33850D01*
G54D10*
G36*
X55150Y-38698D02*
X55032Y-38698D01*
X54981Y-38750D01*
X54858Y-38750D01*
X54807Y-38698D01*
X54650Y-38698D01*
X54650Y-37800D01*
X55150Y-37800D01*
X55150Y-38698D01*
X55150Y-38698D01*
G37*
G54D12*
X55150Y-38698D02*
X55032Y-38698D01*
X54981Y-38750D01*
X54858Y-38750D01*
X54807Y-38698D01*
X54650Y-38698D01*
X54650Y-37800D01*
X55150Y-37800D01*
X55150Y-38698D01*
G54D10*
G36*
X51850Y-39400D02*
X51450Y-39400D01*
X51450Y-39348D01*
X51451Y-39345D01*
X51451Y-39142D01*
X51450Y-39141D01*
X51450Y-38918D01*
X51451Y-38917D01*
X51451Y-38714D01*
X51450Y-38711D01*
X51450Y-38500D01*
X51850Y-38500D01*
X51850Y-38626D01*
X51826Y-38683D01*
X51826Y-38712D01*
X51850Y-38735D01*
X51850Y-38882D01*
X51840Y-38906D01*
X51826Y-38919D01*
X51826Y-38944D01*
X51826Y-38968D01*
X51840Y-38982D01*
X51850Y-39005D01*
X51850Y-39152D01*
X51826Y-39175D01*
X51826Y-39204D01*
X51850Y-39261D01*
X51850Y-39400D01*
X51850Y-39400D01*
G37*
G54D12*
X51850Y-39400D02*
X51450Y-39400D01*
X51450Y-39348D01*
X51451Y-39345D01*
X51451Y-39142D01*
X51450Y-39141D01*
X51450Y-38918D01*
X51451Y-38917D01*
X51451Y-38714D01*
X51450Y-38711D01*
X51450Y-38500D01*
X51850Y-38500D01*
X51850Y-38626D01*
X51826Y-38683D01*
X51826Y-38712D01*
X51850Y-38735D01*
X51850Y-38882D01*
X51840Y-38906D01*
X51826Y-38919D01*
X51826Y-38944D01*
X51826Y-38968D01*
X51840Y-38982D01*
X51850Y-39005D01*
X51850Y-39152D01*
X51826Y-39175D01*
X51826Y-39204D01*
X51850Y-39261D01*
X51850Y-39400D01*
G54D10*
G36*
X57100Y-40000D02*
X55950Y-40000D01*
X55950Y-39000D01*
X57100Y-39000D01*
X57100Y-40000D01*
X57100Y-40000D01*
G37*
G54D12*
X57100Y-40000D02*
X55950Y-40000D01*
X55950Y-39000D01*
X57100Y-39000D01*
X57100Y-40000D01*
G54D10*
G36*
X58100Y-32600D02*
X57100Y-32600D01*
X57100Y-31550D01*
X58100Y-31550D01*
X58100Y-32600D01*
X58100Y-32600D01*
G37*
G54D12*
X58100Y-32600D02*
X57100Y-32600D01*
X57100Y-31550D01*
X58100Y-31550D01*
X58100Y-32600D01*
G54D10*
G36*
X58900Y-33850D02*
X55900Y-33850D01*
X55900Y-33400D01*
X58900Y-33400D01*
X58900Y-33850D01*
X58900Y-33850D01*
G37*
G54D12*
X58900Y-33850D02*
X55900Y-33850D01*
X55900Y-33400D01*
X58900Y-33400D01*
X58900Y-33850D01*
G54D10*
G36*
X58950Y-37200D02*
X57550Y-37200D01*
X57550Y-36900D01*
X58950Y-36900D01*
X58950Y-37200D01*
X58950Y-37200D01*
G37*
G54D12*
X58950Y-37200D02*
X57550Y-37200D01*
X57550Y-36900D01*
X58950Y-36900D01*
X58950Y-37200D01*
G54D10*
G36*
X47250Y-38750D02*
X47086Y-38750D01*
X47086Y-38240D01*
X47086Y-38125D01*
X47023Y-38063D01*
X46650Y-38063D01*
X46650Y-38378D01*
X46712Y-38440D01*
X46786Y-38440D01*
X46886Y-38440D01*
X46978Y-38402D01*
X47048Y-38331D01*
X47086Y-38240D01*
X47086Y-38750D01*
X46550Y-38750D01*
X46550Y-38378D01*
X46550Y-38063D01*
X46176Y-38063D01*
X46113Y-38125D01*
X46113Y-38240D01*
X46151Y-38331D01*
X46221Y-38402D01*
X46313Y-38440D01*
X46413Y-38440D01*
X46487Y-38440D01*
X46550Y-38378D01*
X46550Y-38750D01*
X45950Y-38750D01*
X45950Y-37650D01*
X46196Y-37650D01*
X46151Y-37694D01*
X46113Y-37786D01*
X46113Y-37900D01*
X46176Y-37963D01*
X46550Y-37963D01*
X46550Y-37955D01*
X46650Y-37955D01*
X46650Y-37963D01*
X47023Y-37963D01*
X47086Y-37900D01*
X47086Y-37786D01*
X47048Y-37694D01*
X47003Y-37650D01*
X47250Y-37650D01*
X47250Y-38750D01*
X47250Y-38750D01*
G37*
G54D12*
X47250Y-38750D02*
X47086Y-38750D01*
X47086Y-38240D01*
X47086Y-38125D01*
X47023Y-38063D01*
X46650Y-38063D01*
X46650Y-38378D01*
X46712Y-38440D01*
X46786Y-38440D01*
X46886Y-38440D01*
X46978Y-38402D01*
X47048Y-38331D01*
X47086Y-38240D01*
X47086Y-38750D01*
X46550Y-38750D01*
X46550Y-38378D01*
X46550Y-38063D01*
X46176Y-38063D01*
X46113Y-38125D01*
X46113Y-38240D01*
X46151Y-38331D01*
X46221Y-38402D01*
X46313Y-38440D01*
X46413Y-38440D01*
X46487Y-38440D01*
X46550Y-38378D01*
X46550Y-38750D01*
X45950Y-38750D01*
X45950Y-37650D01*
X46196Y-37650D01*
X46151Y-37694D01*
X46113Y-37786D01*
X46113Y-37900D01*
X46176Y-37963D01*
X46550Y-37963D01*
X46550Y-37955D01*
X46650Y-37955D01*
X46650Y-37963D01*
X47023Y-37963D01*
X47086Y-37900D01*
X47086Y-37786D01*
X47048Y-37694D01*
X47003Y-37650D01*
X47250Y-37650D01*
X47250Y-38750D01*
G54D10*
G36*
X42850Y-49950D02*
X41550Y-49950D01*
X41550Y-48650D01*
X42850Y-48650D01*
X42850Y-49950D01*
X42850Y-49950D01*
G37*
G54D12*
X42850Y-49950D02*
X41550Y-49950D01*
X41550Y-48650D01*
X42850Y-48650D01*
X42850Y-49950D01*
G54D10*
G36*
X56900Y-49094D02*
X56850Y-49144D01*
X56850Y-49587D01*
X56857Y-49587D01*
X56857Y-49687D01*
X56850Y-49687D01*
X56850Y-49694D01*
X56750Y-49694D01*
X56750Y-49687D01*
X56750Y-49587D01*
X56750Y-49144D01*
X56687Y-49081D01*
X56731Y-49081D01*
X56645Y-49081D01*
X56645Y-48854D01*
X56645Y-48500D01*
X56645Y-48400D01*
X56645Y-48045D01*
X56583Y-47983D01*
X56419Y-47983D01*
X56327Y-48021D01*
X56257Y-48091D01*
X56219Y-48183D01*
X56219Y-48282D01*
X56219Y-48337D01*
X56281Y-48400D01*
X56645Y-48400D01*
X56645Y-48500D01*
X56281Y-48500D01*
X56219Y-48562D01*
X56219Y-48617D01*
X56219Y-48716D01*
X56257Y-48808D01*
X56327Y-48878D01*
X56419Y-48916D01*
X56583Y-48916D01*
X56645Y-48854D01*
X56645Y-49081D01*
X56631Y-49081D01*
X56540Y-49120D01*
X56469Y-49190D01*
X56431Y-49282D01*
X56431Y-49524D01*
X56494Y-49587D01*
X56750Y-49587D01*
X56750Y-49687D01*
X56494Y-49687D01*
X56431Y-49749D01*
X56431Y-49991D01*
X56469Y-50083D01*
X56536Y-50150D01*
X56450Y-50150D01*
X56450Y-51950D01*
X55550Y-51950D01*
X55550Y-48200D01*
X56100Y-48200D01*
X56100Y-45350D01*
X56700Y-45350D01*
X56700Y-48200D01*
X56745Y-48200D01*
X56745Y-48400D01*
X56753Y-48400D01*
X56753Y-48500D01*
X56745Y-48500D01*
X56745Y-48854D01*
X56808Y-48916D01*
X56900Y-48916D01*
X56900Y-49081D01*
X56868Y-49081D01*
X56900Y-49081D01*
X56900Y-49094D01*
X56900Y-49094D01*
G37*
G54D12*
X56900Y-49094D02*
X56850Y-49144D01*
X56850Y-49587D01*
X56857Y-49587D01*
X56857Y-49687D01*
X56850Y-49687D01*
X56850Y-49694D01*
X56750Y-49694D01*
X56750Y-49687D01*
X56750Y-49587D01*
X56750Y-49144D01*
X56687Y-49081D01*
X56731Y-49081D01*
X56645Y-49081D01*
X56645Y-48854D01*
X56645Y-48500D01*
X56645Y-48400D01*
X56645Y-48045D01*
X56583Y-47983D01*
X56419Y-47983D01*
X56327Y-48021D01*
X56257Y-48091D01*
X56219Y-48183D01*
X56219Y-48282D01*
X56219Y-48337D01*
X56281Y-48400D01*
X56645Y-48400D01*
X56645Y-48500D01*
X56281Y-48500D01*
X56219Y-48562D01*
X56219Y-48617D01*
X56219Y-48716D01*
X56257Y-48808D01*
X56327Y-48878D01*
X56419Y-48916D01*
X56583Y-48916D01*
X56645Y-48854D01*
X56645Y-49081D01*
X56631Y-49081D01*
X56540Y-49120D01*
X56469Y-49190D01*
X56431Y-49282D01*
X56431Y-49524D01*
X56494Y-49587D01*
X56750Y-49587D01*
X56750Y-49687D01*
X56494Y-49687D01*
X56431Y-49749D01*
X56431Y-49991D01*
X56469Y-50083D01*
X56536Y-50150D01*
X56450Y-50150D01*
X56450Y-51950D01*
X55550Y-51950D01*
X55550Y-48200D01*
X56100Y-48200D01*
X56100Y-45350D01*
X56700Y-45350D01*
X56700Y-48200D01*
X56745Y-48200D01*
X56745Y-48400D01*
X56753Y-48400D01*
X56753Y-48500D01*
X56745Y-48500D01*
X56745Y-48854D01*
X56808Y-48916D01*
X56900Y-48916D01*
X56900Y-49081D01*
X56868Y-49081D01*
X56900Y-49081D01*
X56900Y-49094D01*
M02*
